# MagicaVoxel @ Ephtracy

# group
o 

# material
mtllib mesa.mtl
usemtl palette

# normals
vn -1 0 0
vn 1 0 0
vn 0 0 1
vn 0 0 -1
vn 0 -1 0
vn 0 1 0

# texcoords
vt 0.970703 0.5
vt 0.974609 0.5
vt 0.978516 0.5
vt 0.982422 0.5
vt 0.986328 0.5

# verts
v -1.7 0 1.3
v -1.7 0 1.1
v -1.7 0 -0.7
v -1.7 0 -0.9
v -1.7 0.1 1.3
v -1.7 0.1 1.1
v -1.7 0.1 -0.7
v -1.7 0.1 -0.9
v -1.7 1 1.1
v -1.7 1 -0.7
v -1.7 1.1 1.3
v -1.7 1.1 -0.9
v -1.7 1.3 1.3
v -1.7 1.3 -0.9
v -1.7 1.4 1.3
v -1.7 1.4 -0.9
v -1.7 1.5 1.3
v -1.7 1.5 -0.9
v 1.5 0 1.3
v 1.5 0 1.1
v 1.5 0 -0.7
v 1.5 0 -0.9
v 1.5 0.1 1.3
v 1.5 0.1 1.1
v 1.5 0.1 -0.7
v 1.5 0.1 -0.9
v 1.5 1 1.3
v 1.5 1 1.1
v 1.5 1 -0.7
v 1.5 1 -0.9
v -1.5 0 1.3
v -1.5 0 1.1
v -1.5 0 -0.7
v -1.5 0 -0.9
v -1.5 0.1 1.3
v -1.5 0.1 1.1
v -1.5 0.1 -0.7
v -1.5 0.1 -0.9
v -1.5 1 1.3
v -1.5 1 1.1
v -1.5 1 -0.7
v -1.5 1 -0.9
v 1.7 0 1.3
v 1.7 0 1.1
v 1.7 0 -0.7
v 1.7 0 -0.9
v 1.7 0.1 1.3
v 1.7 0.1 1.1
v 1.7 0.1 -0.7
v 1.7 0.1 -0.9
v 1.7 1 1.1
v 1.7 1 -0.7
v 1.7 1.1 1.3
v 1.7 1.1 -0.9
v 1.7 1.3 1.3
v 1.7 1.3 -0.9
v 1.7 1.4 1.3
v 1.7 1.4 -0.9
v 1.7 1.5 1.3
v 1.7 1.5 -0.9
v -1.7 0 1.3
v -1.7 0.1 1.3
v -1.7 1.1 1.3
v -1.7 1.3 1.3
v -1.7 1.4 1.3
v -1.7 1.5 1.3
v -1.5 0 1.3
v -1.5 0.1 1.3
v -1.5 1 1.3
v 1.5 0 1.3
v 1.5 0.1 1.3
v 1.5 1 1.3
v 1.7 0 1.3
v 1.7 0.1 1.3
v 1.7 1.1 1.3
v 1.7 1.3 1.3
v 1.7 1.4 1.3
v 1.7 1.5 1.3
v -1.7 0 -0.7
v -1.7 0.1 -0.7
v -1.7 1 -0.7
v -1.5 0 -0.7
v -1.5 0.1 -0.7
v -1.5 1 -0.7
v 1.5 0 -0.7
v 1.5 0.1 -0.7
v 1.5 1 -0.7
v 1.7 0 -0.7
v 1.7 0.1 -0.7
v 1.7 1 -0.7
v -1.7 0 1.1
v -1.7 0.1 1.1
v -1.7 1 1.1
v -1.5 0 1.1
v -1.5 0.1 1.1
v -1.5 1 1.1
v 1.5 0 1.1
v 1.5 0.1 1.1
v 1.5 1 1.1
v 1.7 0 1.1
v 1.7 0.1 1.1
v 1.7 1 1.1
v -1.7 0 -0.9
v -1.7 0.1 -0.9
v -1.7 1.1 -0.9
v -1.7 1.3 -0.9
v -1.7 1.4 -0.9
v -1.7 1.5 -0.9
v -1.5 0 -0.9
v -1.5 0.1 -0.9
v -1.5 1 -0.9
v 1.5 0 -0.9
v 1.5 0.1 -0.9
v 1.5 1 -0.9
v 1.7 0 -0.9
v 1.7 0.1 -0.9
v 1.7 1.1 -0.9
v 1.7 1.3 -0.9
v 1.7 1.4 -0.9
v 1.7 1.5 -0.9
v -1.7 0 1.3
v -1.5 0 1.3
v 1.5 0 1.3
v 1.7 0 1.3
v -1.7 0 1.1
v -1.5 0 1.1
v 1.5 0 1.1
v 1.7 0 1.1
v -1.7 0 -0.7
v -1.5 0 -0.7
v 1.5 0 -0.7
v 1.7 0 -0.7
v -1.7 0 -0.9
v -1.5 0 -0.9
v 1.5 0 -0.9
v 1.7 0 -0.9
v -1.5 1 1.3
v 1.5 1 1.3
v -1.7 1 1.1
v -1.5 1 1.1
v 1.5 1 1.1
v 1.7 1 1.1
v -1.7 1 -0.7
v -1.5 1 -0.7
v 1.5 1 -0.7
v 1.7 1 -0.7
v -1.5 1 -0.9
v 1.5 1 -0.9
v -1.7 1.5 1.3
v 1.7 1.5 1.3
v -1.19209e-07 1.5 1.2
v 0.0999998 1.5 1.2
v 0.3 1.5 1.2
v 0.4 1.5 1.2
v 0.6 1.5 1.2
v 0.7 1.5 1.2
v 0.9 1.5 1.2
v 1 1.5 1.2
v 1.2 1.5 1.2
v 1.3 1.5 1.2
v 1.5 1.5 1.2
v 1.6 1.5 1.2
v -1.19209e-07 1.5 1.1
v 0.0999998 1.5 1.1
v 0.3 1.5 1.1
v 0.4 1.5 1.1
v 0.6 1.5 1.1
v 0.7 1.5 1.1
v 0.9 1.5 1.1
v 1 1.5 1.1
v 1.2 1.5 1.1
v 1.3 1.5 1.1
v 1.5 1.5 1.1
v 1.6 1.5 1.1
v -1.19209e-07 1.5 0.9
v 0.0999998 1.5 0.9
v 0.3 1.5 0.9
v 0.4 1.5 0.9
v 0.6 1.5 0.9
v 0.7 1.5 0.9
v 0.9 1.5 0.9
v 1 1.5 0.9
v 1.2 1.5 0.9
v 1.3 1.5 0.9
v 1.5 1.5 0.9
v 1.6 1.5 0.9
v -1.19209e-07 1.5 0.8
v 0.0999998 1.5 0.8
v 0.3 1.5 0.8
v 0.4 1.5 0.8
v 0.6 1.5 0.8
v 0.7 1.5 0.8
v 0.9 1.5 0.8
v 1 1.5 0.8
v 1.2 1.5 0.8
v 1.3 1.5 0.8
v 1.5 1.5 0.8
v 1.6 1.5 0.8
v -1.19209e-07 1.5 0.6
v 0.0999998 1.5 0.6
v 0.3 1.5 0.6
v 0.4 1.5 0.6
v 0.6 1.5 0.6
v 0.7 1.5 0.6
v 0.9 1.5 0.6
v 1 1.5 0.6
v 1.2 1.5 0.6
v 1.3 1.5 0.6
v 1.5 1.5 0.6
v 1.6 1.5 0.6
v -1.19209e-07 1.5 0.5
v 0.0999998 1.5 0.5
v 0.3 1.5 0.5
v 0.4 1.5 0.5
v 0.6 1.5 0.5
v 0.7 1.5 0.5
v 0.9 1.5 0.5
v 1 1.5 0.5
v 1.2 1.5 0.5
v 1.3 1.5 0.5
v 1.5 1.5 0.5
v 1.6 1.5 0.5
v -1.19209e-07 1.5 0.3
v 0.0999998 1.5 0.3
v 0.3 1.5 0.3
v 0.4 1.5 0.3
v 0.6 1.5 0.3
v 0.7 1.5 0.3
v 0.9 1.5 0.3
v 1 1.5 0.3
v 1.2 1.5 0.3
v 1.3 1.5 0.3
v 1.5 1.5 0.3
v 1.6 1.5 0.3
v -1.19209e-07 1.5 0.2
v 0.0999998 1.5 0.2
v 0.3 1.5 0.2
v 0.4 1.5 0.2
v 0.6 1.5 0.2
v 0.7 1.5 0.2
v 0.9 1.5 0.2
v 1 1.5 0.2
v 1.2 1.5 0.2
v 1.3 1.5 0.2
v 1.5 1.5 0.2
v 1.6 1.5 0.2
v -1.19209e-07 1.5 0
v 0.0999998 1.5 0
v 0.3 1.5 0
v 0.4 1.5 0
v 0.6 1.5 0
v 0.7 1.5 0
v 0.9 1.5 0
v 1 1.5 0
v 1.2 1.5 0
v 1.3 1.5 0
v 1.5 1.5 0
v 1.6 1.5 0
v -1.19209e-07 1.5 -0.1
v 0.0999998 1.5 -0.1
v 0.3 1.5 -0.1
v 0.4 1.5 -0.1
v 0.6 1.5 -0.1
v 0.7 1.5 -0.1
v 0.9 1.5 -0.1
v 1 1.5 -0.1
v 1.2 1.5 -0.1
v 1.3 1.5 -0.1
v 1.5 1.5 -0.1
v 1.6 1.5 -0.1
v -1.19209e-07 1.5 -0.3
v 0.0999998 1.5 -0.3
v 0.3 1.5 -0.3
v 0.4 1.5 -0.3
v 0.6 1.5 -0.3
v 0.7 1.5 -0.3
v 0.9 1.5 -0.3
v 1 1.5 -0.3
v 1.2 1.5 -0.3
v 1.3 1.5 -0.3
v 1.5 1.5 -0.3
v 1.6 1.5 -0.3
v -1.19209e-07 1.5 -0.4
v 0.0999998 1.5 -0.4
v 0.3 1.5 -0.4
v 0.4 1.5 -0.4
v 0.6 1.5 -0.4
v 0.7 1.5 -0.4
v 0.9 1.5 -0.4
v 1 1.5 -0.4
v 1.2 1.5 -0.4
v 1.3 1.5 -0.4
v 1.5 1.5 -0.4
v 1.6 1.5 -0.4
v -1.19209e-07 1.5 -0.6
v 0.0999998 1.5 -0.6
v 0.3 1.5 -0.6
v 0.4 1.5 -0.6
v 0.6 1.5 -0.6
v 0.7 1.5 -0.6
v 0.9 1.5 -0.6
v 1 1.5 -0.6
v 1.2 1.5 -0.6
v 1.3 1.5 -0.6
v 1.5 1.5 -0.6
v 1.6 1.5 -0.6
v -1.19209e-07 1.5 -0.7
v 0.0999998 1.5 -0.7
v 0.3 1.5 -0.7
v 0.4 1.5 -0.7
v 0.6 1.5 -0.7
v 0.7 1.5 -0.7
v 0.9 1.5 -0.7
v 1 1.5 -0.7
v 1.2 1.5 -0.7
v 1.3 1.5 -0.7
v 1.5 1.5 -0.7
v 1.6 1.5 -0.7
v -1.7 1.5 -0.9
v 1.7 1.5 -0.9

# faces
f 5/1/1 2/1/1 1/1/1
f 6/1/1 2/1/1 5/1/1
f 7/1/1 4/1/1 3/1/1
f 8/1/1 4/1/1 7/1/1
f 9/2/1 6/2/1 5/2/1
f 10/2/1 8/2/1 7/2/1
f 11/2/1 9/2/1 5/2/1
f 11/2/1 10/2/1 9/2/1
f 12/2/1 8/2/1 10/2/1
f 12/2/1 10/2/1 11/2/1
f 13/3/1 12/3/1 11/3/1
f 14/3/1 12/3/1 13/3/1
f 15/2/1 14/2/1 13/2/1
f 16/2/1 14/2/1 15/2/1
f 17/4/1 16/4/1 15/4/1
f 18/4/1 16/4/1 17/4/1
f 23/1/1 20/1/1 19/1/1
f 24/1/1 20/1/1 23/1/1
f 25/1/1 22/1/1 21/1/1
f 26/1/1 22/1/1 25/1/1
f 27/2/1 24/2/1 23/2/1
f 28/2/1 24/2/1 27/2/1
f 29/2/1 26/2/1 25/2/1
f 30/2/1 26/2/1 29/2/1
f 31/1/2 32/1/2 35/1/2
f 35/1/2 32/1/2 36/1/2
f 33/1/2 34/1/2 37/1/2
f 37/1/2 34/1/2 38/1/2
f 35/2/2 36/2/2 39/2/2
f 39/2/2 36/2/2 40/2/2
f 37/2/2 38/2/2 41/2/2
f 41/2/2 38/2/2 42/2/2
f 43/1/2 44/1/2 47/1/2
f 47/1/2 44/1/2 48/1/2
f 45/1/2 46/1/2 49/1/2
f 49/1/2 46/1/2 50/1/2
f 47/2/2 48/2/2 51/2/2
f 49/2/2 50/2/2 52/2/2
f 47/2/2 51/2/2 53/2/2
f 51/2/2 52/2/2 53/2/2
f 52/2/2 50/2/2 54/2/2
f 53/2/2 52/2/2 54/2/2
f 53/3/2 54/3/2 55/3/2
f 55/3/2 54/3/2 56/3/2
f 55/2/2 56/2/2 57/2/2
f 57/2/2 56/2/2 58/2/2
f 57/4/2 58/4/2 59/4/2
f 59/4/2 58/4/2 60/4/2
f 67/1/3 62/1/3 61/1/3
f 68/2/3 63/2/3 62/2/3
f 68/1/3 62/1/3 67/1/3
f 69/2/3 63/2/3 68/2/3
f 72/2/3 63/2/3 69/2/3
f 73/1/3 71/1/3 70/1/3
f 74/2/3 72/2/3 71/2/3
f 74/1/3 71/1/3 73/1/3
f 75/3/3 64/3/3 63/3/3
f 75/2/3 72/2/3 74/2/3
f 75/2/3 63/2/3 72/2/3
f 76/2/3 65/2/3 64/2/3
f 76/3/3 64/3/3 75/3/3
f 77/4/3 66/4/3 65/4/3
f 77/2/3 65/2/3 76/2/3
f 78/4/3 66/4/3 77/4/3
f 82/1/3 80/1/3 79/1/3
f 83/2/3 81/2/3 80/2/3
f 83/1/3 80/1/3 82/1/3
f 84/2/3 81/2/3 83/2/3
f 88/1/3 86/1/3 85/1/3
f 89/2/3 87/2/3 86/2/3
f 89/1/3 86/1/3 88/1/3
f 90/2/3 87/2/3 89/2/3
f 91/1/4 92/1/4 94/1/4
f 92/2/4 93/2/4 95/2/4
f 94/1/4 92/1/4 95/1/4
f 95/2/4 93/2/4 96/2/4
f 97/1/4 98/1/4 100/1/4
f 98/2/4 99/2/4 101/2/4
f 100/1/4 98/1/4 101/1/4
f 101/2/4 99/2/4 102/2/4
f 103/1/4 104/1/4 109/1/4
f 104/2/4 105/2/4 110/2/4
f 109/1/4 104/1/4 110/1/4
f 110/2/4 105/2/4 111/2/4
f 111/2/4 105/2/4 114/2/4
f 112/1/4 113/1/4 115/1/4
f 113/2/4 114/2/4 116/2/4
f 115/1/4 113/1/4 116/1/4
f 105/3/4 106/3/4 117/3/4
f 116/2/4 114/2/4 117/2/4
f 114/2/4 105/2/4 117/2/4
f 106/2/4 107/2/4 118/2/4
f 117/3/4 106/3/4 118/3/4
f 107/4/4 108/4/4 119/4/4
f 118/2/4 107/2/4 119/2/4
f 119/4/4 108/4/4 120/4/4
f 125/1/5 122/1/5 121/1/5
f 126/1/5 122/1/5 125/1/5
f 127/1/5 124/1/5 123/1/5
f 128/1/5 124/1/5 127/1/5
f 133/1/5 130/1/5 129/1/5
f 134/1/5 130/1/5 133/1/5
f 135/1/5 132/1/5 131/1/5
f 136/1/5 132/1/5 135/1/5
f 140/2/5 138/2/5 137/2/5
f 141/2/5 138/2/5 140/2/5
f 143/2/5 140/2/5 139/2/5
f 143/2/5 142/2/5 141/2/5
f 143/2/5 141/2/5 140/2/5
f 144/2/5 142/2/5 143/2/5
f 145/2/5 142/2/5 144/2/5
f 146/2/5 142/2/5 145/2/5
f 147/2/5 145/2/5 144/2/5
f 148/2/5 145/2/5 147/2/5
f 149/4/6 150/4/6 151/4/6
f 151/4/6 150/4/6 152/4/6
f 152/4/6 150/4/6 153/4/6
f 153/4/6 150/4/6 154/4/6
f 154/4/6 150/4/6 155/4/6
f 155/4/6 150/4/6 156/4/6
f 156/4/6 150/4/6 157/4/6
f 157/4/6 150/4/6 158/4/6
f 158/4/6 150/4/6 159/4/6
f 159/4/6 150/4/6 160/4/6
f 160/4/6 150/4/6 161/4/6
f 161/4/6 150/4/6 162/4/6
f 149/4/6 151/4/6 163/4/6
f 151/5/6 152/5/6 163/5/6
f 152/4/6 153/4/6 164/4/6
f 163/5/6 152/5/6 164/5/6
f 153/5/6 154/5/6 165/5/6
f 164/4/6 153/4/6 165/4/6
f 154/4/6 155/4/6 166/4/6
f 165/5/6 154/5/6 166/5/6
f 155/5/6 156/5/6 167/5/6
f 166/4/6 155/4/6 167/4/6
f 156/4/6 157/4/6 168/4/6
f 167/5/6 156/5/6 168/5/6
f 157/5/6 158/5/6 169/5/6
f 168/4/6 157/4/6 169/4/6
f 158/4/6 159/4/6 170/4/6
f 169/5/6 158/5/6 170/5/6
f 159/5/6 160/5/6 171/5/6
f 170/4/6 159/4/6 171/4/6
f 160/4/6 161/4/6 172/4/6
f 171/5/6 160/5/6 172/5/6
f 161/5/6 162/5/6 173/5/6
f 172/4/6 161/4/6 173/4/6
f 162/4/6 150/4/6 174/4/6
f 173/5/6 162/5/6 174/5/6
f 172/4/6 173/4/6 175/4/6
f 171/4/6 172/4/6 175/4/6
f 173/4/6 174/4/6 175/4/6
f 170/4/6 171/4/6 175/4/6
f 169/4/6 170/4/6 175/4/6
f 168/4/6 169/4/6 175/4/6
f 167/4/6 168/4/6 175/4/6
f 166/4/6 167/4/6 175/4/6
f 165/4/6 166/4/6 175/4/6
f 164/4/6 165/4/6 175/4/6
f 163/4/6 164/4/6 175/4/6
f 149/4/6 163/4/6 175/4/6
f 175/4/6 174/4/6 176/4/6
f 176/4/6 174/4/6 177/4/6
f 177/4/6 174/4/6 178/4/6
f 178/4/6 174/4/6 179/4/6
f 179/4/6 174/4/6 180/4/6
f 180/4/6 174/4/6 181/4/6
f 181/4/6 174/4/6 182/4/6
f 182/4/6 174/4/6 183/4/6
f 183/4/6 174/4/6 184/4/6
f 184/4/6 174/4/6 185/4/6
f 174/4/6 150/4/6 186/4/6
f 185/4/6 174/4/6 186/4/6
f 149/4/6 175/4/6 187/4/6
f 175/5/6 176/5/6 187/5/6
f 176/4/6 177/4/6 188/4/6
f 187/5/6 176/5/6 188/5/6
f 177/5/6 178/5/6 189/5/6
f 188/4/6 177/4/6 189/4/6
f 178/4/6 179/4/6 190/4/6
f 189/5/6 178/5/6 190/5/6
f 179/5/6 180/5/6 191/5/6
f 190/4/6 179/4/6 191/4/6
f 180/4/6 181/4/6 192/4/6
f 191/5/6 180/5/6 192/5/6
f 181/5/6 182/5/6 193/5/6
f 192/4/6 181/4/6 193/4/6
f 182/4/6 183/4/6 194/4/6
f 193/5/6 182/5/6 194/5/6
f 183/5/6 184/5/6 195/5/6
f 194/4/6 183/4/6 195/4/6
f 184/4/6 185/4/6 196/4/6
f 195/5/6 184/5/6 196/5/6
f 185/5/6 186/5/6 197/5/6
f 196/4/6 185/4/6 197/4/6
f 186/4/6 150/4/6 198/4/6
f 197/5/6 186/5/6 198/5/6
f 194/4/6 195/4/6 199/4/6
f 196/4/6 197/4/6 199/4/6
f 197/4/6 198/4/6 199/4/6
f 193/4/6 194/4/6 199/4/6
f 192/4/6 193/4/6 199/4/6
f 191/4/6 192/4/6 199/4/6
f 190/4/6 191/4/6 199/4/6
f 189/4/6 190/4/6 199/4/6
f 188/4/6 189/4/6 199/4/6
f 187/4/6 188/4/6 199/4/6
f 149/4/6 187/4/6 199/4/6
f 195/4/6 196/4/6 199/4/6
f 199/4/6 198/4/6 200/4/6
f 200/4/6 198/4/6 201/4/6
f 201/4/6 198/4/6 202/4/6
f 202/4/6 198/4/6 203/4/6
f 203/4/6 198/4/6 204/4/6
f 204/4/6 198/4/6 205/4/6
f 205/4/6 198/4/6 206/4/6
f 206/4/6 198/4/6 207/4/6
f 207/4/6 198/4/6 208/4/6
f 208/4/6 198/4/6 209/4/6
f 198/4/6 150/4/6 210/4/6
f 209/4/6 198/4/6 210/4/6
f 149/4/6 199/4/6 211/4/6
f 199/5/6 200/5/6 211/5/6
f 200/4/6 201/4/6 212/4/6
f 211/5/6 200/5/6 212/5/6
f 201/5/6 202/5/6 213/5/6
f 212/4/6 201/4/6 213/4/6
f 202/4/6 203/4/6 214/4/6
f 213/5/6 202/5/6 214/5/6
f 203/5/6 204/5/6 215/5/6
f 214/4/6 203/4/6 215/4/6
f 204/4/6 205/4/6 216/4/6
f 215/5/6 204/5/6 216/5/6
f 205/5/6 206/5/6 217/5/6
f 216/4/6 205/4/6 217/4/6
f 206/4/6 207/4/6 218/4/6
f 217/5/6 206/5/6 218/5/6
f 207/5/6 208/5/6 219/5/6
f 218/4/6 207/4/6 219/4/6
f 208/4/6 209/4/6 220/4/6
f 219/5/6 208/5/6 220/5/6
f 209/5/6 210/5/6 221/5/6
f 220/4/6 209/4/6 221/4/6
f 210/4/6 150/4/6 222/4/6
f 221/5/6 210/5/6 222/5/6
f 218/4/6 219/4/6 223/4/6
f 220/4/6 221/4/6 223/4/6
f 221/4/6 222/4/6 223/4/6
f 217/4/6 218/4/6 223/4/6
f 216/4/6 217/4/6 223/4/6
f 215/4/6 216/4/6 223/4/6
f 214/4/6 215/4/6 223/4/6
f 213/4/6 214/4/6 223/4/6
f 212/4/6 213/4/6 223/4/6
f 211/4/6 212/4/6 223/4/6
f 149/4/6 211/4/6 223/4/6
f 219/4/6 220/4/6 223/4/6
f 223/4/6 222/4/6 224/4/6
f 224/4/6 222/4/6 225/4/6
f 225/4/6 222/4/6 226/4/6
f 226/4/6 222/4/6 227/4/6
f 227/4/6 222/4/6 228/4/6
f 228/4/6 222/4/6 229/4/6
f 229/4/6 222/4/6 230/4/6
f 230/4/6 222/4/6 231/4/6
f 231/4/6 222/4/6 232/4/6
f 232/4/6 222/4/6 233/4/6
f 222/4/6 150/4/6 234/4/6
f 233/4/6 222/4/6 234/4/6
f 149/4/6 223/4/6 235/4/6
f 223/5/6 224/5/6 235/5/6
f 224/4/6 225/4/6 236/4/6
f 235/5/6 224/5/6 236/5/6
f 225/5/6 226/5/6 237/5/6
f 236/4/6 225/4/6 237/4/6
f 226/4/6 227/4/6 238/4/6
f 237/5/6 226/5/6 238/5/6
f 227/5/6 228/5/6 239/5/6
f 238/4/6 227/4/6 239/4/6
f 228/4/6 229/4/6 240/4/6
f 239/5/6 228/5/6 240/5/6
f 229/5/6 230/5/6 241/5/6
f 240/4/6 229/4/6 241/4/6
f 230/4/6 231/4/6 242/4/6
f 241/5/6 230/5/6 242/5/6
f 231/5/6 232/5/6 243/5/6
f 242/4/6 231/4/6 243/4/6
f 232/4/6 233/4/6 244/4/6
f 243/5/6 232/5/6 244/5/6
f 233/5/6 234/5/6 245/5/6
f 244/4/6 233/4/6 245/4/6
f 234/4/6 150/4/6 246/4/6
f 245/5/6 234/5/6 246/5/6
f 242/4/6 243/4/6 247/4/6
f 244/4/6 245/4/6 247/4/6
f 245/4/6 246/4/6 247/4/6
f 241/4/6 242/4/6 247/4/6
f 240/4/6 241/4/6 247/4/6
f 239/4/6 240/4/6 247/4/6
f 238/4/6 239/4/6 247/4/6
f 237/4/6 238/4/6 247/4/6
f 236/4/6 237/4/6 247/4/6
f 235/4/6 236/4/6 247/4/6
f 149/4/6 235/4/6 247/4/6
f 243/4/6 244/4/6 247/4/6
f 247/4/6 246/4/6 248/4/6
f 248/4/6 246/4/6 249/4/6
f 249/4/6 246/4/6 250/4/6
f 250/4/6 246/4/6 251/4/6
f 251/4/6 246/4/6 252/4/6
f 252/4/6 246/4/6 253/4/6
f 253/4/6 246/4/6 254/4/6
f 254/4/6 246/4/6 255/4/6
f 255/4/6 246/4/6 256/4/6
f 256/4/6 246/4/6 257/4/6
f 246/4/6 150/4/6 258/4/6
f 257/4/6 246/4/6 258/4/6
f 149/4/6 247/4/6 259/4/6
f 247/5/6 248/5/6 259/5/6
f 248/4/6 249/4/6 260/4/6
f 259/5/6 248/5/6 260/5/6
f 249/5/6 250/5/6 261/5/6
f 260/4/6 249/4/6 261/4/6
f 250/4/6 251/4/6 262/4/6
f 261/5/6 250/5/6 262/5/6
f 251/5/6 252/5/6 263/5/6
f 262/4/6 251/4/6 263/4/6
f 252/4/6 253/4/6 264/4/6
f 263/5/6 252/5/6 264/5/6
f 253/5/6 254/5/6 265/5/6
f 264/4/6 253/4/6 265/4/6
f 254/4/6 255/4/6 266/4/6
f 265/5/6 254/5/6 266/5/6
f 255/5/6 256/5/6 267/5/6
f 266/4/6 255/4/6 267/4/6
f 256/4/6 257/4/6 268/4/6
f 267/5/6 256/5/6 268/5/6
f 257/5/6 258/5/6 269/5/6
f 268/4/6 257/4/6 269/4/6
f 258/4/6 150/4/6 270/4/6
f 269/5/6 258/5/6 270/5/6
f 266/4/6 267/4/6 271/4/6
f 268/4/6 269/4/6 271/4/6
f 269/4/6 270/4/6 271/4/6
f 265/4/6 266/4/6 271/4/6
f 264/4/6 265/4/6 271/4/6
f 263/4/6 264/4/6 271/4/6
f 262/4/6 263/4/6 271/4/6
f 261/4/6 262/4/6 271/4/6
f 260/4/6 261/4/6 271/4/6
f 259/4/6 260/4/6 271/4/6
f 149/4/6 259/4/6 271/4/6
f 267/4/6 268/4/6 271/4/6
f 271/4/6 270/4/6 272/4/6
f 272/4/6 270/4/6 273/4/6
f 273/4/6 270/4/6 274/4/6
f 274/4/6 270/4/6 275/4/6
f 275/4/6 270/4/6 276/4/6
f 276/4/6 270/4/6 277/4/6
f 277/4/6 270/4/6 278/4/6
f 278/4/6 270/4/6 279/4/6
f 279/4/6 270/4/6 280/4/6
f 280/4/6 270/4/6 281/4/6
f 270/4/6 150/4/6 282/4/6
f 281/4/6 270/4/6 282/4/6
f 149/4/6 271/4/6 283/4/6
f 271/5/6 272/5/6 283/5/6
f 272/4/6 273/4/6 284/4/6
f 283/5/6 272/5/6 284/5/6
f 273/5/6 274/5/6 285/5/6
f 284/4/6 273/4/6 285/4/6
f 274/4/6 275/4/6 286/4/6
f 285/5/6 274/5/6 286/5/6
f 275/5/6 276/5/6 287/5/6
f 286/4/6 275/4/6 287/4/6
f 276/4/6 277/4/6 288/4/6
f 287/5/6 276/5/6 288/5/6
f 277/5/6 278/5/6 289/5/6
f 288/4/6 277/4/6 289/4/6
f 278/4/6 279/4/6 290/4/6
f 289/5/6 278/5/6 290/5/6
f 279/5/6 280/5/6 291/5/6
f 290/4/6 279/4/6 291/4/6
f 280/4/6 281/4/6 292/4/6
f 291/5/6 280/5/6 292/5/6
f 281/5/6 282/5/6 293/5/6
f 292/4/6 281/4/6 293/4/6
f 282/4/6 150/4/6 294/4/6
f 293/5/6 282/5/6 294/5/6
f 290/4/6 291/4/6 295/4/6
f 292/4/6 293/4/6 295/4/6
f 293/4/6 294/4/6 295/4/6
f 289/4/6 290/4/6 295/4/6
f 288/4/6 289/4/6 295/4/6
f 287/4/6 288/4/6 295/4/6
f 286/4/6 287/4/6 295/4/6
f 285/4/6 286/4/6 295/4/6
f 284/4/6 285/4/6 295/4/6
f 283/4/6 284/4/6 295/4/6
f 149/4/6 283/4/6 295/4/6
f 291/4/6 292/4/6 295/4/6
f 295/4/6 294/4/6 296/4/6
f 296/4/6 294/4/6 297/4/6
f 297/4/6 294/4/6 298/4/6
f 298/4/6 294/4/6 299/4/6
f 299/4/6 294/4/6 300/4/6
f 300/4/6 294/4/6 301/4/6
f 301/4/6 294/4/6 302/4/6
f 302/4/6 294/4/6 303/4/6
f 303/4/6 294/4/6 304/4/6
f 304/4/6 294/4/6 305/4/6
f 294/4/6 150/4/6 306/4/6
f 305/4/6 294/4/6 306/4/6
f 149/4/6 295/4/6 307/4/6
f 295/5/6 296/5/6 307/5/6
f 296/4/6 297/4/6 308/4/6
f 307/5/6 296/5/6 308/5/6
f 297/5/6 298/5/6 309/5/6
f 308/4/6 297/4/6 309/4/6
f 298/4/6 299/4/6 310/4/6
f 309/5/6 298/5/6 310/5/6
f 299/5/6 300/5/6 311/5/6
f 310/4/6 299/4/6 311/4/6
f 300/4/6 301/4/6 312/4/6
f 311/5/6 300/5/6 312/5/6
f 301/5/6 302/5/6 313/5/6
f 312/4/6 301/4/6 313/4/6
f 302/4/6 303/4/6 314/4/6
f 313/5/6 302/5/6 314/5/6
f 303/5/6 304/5/6 315/5/6
f 314/4/6 303/4/6 315/4/6
f 304/4/6 305/4/6 316/4/6
f 315/5/6 304/5/6 316/5/6
f 305/5/6 306/5/6 317/5/6
f 316/4/6 305/4/6 317/4/6
f 306/4/6 150/4/6 318/4/6
f 317/5/6 306/5/6 318/5/6
f 314/4/6 315/4/6 319/4/6
f 316/4/6 317/4/6 319/4/6
f 317/4/6 318/4/6 319/4/6
f 313/4/6 314/4/6 319/4/6
f 312/4/6 313/4/6 319/4/6
f 311/4/6 312/4/6 319/4/6
f 310/4/6 311/4/6 319/4/6
f 309/4/6 310/4/6 319/4/6
f 308/4/6 309/4/6 319/4/6
f 307/4/6 308/4/6 319/4/6
f 149/4/6 307/4/6 319/4/6
f 315/4/6 316/4/6 319/4/6
f 318/4/6 150/4/6 320/4/6
f 319/4/6 318/4/6 320/4/6
