# MagicaVoxel @ Ephtracy

# group
o 

# material
mtllib Escrivaninha.mtl
usemtl palette

# normals
vn -1 0 0
vn 1 0 0
vn 0 0 1
vn 0 0 -1
vn 0 -1 0
vn 0 1 0

# texcoords
vt 0.830078 0.5
vt 0.958984 0.5
vt 0.966797 0.5
vt 0.974609 0.5

# verts
v -5.8 0 -0.1
v -5.8 0 -6.4
v -5.8 10.1 0.6
v -5.8 10.1 -0.1
v -5.8 10.7 0.6
v -5.8 10.7 -6.4
v 4.6 0 -0.1
v 4.6 0 -6.4
v 4.6 6.3 -6.2
v 4.6 6.3 -6.4
v 4.6 10.1 -0.1
v 4.6 10.1 -6.2
v 4.7 6.4 0.0999998
v 4.7 6.4 -0.1
v 4.7 8.3 0.0999998
v 4.7 8.3 -0.1
v 4.7 8.4 0.0999998
v 4.7 8.4 -0.1
v 4.7 10 0.0999998
v 4.7 10 -0.1
v 5.2 10.7 -1.8
v 5.2 10.7 -4.6
v 5.2 11.2 -1.8
v 5.2 11.2 -4.6
v 7.3 7.8 0.2
v 7.3 7.8 0.0999998
v 7.3 7.9 0.2
v 7.3 7.9 0.0999998
v 7.3 9.5 0.2
v 7.3 9.5 0.0999998
v 7.3 9.6 0.2
v 7.3 9.6 0.0999998
v 12.4 0 -0.1
v 12.4 0 -6.4
v 12.4 0.4 -0.1
v 12.4 0.4 -6.4
v 12.4 0.8 -0.1
v 12.4 0.8 -6.4
v 12.4 6.3 -0.1
v 12.4 6.3 -6.4
v -5.4 0 -0.1
v -5.4 0 -6.4
v -5.4 6.3 -6.2
v -5.4 6.3 -6.4
v -5.4 10.1 -0.1
v -5.4 10.1 -6.2
v 5 0 -0.1
v 5 0 -6.4
v 5 0.4 -0.1
v 5 0.4 -6.4
v 5 0.8 -0.1
v 5 0.8 -6.4
v 5 6.3 -0.1
v 5 6.3 -6.4
v 7.1 10.7 -2.6
v 7.1 10.7 -4.6
v 7.1 10.9 -2.6
v 7.1 10.9 -4.6
v 7.1 11 -2.6
v 7.1 11 -4.6
v 7.1 11.2 -2.6
v 7.1 11.2 -4.6
v 7.2 10.7 -1.8
v 7.2 10.7 -2.6
v 7.2 10.9 -1.8
v 7.2 10.9 -2.6
v 7.2 11 -1.8
v 7.2 11 -2.6
v 7.2 11.2 -1.8
v 7.2 11.2 -2.6
v 10 7.8 0.2
v 10 7.8 0.0999998
v 10 7.9 0.2
v 10 7.9 0.0999998
v 10 9.5 0.2
v 10 9.5 0.0999998
v 10 9.6 0.2
v 10 9.6 0.0999998
v 12.7 6.4 0.0999998
v 12.7 6.4 -0.1
v 12.7 8.3 0.0999998
v 12.7 8.3 -0.1
v 12.7 8.4 0.0999998
v 12.7 8.4 -0.1
v 12.7 10 0.0999998
v 12.7 10 -0.1
v 12.8 0 -0.1
v 12.8 0 -6.4
v 12.8 10.1 0.6
v 12.8 10.1 -0.1
v 12.8 10.7 0.6
v 12.8 10.7 -6.4
v -5.8 10.1 0.6
v -5.8 10.7 0.6
v 12.8 10.1 0.6
v 12.8 10.7 0.6
v 7.3 7.8 0.2
v 7.3 7.9 0.2
v 7.3 9.5 0.2
v 7.3 9.6 0.2
v 10 7.8 0.2
v 10 7.9 0.2
v 10 9.5 0.2
v 10 9.6 0.2
v 4.7 6.4 0.0999998
v 4.7 8.3 0.0999998
v 4.7 8.4 0.0999998
v 4.7 10 0.0999998
v 7.3 7.8 0.0999998
v 7.3 7.9 0.0999998
v 7.3 9.5 0.0999998
v 7.3 9.6 0.0999998
v 10 7.8 0.0999998
v 10 7.9 0.0999998
v 10 9.5 0.0999998
v 10 9.6 0.0999998
v 12.7 6.4 0.0999998
v 12.7 8.3 0.0999998
v 12.7 8.4 0.0999998
v 12.7 10 0.0999998
v -5.8 0 -0.1
v -5.8 10.1 -0.1
v -5.4 0 -0.1
v -5.4 10.1 -0.1
v 4.6 0 -0.1
v 4.6 10.1 -0.1
v 4.7 6.4 -0.1
v 4.7 8.3 -0.1
v 4.7 8.4 -0.1
v 4.7 10 -0.1
v 5 0 -0.1
v 5 0.4 -0.1
v 5 0.8 -0.1
v 5 6.3 -0.1
v 12.4 0 -0.1
v 12.4 0.4 -0.1
v 12.4 0.8 -0.1
v 12.4 6.3 -0.1
v 12.7 6.4 -0.1
v 12.7 8.3 -0.1
v 12.7 8.4 -0.1
v 12.7 10 -0.1
v 12.8 0 -0.1
v 12.8 10.1 -0.1
v 5.2 10.7 -1.8
v 5.2 11.2 -1.8
v 5.3 10.9 -1.8
v 5.3 11 -1.8
v 7.2 10.7 -1.8
v 7.2 10.9 -1.8
v 7.2 11 -1.8
v 7.2 11.2 -1.8
v -5.4 6.3 -6.2
v -5.4 10.1 -6.2
v 4.6 6.3 -6.2
v 4.6 10.1 -6.2
v 7.1 10.7 -2.6
v 7.1 10.9 -2.6
v 7.1 11 -2.6
v 7.1 11.2 -2.6
v 7.2 10.7 -2.6
v 7.2 10.9 -2.6
v 7.2 11 -2.6
v 7.2 11.2 -2.6
v 5.2 10.7 -4.6
v 5.2 11.2 -4.6
v 5.3 10.9 -4.6
v 5.3 11 -4.6
v 7.1 10.7 -4.6
v 7.1 10.9 -4.6
v 7.1 11 -4.6
v 7.1 11.2 -4.6
v -5.8 0 -6.4
v -5.8 10.7 -6.4
v -5.4 0 -6.4
v -5.4 6.3 -6.4
v 4.6 0 -6.4
v 4.6 6.3 -6.4
v 5 0 -6.4
v 5 0.4 -6.4
v 5 0.8 -6.4
v 5 6.3 -6.4
v 12.4 0 -6.4
v 12.4 0.4 -6.4
v 12.4 0.8 -6.4
v 12.4 6.3 -6.4
v 12.8 0 -6.4
v 12.8 10.7 -6.4
v -5.8 0 -0.1
v -5.4 0 -0.1
v 4.6 0 -0.1
v 5 0 -0.1
v 12.4 0 -0.1
v 12.8 0 -0.1
v -5.8 0 -6.4
v -5.4 0 -6.4
v 4.6 0 -6.4
v 5 0 -6.4
v 12.4 0 -6.4
v 12.8 0 -6.4
v 5 0.4 -0.1
v 12.4 0.4 -0.1
v 5 0.4 -6.4
v 12.4 0.4 -6.4
v 5 6.3 -0.1
v 12.4 6.3 -0.1
v -5.4 6.3 -6.2
v 4.6 6.3 -6.2
v -5.4 6.3 -6.4
v 4.6 6.3 -6.4
v 5 6.3 -6.4
v 12.4 6.3 -6.4
v 4.7 6.4 0.0999998
v 12.7 6.4 0.0999998
v 4.7 6.4 -0.1
v 12.7 6.4 -0.1
v 7.3 7.8 0.2
v 10 7.8 0.2
v 7.3 7.8 0.0999998
v 10 7.8 0.0999998
v 4.7 8.4 0.0999998
v 12.7 8.4 0.0999998
v 4.7 8.4 -0.1
v 12.7 8.4 -0.1
v 7.3 9.5 0.2
v 10 9.5 0.2
v 7.3 9.5 0.0999998
v 10 9.5 0.0999998
v -5.8 10.1 0.6
v 12.8 10.1 0.6
v -5.8 10.1 -0.1
v -5.4 10.1 -0.1
v 4.6 10.1 -0.1
v 12.8 10.1 -0.1
v -5.4 10.1 -6.2
v 4.6 10.1 -6.2
v 5 0.8 -0.1
v 12.4 0.8 -0.1
v 5 0.8 -6.4
v 12.4 0.8 -6.4
v 7.3 7.9 0.2
v 10 7.9 0.2
v 7.3 7.9 0.0999998
v 10 7.9 0.0999998
v 4.7 8.3 0.0999998
v 12.7 8.3 0.0999998
v 4.7 8.3 -0.1
v 12.7 8.3 -0.1
v 7.3 9.6 0.2
v 10 9.6 0.2
v 7.3 9.6 0.0999998
v 10 9.6 0.0999998
v 4.7 10 0.0999998
v 12.7 10 0.0999998
v 4.7 10 -0.1
v 12.7 10 -0.1
v -5.8 10.7 0.6
v 12.8 10.7 0.6
v 5.2 10.7 -1.8
v 7.2 10.7 -1.8
v 7.1 10.7 -2.6
v 7.2 10.7 -2.6
v 5.2 10.7 -4.6
v 7.1 10.7 -4.6
v -5.8 10.7 -6.4
v 12.8 10.7 -6.4
v 5.2 11.2 -1.8
v 7.2 11.2 -1.8
v 7.1 11.2 -2.6
v 7.2 11.2 -2.6
v 5.2 11.2 -4.6
v 7.1 11.2 -4.6

# faces
f 4/3/1 2/3/1 1/3/1
f 5/3/1 4/3/1 3/3/1
f 6/3/1 2/3/1 4/3/1
f 6/3/1 4/3/1 5/3/1
f 9/3/1 8/3/1 7/3/1
f 10/3/1 8/3/1 9/3/1
f 11/3/1 9/3/1 7/3/1
f 12/3/1 9/3/1 11/3/1
f 15/3/1 14/3/1 13/3/1
f 16/3/1 14/3/1 15/3/1
f 19/3/1 18/3/1 17/3/1
f 20/3/1 18/3/1 19/3/1
f 23/1/1 22/1/1 21/1/1
f 24/1/1 22/1/1 23/1/1
f 27/4/1 26/4/1 25/4/1
f 28/4/1 26/4/1 27/4/1
f 31/4/1 30/4/1 29/4/1
f 32/4/1 30/4/1 31/4/1
f 35/3/1 34/3/1 33/3/1
f 36/3/1 34/3/1 35/3/1
f 39/3/1 38/3/1 37/3/1
f 40/3/1 38/3/1 39/3/1
f 41/3/2 42/3/2 43/3/2
f 43/3/2 42/3/2 44/3/2
f 41/3/2 43/3/2 45/3/2
f 45/3/2 43/3/2 46/3/2
f 47/3/2 48/3/2 49/3/2
f 49/3/2 48/3/2 50/3/2
f 51/3/2 52/3/2 53/3/2
f 53/3/2 52/3/2 54/3/2
f 55/1/2 56/1/2 57/1/2
f 57/1/2 56/1/2 58/1/2
f 57/2/2 58/2/2 59/2/2
f 59/2/2 58/2/2 60/2/2
f 59/1/2 60/1/2 61/1/2
f 61/1/2 60/1/2 62/1/2
f 63/1/2 64/1/2 65/1/2
f 65/1/2 64/1/2 66/1/2
f 65/2/2 66/2/2 67/2/2
f 67/2/2 66/2/2 68/2/2
f 67/1/2 68/1/2 69/1/2
f 69/1/2 68/1/2 70/1/2
f 71/4/2 72/4/2 73/4/2
f 73/4/2 72/4/2 74/4/2
f 75/4/2 76/4/2 77/4/2
f 77/4/2 76/4/2 78/4/2
f 79/3/2 80/3/2 81/3/2
f 81/3/2 80/3/2 82/3/2
f 83/3/2 84/3/2 85/3/2
f 85/3/2 84/3/2 86/3/2
f 87/3/2 88/3/2 90/3/2
f 89/3/2 90/3/2 91/3/2
f 90/3/2 88/3/2 92/3/2
f 91/3/2 90/3/2 92/3/2
f 95/3/3 94/3/3 93/3/3
f 96/3/3 94/3/3 95/3/3
f 101/4/3 98/4/3 97/4/3
f 102/4/3 98/4/3 101/4/3
f 103/4/3 100/4/3 99/4/3
f 104/4/3 100/4/3 103/4/3
f 109/3/3 106/3/3 105/3/3
f 110/3/3 106/3/3 109/3/3
f 111/3/3 108/3/3 107/3/3
f 112/3/3 108/3/3 111/3/3
f 113/3/3 109/3/3 105/3/3
f 114/3/3 106/3/3 110/3/3
f 115/3/3 111/3/3 107/3/3
f 116/3/3 108/3/3 112/3/3
f 117/3/3 113/3/3 105/3/3
f 117/3/3 114/3/3 113/3/3
f 118/3/3 106/3/3 114/3/3
f 118/3/3 114/3/3 117/3/3
f 119/3/3 116/3/3 115/3/3
f 119/3/3 115/3/3 107/3/3
f 120/3/3 108/3/3 116/3/3
f 120/3/3 116/3/3 119/3/3
f 123/3/3 122/3/3 121/3/3
f 124/3/3 122/3/3 123/3/3
f 127/3/3 126/3/3 125/3/3
f 128/3/3 126/3/3 127/3/3
f 129/3/3 126/3/3 128/3/3
f 130/3/3 126/3/3 129/3/3
f 131/3/3 127/3/3 125/3/3
f 132/3/3 127/3/3 131/3/3
f 133/3/3 127/3/3 132/3/3
f 134/3/3 127/3/3 133/3/3
f 136/3/3 133/3/3 132/3/3
f 137/3/3 133/3/3 136/3/3
f 138/3/3 127/3/3 134/3/3
f 139/3/3 137/3/3 136/3/3
f 139/3/3 138/3/3 137/3/3
f 139/3/3 127/3/3 138/3/3
f 139/3/3 136/3/3 135/3/3
f 140/3/3 129/3/3 128/3/3
f 141/3/3 129/3/3 140/3/3
f 142/3/3 126/3/3 130/3/3
f 143/3/3 141/3/3 140/3/3
f 143/3/3 142/3/3 141/3/3
f 143/3/3 139/3/3 135/3/3
f 143/3/3 140/3/3 139/3/3
f 144/3/3 126/3/3 142/3/3
f 144/3/3 142/3/3 143/3/3
f 147/1/3 146/1/3 145/1/3
f 148/1/3 146/1/3 147/1/3
f 149/1/3 147/1/3 145/1/3
f 150/2/3 148/2/3 147/2/3
f 150/1/3 147/1/3 149/1/3
f 151/1/3 146/1/3 148/1/3
f 151/2/3 148/2/3 150/2/3
f 152/1/3 146/1/3 151/1/3
f 155/3/3 154/3/3 153/3/3
f 156/3/3 154/3/3 155/3/3
f 157/1/4 158/1/4 161/1/4
f 158/2/4 159/2/4 162/2/4
f 161/1/4 158/1/4 162/1/4
f 159/1/4 160/1/4 163/1/4
f 162/2/4 159/2/4 163/2/4
f 163/1/4 160/1/4 164/1/4
f 165/1/4 166/1/4 167/1/4
f 167/1/4 166/1/4 168/1/4
f 165/1/4 167/1/4 169/1/4
f 167/2/4 168/2/4 170/2/4
f 169/1/4 167/1/4 170/1/4
f 168/1/4 166/1/4 171/1/4
f 170/2/4 168/2/4 171/2/4
f 171/1/4 166/1/4 172/1/4
f 173/3/4 174/3/4 175/3/4
f 175/3/4 174/3/4 176/3/4
f 176/3/4 174/3/4 178/3/4
f 177/3/4 178/3/4 179/3/4
f 179/3/4 178/3/4 180/3/4
f 180/3/4 178/3/4 181/3/4
f 178/3/4 174/3/4 182/3/4
f 181/3/4 178/3/4 182/3/4
f 180/3/4 181/3/4 184/3/4
f 184/3/4 181/3/4 185/3/4
f 182/3/4 174/3/4 186/3/4
f 184/3/4 185/3/4 187/3/4
f 185/3/4 186/3/4 187/3/4
f 183/3/4 184/3/4 187/3/4
f 186/3/4 174/3/4 188/3/4
f 187/3/4 186/3/4 188/3/4
f 195/3/5 190/3/5 189/3/5
f 196/3/5 190/3/5 195/3/5
f 197/3/5 192/3/5 191/3/5
f 198/3/5 192/3/5 197/3/5
f 199/3/5 194/3/5 193/3/5
f 200/3/5 194/3/5 199/3/5
f 203/3/5 202/3/5 201/3/5
f 204/3/5 202/3/5 203/3/5
f 209/3/5 208/3/5 207/3/5
f 210/3/5 208/3/5 209/3/5
f 211/3/5 206/3/5 205/3/5
f 212/3/5 206/3/5 211/3/5
f 215/3/5 214/3/5 213/3/5
f 216/3/5 214/3/5 215/3/5
f 219/4/5 218/4/5 217/4/5
f 220/4/5 218/4/5 219/4/5
f 223/3/5 222/3/5 221/3/5
f 224/3/5 222/3/5 223/3/5
f 227/4/5 226/4/5 225/4/5
f 228/4/5 226/4/5 227/4/5
f 231/3/5 230/3/5 229/3/5
f 232/3/5 230/3/5 231/3/5
f 233/3/5 230/3/5 232/3/5
f 234/3/5 230/3/5 233/3/5
f 235/3/5 233/3/5 232/3/5
f 236/3/5 233/3/5 235/3/5
f 237/3/6 238/3/6 239/3/6
f 239/3/6 238/3/6 240/3/6
f 241/4/6 242/4/6 243/4/6
f 243/4/6 242/4/6 244/4/6
f 245/3/6 246/3/6 247/3/6
f 247/3/6 246/3/6 248/3/6
f 249/4/6 250/4/6 251/4/6
f 251/4/6 250/4/6 252/4/6
f 253/3/6 254/3/6 255/3/6
f 255/3/6 254/3/6 256/3/6
f 257/3/6 258/3/6 259/3/6
f 259/3/6 258/3/6 260/3/6
f 260/3/6 258/3/6 262/3/6
f 257/3/6 259/3/6 263/3/6
f 261/3/6 262/3/6 264/3/6
f 257/3/6 263/3/6 265/3/6
f 263/3/6 264/3/6 265/3/6
f 264/3/6 262/3/6 266/3/6
f 265/3/6 264/3/6 266/3/6
f 262/3/6 258/3/6 266/3/6
f 267/1/6 268/1/6 269/1/6
f 269/1/6 268/1/6 270/1/6
f 267/1/6 269/1/6 271/1/6
f 271/1/6 269/1/6 272/1/6
