# MagicaVoxel @ Ephtracy

# group
o 

# material
mtllib PrateleiraHospital.mtl
usemtl palette

# normals
vn -1 0 0
vn 1 0 0
vn 0 0 1
vn 0 0 -1
vn 0 -1 0
vn 0 1 0

# texcoords
vt 0.755859 0.5
vt 0.853516 0.5
vt 0.958984 0.5
vt 0.962891 0.5
vt 0.970703 0.5
vt 0.978516 0.5

# verts
v -6.4 0 -0.9
v -6.4 0 -6.4
v -6.4 8.6 -0.9
v -6.4 8.6 -6.4
v -6 0.4 -0.9
v -6 0.4 -1
v -6 8.2 -0.9
v -6 8.2 -1
v -0.7 4.2 -0.7
v -0.7 4.2 -0.8
v -0.7 4.2 -0.9
v -0.7 4.7 -0.7
v -0.7 4.7 -0.8
v -0.7 4.7 -0.9
v -0.6 4.1 -0.7
v -0.6 4.1 -0.8
v -0.6 4.1 -0.9
v -0.6 4.2 -0.7
v -0.6 4.2 -0.8
v -0.6 4.2 -0.9
v -0.6 4.7 -0.7
v -0.6 4.7 -0.8
v -0.6 4.7 -0.9
v -0.6 4.8 -0.7
v -0.6 4.8 -0.8
v -0.6 4.8 -0.9
v 0.0999999 0.4 -0.9
v 0.0999999 0.4 -1
v 0.0999999 8.2 -0.9
v 0.0999999 8.2 -1
v 0.4 4.1 -0.7
v 0.4 4.1 -0.8
v 0.4 4.1 -0.9
v 0.4 4.2 -0.7
v 0.4 4.2 -0.8
v 0.4 4.2 -0.9
v 0.4 4.7 -0.7
v 0.4 4.7 -0.8
v 0.4 4.7 -0.9
v 0.4 4.8 -0.7
v 0.4 4.8 -0.8
v 0.4 4.8 -0.9
v 0.5 4.2 -0.7
v 0.5 4.2 -0.8
v 0.5 4.2 -0.9
v 0.5 4.3 -0.7
v 0.5 4.3 -0.8
v 0.5 4.3 -0.9
v 0.5 4.6 -0.7
v 0.5 4.6 -0.8
v 0.5 4.6 -0.9
v 0.5 4.7 -0.7
v 0.5 4.7 -0.8
v 0.5 4.7 -0.9
v 0.6 4.3 -0.7
v 0.6 4.3 -0.8
v 0.6 4.3 -0.9
v 0.6 4.6 -0.7
v 0.6 4.6 -0.8
v 0.6 4.6 -0.9
v 6.1 0.3 -0.9
v 6.1 0.3 -1
v 6.1 8.3 -0.9
v 6.1 8.3 -1
v -6.1 0.3 -0.9
v -6.1 0.3 -1
v -6.1 8.3 -0.9
v -6.1 8.3 -1
v -0.6 4.3 -0.7
v -0.6 4.3 -0.8
v -0.6 4.3 -0.9
v -0.6 4.6 -0.7
v -0.6 4.6 -0.8
v -0.6 4.6 -0.9
v -0.5 4.2 -0.7
v -0.5 4.2 -0.8
v -0.5 4.2 -0.9
v -0.5 4.3 -0.7
v -0.5 4.3 -0.8
v -0.5 4.3 -0.9
v -0.5 4.6 -0.7
v -0.5 4.6 -0.8
v -0.5 4.6 -0.9
v -0.5 4.7 -0.7
v -0.5 4.7 -0.8
v -0.5 4.7 -0.9
v -0.4 4.1 -0.7
v -0.4 4.1 -0.8
v -0.4 4.1 -0.9
v -0.4 4.2 -0.7
v -0.4 4.2 -0.8
v -0.4 4.2 -0.9
v -0.4 4.7 -0.7
v -0.4 4.7 -0.8
v -0.4 4.7 -0.9
v -0.4 4.8 -0.7
v -0.4 4.8 -0.8
v -0.4 4.8 -0.9
v -0.0999999 0.4 -0.9
v -0.0999999 0.4 -1
v -0.0999999 8.2 -0.9
v -0.0999999 8.2 -1
v 0.6 4.1 -0.7
v 0.6 4.1 -0.8
v 0.6 4.1 -0.9
v 0.6 4.2 -0.7
v 0.6 4.2 -0.8
v 0.6 4.2 -0.9
v 0.6 4.7 -0.7
v 0.6 4.7 -0.8
v 0.6 4.7 -0.9
v 0.6 4.8 -0.7
v 0.6 4.8 -0.8
v 0.6 4.8 -0.9
v 0.7 4.2 -0.7
v 0.7 4.2 -0.8
v 0.7 4.2 -0.9
v 0.7 4.7 -0.7
v 0.7 4.7 -0.8
v 0.7 4.7 -0.9
v 6 0.4 -0.9
v 6 0.4 -1
v 6 8.2 -0.9
v 6 8.2 -1
v 6.4 0 -0.9
v 6.4 0 -6.4
v 6.4 8.6 -0.9
v 6.4 8.6 -6.4
v -0.7 4.2 -0.7
v -0.7 4.7 -0.7
v -0.6 4.1 -0.7
v -0.6 4.2 -0.7
v -0.6 4.3 -0.7
v -0.6 4.6 -0.7
v -0.6 4.7 -0.7
v -0.6 4.8 -0.7
v -0.5 4.2 -0.7
v -0.5 4.3 -0.7
v -0.5 4.6 -0.7
v -0.5 4.7 -0.7
v -0.4 4.1 -0.7
v -0.4 4.2 -0.7
v -0.4 4.7 -0.7
v -0.4 4.8 -0.7
v 0.4 4.1 -0.7
v 0.4 4.2 -0.7
v 0.4 4.7 -0.7
v 0.4 4.8 -0.7
v 0.5 4.2 -0.7
v 0.5 4.3 -0.7
v 0.5 4.6 -0.7
v 0.5 4.7 -0.7
v 0.6 4.1 -0.7
v 0.6 4.2 -0.7
v 0.6 4.3 -0.7
v 0.6 4.6 -0.7
v 0.6 4.7 -0.7
v 0.6 4.8 -0.7
v 0.7 4.2 -0.7
v 0.7 4.7 -0.7
v -6.4 0 -0.9
v -6.4 8.6 -0.9
v -6.1 0.3 -0.9
v -6.1 8.3 -0.9
v -6 0.4 -0.9
v -6 8.2 -0.9
v -5.8 7.5 -0.9
v -5.8 7.6 -0.9
v -5.5 7.2 -0.9
v -5.5 7.5 -0.9
v -5.5 7.6 -0.9
v -5.5 7.9 -0.9
v -5.4 7.2 -0.9
v -5.4 7.5 -0.9
v -5.4 7.6 -0.9
v -5.4 7.9 -0.9
v -5.1 7.5 -0.9
v -5.1 7.6 -0.9
v -0.7 4.2 -0.9
v -0.7 4.7 -0.9
v -0.6 4.1 -0.9
v -0.6 4.2 -0.9
v -0.6 4.3 -0.9
v -0.6 4.6 -0.9
v -0.6 4.7 -0.9
v -0.6 4.8 -0.9
v -0.5 4.2 -0.9
v -0.5 4.3 -0.9
v -0.5 4.6 -0.9
v -0.5 4.7 -0.9
v -0.4 4.1 -0.9
v -0.4 4.2 -0.9
v -0.4 4.7 -0.9
v -0.4 4.8 -0.9
v -0.0999999 0.4 -0.9
v -0.0999999 8.2 -0.9
v 0.0999999 0.4 -0.9
v 0.0999999 8.2 -0.9
v 0.4 4.1 -0.9
v 0.4 4.2 -0.9
v 0.4 4.7 -0.9
v 0.4 4.8 -0.9
v 0.5 4.2 -0.9
v 0.5 4.3 -0.9
v 0.5 4.6 -0.9
v 0.5 4.7 -0.9
v 0.6 4.1 -0.9
v 0.6 4.2 -0.9
v 0.6 4.3 -0.9
v 0.6 4.6 -0.9
v 0.6 4.7 -0.9
v 0.6 4.8 -0.9
v 0.7 4.2 -0.9
v 0.7 4.7 -0.9
v 5.1 7.5 -0.9
v 5.1 7.6 -0.9
v 5.4 7.2 -0.9
v 5.4 7.5 -0.9
v 5.4 7.6 -0.9
v 5.4 7.9 -0.9
v 5.5 7.2 -0.9
v 5.5 7.5 -0.9
v 5.5 7.6 -0.9
v 5.5 7.9 -0.9
v 5.8 7.5 -0.9
v 5.8 7.6 -0.9
v 6 0.4 -0.9
v 6 8.2 -0.9
v 6.1 0.3 -0.9
v 6.1 8.3 -0.9
v 6.4 0 -0.9
v 6.4 8.6 -0.9
v -6.1 0.3 -1
v -6.1 8.3 -1
v -6 0.4 -1
v -6 8.2 -1
v -0.0999999 0.4 -1
v -0.0999999 8.2 -1
v 0.0999999 0.4 -1
v 0.0999999 8.2 -1
v 6 0.4 -1
v 6 8.2 -1
v 6.1 0.3 -1
v 6.1 8.3 -1
v -6.4 0 -6.4
v -6.4 8.6 -6.4
v 6.4 0 -6.4
v 6.4 8.6 -6.4
v -6.4 0 -0.9
v 6.4 0 -0.9
v -6.4 0 -6.4
v 6.4 0 -6.4
v -6 0.4 -0.9
v -0.0999999 0.4 -0.9
v 0.0999999 0.4 -0.9
v 6 0.4 -0.9
v -6 0.4 -1
v -0.0999999 0.4 -1
v 0.0999999 0.4 -1
v 6 0.4 -1
v -0.6 4.1 -0.7
v -0.4 4.1 -0.7
v 0.4 4.1 -0.7
v 0.6 4.1 -0.7
v -0.6 4.1 -0.8
v -0.4 4.1 -0.8
v 0.4 4.1 -0.8
v 0.6 4.1 -0.8
v -0.6 4.1 -0.9
v -0.4 4.1 -0.9
v 0.4 4.1 -0.9
v 0.6 4.1 -0.9
v -0.7 4.2 -0.7
v -0.6 4.2 -0.7
v 0.6 4.2 -0.7
v 0.7 4.2 -0.7
v -0.7 4.2 -0.8
v -0.6 4.2 -0.8
v 0.6 4.2 -0.8
v 0.7 4.2 -0.8
v -0.7 4.2 -0.9
v -0.6 4.2 -0.9
v 0.6 4.2 -0.9
v 0.7 4.2 -0.9
v -0.6 4.6 -0.7
v -0.5 4.6 -0.7
v 0.5 4.6 -0.7
v 0.6 4.6 -0.7
v -0.6 4.6 -0.8
v -0.5 4.6 -0.8
v 0.5 4.6 -0.8
v 0.6 4.6 -0.8
v -0.6 4.6 -0.9
v -0.5 4.6 -0.9
v 0.5 4.6 -0.9
v 0.6 4.6 -0.9
v -0.5 4.7 -0.7
v -0.4 4.7 -0.7
v 0.4 4.7 -0.7
v 0.5 4.7 -0.7
v -0.5 4.7 -0.8
v -0.4 4.7 -0.8
v 0.4 4.7 -0.8
v 0.5 4.7 -0.8
v -0.5 4.7 -0.9
v -0.4 4.7 -0.9
v 0.4 4.7 -0.9
v 0.5 4.7 -0.9
v -6.1 8.3 -0.9
v 6.1 8.3 -0.9
v -6.1 8.3 -1
v 6.1 8.3 -1
v -6.1 0.3 -0.9
v 6.1 0.3 -0.9
v -6.1 0.3 -1
v 6.1 0.3 -1
v -0.5 4.2 -0.7
v -0.4 4.2 -0.7
v 0.4 4.2 -0.7
v 0.5 4.2 -0.7
v -0.5 4.2 -0.8
v -0.4 4.2 -0.8
v 0.4 4.2 -0.8
v 0.5 4.2 -0.8
v -0.5 4.2 -0.9
v -0.4 4.2 -0.9
v 0.4 4.2 -0.9
v 0.5 4.2 -0.9
v -0.6 4.3 -0.7
v -0.5 4.3 -0.7
v 0.5 4.3 -0.7
v 0.6 4.3 -0.7
v -0.6 4.3 -0.8
v -0.5 4.3 -0.8
v 0.5 4.3 -0.8
v 0.6 4.3 -0.8
v -0.6 4.3 -0.9
v -0.5 4.3 -0.9
v 0.5 4.3 -0.9
v 0.6 4.3 -0.9
v -0.7 4.7 -0.7
v -0.6 4.7 -0.7
v 0.6 4.7 -0.7
v 0.7 4.7 -0.7
v -0.7 4.7 -0.8
v -0.6 4.7 -0.8
v 0.6 4.7 -0.8
v 0.7 4.7 -0.8
v -0.7 4.7 -0.9
v -0.6 4.7 -0.9
v 0.6 4.7 -0.9
v 0.7 4.7 -0.9
v -0.6 4.8 -0.7
v -0.4 4.8 -0.7
v 0.4 4.8 -0.7
v 0.6 4.8 -0.7
v -0.6 4.8 -0.8
v -0.4 4.8 -0.8
v 0.4 4.8 -0.8
v 0.6 4.8 -0.8
v -0.6 4.8 -0.9
v -0.4 4.8 -0.9
v 0.4 4.8 -0.9
v 0.6 4.8 -0.9
v -6 8.2 -0.9
v -0.0999999 8.2 -0.9
v 0.0999999 8.2 -0.9
v 6 8.2 -0.9
v -6 8.2 -1
v -0.0999999 8.2 -1
v 0.0999999 8.2 -1
v 6 8.2 -1
v -6.4 8.6 -0.9
v 6.4 8.6 -0.9
v -6.4 8.6 -6.4
v 6.4 8.6 -6.4

# faces
f 3/1/1 2/1/1 1/1/1
f 4/1/1 2/1/1 3/1/1
f 7/5/1 6/5/1 5/5/1
f 8/5/1 6/5/1 7/5/1
f 12/3/1 10/3/1 9/3/1
f 13/6/1 11/6/1 10/6/1
f 13/3/1 10/3/1 12/3/1
f 14/6/1 11/6/1 13/6/1
f 18/3/1 16/3/1 15/3/1
f 19/6/1 17/6/1 16/6/1
f 19/3/1 16/3/1 18/3/1
f 20/6/1 17/6/1 19/6/1
f 24/3/1 22/3/1 21/3/1
f 25/6/1 23/6/1 22/6/1
f 25/3/1 22/3/1 24/3/1
f 26/6/1 23/6/1 25/6/1
f 29/5/1 28/5/1 27/5/1
f 30/5/1 28/5/1 29/5/1
f 34/3/1 32/3/1 31/3/1
f 35/6/1 33/6/1 32/6/1
f 35/3/1 32/3/1 34/3/1
f 36/6/1 33/6/1 35/6/1
f 40/3/1 38/3/1 37/3/1
f 41/6/1 39/6/1 38/6/1
f 41/3/1 38/3/1 40/3/1
f 42/6/1 39/6/1 41/6/1
f 46/3/1 44/3/1 43/3/1
f 47/6/1 45/6/1 44/6/1
f 47/3/1 44/3/1 46/3/1
f 48/6/1 45/6/1 47/6/1
f 52/3/1 50/3/1 49/3/1
f 53/6/1 51/6/1 50/6/1
f 53/3/1 50/3/1 52/3/1
f 54/6/1 51/6/1 53/6/1
f 58/3/1 56/3/1 55/3/1
f 59/6/1 57/6/1 56/6/1
f 59/3/1 56/3/1 58/3/1
f 60/6/1 57/6/1 59/6/1
f 63/1/1 62/1/1 61/1/1
f 64/1/1 62/1/1 63/1/1
f 65/1/2 66/1/2 67/1/2
f 67/1/2 66/1/2 68/1/2
f 69/3/2 70/3/2 72/3/2
f 70/6/2 71/6/2 73/6/2
f 72/3/2 70/3/2 73/3/2
f 73/6/2 71/6/2 74/6/2
f 75/3/2 76/3/2 78/3/2
f 76/6/2 77/6/2 79/6/2
f 78/3/2 76/3/2 79/3/2
f 79/6/2 77/6/2 80/6/2
f 81/3/2 82/3/2 84/3/2
f 82/6/2 83/6/2 85/6/2
f 84/3/2 82/3/2 85/3/2
f 85/6/2 83/6/2 86/6/2
f 87/3/2 88/3/2 90/3/2
f 88/6/2 89/6/2 91/6/2
f 90/3/2 88/3/2 91/3/2
f 91/6/2 89/6/2 92/6/2
f 93/3/2 94/3/2 96/3/2
f 94/6/2 95/6/2 97/6/2
f 96/3/2 94/3/2 97/3/2
f 97/6/2 95/6/2 98/6/2
f 99/5/2 100/5/2 101/5/2
f 101/5/2 100/5/2 102/5/2
f 103/3/2 104/3/2 106/3/2
f 104/6/2 105/6/2 107/6/2
f 106/3/2 104/3/2 107/3/2
f 107/6/2 105/6/2 108/6/2
f 109/3/2 110/3/2 112/3/2
f 110/6/2 111/6/2 113/6/2
f 112/3/2 110/3/2 113/3/2
f 113/6/2 111/6/2 114/6/2
f 115/3/2 116/3/2 118/3/2
f 116/6/2 117/6/2 119/6/2
f 118/3/2 116/3/2 119/3/2
f 119/6/2 117/6/2 120/6/2
f 121/5/2 122/5/2 123/5/2
f 123/5/2 122/5/2 124/5/2
f 125/1/2 126/1/2 127/1/2
f 127/1/2 126/1/2 128/1/2
f 132/3/3 130/3/3 129/3/3
f 133/3/3 130/3/3 132/3/3
f 134/3/3 130/3/3 133/3/3
f 135/3/3 130/3/3 134/3/3
f 137/3/3 132/3/3 131/3/3
f 137/3/3 133/3/3 132/3/3
f 138/3/3 133/3/3 137/3/3
f 139/3/3 136/3/3 135/3/3
f 139/3/3 135/3/3 134/3/3
f 140/3/3 136/3/3 139/3/3
f 141/3/3 137/3/3 131/3/3
f 142/3/3 137/3/3 141/3/3
f 143/3/3 136/3/3 140/3/3
f 144/3/3 136/3/3 143/3/3
f 149/3/3 146/3/3 145/3/3
f 152/3/3 148/3/3 147/3/3
f 153/3/3 150/3/3 149/3/3
f 153/3/3 149/3/3 145/3/3
f 154/3/3 150/3/3 153/3/3
f 155/3/3 150/3/3 154/3/3
f 156/3/3 152/3/3 151/3/3
f 157/3/3 148/3/3 152/3/3
f 157/3/3 152/3/3 156/3/3
f 158/3/3 148/3/3 157/3/3
f 159/3/3 155/3/3 154/3/3
f 159/3/3 156/3/3 155/3/3
f 159/3/3 157/3/3 156/3/3
f 160/3/3 157/3/3 159/3/3
f 163/1/3 162/1/3 161/1/3
f 164/1/3 162/1/3 163/1/3
f 167/5/3 166/5/3 165/5/3
f 168/5/3 166/5/3 167/5/3
f 169/5/3 167/5/3 165/5/3
f 170/2/3 168/2/3 167/2/3
f 170/5/3 167/5/3 169/5/3
f 171/5/3 166/5/3 168/5/3
f 171/2/3 168/2/3 170/2/3
f 172/5/3 166/5/3 171/5/3
f 173/2/3 170/2/3 169/2/3
f 173/5/3 169/5/3 165/5/3
f 173/2/3 172/2/3 171/2/3
f 173/2/3 171/2/3 170/2/3
f 174/2/3 172/2/3 173/2/3
f 175/2/3 172/2/3 174/2/3
f 176/5/3 166/5/3 172/5/3
f 176/2/3 172/2/3 175/2/3
f 177/2/3 175/2/3 174/2/3
f 177/5/3 174/5/3 173/5/3
f 178/5/3 176/5/3 175/5/3
f 178/2/3 175/2/3 177/2/3
f 179/5/3 173/5/3 165/5/3
f 179/5/3 177/5/3 173/5/3
f 179/5/3 178/5/3 177/5/3
f 180/5/3 178/5/3 179/5/3
f 181/5/3 179/5/3 165/5/3
f 182/5/3 179/5/3 181/5/3
f 185/5/3 178/5/3 180/5/3
f 186/5/3 178/5/3 185/5/3
f 188/5/3 184/5/3 183/5/3
f 189/5/3 184/5/3 188/5/3
f 191/5/3 181/5/3 165/5/3
f 192/5/3 190/5/3 189/5/3
f 192/5/3 188/5/3 187/5/3
f 192/5/3 189/5/3 188/5/3
f 193/5/3 190/5/3 192/5/3
f 194/5/3 178/5/3 186/5/3
f 195/5/3 191/5/3 165/5/3
f 195/5/3 194/5/3 193/5/3
f 195/5/3 193/5/3 192/5/3
f 195/5/3 192/5/3 191/5/3
f 196/5/3 166/5/3 176/5/3
f 196/5/3 194/5/3 195/5/3
f 196/5/3 176/5/3 178/5/3
f 196/5/3 178/5/3 194/5/3
f 199/5/3 198/5/3 197/5/3
f 200/5/3 198/5/3 199/5/3
f 201/5/3 198/5/3 200/5/3
f 202/5/3 198/5/3 201/5/3
f 203/5/3 201/5/3 200/5/3
f 204/5/3 201/5/3 203/5/3
f 205/5/3 201/5/3 204/5/3
f 206/5/3 201/5/3 205/5/3
f 207/5/3 199/5/3 197/5/3
f 209/5/3 205/5/3 204/5/3
f 210/5/3 205/5/3 209/5/3
f 212/5/3 198/5/3 202/5/3
f 213/5/3 208/5/3 207/5/3
f 214/5/3 212/5/3 211/5/3
f 215/5/3 198/5/3 212/5/3
f 215/5/3 214/5/3 213/5/3
f 215/5/3 212/5/3 214/5/3
f 216/5/3 198/5/3 215/5/3
f 217/5/3 215/5/3 213/5/3
f 218/2/3 216/2/3 215/2/3
f 218/5/3 215/5/3 217/5/3
f 219/5/3 198/5/3 216/5/3
f 219/2/3 216/2/3 218/2/3
f 220/5/3 198/5/3 219/5/3
f 221/2/3 218/2/3 217/2/3
f 221/5/3 217/5/3 213/5/3
f 221/2/3 220/2/3 219/2/3
f 221/2/3 219/2/3 218/2/3
f 222/2/3 220/2/3 221/2/3
f 223/2/3 220/2/3 222/2/3
f 224/5/3 198/5/3 220/5/3
f 224/2/3 220/2/3 223/2/3
f 225/2/3 223/2/3 222/2/3
f 225/5/3 222/5/3 221/5/3
f 226/5/3 224/5/3 223/5/3
f 226/2/3 223/2/3 225/2/3
f 227/5/3 213/5/3 207/5/3
f 227/5/3 207/5/3 197/5/3
f 227/5/3 226/5/3 225/5/3
f 227/5/3 225/5/3 221/5/3
f 227/5/3 221/5/3 213/5/3
f 228/5/3 224/5/3 226/5/3
f 228/5/3 226/5/3 227/5/3
f 228/5/3 198/5/3 224/5/3
f 229/1/3 163/1/3 161/1/3
f 230/1/3 162/1/3 164/1/3
f 231/1/3 229/1/3 161/1/3
f 231/1/3 230/1/3 229/1/3
f 232/1/3 162/1/3 230/1/3
f 232/1/3 230/1/3 231/1/3
f 235/6/3 234/6/3 233/6/3
f 236/6/3 234/6/3 235/6/3
f 237/6/3 235/6/3 233/6/3
f 238/6/3 234/6/3 236/6/3
f 239/6/3 237/6/3 233/6/3
f 239/6/3 238/6/3 237/6/3
f 240/6/3 234/6/3 238/6/3
f 240/6/3 238/6/3 239/6/3
f 241/6/3 239/6/3 233/6/3
f 242/6/3 234/6/3 240/6/3
f 243/6/3 241/6/3 233/6/3
f 243/6/3 242/6/3 241/6/3
f 244/6/3 234/6/3 242/6/3
f 244/6/3 242/6/3 243/6/3
f 245/1/4 246/1/4 247/1/4
f 247/1/4 246/1/4 248/1/4
f 251/1/5 250/1/5 249/1/5
f 252/1/5 250/1/5 251/1/5
f 257/5/5 254/5/5 253/5/5
f 258/5/5 254/5/5 257/5/5
f 259/5/5 256/5/5 255/5/5
f 260/5/5 256/5/5 259/5/5
f 265/3/5 262/3/5 261/3/5
f 266/3/5 262/3/5 265/3/5
f 267/3/5 264/3/5 263/3/5
f 268/3/5 264/3/5 267/3/5
f 269/6/5 266/6/5 265/6/5
f 270/6/5 266/6/5 269/6/5
f 271/6/5 268/6/5 267/6/5
f 272/6/5 268/6/5 271/6/5
f 277/3/5 274/3/5 273/3/5
f 278/3/5 274/3/5 277/3/5
f 279/3/5 276/3/5 275/3/5
f 280/3/5 276/3/5 279/3/5
f 281/6/5 278/6/5 277/6/5
f 282/6/5 278/6/5 281/6/5
f 283/6/5 280/6/5 279/6/5
f 284/6/5 280/6/5 283/6/5
f 289/3/5 286/3/5 285/3/5
f 290/3/5 286/3/5 289/3/5
f 291/3/5 288/3/5 287/3/5
f 292/3/5 288/3/5 291/3/5
f 293/6/5 290/6/5 289/6/5
f 294/6/5 290/6/5 293/6/5
f 295/6/5 292/6/5 291/6/5
f 296/6/5 292/6/5 295/6/5
f 301/3/5 298/3/5 297/3/5
f 302/3/5 298/3/5 301/3/5
f 303/3/5 300/3/5 299/3/5
f 304/3/5 300/3/5 303/3/5
f 305/6/5 302/6/5 301/6/5
f 306/6/5 302/6/5 305/6/5
f 307/6/5 304/6/5 303/6/5
f 308/6/5 304/6/5 307/6/5
f 311/1/5 310/1/5 309/1/5
f 312/1/5 310/1/5 311/1/5
f 313/1/6 314/1/6 315/1/6
f 315/1/6 314/1/6 316/1/6
f 317/3/6 318/3/6 321/3/6
f 321/3/6 318/3/6 322/3/6
f 319/3/6 320/3/6 323/3/6
f 323/3/6 320/3/6 324/3/6
f 321/6/6 322/6/6 325/6/6
f 325/6/6 322/6/6 326/6/6
f 323/6/6 324/6/6 327/6/6
f 327/6/6 324/6/6 328/6/6
f 329/3/6 330/3/6 333/3/6
f 333/3/6 330/3/6 334/3/6
f 331/3/6 332/3/6 335/3/6
f 335/3/6 332/3/6 336/3/6
f 333/6/6 334/6/6 337/6/6
f 337/6/6 334/6/6 338/6/6
f 335/6/6 336/6/6 339/6/6
f 339/6/6 336/6/6 340/6/6
f 341/3/6 342/3/6 345/3/6
f 345/3/6 342/3/6 346/3/6
f 343/3/6 344/3/6 347/3/6
f 347/3/6 344/3/6 348/3/6
f 345/6/6 346/6/6 349/6/6
f 349/6/6 346/6/6 350/6/6
f 347/6/6 348/6/6 351/6/6
f 351/6/6 348/6/6 352/6/6
f 353/3/6 354/3/6 357/3/6
f 357/3/6 354/3/6 358/3/6
f 355/3/6 356/3/6 359/3/6
f 359/3/6 356/3/6 360/3/6
f 357/6/6 358/6/6 361/6/6
f 361/6/6 358/6/6 362/6/6
f 359/6/6 360/6/6 363/6/6
f 363/6/6 360/6/6 364/6/6
f 365/5/6 366/5/6 369/5/6
f 369/5/6 366/5/6 370/5/6
f 367/5/6 368/5/6 371/5/6
f 371/5/6 368/5/6 372/5/6
f 373/1/6 374/1/6 375/1/6
f 375/1/6 374/1/6 376/1/6
