# MagicaVoxel @ Ephtracy

# group
o 

# material
mtllib livros1.mtl
usemtl palette

# normals
vn -1 0 0
vn 1 0 0
vn 0 0 1
vn 0 0 -1
vn 0 -1 0
vn 0 1 0

# texcoords
vt 0.939453 0.5
vt 0.943359 0.5
vt 0.947266 0.5
vt 0.951172 0.5
vt 0.955078 0.5
vt 0.958984 0.5
vt 0.970703 0.5
vt 0.974609 0.5
vt 0.978516 0.5
vt 0.982422 0.5
vt 0.986328 0.5
vt 0.990234 0.5
vt 0.994141 0.5

# verts
v -1.2 0 -0.2
v -1.2 0 -0.5
v -1.2 0 -0.9
v -1.2 0 -1.2
v -1.2 0.1 -0.3
v -1.2 0.1 -0.5
v -1.2 0.1 -0.9
v -1.2 0.1 -1.1
v -1.2 0.3 -0.2
v -1.2 0.3 -0.3
v -1.2 0.3 -1.1
v -1.2 0.3 -1.2
v -1.2 0.4 -0.7
v -1.2 0.4 -0.8
v -1.2 0.5 -0.6
v -1.2 0.5 -0.7
v -1.2 0.5 -0.8
v -1.2 0.5 -0.9
v -1.2 0.6 -0.5
v -1.2 0.6 -0.6
v -1.2 0.6 -0.7
v -1.2 0.6 -0.8
v -1.2 0.6 -0.9
v -1.2 0.6 -1
v -1.2 0.7 -0.4
v -1.2 0.7 -0.5
v -1.2 0.7 -0.6
v -1.2 0.7 -0.7
v -1.2 0.7 -0.8
v -1.2 0.7 -0.9
v -1.2 0.8 -0.5
v -1.2 0.8 -0.6
v -1.2 0.8 -0.9
v -1.2 0.8 -1
v -1.2 0.9 -0.4
v -1.2 0.9 -0.5
v -1.2 1 -0.2
v -1.2 1 -0.3
v -1.2 1 -1.1
v -1.2 1 -1.2
v -1.2 1.2 -0.3
v -1.2 1.2 -0.5
v -1.2 1.2 -0.9
v -1.2 1.2 -1.1
v -1.2 1.3 -0.2
v -1.2 1.3 -0.5
v -1.2 1.3 -0.9
v -1.2 1.3 -1.2
v 1.1 0 -0.2
v 1.1 0 -0.5
v 1.1 0 -1.2
v 1.1 0.2 -0.2
v 1.1 0.2 -0.4
v 1.1 0.2 -0.5
v 1.1 0.5 -0.2
v 1.1 0.5 -0.4
v 1.1 0.5 -0.5
v 1.1 0.5 -1.2
v 1.1 0.6 -0.2
v 1.1 0.6 -0.5
v 1.1 0.6 -1.2
v 1.1 0.7 -0.2
v 1.1 0.7 -0.4
v 1.1 0.7 -0.5
v 1.1 0.9 -0.2
v 1.1 0.9 -0.4
v 1.1 1.1 -0.2
v 1.1 1.1 -0.4
v 1.1 1.2 -0.2
v 1.1 1.2 -0.4
v 1.1 1.2 -0.5
v 1.1 1.2 -0.8
v 1.1 1.2 -0.9
v 1.1 1.2 -1.2
v 1.1 1.3 -0.2
v 1.1 1.3 -0.5
v 1.1 1.3 -0.8
v 1.1 1.3 -0.9
v 1.1 1.3 -1.2
v -1.2 0 -0.2
v -1.2 0.3 -0.2
v -1.2 1 -0.2
v -1.2 1.3 -0.2
v -1.1 0 -0.2
v -1.1 0.3 -0.2
v -1.1 1 -0.2
v -1.1 1.3 -0.2
v -1 0 -0.2
v -1 1.3 -0.2
v -0.9 0 -0.2
v -0.9 0.1 -0.2
v -0.9 1.2 -0.2
v -0.9 1.3 -0.2
v -0.8 0 -0.2
v -0.8 0.1 -0.2
v -0.8 0.6 -0.2
v -0.8 0.7 -0.2
v -0.8 0.8 -0.2
v -0.8 0.9 -0.2
v -0.8 1.2 -0.2
v -0.8 1.3 -0.2
v -0.6 0 -0.2
v -0.6 0.1 -0.2
v -0.6 0.6 -0.2
v -0.6 0.7 -0.2
v -0.6 0.8 -0.2
v -0.6 0.9 -0.2
v -0.6 1.3 -0.2
v -0.5 0 -0.2
v -0.5 0.1 -0.2
v -0.4 0 -0.2
v -0.4 0.1 -0.2
v -0.4 0.2 -0.2
v -0.4 0.3 -0.2
v -0.4 0.4 -0.2
v -0.4 0.5 -0.2
v -0.4 0.6 -0.2
v -0.4 0.7 -0.2
v -0.4 0.8 -0.2
v -0.4 0.9 -0.2
v -0.4 1 -0.2
v -0.4 1.3 -0.2
v -0.3 0 -0.2
v -0.3 0.1 -0.2
v -0.3 0.2 -0.2
v -0.3 0.3 -0.2
v -0.3 0.4 -0.2
v -0.3 0.5 -0.2
v -0.3 0.6 -0.2
v -0.3 0.7 -0.2
v -0.3 0.8 -0.2
v -0.3 0.9 -0.2
v -0.3 1 -0.2
v -0.3 1.1 -0.2
v -0.2 0 -0.2
v -0.2 0.1 -0.2
v -0.2 0.2 -0.2
v -0.2 0.3 -0.2
v -0.2 0.4 -0.2
v -0.2 0.5 -0.2
v -0.2 0.6 -0.2
v -0.2 0.7 -0.2
v -0.2 0.8 -0.2
v -0.2 0.9 -0.2
v -0.2 1 -0.2
v -0.2 1.1 -0.2
v -0.2 1.2 -0.2
v -0.2 1.3 -0.2
v -0.0999999 0.5 -0.2
v -0.0999999 0.6 -0.2
v 1.19209e-07 0.2 -0.2
v 1.19209e-07 0.5 -0.2
v 1.19209e-07 0.6 -0.2
v 1.19209e-07 1 -0.2
v 1.19209e-07 1.1 -0.2
v 0.1 0.2 -0.2
v 0.1 0.3 -0.2
v 0.1 0.4 -0.2
v 0.1 0.5 -0.2
v 0.1 1.2 -0.2
v 0.1 1.3 -0.2
v 0.2 0.3 -0.2
v 0.2 0.4 -0.2
v 0.3 0.2 -0.2
v 0.3 0.5 -0.2
v 0.3 1.1 -0.2
v 0.3 1.2 -0.2
v 0.4 0.3 -0.2
v 0.4 0.4 -0.2
v 0.5 0.2 -0.2
v 0.5 0.3 -0.2
v 0.5 0.4 -0.2
v 0.5 0.5 -0.2
v 0.5 1.1 -0.2
v 0.5 1.2 -0.2
v 0.7 0.2 -0.2
v 0.7 0.5 -0.2
v 0.8 0.2 -0.2
v 0.8 0.5 -0.2
v 0.8 1 -0.2
v 0.8 1.1 -0.2
v 0.8 1.2 -0.2
v 0.8 1.3 -0.2
v 0.9 0.2 -0.2
v 0.9 0.5 -0.2
v 1 0 -0.2
v 1 0.2 -0.2
v 1 0.5 -0.2
v 1.1 0 -0.2
v 1.1 0.2 -0.2
v 1.1 0.5 -0.2
v 1.1 0.6 -0.2
v 1.1 0.7 -0.2
v 1.1 0.9 -0.2
v 1.1 1.1 -0.2
v 1.1 1.2 -0.2
v 1.1 1.3 -0.2
v -1.2 0 -1.2
v -1.2 0.3 -1.2
v -1.2 1 -1.2
v -1.2 1.3 -1.2
v -1.1 0 -1.2
v -1.1 0.3 -1.2
v -1.1 1 -1.2
v -1.1 1.3 -1.2
v -1 0 -1.2
v -1 1.3 -1.2
v -0.8 0 -1.2
v -0.8 1.3 -1.2
v -0.6 0 -1.2
v -0.6 1.3 -1.2
v -0.2 0.5 -1.2
v -0.2 0.6 -1.2
v -0.2 1.2 -1.2
v -0.2 1.3 -1.2
v 0.1 1.2 -1.2
v 0.1 1.3 -1.2
v 0.4 1.2 -1.2
v 0.4 1.3 -1.2
v 0.5 1.2 -1.2
v 0.5 1.3 -1.2
v 1.1 0 -1.2
v 1.1 0.5 -1.2
v 1.1 0.6 -1.2
v 1.1 1.2 -1.2
v 1.1 1.3 -1.2
v -1.2 0 -0.2
v -1.1 0 -0.2
v -1 0 -0.2
v -0.9 0 -0.2
v -0.8 0 -0.2
v -0.6 0 -0.2
v -0.5 0 -0.2
v -0.4 0 -0.2
v -0.3 0 -0.2
v -0.2 0 -0.2
v 1 0 -0.2
v 1.1 0 -0.2
v -0.9 0 -0.3
v -0.8 0 -0.3
v -0.6 0 -0.3
v -0.5 0 -0.3
v -0.3 0 -0.3
v -0.2 0 -0.3
v 1 0 -0.3
v -1.1 0 -0.4
v -1 0 -0.4
v -0.8 0 -0.4
v -0.6 0 -0.4
v -0.4 0 -0.4
v -0.2 0 -0.4
v -1.2 0 -0.5
v -1.1 0 -0.5
v 1 0 -0.5
v 1.1 0 -0.5
v -1.2 0 -0.9
v -1.1 0 -0.9
v -1.2 0 -1.2
v -1.1 0 -1.2
v -1 0 -1.2
v -0.8 0 -1.2
v -0.6 0 -1.2
v 1.1 0 -1.2
v -1.2 1.3 -0.2
v -1.1 1.3 -0.2
v -1 1.3 -0.2
v -0.9 1.3 -0.2
v -0.8 1.3 -0.2
v -0.6 1.3 -0.2
v -0.4 1.3 -0.2
v -0.2 1.3 -0.2
v 0.1 1.3 -0.2
v 0.8 1.3 -0.2
v 1.1 1.3 -0.2
v -0.9 1.3 -0.3
v -0.8 1.3 -0.3
v -1.1 1.3 -0.4
v -1 1.3 -0.4
v -0.8 1.3 -0.4
v -0.6 1.3 -0.4
v -0.4 1.3 -0.4
v -0.2 1.3 -0.4
v -1.2 1.3 -0.5
v -1.1 1.3 -0.5
v -0.2 1.3 -0.5
v 0.1 1.3 -0.5
v 0.8 1.3 -0.5
v 1.1 1.3 -0.5
v 0.8 1.3 -0.6
v 0.9 1.3 -0.6
v 0.7 1.3 -0.7
v 0.8 1.3 -0.7
v 0.9 1.3 -0.7
v 1 1.3 -0.7
v 0.6 1.3 -0.8
v 0.7 1.3 -0.8
v 0.8 1.3 -0.8
v 0.9 1.3 -0.8
v 1 1.3 -0.8
v 1.1 1.3 -0.8
v -1.2 1.3 -0.9
v -1.1 1.3 -0.9
v -0.2 1.3 -0.9
v 0.1 1.3 -0.9
v 0.5 1.3 -0.9
v 0.6 1.3 -0.9
v 0.7 1.3 -0.9
v 1 1.3 -0.9
v 1.1 1.3 -0.9
v 0.4 1.3 -1
v 0.5 1.3 -1
v 0.6 1.3 -1
v -1.2 1.3 -1.2
v -1.1 1.3 -1.2
v -1 1.3 -1.2
v -0.8 1.3 -1.2
v -0.6 1.3 -1.2
v -0.2 1.3 -1.2
v 0.1 1.3 -1.2
v 0.4 1.3 -1.2
v 0.5 1.3 -1.2
v 1.1 1.3 -1.2

# faces
f 5/1/1 2/1/1 1/1/1
f 6/8/1 3/8/1 2/8/1
f 6/1/1 2/1/1 5/1/1
f 7/1/1 4/1/1 3/1/1
f 7/8/1 3/8/1 6/8/1
f 8/1/1 4/1/1 7/1/1
f 9/1/1 5/1/1 1/1/1
f 10/8/1 6/8/1 5/8/1
f 10/1/1 5/1/1 9/1/1
f 10/8/1 7/8/1 6/8/1
f 10/8/1 8/8/1 7/8/1
f 11/1/1 4/1/1 8/1/1
f 11/8/1 8/8/1 10/8/1
f 12/1/1 4/1/1 11/1/1
f 13/8/1 10/8/1 9/8/1
f 13/8/1 11/8/1 10/8/1
f 13/8/1 12/8/1 11/8/1
f 14/8/1 12/8/1 13/8/1
f 15/8/1 13/8/1 9/8/1
f 16/1/1 14/1/1 13/1/1
f 16/8/1 13/8/1 15/8/1
f 17/8/1 12/8/1 14/8/1
f 17/1/1 14/1/1 16/1/1
f 18/8/1 12/8/1 17/8/1
f 19/8/1 15/8/1 9/8/1
f 20/1/1 16/1/1 15/1/1
f 20/8/1 15/8/1 19/8/1
f 20/1/1 17/1/1 16/1/1
f 20/1/1 18/1/1 17/1/1
f 21/1/1 18/1/1 20/1/1
f 22/1/1 18/1/1 21/1/1
f 23/8/1 12/8/1 18/8/1
f 23/1/1 18/1/1 22/1/1
f 24/8/1 12/8/1 23/8/1
f 25/8/1 19/8/1 9/8/1
f 26/1/1 20/1/1 19/1/1
f 26/8/1 19/8/1 25/8/1
f 26/1/1 21/1/1 20/1/1
f 27/1/1 21/1/1 26/1/1
f 28/8/1 22/8/1 21/8/1
f 28/1/1 21/1/1 27/1/1
f 29/1/1 24/1/1 23/1/1
f 29/8/1 22/8/1 28/8/1
f 29/1/1 23/1/1 22/1/1
f 30/1/1 24/1/1 29/1/1
f 31/1/1 27/1/1 26/1/1
f 31/1/1 26/1/1 25/1/1
f 32/8/1 28/8/1 27/8/1
f 32/1/1 27/1/1 31/1/1
f 32/8/1 30/8/1 29/8/1
f 32/8/1 29/8/1 28/8/1
f 33/1/1 24/1/1 30/1/1
f 33/8/1 30/8/1 32/8/1
f 34/8/1 12/8/1 24/8/1
f 34/1/1 24/1/1 33/1/1
f 35/8/1 25/8/1 9/8/1
f 35/1/1 31/1/1 25/1/1
f 36/8/1 33/8/1 32/8/1
f 36/1/1 31/1/1 35/1/1
f 36/8/1 32/8/1 31/8/1
f 36/8/1 34/8/1 33/8/1
f 37/8/1 35/8/1 9/8/1
f 37/8/1 36/8/1 35/8/1
f 38/8/1 36/8/1 37/8/1
f 39/8/1 34/8/1 36/8/1
f 39/8/1 36/8/1 38/8/1
f 39/8/1 12/8/1 34/8/1
f 40/8/1 12/8/1 39/8/1
f 41/1/1 38/1/1 37/1/1
f 41/8/1 39/8/1 38/8/1
f 42/8/1 39/8/1 41/8/1
f 43/8/1 39/8/1 42/8/1
f 44/1/1 40/1/1 39/1/1
f 44/8/1 39/8/1 43/8/1
f 45/1/1 41/1/1 37/1/1
f 45/1/1 42/1/1 41/1/1
f 46/8/1 43/8/1 42/8/1
f 46/1/1 42/1/1 45/1/1
f 47/1/1 44/1/1 43/1/1
f 47/8/1 43/8/1 46/8/1
f 48/1/1 40/1/1 44/1/1
f 48/1/1 44/1/1 47/1/1
f 49/4/2 50/4/2 52/4/2
f 52/4/2 50/4/2 53/4/2
f 50/7/2 51/7/2 54/7/2
f 53/4/2 50/4/2 54/4/2
f 52/9/2 53/9/2 55/9/2
f 53/7/2 54/7/2 56/7/2
f 55/9/2 53/9/2 56/9/2
f 54/7/2 51/7/2 57/7/2
f 56/7/2 54/7/2 57/7/2
f 57/7/2 51/7/2 58/7/2
f 55/10/2 56/10/2 59/10/2
f 56/10/2 57/10/2 59/10/2
f 57/6/2 58/6/2 60/6/2
f 59/10/2 57/10/2 60/10/2
f 60/6/2 58/6/2 61/6/2
f 59/11/2 60/11/2 62/11/2
f 62/11/2 60/11/2 63/11/2
f 60/7/2 61/7/2 64/7/2
f 63/11/2 60/11/2 64/11/2
f 62/12/2 63/12/2 65/12/2
f 63/7/2 64/7/2 66/7/2
f 65/12/2 63/12/2 66/12/2
f 65/10/2 66/10/2 67/10/2
f 66/7/2 64/7/2 68/7/2
f 67/10/2 66/10/2 68/10/2
f 67/9/2 68/9/2 69/9/2
f 68/7/2 64/7/2 70/7/2
f 69/9/2 68/9/2 70/9/2
f 64/7/2 61/7/2 71/7/2
f 70/7/2 64/7/2 71/7/2
f 71/7/2 61/7/2 72/7/2
f 72/7/2 61/7/2 73/7/2
f 73/7/2 61/7/2 74/7/2
f 69/3/2 70/3/2 75/3/2
f 70/3/2 71/3/2 75/3/2
f 71/9/2 72/9/2 76/9/2
f 75/3/2 71/3/2 76/3/2
f 72/3/2 73/3/2 77/3/2
f 76/9/2 72/9/2 77/9/2
f 73/9/2 74/9/2 78/9/2
f 77/3/2 73/3/2 78/3/2
f 78/9/2 74/9/2 79/9/2
f 84/1/3 81/1/3 80/1/3
f 85/8/3 82/8/3 81/8/3
f 85/1/3 81/1/3 84/1/3
f 86/1/3 83/1/3 82/1/3
f 86/8/3 82/8/3 85/8/3
f 87/1/3 83/1/3 86/1/3
f 88/8/3 85/8/3 84/8/3
f 88/8/3 86/8/3 85/8/3
f 88/8/3 87/8/3 86/8/3
f 89/8/3 87/8/3 88/8/3
f 90/9/3 89/9/3 88/9/3
f 91/9/3 89/9/3 90/9/3
f 92/9/3 89/9/3 91/9/3
f 93/9/3 89/9/3 92/9/3
f 94/2/3 91/2/3 90/2/3
f 95/9/3 92/9/3 91/9/3
f 95/2/3 91/2/3 94/2/3
f 96/9/3 92/9/3 95/9/3
f 97/9/3 92/9/3 96/9/3
f 98/9/3 92/9/3 97/9/3
f 99/9/3 92/9/3 98/9/3
f 100/2/3 93/2/3 92/2/3
f 100/9/3 92/9/3 99/9/3
f 101/2/3 93/2/3 100/2/3
f 102/8/3 95/8/3 94/8/3
f 102/8/3 96/8/3 95/8/3
f 103/8/3 96/8/3 102/8/3
f 104/2/3 97/2/3 96/2/3
f 104/8/3 96/8/3 103/8/3
f 105/8/3 98/8/3 97/8/3
f 105/2/3 97/2/3 104/2/3
f 106/2/3 99/2/3 98/2/3
f 106/8/3 98/8/3 105/8/3
f 107/8/3 101/8/3 100/8/3
f 107/2/3 99/2/3 106/2/3
f 107/8/3 100/8/3 99/8/3
f 108/8/3 101/8/3 107/8/3
f 109/10/3 103/10/3 102/10/3
f 110/11/3 105/11/3 104/11/3
f 110/10/3 103/10/3 109/10/3
f 110/11/3 106/11/3 105/11/3
f 110/11/3 108/11/3 107/11/3
f 110/11/3 107/11/3 106/11/3
f 110/11/3 104/11/3 103/11/3
f 111/11/3 110/11/3 109/11/3
f 112/11/3 108/11/3 110/11/3
f 112/11/3 110/11/3 111/11/3
f 113/11/3 108/11/3 112/11/3
f 114/11/3 108/11/3 113/11/3
f 115/11/3 108/11/3 114/11/3
f 116/11/3 108/11/3 115/11/3
f 117/11/3 108/11/3 116/11/3
f 118/11/3 108/11/3 117/11/3
f 119/11/3 108/11/3 118/11/3
f 120/11/3 108/11/3 119/11/3
f 121/11/3 108/11/3 120/11/3
f 122/11/3 108/11/3 121/11/3
f 123/8/3 112/8/3 111/8/3
f 124/2/3 113/2/3 112/2/3
f 124/8/3 112/8/3 123/8/3
f 125/8/3 114/8/3 113/8/3
f 125/2/3 113/2/3 124/2/3
f 126/2/3 115/2/3 114/2/3
f 126/8/3 114/8/3 125/8/3
f 127/8/3 116/8/3 115/8/3
f 127/2/3 115/2/3 126/2/3
f 128/2/3 117/2/3 116/2/3
f 128/8/3 116/8/3 127/8/3
f 129/8/3 118/8/3 117/8/3
f 129/2/3 117/2/3 128/2/3
f 130/2/3 119/2/3 118/2/3
f 130/8/3 118/8/3 129/8/3
f 131/8/3 120/8/3 119/8/3
f 131/2/3 119/2/3 130/2/3
f 132/2/3 121/2/3 120/2/3
f 132/8/3 120/8/3 131/8/3
f 133/8/3 122/8/3 121/8/3
f 133/2/3 121/2/3 132/2/3
f 134/8/3 122/8/3 133/8/3
f 135/2/3 124/2/3 123/2/3
f 136/8/3 125/8/3 124/8/3
f 136/2/3 124/2/3 135/2/3
f 137/2/3 126/2/3 125/2/3
f 137/8/3 125/8/3 136/8/3
f 138/8/3 127/8/3 126/8/3
f 138/2/3 126/2/3 137/2/3
f 139/2/3 128/2/3 127/2/3
f 139/8/3 127/8/3 138/8/3
f 140/8/3 129/8/3 128/8/3
f 140/2/3 128/2/3 139/2/3
f 141/2/3 130/2/3 129/2/3
f 141/8/3 129/8/3 140/8/3
f 142/8/3 131/8/3 130/8/3
f 142/2/3 130/2/3 141/2/3
f 143/2/3 132/2/3 131/2/3
f 143/8/3 131/8/3 142/8/3
f 144/8/3 133/8/3 132/8/3
f 144/2/3 132/2/3 143/2/3
f 145/2/3 134/2/3 133/2/3
f 145/8/3 133/8/3 144/8/3
f 146/8/3 122/8/3 134/8/3
f 146/2/3 134/2/3 145/2/3
f 147/8/3 122/8/3 146/8/3
f 148/8/3 122/8/3 147/8/3
f 149/9/3 138/9/3 137/9/3
f 149/9/3 139/9/3 138/9/3
f 149/9/3 140/9/3 139/9/3
f 149/10/3 141/10/3 140/10/3
f 150/11/3 142/11/3 141/11/3
f 150/10/3 141/10/3 149/10/3
f 151/13/3 136/13/3 135/13/3
f 151/13/3 137/13/3 136/13/3
f 151/9/3 149/9/3 137/9/3
f 152/13/3 150/13/3 149/13/3
f 152/9/3 149/9/3 151/9/3
f 153/11/3 142/11/3 150/11/3
f 153/13/3 150/13/3 152/13/3
f 154/10/3 145/10/3 144/10/3
f 154/10/3 146/10/3 145/10/3
f 155/9/3 147/9/3 146/9/3
f 155/10/3 146/10/3 154/10/3
f 156/7/3 152/7/3 151/7/3
f 156/13/3 151/13/3 135/13/3
f 157/7/3 152/7/3 156/7/3
f 158/7/3 152/7/3 157/7/3
f 159/10/3 153/10/3 152/10/3
f 159/7/3 152/7/3 158/7/3
f 160/9/3 147/9/3 155/9/3
f 160/3/3 148/3/3 147/3/3
f 161/3/3 148/3/3 160/3/3
f 162/7/3 158/7/3 157/7/3
f 162/9/3 157/9/3 156/9/3
f 163/9/3 159/9/3 158/9/3
f 163/7/3 158/7/3 162/7/3
f 164/9/3 162/9/3 156/9/3
f 164/13/3 156/13/3 135/13/3
f 164/9/3 163/9/3 162/9/3
f 165/10/3 153/10/3 159/10/3
f 165/9/3 163/9/3 164/9/3
f 165/9/3 159/9/3 163/9/3
f 166/4/3 155/4/3 154/4/3
f 166/9/3 161/9/3 160/9/3
f 166/9/3 160/9/3 155/9/3
f 167/9/3 161/9/3 166/9/3
f 168/7/3 165/7/3 164/7/3
f 169/7/3 165/7/3 168/7/3
f 170/13/3 164/13/3 135/13/3
f 170/7/3 168/7/3 164/7/3
f 171/9/3 169/9/3 168/9/3
f 171/7/3 168/7/3 170/7/3
f 172/7/3 165/7/3 169/7/3
f 172/9/3 169/9/3 171/9/3
f 173/10/3 153/10/3 165/10/3
f 173/7/3 165/7/3 172/7/3
f 174/4/3 166/4/3 154/4/3
f 174/3/3 167/3/3 166/3/3
f 175/9/3 161/9/3 167/9/3
f 175/3/3 167/3/3 174/3/3
f 176/9/3 171/9/3 170/9/3
f 176/9/3 172/9/3 171/9/3
f 176/9/3 173/9/3 172/9/3
f 176/13/3 170/13/3 135/13/3
f 177/10/3 153/10/3 173/10/3
f 177/9/3 173/9/3 176/9/3
f 178/13/3 176/13/3 135/13/3
f 178/7/3 177/7/3 176/7/3
f 179/10/3 153/10/3 177/10/3
f 179/7/3 177/7/3 178/7/3
f 180/4/3 174/4/3 154/4/3
f 180/10/3 154/10/3 144/10/3
f 181/9/3 175/9/3 174/9/3
f 181/4/3 174/4/3 180/4/3
f 182/9/3 161/9/3 175/9/3
f 182/9/3 175/9/3 181/9/3
f 183/9/3 161/9/3 182/9/3
f 184/9/3 179/9/3 178/9/3
f 184/13/3 178/13/3 135/13/3
f 185/10/3 153/10/3 179/10/3
f 185/9/3 179/9/3 184/9/3
f 186/13/3 184/13/3 135/13/3
f 187/7/3 185/7/3 184/7/3
f 187/13/3 184/13/3 186/13/3
f 188/10/3 153/10/3 185/10/3
f 188/7/3 185/7/3 187/7/3
f 189/4/3 187/4/3 186/4/3
f 190/9/3 188/9/3 187/9/3
f 190/4/3 187/4/3 189/4/3
f 191/10/3 153/10/3 188/10/3
f 191/9/3 188/9/3 190/9/3
f 192/11/3 142/11/3 153/11/3
f 192/10/3 153/10/3 191/10/3
f 193/12/3 144/12/3 143/12/3
f 193/11/3 142/11/3 192/11/3
f 193/12/3 143/12/3 142/12/3
f 194/10/3 181/10/3 180/10/3
f 194/12/3 144/12/3 193/12/3
f 194/10/3 180/10/3 144/10/3
f 195/9/3 182/9/3 181/9/3
f 195/10/3 181/10/3 194/10/3
f 196/3/3 183/3/3 182/3/3
f 196/9/3 182/9/3 195/9/3
f 197/3/3 183/3/3 196/3/3
f 198/1/4 199/1/4 202/1/4
f 199/8/4 200/8/4 203/8/4
f 202/1/4 199/1/4 203/1/4
f 200/1/4 201/1/4 204/1/4
f 203/8/4 200/8/4 204/8/4
f 204/1/4 201/1/4 205/1/4
f 202/5/4 203/5/4 206/5/4
f 203/5/4 204/5/4 206/5/4
f 204/5/4 205/5/4 206/5/4
f 206/5/4 205/5/4 207/5/4
f 206/7/4 207/7/4 208/7/4
f 208/7/4 207/7/4 209/7/4
f 208/5/4 209/5/4 210/5/4
f 210/5/4 209/5/4 211/5/4
f 210/7/4 211/7/4 212/7/4
f 212/7/4 211/7/4 213/7/4
f 213/7/4 211/7/4 214/7/4
f 214/7/4 211/7/4 215/7/4
f 213/7/4 214/7/4 216/7/4
f 214/3/4 215/3/4 216/3/4
f 216/3/4 215/3/4 217/3/4
f 213/7/4 216/7/4 218/7/4
f 216/9/4 217/9/4 218/9/4
f 218/9/4 217/9/4 219/9/4
f 213/7/4 218/7/4 220/7/4
f 218/3/4 219/3/4 220/3/4
f 220/3/4 219/3/4 221/3/4
f 210/7/4 212/7/4 222/7/4
f 212/6/4 213/6/4 223/6/4
f 222/7/4 212/7/4 223/7/4
f 213/7/4 220/7/4 224/7/4
f 223/6/4 213/6/4 224/6/4
f 220/9/4 221/9/4 225/9/4
f 224/7/4 220/7/4 225/7/4
f 225/9/4 221/9/4 226/9/4
f 239/9/5 230/9/5 229/9/5
f 239/2/5 231/2/5 230/2/5
f 240/8/5 232/8/5 231/8/5
f 240/2/5 231/2/5 239/2/5
f 241/10/5 233/10/5 232/10/5
f 241/8/5 232/8/5 240/8/5
f 242/11/5 234/11/5 233/11/5
f 242/10/5 233/10/5 241/10/5
f 243/8/5 235/8/5 234/8/5
f 243/2/5 236/2/5 235/2/5
f 244/13/5 237/13/5 236/13/5
f 244/2/5 236/2/5 243/2/5
f 245/4/5 238/4/5 237/4/5
f 245/13/5 237/13/5 244/13/5
f 246/1/5 228/1/5 227/1/5
f 246/8/5 229/8/5 228/8/5
f 247/9/5 239/9/5 229/9/5
f 247/8/5 229/8/5 246/8/5
f 247/9/5 240/9/5 239/9/5
f 248/8/5 241/8/5 240/8/5
f 248/9/5 240/9/5 247/9/5
f 249/11/5 242/11/5 241/11/5
f 249/8/5 241/8/5 248/8/5
f 250/8/5 244/8/5 243/8/5
f 250/11/5 242/11/5 249/11/5
f 250/8/5 243/8/5 234/8/5
f 250/11/5 234/11/5 242/11/5
f 251/7/5 245/7/5 244/7/5
f 251/8/5 244/8/5 250/8/5
f 252/1/5 246/1/5 227/1/5
f 253/5/5 247/5/5 246/5/5
f 253/1/5 246/1/5 252/1/5
f 254/4/5 238/4/5 245/4/5
f 254/7/5 250/7/5 249/7/5
f 254/7/5 245/7/5 251/7/5
f 254/7/5 251/7/5 250/7/5
f 255/4/5 238/4/5 254/4/5
f 256/8/5 253/8/5 252/8/5
f 257/5/5 247/5/5 253/5/5
f 257/8/5 253/8/5 256/8/5
f 258/1/5 257/1/5 256/1/5
f 259/5/5 247/5/5 257/5/5
f 259/1/5 257/1/5 258/1/5
f 260/7/5 248/7/5 247/7/5
f 260/5/5 247/5/5 259/5/5
f 261/5/5 249/5/5 248/5/5
f 261/7/5 248/7/5 260/7/5
f 262/7/5 254/7/5 249/7/5
f 262/5/5 249/5/5 261/5/5
f 262/7/5 255/7/5 254/7/5
f 263/7/5 255/7/5 262/7/5
f 266/9/6 267/9/6 275/9/6
f 267/2/6 268/2/6 275/2/6
f 268/8/6 269/8/6 276/8/6
f 275/2/6 268/2/6 276/2/6
f 264/1/6 265/1/6 277/1/6
f 265/8/6 266/8/6 277/8/6
f 275/9/6 276/9/6 278/9/6
f 277/8/6 266/8/6 278/8/6
f 266/9/6 275/9/6 278/9/6
f 276/8/6 269/8/6 279/8/6
f 278/9/6 276/9/6 279/9/6
f 269/11/6 270/11/6 280/11/6
f 279/8/6 269/8/6 280/8/6
f 270/8/6 271/8/6 281/8/6
f 280/11/6 270/11/6 281/11/6
f 271/3/6 272/3/6 282/3/6
f 281/8/6 271/8/6 282/8/6
f 264/1/6 277/1/6 283/1/6
f 277/5/6 278/5/6 284/5/6
f 283/1/6 277/1/6 284/1/6
f 282/3/6 272/3/6 285/3/6
f 280/7/6 281/7/6 285/7/6
f 281/7/6 282/7/6 285/7/6
f 272/9/6 273/9/6 286/9/6
f 285/3/6 272/3/6 286/3/6
f 273/3/6 274/3/6 287/3/6
f 286/9/6 273/9/6 287/9/6
f 287/3/6 274/3/6 288/3/6
f 285/9/6 286/9/6 289/9/6
f 286/9/6 287/9/6 289/9/6
f 287/9/6 288/9/6 289/9/6
f 289/9/6 288/9/6 290/9/6
f 285/9/6 289/9/6 291/9/6
f 289/3/6 290/3/6 292/3/6
f 291/9/6 289/9/6 292/9/6
f 290/9/6 288/9/6 293/9/6
f 292/3/6 290/3/6 293/3/6
f 293/9/6 288/9/6 294/9/6
f 285/9/6 291/9/6 295/9/6
f 291/3/6 292/3/6 296/3/6
f 295/9/6 291/9/6 296/9/6
f 292/9/6 293/9/6 297/9/6
f 296/3/6 292/3/6 297/3/6
f 293/3/6 294/3/6 298/3/6
f 297/9/6 293/9/6 298/9/6
f 294/9/6 288/9/6 299/9/6
f 298/3/6 294/3/6 299/3/6
f 299/9/6 288/9/6 300/9/6
f 283/8/6 284/8/6 301/8/6
f 284/5/6 278/5/6 302/5/6
f 301/8/6 284/8/6 302/8/6
f 280/7/6 285/7/6 303/7/6
f 285/9/6 295/9/6 303/9/6
f 303/9/6 295/9/6 304/9/6
f 304/9/6 295/9/6 305/9/6
f 295/3/6 296/3/6 306/3/6
f 305/9/6 295/9/6 306/9/6
f 297/9/6 298/9/6 307/9/6
f 306/3/6 296/3/6 307/3/6
f 296/9/6 297/9/6 307/9/6
f 298/9/6 299/9/6 307/9/6
f 299/3/6 300/3/6 308/3/6
f 307/9/6 299/9/6 308/9/6
f 308/3/6 300/3/6 309/3/6
f 304/9/6 305/9/6 310/9/6
f 305/3/6 306/3/6 311/3/6
f 310/9/6 305/9/6 311/9/6
f 306/9/6 307/9/6 312/9/6
f 311/3/6 306/3/6 312/3/6
f 307/9/6 308/9/6 312/9/6
f 308/9/6 309/9/6 312/9/6
f 301/1/6 302/1/6 313/1/6
f 302/5/6 278/5/6 314/5/6
f 313/1/6 302/1/6 314/1/6
f 278/7/6 279/7/6 315/7/6
f 314/5/6 278/5/6 315/5/6
f 279/5/6 280/5/6 316/5/6
f 315/7/6 279/7/6 316/7/6
f 280/7/6 303/7/6 317/7/6
f 316/5/6 280/5/6 317/5/6
f 303/3/6 304/3/6 318/3/6
f 317/7/6 303/7/6 318/7/6
f 304/9/6 310/9/6 319/9/6
f 318/3/6 304/3/6 319/3/6
f 310/3/6 311/3/6 320/3/6
f 319/9/6 310/9/6 320/9/6
f 311/9/6 312/9/6 321/9/6
f 320/3/6 311/3/6 321/3/6
f 312/9/6 309/9/6 322/9/6
f 321/9/6 312/9/6 322/9/6
