# MagicaVoxel @ Ephtracy

# group
o 

# material
mtllib cortinaDeMetal.mtl
usemtl palette

# normals
vn -1 0 0
vn 1 0 0
vn 0 0 1
vn 0 0 -1
vn 0 -1 0
vn 0 1 0

# texcoords
vt 0.966797 0.5
vt 0.974609 0.5
vt 0.994141 0.5

# verts
v -2.9 1 -0.4
v -2.9 1 -0.8
v -2.9 1.1 -0.4
v -2.9 1.1 -0.8
v -2.9 1.5 -0.4
v -2.9 1.5 -0.8
v -2.9 1.6 -0.4
v -2.9 1.6 -0.8
v -2.9 2 -0.4
v -2.9 2 -0.8
v -2.9 2.1 -0.4
v -2.9 2.1 -0.8
v -2.9 2.5 -0.4
v -2.9 2.5 -0.8
v -2.9 2.6 -0.4
v -2.9 2.6 -0.8
v -2.9 3 -0.4
v -2.9 3 -0.8
v -2.9 3.1 -0.4
v -2.9 3.1 -0.8
v -2.9 3.5 -0.4
v -2.9 3.5 -0.8
v -2.9 3.6 -0.4
v -2.9 3.6 -0.8
v -2.9 4 -0.4
v -2.9 4 -0.8
v -2.9 4.1 -0.4
v -2.9 4.1 -0.8
v -2.9 4.5 -0.4
v -2.9 4.5 -0.8
v -2.9 4.6 -0.4
v -2.9 4.6 -0.8
v -2.9 5 -0.4
v -2.9 5 -0.8
v -2.9 5.1 -0.4
v -2.9 5.1 -0.8
v -2.9 5.4 -0.4
v -2.9 5.4 -0.8
v -2.9 5.9 -0.4
v -2.9 5.9 -0.5
v -2.9 6.1 -0.5
v -2.9 6.1 -0.8
v -2.8 1.1 -0.5
v -2.8 1.1 -0.7
v -2.8 1.5 -0.5
v -2.8 1.5 -0.7
v -2.8 1.6 -0.5
v -2.8 1.6 -0.7
v -2.8 2 -0.5
v -2.8 2 -0.7
v -2.8 2.1 -0.5
v -2.8 2.1 -0.7
v -2.8 2.5 -0.5
v -2.8 2.5 -0.7
v -2.8 2.6 -0.5
v -2.8 2.6 -0.7
v -2.8 3 -0.5
v -2.8 3 -0.7
v -2.8 3.1 -0.5
v -2.8 3.1 -0.7
v -2.8 3.5 -0.5
v -2.8 3.5 -0.7
v -2.8 3.6 -0.5
v -2.8 3.6 -0.7
v -2.8 4 -0.5
v -2.8 4 -0.7
v -2.8 4.1 -0.5
v -2.8 4.1 -0.7
v -2.8 4.5 -0.5
v -2.8 4.5 -0.7
v -2.8 4.6 -0.5
v -2.8 4.6 -0.7
v -2.8 5 -0.5
v -2.8 5 -0.7
v -2.8 5.1 -0.5
v -2.8 5.1 -0.7
v -2.8 5.4 -0.5
v -2.8 5.4 -0.7
v 2.7 1.1 -0.5
v 2.7 1.1 -0.7
v 2.7 1.5 -0.5
v 2.7 1.5 -0.7
v 2.7 1.6 -0.5
v 2.7 1.6 -0.7
v 2.7 2 -0.5
v 2.7 2 -0.7
v 2.7 2.1 -0.5
v 2.7 2.1 -0.7
v 2.7 2.5 -0.5
v 2.7 2.5 -0.7
v 2.7 2.6 -0.5
v 2.7 2.6 -0.7
v 2.7 3 -0.5
v 2.7 3 -0.7
v 2.7 3.1 -0.5
v 2.7 3.1 -0.7
v 2.7 3.5 -0.5
v 2.7 3.5 -0.7
v 2.7 3.6 -0.5
v 2.7 3.6 -0.7
v 2.7 4 -0.5
v 2.7 4 -0.7
v 2.7 4.1 -0.5
v 2.7 4.1 -0.7
v 2.7 4.5 -0.5
v 2.7 4.5 -0.7
v 2.7 4.6 -0.5
v 2.7 4.6 -0.7
v 2.7 5 -0.5
v 2.7 5 -0.7
v 2.7 5.1 -0.5
v 2.7 5.1 -0.7
v 2.7 5.4 -0.5
v 2.7 5.4 -0.7
v -2.7 1.1 -0.5
v -2.7 1.1 -0.7
v -2.7 1.5 -0.5
v -2.7 1.5 -0.7
v -2.7 1.6 -0.5
v -2.7 1.6 -0.7
v -2.7 2 -0.5
v -2.7 2 -0.7
v -2.7 2.1 -0.5
v -2.7 2.1 -0.7
v -2.7 2.5 -0.5
v -2.7 2.5 -0.7
v -2.7 2.6 -0.5
v -2.7 2.6 -0.7
v -2.7 3 -0.5
v -2.7 3 -0.7
v -2.7 3.1 -0.5
v -2.7 3.1 -0.7
v -2.7 3.5 -0.5
v -2.7 3.5 -0.7
v -2.7 3.6 -0.5
v -2.7 3.6 -0.7
v -2.7 4 -0.5
v -2.7 4 -0.7
v -2.7 4.1 -0.5
v -2.7 4.1 -0.7
v -2.7 4.5 -0.5
v -2.7 4.5 -0.7
v -2.7 4.6 -0.5
v -2.7 4.6 -0.7
v -2.7 5 -0.5
v -2.7 5 -0.7
v -2.7 5.1 -0.5
v -2.7 5.1 -0.7
v -2.7 5.4 -0.5
v -2.7 5.4 -0.7
v 2.8 1.1 -0.5
v 2.8 1.1 -0.7
v 2.8 1.5 -0.5
v 2.8 1.5 -0.7
v 2.8 1.6 -0.5
v 2.8 1.6 -0.7
v 2.8 2 -0.5
v 2.8 2 -0.7
v 2.8 2.1 -0.5
v 2.8 2.1 -0.7
v 2.8 2.5 -0.5
v 2.8 2.5 -0.7
v 2.8 2.6 -0.5
v 2.8 2.6 -0.7
v 2.8 3 -0.5
v 2.8 3 -0.7
v 2.8 3.1 -0.5
v 2.8 3.1 -0.7
v 2.8 3.5 -0.5
v 2.8 3.5 -0.7
v 2.8 3.6 -0.5
v 2.8 3.6 -0.7
v 2.8 4 -0.5
v 2.8 4 -0.7
v 2.8 4.1 -0.5
v 2.8 4.1 -0.7
v 2.8 4.5 -0.5
v 2.8 4.5 -0.7
v 2.8 4.6 -0.5
v 2.8 4.6 -0.7
v 2.8 5 -0.5
v 2.8 5 -0.7
v 2.8 5.1 -0.5
v 2.8 5.1 -0.7
v 2.8 5.4 -0.5
v 2.8 5.4 -0.7
v 2.9 1 -0.4
v 2.9 1 -0.8
v 2.9 1.1 -0.4
v 2.9 1.1 -0.8
v 2.9 1.5 -0.4
v 2.9 1.5 -0.8
v 2.9 1.6 -0.4
v 2.9 1.6 -0.8
v 2.9 2 -0.4
v 2.9 2 -0.8
v 2.9 2.1 -0.4
v 2.9 2.1 -0.8
v 2.9 2.5 -0.4
v 2.9 2.5 -0.8
v 2.9 2.6 -0.4
v 2.9 2.6 -0.8
v 2.9 3 -0.4
v 2.9 3 -0.8
v 2.9 3.1 -0.4
v 2.9 3.1 -0.8
v 2.9 3.5 -0.4
v 2.9 3.5 -0.8
v 2.9 3.6 -0.4
v 2.9 3.6 -0.8
v 2.9 4 -0.4
v 2.9 4 -0.8
v 2.9 4.1 -0.4
v 2.9 4.1 -0.8
v 2.9 4.5 -0.4
v 2.9 4.5 -0.8
v 2.9 4.6 -0.4
v 2.9 4.6 -0.8
v 2.9 5 -0.4
v 2.9 5 -0.8
v 2.9 5.1 -0.4
v 2.9 5.1 -0.8
v 2.9 5.4 -0.4
v 2.9 5.4 -0.8
v 2.9 5.9 -0.4
v 2.9 5.9 -0.5
v 2.9 6.1 -0.5
v 2.9 6.1 -0.8
v -2.9 1 -0.4
v -2.9 1.1 -0.4
v -2.9 1.5 -0.4
v -2.9 1.6 -0.4
v -2.9 2 -0.4
v -2.9 2.1 -0.4
v -2.9 2.5 -0.4
v -2.9 2.6 -0.4
v -2.9 3 -0.4
v -2.9 3.1 -0.4
v -2.9 3.5 -0.4
v -2.9 3.6 -0.4
v -2.9 4 -0.4
v -2.9 4.1 -0.4
v -2.9 4.5 -0.4
v -2.9 4.6 -0.4
v -2.9 5 -0.4
v -2.9 5.1 -0.4
v -2.9 5.4 -0.4
v -2.9 5.9 -0.4
v 2.9 1 -0.4
v 2.9 1.1 -0.4
v 2.9 1.5 -0.4
v 2.9 1.6 -0.4
v 2.9 2 -0.4
v 2.9 2.1 -0.4
v 2.9 2.5 -0.4
v 2.9 2.6 -0.4
v 2.9 3 -0.4
v 2.9 3.1 -0.4
v 2.9 3.5 -0.4
v 2.9 3.6 -0.4
v 2.9 4 -0.4
v 2.9 4.1 -0.4
v 2.9 4.5 -0.4
v 2.9 4.6 -0.4
v 2.9 5 -0.4
v 2.9 5.1 -0.4
v 2.9 5.4 -0.4
v 2.9 5.9 -0.4
v -2.9 5.9 -0.5
v -2.9 6.1 -0.5
v -2.8 1.1 -0.5
v -2.8 1.5 -0.5
v -2.8 1.6 -0.5
v -2.8 2 -0.5
v -2.8 2.1 -0.5
v -2.8 2.5 -0.5
v -2.8 2.6 -0.5
v -2.8 3 -0.5
v -2.8 3.1 -0.5
v -2.8 3.5 -0.5
v -2.8 3.6 -0.5
v -2.8 4 -0.5
v -2.8 4.1 -0.5
v -2.8 4.5 -0.5
v -2.8 4.6 -0.5
v -2.8 5 -0.5
v -2.8 5.1 -0.5
v -2.8 5.4 -0.5
v -2.7 1.1 -0.5
v -2.7 1.5 -0.5
v -2.7 1.6 -0.5
v -2.7 2 -0.5
v -2.7 2.1 -0.5
v -2.7 2.5 -0.5
v -2.7 2.6 -0.5
v -2.7 3 -0.5
v -2.7 3.1 -0.5
v -2.7 3.5 -0.5
v -2.7 3.6 -0.5
v -2.7 4 -0.5
v -2.7 4.1 -0.5
v -2.7 4.5 -0.5
v -2.7 4.6 -0.5
v -2.7 5 -0.5
v -2.7 5.1 -0.5
v -2.7 5.4 -0.5
v 2.7 1.1 -0.5
v 2.7 1.5 -0.5
v 2.7 1.6 -0.5
v 2.7 2 -0.5
v 2.7 2.1 -0.5
v 2.7 2.5 -0.5
v 2.7 2.6 -0.5
v 2.7 3 -0.5
v 2.7 3.1 -0.5
v 2.7 3.5 -0.5
v 2.7 3.6 -0.5
v 2.7 4 -0.5
v 2.7 4.1 -0.5
v 2.7 4.5 -0.5
v 2.7 4.6 -0.5
v 2.7 5 -0.5
v 2.7 5.1 -0.5
v 2.7 5.4 -0.5
v 2.8 1.1 -0.5
v 2.8 1.5 -0.5
v 2.8 1.6 -0.5
v 2.8 2 -0.5
v 2.8 2.1 -0.5
v 2.8 2.5 -0.5
v 2.8 2.6 -0.5
v 2.8 3 -0.5
v 2.8 3.1 -0.5
v 2.8 3.5 -0.5
v 2.8 3.6 -0.5
v 2.8 4 -0.5
v 2.8 4.1 -0.5
v 2.8 4.5 -0.5
v 2.8 4.6 -0.5
v 2.8 5 -0.5
v 2.8 5.1 -0.5
v 2.8 5.4 -0.5
v 2.9 5.9 -0.5
v 2.9 6.1 -0.5
v -2.8 1.1 -0.7
v -2.8 1.5 -0.7
v -2.8 1.6 -0.7
v -2.8 2 -0.7
v -2.8 2.1 -0.7
v -2.8 2.5 -0.7
v -2.8 2.6 -0.7
v -2.8 3 -0.7
v -2.8 3.1 -0.7
v -2.8 3.5 -0.7
v -2.8 3.6 -0.7
v -2.8 4 -0.7
v -2.8 4.1 -0.7
v -2.8 4.5 -0.7
v -2.8 4.6 -0.7
v -2.8 5 -0.7
v -2.8 5.1 -0.7
v -2.8 5.4 -0.7
v -2.7 1.1 -0.7
v -2.7 1.5 -0.7
v -2.7 1.6 -0.7
v -2.7 2 -0.7
v -2.7 2.1 -0.7
v -2.7 2.5 -0.7
v -2.7 2.6 -0.7
v -2.7 3 -0.7
v -2.7 3.1 -0.7
v -2.7 3.5 -0.7
v -2.7 3.6 -0.7
v -2.7 4 -0.7
v -2.7 4.1 -0.7
v -2.7 4.5 -0.7
v -2.7 4.6 -0.7
v -2.7 5 -0.7
v -2.7 5.1 -0.7
v -2.7 5.4 -0.7
v 2.7 1.1 -0.7
v 2.7 1.5 -0.7
v 2.7 1.6 -0.7
v 2.7 2 -0.7
v 2.7 2.1 -0.7
v 2.7 2.5 -0.7
v 2.7 2.6 -0.7
v 2.7 3 -0.7
v 2.7 3.1 -0.7
v 2.7 3.5 -0.7
v 2.7 3.6 -0.7
v 2.7 4 -0.7
v 2.7 4.1 -0.7
v 2.7 4.5 -0.7
v 2.7 4.6 -0.7
v 2.7 5 -0.7
v 2.7 5.1 -0.7
v 2.7 5.4 -0.7
v 2.8 1.1 -0.7
v 2.8 1.5 -0.7
v 2.8 1.6 -0.7
v 2.8 2 -0.7
v 2.8 2.1 -0.7
v 2.8 2.5 -0.7
v 2.8 2.6 -0.7
v 2.8 3 -0.7
v 2.8 3.1 -0.7
v 2.8 3.5 -0.7
v 2.8 3.6 -0.7
v 2.8 4 -0.7
v 2.8 4.1 -0.7
v 2.8 4.5 -0.7
v 2.8 4.6 -0.7
v 2.8 5 -0.7
v 2.8 5.1 -0.7
v 2.8 5.4 -0.7
v -2.9 1 -0.8
v -2.9 1.1 -0.8
v -2.9 1.5 -0.8
v -2.9 1.6 -0.8
v -2.9 2 -0.8
v -2.9 2.1 -0.8
v -2.9 2.5 -0.8
v -2.9 2.6 -0.8
v -2.9 3 -0.8
v -2.9 3.1 -0.8
v -2.9 3.5 -0.8
v -2.9 3.6 -0.8
v -2.9 4 -0.8
v -2.9 4.1 -0.8
v -2.9 4.5 -0.8
v -2.9 4.6 -0.8
v -2.9 5 -0.8
v -2.9 5.1 -0.8
v -2.9 5.4 -0.8
v -2.9 6.1 -0.8
v -2.8 5.4 -0.8
v -2.8 6 -0.8
v 2.8 5.4 -0.8
v 2.8 6 -0.8
v 2.9 1 -0.8
v 2.9 1.1 -0.8
v 2.9 1.5 -0.8
v 2.9 1.6 -0.8
v 2.9 2 -0.8
v 2.9 2.1 -0.8
v 2.9 2.5 -0.8
v 2.9 2.6 -0.8
v 2.9 3 -0.8
v 2.9 3.1 -0.8
v 2.9 3.5 -0.8
v 2.9 3.6 -0.8
v 2.9 4 -0.8
v 2.9 4.1 -0.8
v 2.9 4.5 -0.8
v 2.9 4.6 -0.8
v 2.9 5 -0.8
v 2.9 5.1 -0.8
v 2.9 5.4 -0.8
v 2.9 6.1 -0.8
v -2.9 1 -0.4
v 2.9 1 -0.4
v -2.8 1 -0.5
v -2.7 1 -0.5
v 2.7 1 -0.5
v 2.8 1 -0.5
v -2.8 1 -0.7
v -2.7 1 -0.7
v 2.7 1 -0.7
v 2.8 1 -0.7
v -2.9 1 -0.8
v 2.9 1 -0.8
v -2.9 1.5 -0.4
v 2.9 1.5 -0.4
v -2.8 1.5 -0.5
v -2.7 1.5 -0.5
v 2.7 1.5 -0.5
v 2.8 1.5 -0.5
v -2.8 1.5 -0.7
v -2.7 1.5 -0.7
v 2.7 1.5 -0.7
v 2.8 1.5 -0.7
v -2.9 1.5 -0.8
v 2.9 1.5 -0.8
v -2.9 2 -0.4
v 2.9 2 -0.4
v -2.8 2 -0.5
v -2.7 2 -0.5
v 2.7 2 -0.5
v 2.8 2 -0.5
v -2.8 2 -0.7
v -2.7 2 -0.7
v 2.7 2 -0.7
v 2.8 2 -0.7
v -2.9 2 -0.8
v 2.9 2 -0.8
v -2.9 2.5 -0.4
v 2.9 2.5 -0.4
v -2.8 2.5 -0.5
v -2.7 2.5 -0.5
v 2.7 2.5 -0.5
v 2.8 2.5 -0.5
v -2.8 2.5 -0.7
v -2.7 2.5 -0.7
v 2.7 2.5 -0.7
v 2.8 2.5 -0.7
v -2.9 2.5 -0.8
v 2.9 2.5 -0.8
v -2.9 3 -0.4
v 2.9 3 -0.4
v -2.8 3 -0.5
v -2.7 3 -0.5
v 2.7 3 -0.5
v 2.8 3 -0.5
v -2.8 3 -0.7
v -2.7 3 -0.7
v 2.7 3 -0.7
v 2.8 3 -0.7
v -2.9 3 -0.8
v 2.9 3 -0.8
v -2.9 3.5 -0.4
v 2.9 3.5 -0.4
v -2.8 3.5 -0.5
v -2.7 3.5 -0.5
v 2.7 3.5 -0.5
v 2.8 3.5 -0.5
v -2.8 3.5 -0.7
v -2.7 3.5 -0.7
v 2.7 3.5 -0.7
v 2.8 3.5 -0.7
v -2.9 3.5 -0.8
v 2.9 3.5 -0.8
v -2.9 4 -0.4
v 2.9 4 -0.4
v -2.8 4 -0.5
v -2.7 4 -0.5
v 2.7 4 -0.5
v 2.8 4 -0.5
v -2.8 4 -0.7
v -2.7 4 -0.7
v 2.7 4 -0.7
v 2.8 4 -0.7
v -2.9 4 -0.8
v 2.9 4 -0.8
v -2.9 4.5 -0.4
v 2.9 4.5 -0.4
v -2.8 4.5 -0.5
v -2.7 4.5 -0.5
v 2.7 4.5 -0.5
v 2.8 4.5 -0.5
v -2.8 4.5 -0.7
v -2.7 4.5 -0.7
v 2.7 4.5 -0.7
v 2.8 4.5 -0.7
v -2.9 4.5 -0.8
v 2.9 4.5 -0.8
v -2.9 5 -0.4
v 2.9 5 -0.4
v -2.8 5 -0.5
v -2.7 5 -0.5
v 2.7 5 -0.5
v 2.8 5 -0.5
v -2.8 5 -0.7
v -2.7 5 -0.7
v 2.7 5 -0.7
v 2.8 5 -0.7
v -2.9 5 -0.8
v 2.9 5 -0.8
v -2.9 5.4 -0.4
v 2.9 5.4 -0.4
v -2.8 5.4 -0.5
v -2.7 5.4 -0.5
v 2.7 5.4 -0.5
v 2.8 5.4 -0.5
v -2.8 5.4 -0.7
v -2.7 5.4 -0.7
v 2.7 5.4 -0.7
v 2.8 5.4 -0.7
v -2.9 5.4 -0.8
v -2.8 5.4 -0.8
v 2.8 5.4 -0.8
v 2.9 5.4 -0.8
v -2.9 1.1 -0.4
v 2.9 1.1 -0.4
v -2.8 1.1 -0.5
v -2.7 1.1 -0.5
v 2.7 1.1 -0.5
v 2.8 1.1 -0.5
v -2.8 1.1 -0.7
v -2.7 1.1 -0.7
v 2.7 1.1 -0.7
v 2.8 1.1 -0.7
v -2.9 1.1 -0.8
v 2.9 1.1 -0.8
v -2.9 1.6 -0.4
v 2.9 1.6 -0.4
v -2.8 1.6 -0.5
v -2.7 1.6 -0.5
v 2.7 1.6 -0.5
v 2.8 1.6 -0.5
v -2.8 1.6 -0.7
v -2.7 1.6 -0.7
v 2.7 1.6 -0.7
v 2.8 1.6 -0.7
v -2.9 1.6 -0.8
v 2.9 1.6 -0.8
v -2.9 2.1 -0.4
v 2.9 2.1 -0.4
v -2.8 2.1 -0.5
v -2.7 2.1 -0.5
v 2.7 2.1 -0.5
v 2.8 2.1 -0.5
v -2.8 2.1 -0.7
v -2.7 2.1 -0.7
v 2.7 2.1 -0.7
v 2.8 2.1 -0.7
v -2.9 2.1 -0.8
v 2.9 2.1 -0.8
v -2.9 2.6 -0.4
v 2.9 2.6 -0.4
v -2.8 2.6 -0.5
v -2.7 2.6 -0.5
v 2.7 2.6 -0.5
v 2.8 2.6 -0.5
v -2.8 2.6 -0.7
v -2.7 2.6 -0.7
v 2.7 2.6 -0.7
v 2.8 2.6 -0.7
v -2.9 2.6 -0.8
v 2.9 2.6 -0.8
v -2.9 3.1 -0.4
v 2.9 3.1 -0.4
v -2.8 3.1 -0.5
v -2.7 3.1 -0.5
v 2.7 3.1 -0.5
v 2.8 3.1 -0.5
v -2.8 3.1 -0.7
v -2.7 3.1 -0.7
v 2.7 3.1 -0.7
v 2.8 3.1 -0.7
v -2.9 3.1 -0.8
v 2.9 3.1 -0.8
v -2.9 3.6 -0.4
v 2.9 3.6 -0.4
v -2.8 3.6 -0.5
v -2.7 3.6 -0.5
v 2.7 3.6 -0.5
v 2.8 3.6 -0.5
v -2.8 3.6 -0.7
v -2.7 3.6 -0.7
v 2.7 3.6 -0.7
v 2.8 3.6 -0.7
v -2.9 3.6 -0.8
v 2.9 3.6 -0.8
v -2.9 4.1 -0.4
v 2.9 4.1 -0.4
v -2.8 4.1 -0.5
v -2.7 4.1 -0.5
v 2.7 4.1 -0.5
v 2.8 4.1 -0.5
v -2.8 4.1 -0.7
v -2.7 4.1 -0.7
v 2.7 4.1 -0.7
v 2.8 4.1 -0.7
v -2.9 4.1 -0.8
v 2.9 4.1 -0.8
v -2.9 4.6 -0.4
v 2.9 4.6 -0.4
v -2.8 4.6 -0.5
v -2.7 4.6 -0.5
v 2.7 4.6 -0.5
v 2.8 4.6 -0.5
v -2.8 4.6 -0.7
v -2.7 4.6 -0.7
v 2.7 4.6 -0.7
v 2.8 4.6 -0.7
v -2.9 4.6 -0.8
v 2.9 4.6 -0.8
v -2.9 5.1 -0.4
v 2.9 5.1 -0.4
v -2.8 5.1 -0.5
v -2.7 5.1 -0.5
v 2.7 5.1 -0.5
v 2.8 5.1 -0.5
v -2.8 5.1 -0.7
v -2.7 5.1 -0.7
v 2.7 5.1 -0.7
v 2.8 5.1 -0.7
v -2.9 5.1 -0.8
v 2.9 5.1 -0.8
v -2.9 5.9 -0.4
v 2.9 5.9 -0.4
v -2.9 5.9 -0.5
v 2.9 5.9 -0.5
v -2.9 6.1 -0.5
v 2.9 6.1 -0.5
v -2.9 6.1 -0.8
v 2.9 6.1 -0.8

# faces
f 3/2/1 2/2/1 1/2/1
f 4/2/1 2/2/1 3/2/1
f 7/2/1 6/2/1 5/2/1
f 8/2/1 6/2/1 7/2/1
f 11/2/1 10/2/1 9/2/1
f 12/2/1 10/2/1 11/2/1
f 15/2/1 14/2/1 13/2/1
f 16/2/1 14/2/1 15/2/1
f 19/2/1 18/2/1 17/2/1
f 20/2/1 18/2/1 19/2/1
f 23/2/1 22/2/1 21/2/1
f 24/2/1 22/2/1 23/2/1
f 27/2/1 26/2/1 25/2/1
f 28/2/1 26/2/1 27/2/1
f 31/2/1 30/2/1 29/2/1
f 32/2/1 30/2/1 31/2/1
f 35/2/1 34/2/1 33/2/1
f 36/2/1 34/2/1 35/2/1
f 39/1/1 38/1/1 37/1/1
f 40/1/1 38/1/1 39/1/1
f 41/1/1 38/1/1 40/1/1
f 42/1/1 38/1/1 41/1/1
f 45/3/1 44/3/1 43/3/1
f 46/3/1 44/3/1 45/3/1
f 49/3/1 48/3/1 47/3/1
f 50/3/1 48/3/1 49/3/1
f 53/3/1 52/3/1 51/3/1
f 54/3/1 52/3/1 53/3/1
f 57/3/1 56/3/1 55/3/1
f 58/3/1 56/3/1 57/3/1
f 61/3/1 60/3/1 59/3/1
f 62/3/1 60/3/1 61/3/1
f 65/3/1 64/3/1 63/3/1
f 66/3/1 64/3/1 65/3/1
f 69/3/1 68/3/1 67/3/1
f 70/3/1 68/3/1 69/3/1
f 73/3/1 72/3/1 71/3/1
f 74/3/1 72/3/1 73/3/1
f 77/3/1 76/3/1 75/3/1
f 78/3/1 76/3/1 77/3/1
f 81/3/1 80/3/1 79/3/1
f 82/3/1 80/3/1 81/3/1
f 85/3/1 84/3/1 83/3/1
f 86/3/1 84/3/1 85/3/1
f 89/3/1 88/3/1 87/3/1
f 90/3/1 88/3/1 89/3/1
f 93/3/1 92/3/1 91/3/1
f 94/3/1 92/3/1 93/3/1
f 97/3/1 96/3/1 95/3/1
f 98/3/1 96/3/1 97/3/1
f 101/3/1 100/3/1 99/3/1
f 102/3/1 100/3/1 101/3/1
f 105/3/1 104/3/1 103/3/1
f 106/3/1 104/3/1 105/3/1
f 109/3/1 108/3/1 107/3/1
f 110/3/1 108/3/1 109/3/1
f 113/3/1 112/3/1 111/3/1
f 114/3/1 112/3/1 113/3/1
f 115/3/2 116/3/2 117/3/2
f 117/3/2 116/3/2 118/3/2
f 119/3/2 120/3/2 121/3/2
f 121/3/2 120/3/2 122/3/2
f 123/3/2 124/3/2 125/3/2
f 125/3/2 124/3/2 126/3/2
f 127/3/2 128/3/2 129/3/2
f 129/3/2 128/3/2 130/3/2
f 131/3/2 132/3/2 133/3/2
f 133/3/2 132/3/2 134/3/2
f 135/3/2 136/3/2 137/3/2
f 137/3/2 136/3/2 138/3/2
f 139/3/2 140/3/2 141/3/2
f 141/3/2 140/3/2 142/3/2
f 143/3/2 144/3/2 145/3/2
f 145/3/2 144/3/2 146/3/2
f 147/3/2 148/3/2 149/3/2
f 149/3/2 148/3/2 150/3/2
f 151/3/2 152/3/2 153/3/2
f 153/3/2 152/3/2 154/3/2
f 155/3/2 156/3/2 157/3/2
f 157/3/2 156/3/2 158/3/2
f 159/3/2 160/3/2 161/3/2
f 161/3/2 160/3/2 162/3/2
f 163/3/2 164/3/2 165/3/2
f 165/3/2 164/3/2 166/3/2
f 167/3/2 168/3/2 169/3/2
f 169/3/2 168/3/2 170/3/2
f 171/3/2 172/3/2 173/3/2
f 173/3/2 172/3/2 174/3/2
f 175/3/2 176/3/2 177/3/2
f 177/3/2 176/3/2 178/3/2
f 179/3/2 180/3/2 181/3/2
f 181/3/2 180/3/2 182/3/2
f 183/3/2 184/3/2 185/3/2
f 185/3/2 184/3/2 186/3/2
f 187/2/2 188/2/2 189/2/2
f 189/2/2 188/2/2 190/2/2
f 191/2/2 192/2/2 193/2/2
f 193/2/2 192/2/2 194/2/2
f 195/2/2 196/2/2 197/2/2
f 197/2/2 196/2/2 198/2/2
f 199/2/2 200/2/2 201/2/2
f 201/2/2 200/2/2 202/2/2
f 203/2/2 204/2/2 205/2/2
f 205/2/2 204/2/2 206/2/2
f 207/2/2 208/2/2 209/2/2
f 209/2/2 208/2/2 210/2/2
f 211/2/2 212/2/2 213/2/2
f 213/2/2 212/2/2 214/2/2
f 215/2/2 216/2/2 217/2/2
f 217/2/2 216/2/2 218/2/2
f 219/2/2 220/2/2 221/2/2
f 221/2/2 220/2/2 222/2/2
f 223/1/2 224/1/2 225/1/2
f 225/1/2 224/1/2 226/1/2
f 226/1/2 224/1/2 227/1/2
f 227/1/2 224/1/2 228/1/2
f 249/2/3 230/2/3 229/2/3
f 250/2/3 230/2/3 249/2/3
f 251/2/3 232/2/3 231/2/3
f 252/2/3 232/2/3 251/2/3
f 253/2/3 234/2/3 233/2/3
f 254/2/3 234/2/3 253/2/3
f 255/2/3 236/2/3 235/2/3
f 256/2/3 236/2/3 255/2/3
f 257/2/3 238/2/3 237/2/3
f 258/2/3 238/2/3 257/2/3
f 259/2/3 240/2/3 239/2/3
f 260/2/3 240/2/3 259/2/3
f 261/2/3 242/2/3 241/2/3
f 262/2/3 242/2/3 261/2/3
f 263/2/3 244/2/3 243/2/3
f 264/2/3 244/2/3 263/2/3
f 265/2/3 246/2/3 245/2/3
f 266/2/3 246/2/3 265/2/3
f 267/1/3 248/1/3 247/1/3
f 268/1/3 248/1/3 267/1/3
f 289/3/3 272/3/3 271/3/3
f 290/3/3 272/3/3 289/3/3
f 291/3/3 274/3/3 273/3/3
f 292/3/3 274/3/3 291/3/3
f 293/3/3 276/3/3 275/3/3
f 294/3/3 276/3/3 293/3/3
f 295/3/3 278/3/3 277/3/3
f 296/3/3 278/3/3 295/3/3
f 297/3/3 280/3/3 279/3/3
f 298/3/3 280/3/3 297/3/3
f 299/3/3 282/3/3 281/3/3
f 300/3/3 282/3/3 299/3/3
f 301/3/3 284/3/3 283/3/3
f 302/3/3 284/3/3 301/3/3
f 303/3/3 286/3/3 285/3/3
f 304/3/3 286/3/3 303/3/3
f 305/3/3 288/3/3 287/3/3
f 306/3/3 288/3/3 305/3/3
f 325/3/3 308/3/3 307/3/3
f 326/3/3 308/3/3 325/3/3
f 327/3/3 310/3/3 309/3/3
f 328/3/3 310/3/3 327/3/3
f 329/3/3 312/3/3 311/3/3
f 330/3/3 312/3/3 329/3/3
f 331/3/3 314/3/3 313/3/3
f 332/3/3 314/3/3 331/3/3
f 333/3/3 316/3/3 315/3/3
f 334/3/3 316/3/3 333/3/3
f 335/3/3 318/3/3 317/3/3
f 336/3/3 318/3/3 335/3/3
f 337/3/3 320/3/3 319/3/3
f 338/3/3 320/3/3 337/3/3
f 339/3/3 322/3/3 321/3/3
f 340/3/3 322/3/3 339/3/3
f 341/3/3 324/3/3 323/3/3
f 342/3/3 324/3/3 341/3/3
f 343/1/3 270/1/3 269/1/3
f 344/1/3 270/1/3 343/1/3
f 345/3/4 346/3/4 363/3/4
f 363/3/4 346/3/4 364/3/4
f 347/3/4 348/3/4 365/3/4
f 365/3/4 348/3/4 366/3/4
f 349/3/4 350/3/4 367/3/4
f 367/3/4 350/3/4 368/3/4
f 351/3/4 352/3/4 369/3/4
f 369/3/4 352/3/4 370/3/4
f 353/3/4 354/3/4 371/3/4
f 371/3/4 354/3/4 372/3/4
f 355/3/4 356/3/4 373/3/4
f 373/3/4 356/3/4 374/3/4
f 357/3/4 358/3/4 375/3/4
f 375/3/4 358/3/4 376/3/4
f 359/3/4 360/3/4 377/3/4
f 377/3/4 360/3/4 378/3/4
f 361/3/4 362/3/4 379/3/4
f 379/3/4 362/3/4 380/3/4
f 381/3/4 382/3/4 399/3/4
f 399/3/4 382/3/4 400/3/4
f 383/3/4 384/3/4 401/3/4
f 401/3/4 384/3/4 402/3/4
f 385/3/4 386/3/4 403/3/4
f 403/3/4 386/3/4 404/3/4
f 387/3/4 388/3/4 405/3/4
f 405/3/4 388/3/4 406/3/4
f 389/3/4 390/3/4 407/3/4
f 407/3/4 390/3/4 408/3/4
f 391/3/4 392/3/4 409/3/4
f 409/3/4 392/3/4 410/3/4
f 393/3/4 394/3/4 411/3/4
f 411/3/4 394/3/4 412/3/4
f 395/3/4 396/3/4 413/3/4
f 413/3/4 396/3/4 414/3/4
f 397/3/4 398/3/4 415/3/4
f 415/3/4 398/3/4 416/3/4
f 435/1/4 436/1/4 437/1/4
f 437/1/4 436/1/4 438/1/4
f 437/2/4 438/2/4 439/2/4
f 438/1/4 436/1/4 440/1/4
f 439/2/4 438/2/4 440/2/4
f 417/2/4 418/2/4 441/2/4
f 441/2/4 418/2/4 442/2/4
f 419/2/4 420/2/4 443/2/4
f 443/2/4 420/2/4 444/2/4
f 421/2/4 422/2/4 445/2/4
f 445/2/4 422/2/4 446/2/4
f 423/2/4 424/2/4 447/2/4
f 447/2/4 424/2/4 448/2/4
f 425/2/4 426/2/4 449/2/4
f 449/2/4 426/2/4 450/2/4
f 427/2/4 428/2/4 451/2/4
f 451/2/4 428/2/4 452/2/4
f 429/2/4 430/2/4 453/2/4
f 453/2/4 430/2/4 454/2/4
f 431/2/4 432/2/4 455/2/4
f 455/2/4 432/2/4 456/2/4
f 433/2/4 434/2/4 457/2/4
f 457/2/4 434/2/4 458/2/4
f 439/1/4 440/1/4 459/1/4
f 440/1/4 436/1/4 460/1/4
f 459/1/4 440/1/4 460/1/4
f 463/2/5 462/2/5 461/2/5
f 464/2/5 462/2/5 463/2/5
f 465/2/5 462/2/5 464/2/5
f 466/2/5 462/2/5 465/2/5
f 467/2/5 463/2/5 461/2/5
f 467/3/5 464/3/5 463/3/5
f 468/2/5 465/2/5 464/2/5
f 468/3/5 464/3/5 467/3/5
f 469/3/5 466/3/5 465/3/5
f 469/2/5 465/2/5 468/2/5
f 470/2/5 462/2/5 466/2/5
f 470/3/5 466/3/5 469/3/5
f 471/2/5 469/2/5 468/2/5
f 471/2/5 468/2/5 467/2/5
f 471/2/5 470/2/5 469/2/5
f 471/2/5 467/2/5 461/2/5
f 472/2/5 462/2/5 470/2/5
f 472/2/5 470/2/5 471/2/5
f 475/2/5 474/2/5 473/2/5
f 476/2/5 474/2/5 475/2/5
f 477/2/5 474/2/5 476/2/5
f 478/2/5 474/2/5 477/2/5
f 479/2/5 475/2/5 473/2/5
f 480/2/5 477/2/5 476/2/5
f 481/2/5 477/2/5 480/2/5
f 482/2/5 474/2/5 478/2/5
f 483/2/5 481/2/5 480/2/5
f 483/2/5 482/2/5 481/2/5
f 483/2/5 479/2/5 473/2/5
f 483/2/5 480/2/5 479/2/5
f 484/2/5 474/2/5 482/2/5
f 484/2/5 482/2/5 483/2/5
f 487/2/5 486/2/5 485/2/5
f 488/2/5 486/2/5 487/2/5
f 489/2/5 486/2/5 488/2/5
f 490/2/5 486/2/5 489/2/5
f 491/2/5 487/2/5 485/2/5
f 492/2/5 489/2/5 488/2/5
f 493/2/5 489/2/5 492/2/5
f 494/2/5 486/2/5 490/2/5
f 495/2/5 493/2/5 492/2/5
f 495/2/5 494/2/5 493/2/5
f 495/2/5 491/2/5 485/2/5
f 495/2/5 492/2/5 491/2/5
f 496/2/5 486/2/5 494/2/5
f 496/2/5 494/2/5 495/2/5
f 499/2/5 498/2/5 497/2/5
f 500/2/5 498/2/5 499/2/5
f 501/2/5 498/2/5 500/2/5
f 502/2/5 498/2/5 501/2/5
f 503/2/5 499/2/5 497/2/5
f 504/2/5 501/2/5 500/2/5
f 505/2/5 501/2/5 504/2/5
f 506/2/5 498/2/5 502/2/5
f 507/2/5 505/2/5 504/2/5
f 507/2/5 506/2/5 505/2/5
f 507/2/5 503/2/5 497/2/5
f 507/2/5 504/2/5 503/2/5
f 508/2/5 498/2/5 506/2/5
f 508/2/5 506/2/5 507/2/5
f 511/2/5 510/2/5 509/2/5
f 512/2/5 510/2/5 511/2/5
f 513/2/5 510/2/5 512/2/5
f 514/2/5 510/2/5 513/2/5
f 515/2/5 511/2/5 509/2/5
f 516/2/5 513/2/5 512/2/5
f 517/2/5 513/2/5 516/2/5
f 518/2/5 510/2/5 514/2/5
f 519/2/5 517/2/5 516/2/5
f 519/2/5 518/2/5 517/2/5
f 519/2/5 515/2/5 509/2/5
f 519/2/5 516/2/5 515/2/5
f 520/2/5 510/2/5 518/2/5
f 520/2/5 518/2/5 519/2/5
f 523/2/5 522/2/5 521/2/5
f 524/2/5 522/2/5 523/2/5
f 525/2/5 522/2/5 524/2/5
f 526/2/5 522/2/5 525/2/5
f 527/2/5 523/2/5 521/2/5
f 528/2/5 525/2/5 524/2/5
f 529/2/5 525/2/5 528/2/5
f 530/2/5 522/2/5 526/2/5
f 531/2/5 529/2/5 528/2/5
f 531/2/5 530/2/5 529/2/5
f 531/2/5 527/2/5 521/2/5
f 531/2/5 528/2/5 527/2/5
f 532/2/5 522/2/5 530/2/5
f 532/2/5 530/2/5 531/2/5
f 535/2/5 534/2/5 533/2/5
f 536/2/5 534/2/5 535/2/5
f 537/2/5 534/2/5 536/2/5
f 538/2/5 534/2/5 537/2/5
f 539/2/5 535/2/5 533/2/5
f 540/2/5 537/2/5 536/2/5
f 541/2/5 537/2/5 540/2/5
f 542/2/5 534/2/5 538/2/5
f 543/2/5 541/2/5 540/2/5
f 543/2/5 542/2/5 541/2/5
f 543/2/5 539/2/5 533/2/5
f 543/2/5 540/2/5 539/2/5
f 544/2/5 534/2/5 542/2/5
f 544/2/5 542/2/5 543/2/5
f 547/2/5 546/2/5 545/2/5
f 548/2/5 546/2/5 547/2/5
f 549/2/5 546/2/5 548/2/5
f 550/2/5 546/2/5 549/2/5
f 551/2/5 547/2/5 545/2/5
f 552/2/5 549/2/5 548/2/5
f 553/2/5 549/2/5 552/2/5
f 554/2/5 546/2/5 550/2/5
f 555/2/5 553/2/5 552/2/5
f 555/2/5 554/2/5 553/2/5
f 555/2/5 551/2/5 545/2/5
f 555/2/5 552/2/5 551/2/5
f 556/2/5 546/2/5 554/2/5
f 556/2/5 554/2/5 555/2/5
f 559/2/5 558/2/5 557/2/5
f 560/2/5 558/2/5 559/2/5
f 561/2/5 558/2/5 560/2/5
f 562/2/5 558/2/5 561/2/5
f 563/2/5 559/2/5 557/2/5
f 564/2/5 561/2/5 560/2/5
f 565/2/5 561/2/5 564/2/5
f 566/2/5 558/2/5 562/2/5
f 567/2/5 565/2/5 564/2/5
f 567/2/5 566/2/5 565/2/5
f 567/2/5 563/2/5 557/2/5
f 567/2/5 564/2/5 563/2/5
f 568/2/5 558/2/5 566/2/5
f 568/2/5 566/2/5 567/2/5
f 571/1/5 570/1/5 569/1/5
f 572/1/5 570/1/5 571/1/5
f 573/1/5 570/1/5 572/1/5
f 574/1/5 570/1/5 573/1/5
f 575/1/5 571/1/5 569/1/5
f 576/2/5 573/2/5 572/2/5
f 577/2/5 573/2/5 576/2/5
f 578/1/5 570/1/5 574/1/5
f 579/1/5 575/1/5 569/1/5
f 580/2/5 577/2/5 576/2/5
f 580/1/5 575/1/5 579/1/5
f 580/2/5 578/2/5 577/2/5
f 580/2/5 576/2/5 575/2/5
f 581/1/5 570/1/5 578/1/5
f 581/2/5 578/2/5 580/2/5
f 582/1/5 570/1/5 581/1/5
f 583/2/6 584/2/6 585/2/6
f 585/2/6 584/2/6 586/2/6
f 586/2/6 584/2/6 587/2/6
f 587/2/6 584/2/6 588/2/6
f 583/2/6 585/2/6 589/2/6
f 586/2/6 587/2/6 590/2/6
f 590/2/6 587/2/6 591/2/6
f 588/2/6 584/2/6 592/2/6
f 590/2/6 591/2/6 593/2/6
f 591/2/6 592/2/6 593/2/6
f 583/2/6 589/2/6 593/2/6
f 589/2/6 590/2/6 593/2/6
f 592/2/6 584/2/6 594/2/6
f 593/2/6 592/2/6 594/2/6
f 595/2/6 596/2/6 597/2/6
f 597/2/6 596/2/6 598/2/6
f 598/2/6 596/2/6 599/2/6
f 599/2/6 596/2/6 600/2/6
f 595/2/6 597/2/6 601/2/6
f 598/2/6 599/2/6 602/2/6
f 602/2/6 599/2/6 603/2/6
f 600/2/6 596/2/6 604/2/6
f 602/2/6 603/2/6 605/2/6
f 603/2/6 604/2/6 605/2/6
f 595/2/6 601/2/6 605/2/6
f 601/2/6 602/2/6 605/2/6
f 604/2/6 596/2/6 606/2/6
f 605/2/6 604/2/6 606/2/6
f 607/2/6 608/2/6 609/2/6
f 609/2/6 608/2/6 610/2/6
f 610/2/6 608/2/6 611/2/6
f 611/2/6 608/2/6 612/2/6
f 607/2/6 609/2/6 613/2/6
f 610/2/6 611/2/6 614/2/6
f 614/2/6 611/2/6 615/2/6
f 612/2/6 608/2/6 616/2/6
f 614/2/6 615/2/6 617/2/6
f 615/2/6 616/2/6 617/2/6
f 607/2/6 613/2/6 617/2/6
f 613/2/6 614/2/6 617/2/6
f 616/2/6 608/2/6 618/2/6
f 617/2/6 616/2/6 618/2/6
f 619/2/6 620/2/6 621/2/6
f 621/2/6 620/2/6 622/2/6
f 622/2/6 620/2/6 623/2/6
f 623/2/6 620/2/6 624/2/6
f 619/2/6 621/2/6 625/2/6
f 622/2/6 623/2/6 626/2/6
f 626/2/6 623/2/6 627/2/6
f 624/2/6 620/2/6 628/2/6
f 626/2/6 627/2/6 629/2/6
f 627/2/6 628/2/6 629/2/6
f 619/2/6 625/2/6 629/2/6
f 625/2/6 626/2/6 629/2/6
f 628/2/6 620/2/6 630/2/6
f 629/2/6 628/2/6 630/2/6
f 631/2/6 632/2/6 633/2/6
f 633/2/6 632/2/6 634/2/6
f 634/2/6 632/2/6 635/2/6
f 635/2/6 632/2/6 636/2/6
f 631/2/6 633/2/6 637/2/6
f 634/2/6 635/2/6 638/2/6
f 638/2/6 635/2/6 639/2/6
f 636/2/6 632/2/6 640/2/6
f 638/2/6 639/2/6 641/2/6
f 639/2/6 640/2/6 641/2/6
f 631/2/6 637/2/6 641/2/6
f 637/2/6 638/2/6 641/2/6
f 640/2/6 632/2/6 642/2/6
f 641/2/6 640/2/6 642/2/6
f 643/2/6 644/2/6 645/2/6
f 645/2/6 644/2/6 646/2/6
f 646/2/6 644/2/6 647/2/6
f 647/2/6 644/2/6 648/2/6
f 643/2/6 645/2/6 649/2/6
f 646/2/6 647/2/6 650/2/6
f 650/2/6 647/2/6 651/2/6
f 648/2/6 644/2/6 652/2/6
f 650/2/6 651/2/6 653/2/6
f 651/2/6 652/2/6 653/2/6
f 643/2/6 649/2/6 653/2/6
f 649/2/6 650/2/6 653/2/6
f 652/2/6 644/2/6 654/2/6
f 653/2/6 652/2/6 654/2/6
f 655/2/6 656/2/6 657/2/6
f 657/2/6 656/2/6 658/2/6
f 658/2/6 656/2/6 659/2/6
f 659/2/6 656/2/6 660/2/6
f 655/2/6 657/2/6 661/2/6
f 658/2/6 659/2/6 662/2/6
f 662/2/6 659/2/6 663/2/6
f 660/2/6 656/2/6 664/2/6
f 662/2/6 663/2/6 665/2/6
f 663/2/6 664/2/6 665/2/6
f 655/2/6 661/2/6 665/2/6
f 661/2/6 662/2/6 665/2/6
f 664/2/6 656/2/6 666/2/6
f 665/2/6 664/2/6 666/2/6
f 667/2/6 668/2/6 669/2/6
f 669/2/6 668/2/6 670/2/6
f 670/2/6 668/2/6 671/2/6
f 671/2/6 668/2/6 672/2/6
f 667/2/6 669/2/6 673/2/6
f 670/2/6 671/2/6 674/2/6
f 674/2/6 671/2/6 675/2/6
f 672/2/6 668/2/6 676/2/6
f 674/2/6 675/2/6 677/2/6
f 675/2/6 676/2/6 677/2/6
f 667/2/6 673/2/6 677/2/6
f 673/2/6 674/2/6 677/2/6
f 676/2/6 668/2/6 678/2/6
f 677/2/6 676/2/6 678/2/6
f 679/2/6 680/2/6 681/2/6
f 681/2/6 680/2/6 682/2/6
f 682/2/6 680/2/6 683/2/6
f 683/2/6 680/2/6 684/2/6
f 679/2/6 681/2/6 685/2/6
f 682/2/6 683/2/6 686/2/6
f 686/2/6 683/2/6 687/2/6
f 684/2/6 680/2/6 688/2/6
f 686/2/6 687/2/6 689/2/6
f 687/2/6 688/2/6 689/2/6
f 679/2/6 685/2/6 689/2/6
f 685/2/6 686/2/6 689/2/6
f 688/2/6 680/2/6 690/2/6
f 689/2/6 688/2/6 690/2/6
f 691/1/6 692/1/6 693/1/6
f 693/1/6 692/1/6 694/1/6
f 695/1/6 696/1/6 697/1/6
f 697/1/6 696/1/6 698/1/6
