# MagicaVoxel @ Ephtracy

# group
o 

# material
mtllib mesinha.mtl
usemtl palette

# normals
vn -1 0 0
vn 1 0 0
vn 0 0 1
vn 0 0 -1
vn 0 -1 0
vn 0 1 0

# texcoords
vt 0.0449219 0.5
vt 0.369141 0.5
vt 0.537109 0.5
vt 0.966797 0.5
vt 0.978516 0.5

# verts
v -0.6 0 0.6
v -0.6 0 0.4
v -0.6 0 -0.4
v -0.6 0 -0.6
v -0.6 0.9 0.4
v -0.6 0.9 -0.4
v -0.6 1.1 0.6
v -0.6 1.1 -0.6
v -0.5 0.5 0.4
v -0.5 0.5 -0.4
v -0.5 0.9 0.4
v -0.5 0.9 -0.4
v -0.1 0.6 0.6
v -0.1 0.6 0.5
v -0.1 0.7 0.6
v -0.1 0.7 0.5
v 0.4 0 0.6
v 0.4 0 0.4
v 0.4 0 -0.4
v 0.4 0 -0.6
v 0.4 0.5 0.5
v 0.4 0.5 0.4
v 0.4 0.5 -0.4
v 0.4 0.5 -0.5
v 0.4 0.9 0.6
v 0.4 0.9 0.5
v 0.4 0.9 -0.5
v 0.4 0.9 -0.6
v -0.4 0 0.6
v -0.4 0 0.4
v -0.4 0 -0.4
v -0.4 0 -0.6
v -0.4 0.5 0.5
v -0.4 0.5 0.4
v -0.4 0.5 -0.4
v -0.4 0.5 -0.5
v -0.4 0.9 0.6
v -0.4 0.9 0.5
v -0.4 0.9 -0.5
v -0.4 0.9 -0.6
v 0.1 0.6 0.6
v 0.1 0.6 0.5
v 0.1 0.7 0.6
v 0.1 0.7 0.5
v 0.5 0.5 0.4
v 0.5 0.5 -0.4
v 0.5 0.9 0.4
v 0.5 0.9 -0.4
v 0.6 0 0.6
v 0.6 0 0.4
v 0.6 0 -0.4
v 0.6 0 -0.6
v 0.6 0.9 0.4
v 0.6 0.9 -0.4
v 0.6 1.1 0.6
v 0.6 1.1 -0.6
v -0.6 0 0.6
v -0.6 1.1 0.6
v -0.4 0 0.6
v -0.4 0.9 0.6
v -0.1 0.6 0.6
v -0.1 0.7 0.6
v 0.1 0.6 0.6
v 0.1 0.7 0.6
v 0.4 0 0.6
v 0.4 0.9 0.6
v 0.6 0 0.6
v 0.6 1.1 0.6
v -0.4 0.5 0.5
v -0.4 0.9 0.5
v -0.1 0.6 0.5
v -0.1 0.7 0.5
v 0.1 0.6 0.5
v 0.1 0.7 0.5
v 0.4 0.5 0.5
v 0.4 0.9 0.5
v -0.6 0 -0.4
v -0.6 0.9 -0.4
v -0.5 0.5 -0.4
v -0.5 0.9 -0.4
v -0.4 0 -0.4
v -0.4 0.5 -0.4
v 0.4 0 -0.4
v 0.4 0.5 -0.4
v 0.5 0.5 -0.4
v 0.5 0.9 -0.4
v 0.6 0 -0.4
v 0.6 0.9 -0.4
v -0.6 0 0.4
v -0.6 0.9 0.4
v -0.5 0.5 0.4
v -0.5 0.9 0.4
v -0.4 0 0.4
v -0.4 0.5 0.4
v 0.4 0 0.4
v 0.4 0.5 0.4
v 0.5 0.5 0.4
v 0.5 0.9 0.4
v 0.6 0 0.4
v 0.6 0.9 0.4
v -0.4 0.5 -0.5
v -0.4 0.9 -0.5
v 0.4 0.5 -0.5
v 0.4 0.9 -0.5
v -0.6 0 -0.6
v -0.6 1.1 -0.6
v -0.4 0 -0.6
v -0.4 0.9 -0.6
v 0.4 0 -0.6
v 0.4 0.9 -0.6
v 0.6 0 -0.6
v 0.6 1.1 -0.6
v -0.6 0 0.6
v -0.4 0 0.6
v 0.4 0 0.6
v 0.6 0 0.6
v -0.6 0 0.4
v -0.4 0 0.4
v 0.4 0 0.4
v 0.6 0 0.4
v -0.6 0 -0.4
v -0.4 0 -0.4
v 0.4 0 -0.4
v 0.6 0 -0.4
v -0.6 0 -0.6
v -0.4 0 -0.6
v 0.4 0 -0.6
v 0.6 0 -0.6
v -0.4 0.5 0.5
v 0.4 0.5 0.5
v -0.5 0.5 0.4
v -0.4 0.5 0.4
v 0.4 0.5 0.4
v 0.5 0.5 0.4
v -0.5 0.5 -0.4
v -0.4 0.5 -0.4
v 0.4 0.5 -0.4
v 0.5 0.5 -0.4
v -0.4 0.5 -0.5
v 0.4 0.5 -0.5
v -0.1 0.6 0.6
v 0.1 0.6 0.6
v -0.1 0.6 0.5
v 0.1 0.6 0.5
v -0.4 0.9 0.6
v 0.4 0.9 0.6
v -0.4 0.9 0.5
v 0.4 0.9 0.5
v -0.6 0.9 0.4
v -0.5 0.9 0.4
v 0.5 0.9 0.4
v 0.6 0.9 0.4
v -0.6 0.9 -0.4
v -0.5 0.9 -0.4
v 0.5 0.9 -0.4
v 0.6 0.9 -0.4
v -0.4 0.9 -0.5
v 0.4 0.9 -0.5
v -0.4 0.9 -0.6
v 0.4 0.9 -0.6
v -0.1 0.7 0.6
v 0.1 0.7 0.6
v -0.1 0.7 0.5
v 0.1 0.7 0.5
v -0.6 1.1 0.6
v 0.6 1.1 0.6
v -0.6 1.1 -0.6
v 0.6 1.1 -0.6

# faces
f 5/3/1 2/3/1 1/3/1
f 6/3/1 4/3/1 3/3/1
f 7/3/1 5/3/1 1/3/1
f 7/3/1 6/3/1 5/3/1
f 8/3/1 4/3/1 6/3/1
f 8/3/1 6/3/1 7/3/1
f 11/2/1 10/2/1 9/2/1
f 12/2/1 10/2/1 11/2/1
f 15/1/1 14/1/1 13/1/1
f 16/1/1 14/1/1 15/1/1
f 21/3/1 18/3/1 17/3/1
f 22/3/1 18/3/1 21/3/1
f 23/3/1 20/3/1 19/3/1
f 24/3/1 20/3/1 23/3/1
f 25/3/1 21/3/1 17/3/1
f 26/3/1 21/3/1 25/3/1
f 27/3/1 20/3/1 24/3/1
f 28/3/1 20/3/1 27/3/1
f 29/3/2 30/3/2 33/3/2
f 33/3/2 30/3/2 34/3/2
f 31/3/2 32/3/2 35/3/2
f 35/3/2 32/3/2 36/3/2
f 29/3/2 33/3/2 37/3/2
f 37/3/2 33/3/2 38/3/2
f 36/3/2 32/3/2 39/3/2
f 39/3/2 32/3/2 40/3/2
f 41/1/2 42/1/2 43/1/2
f 43/1/2 42/1/2 44/1/2
f 45/2/2 46/2/2 47/2/2
f 47/2/2 46/2/2 48/2/2
f 49/3/2 50/3/2 53/3/2
f 51/3/2 52/3/2 54/3/2
f 49/3/2 53/3/2 55/3/2
f 53/3/2 54/3/2 55/3/2
f 54/3/2 52/3/2 56/3/2
f 55/3/2 54/3/2 56/3/2
f 59/3/3 58/3/3 57/3/3
f 60/3/3 58/3/3 59/3/3
f 63/1/3 62/1/3 61/1/3
f 64/1/3 62/1/3 63/1/3
f 66/3/3 58/3/3 60/3/3
f 67/3/3 66/3/3 65/3/3
f 68/3/3 58/3/3 66/3/3
f 68/3/3 66/3/3 67/3/3
f 71/2/3 70/2/3 69/2/3
f 72/2/3 70/2/3 71/2/3
f 73/2/3 71/2/3 69/2/3
f 74/2/3 70/2/3 72/2/3
f 75/2/3 73/2/3 69/2/3
f 75/2/3 74/2/3 73/2/3
f 76/2/3 70/2/3 74/2/3
f 76/2/3 74/2/3 75/2/3
f 79/3/3 78/3/3 77/3/3
f 80/3/3 78/3/3 79/3/3
f 81/3/3 79/3/3 77/3/3
f 82/3/3 79/3/3 81/3/3
f 85/3/3 84/3/3 83/3/3
f 87/3/3 85/3/3 83/3/3
f 87/3/3 86/3/3 85/3/3
f 88/3/3 86/3/3 87/3/3
f 89/3/4 90/3/4 91/3/4
f 91/3/4 90/3/4 92/3/4
f 89/3/4 91/3/4 93/3/4
f 93/3/4 91/3/4 94/3/4
f 95/3/4 96/3/4 97/3/4
f 95/3/4 97/3/4 99/3/4
f 97/3/4 98/3/4 99/3/4
f 99/3/4 98/3/4 100/3/4
f 101/2/4 102/2/4 103/2/4
f 103/2/4 102/2/4 104/2/4
f 105/3/4 106/3/4 107/3/4
f 107/3/4 106/3/4 108/3/4
f 108/3/4 106/3/4 110/3/4
f 109/3/4 110/3/4 111/3/4
f 110/3/4 106/3/4 112/3/4
f 111/3/4 110/3/4 112/3/4
f 117/3/5 114/3/5 113/3/5
f 118/3/5 114/3/5 117/3/5
f 119/3/5 116/3/5 115/3/5
f 120/3/5 116/3/5 119/3/5
f 125/3/5 122/3/5 121/3/5
f 126/3/5 122/3/5 125/3/5
f 127/3/5 124/3/5 123/3/5
f 128/3/5 124/3/5 127/3/5
f 132/2/5 130/2/5 129/2/5
f 133/2/5 130/2/5 132/2/5
f 135/2/5 132/2/5 131/2/5
f 136/5/5 133/5/5 132/5/5
f 136/2/5 132/2/5 135/2/5
f 137/2/5 134/2/5 133/2/5
f 137/5/5 133/5/5 136/5/5
f 138/2/5 134/2/5 137/2/5
f 139/2/5 137/2/5 136/2/5
f 140/2/5 137/2/5 139/2/5
f 143/1/5 142/1/5 141/1/5
f 144/1/5 142/1/5 143/1/5
f 147/3/5 146/3/5 145/3/5
f 148/3/5 146/3/5 147/3/5
f 153/3/5 150/3/5 149/3/5
f 154/3/5 150/3/5 153/3/5
f 155/3/5 152/3/5 151/3/5
f 156/3/5 152/3/5 155/3/5
f 159/3/5 158/3/5 157/3/5
f 160/3/5 158/3/5 159/3/5
f 161/1/6 162/1/6 163/1/6
f 163/1/6 162/1/6 164/1/6
f 165/3/6 166/3/6 167/3/6
f 167/3/6 166/3/6 168/3/6
