# MagicaVoxel @ Ephtracy

# group
o 

# material
mtllib mesinhacoabajur.mtl
usemtl palette

# normals
vn -1 0 0
vn 1 0 0
vn 0 0 1
vn 0 0 -1
vn 0 -1 0
vn 0 1 0

# texcoords
vt 0.0214844 0.5
vt 0.0449219 0.5
vt 0.373047 0.5
vt 0.677734 0.5
vt 0.962891 0.5
vt 0.966797 0.5
vt 0.978516 0.5
vt 0.982422 0.5

# verts
v -0.6 0 0.6
v -0.6 0 0.4
v -0.6 0 -0.4
v -0.6 0 -0.6
v -0.6 0.9 0.4
v -0.6 0.9 -0.4
v -0.6 1.1 0.6
v -0.6 1.1 -0.6
v -0.5 0.5 0.4
v -0.5 0.5 -0.4
v -0.5 0.9 0.4
v -0.5 0.9 -0.4
v -0.2 1.1 0.2
v -0.2 1.1 -0.2
v -0.2 1.2 0.2
v -0.2 1.2 -0.2
v -0.2 1.6 0.2
v -0.2 1.6 -0.2
v -0.2 2 0.2
v -0.2 2 -0.2
v -0.1 0.6 0.6
v -0.1 0.6 0.5
v -0.1 0.7 0.6
v -0.1 0.7 0.5
v -0.1 1.2 0.1
v -0.1 1.2 -0.1
v -0.1 1.6 0.1
v -0.1 1.6 -0.1
v 0.4 0 0.6
v 0.4 0 0.4
v 0.4 0 -0.4
v 0.4 0 -0.6
v 0.4 0.5 0.5
v 0.4 0.5 0.4
v 0.4 0.5 -0.4
v 0.4 0.5 -0.5
v 0.4 0.9 0.6
v 0.4 0.9 0.5
v 0.4 0.9 -0.5
v 0.4 0.9 -0.6
v -0.4 0 0.6
v -0.4 0 0.4
v -0.4 0 -0.4
v -0.4 0 -0.6
v -0.4 0.5 0.5
v -0.4 0.5 0.4
v -0.4 0.5 -0.4
v -0.4 0.5 -0.5
v -0.4 0.9 0.6
v -0.4 0.9 0.5
v -0.4 0.9 -0.5
v -0.4 0.9 -0.6
v 0.1 0.6 0.6
v 0.1 0.6 0.5
v 0.1 0.7 0.6
v 0.1 0.7 0.5
v 0.1 1.2 0.1
v 0.1 1.2 -0.1
v 0.1 1.6 0.1
v 0.1 1.6 -0.1
v 0.2 1.1 0.2
v 0.2 1.1 -0.2
v 0.2 1.2 0.2
v 0.2 1.2 -0.2
v 0.2 1.6 0.2
v 0.2 1.6 -0.2
v 0.2 2 0.2
v 0.2 2 -0.2
v 0.5 0.5 0.4
v 0.5 0.5 -0.4
v 0.5 0.9 0.4
v 0.5 0.9 -0.4
v 0.6 0 0.6
v 0.6 0 0.4
v 0.6 0 -0.4
v 0.6 0 -0.6
v 0.6 0.9 0.4
v 0.6 0.9 -0.4
v 0.6 1.1 0.6
v 0.6 1.1 -0.6
v -0.6 0 0.6
v -0.6 1.1 0.6
v -0.4 0 0.6
v -0.4 0.9 0.6
v -0.1 0.6 0.6
v -0.1 0.7 0.6
v 0.1 0.6 0.6
v 0.1 0.7 0.6
v 0.4 0 0.6
v 0.4 0.9 0.6
v 0.6 0 0.6
v 0.6 1.1 0.6
v -0.4 0.5 0.5
v -0.4 0.9 0.5
v -0.1 0.6 0.5
v -0.1 0.7 0.5
v 0.1 0.6 0.5
v 0.1 0.7 0.5
v 0.4 0.5 0.5
v 0.4 0.9 0.5
v -0.2 1.1 0.2
v -0.2 1.2 0.2
v -0.2 1.6 0.2
v -0.2 2 0.2
v 0.2 1.1 0.2
v 0.2 1.2 0.2
v 0.2 1.6 0.2
v 0.2 2 0.2
v -0.1 1.2 0.1
v -0.1 1.6 0.1
v 0.1 1.2 0.1
v 0.1 1.6 0.1
v -0.6 0 -0.4
v -0.6 0.9 -0.4
v -0.5 0.5 -0.4
v -0.5 0.9 -0.4
v -0.4 0 -0.4
v -0.4 0.5 -0.4
v 0.4 0 -0.4
v 0.4 0.5 -0.4
v 0.5 0.5 -0.4
v 0.5 0.9 -0.4
v 0.6 0 -0.4
v 0.6 0.9 -0.4
v -0.6 0 0.4
v -0.6 0.9 0.4
v -0.5 0.5 0.4
v -0.5 0.9 0.4
v -0.4 0 0.4
v -0.4 0.5 0.4
v 0.4 0 0.4
v 0.4 0.5 0.4
v 0.5 0.5 0.4
v 0.5 0.9 0.4
v 0.6 0 0.4
v 0.6 0.9 0.4
v -0.1 1.2 -0.1
v -0.1 1.6 -0.1
v 0.1 1.2 -0.1
v 0.1 1.6 -0.1
v -0.2 1.1 -0.2
v -0.2 1.2 -0.2
v -0.2 1.6 -0.2
v -0.2 2 -0.2
v 0.2 1.1 -0.2
v 0.2 1.2 -0.2
v 0.2 1.6 -0.2
v 0.2 2 -0.2
v -0.4 0.5 -0.5
v -0.4 0.9 -0.5
v 0.4 0.5 -0.5
v 0.4 0.9 -0.5
v -0.6 0 -0.6
v -0.6 1.1 -0.6
v -0.4 0 -0.6
v -0.4 0.9 -0.6
v 0.4 0 -0.6
v 0.4 0.9 -0.6
v 0.6 0 -0.6
v 0.6 1.1 -0.6
v -0.6 0 0.6
v -0.4 0 0.6
v 0.4 0 0.6
v 0.6 0 0.6
v -0.6 0 0.4
v -0.4 0 0.4
v 0.4 0 0.4
v 0.6 0 0.4
v -0.6 0 -0.4
v -0.4 0 -0.4
v 0.4 0 -0.4
v 0.6 0 -0.4
v -0.6 0 -0.6
v -0.4 0 -0.6
v 0.4 0 -0.6
v 0.6 0 -0.6
v -0.4 0.5 0.5
v 0.4 0.5 0.5
v -0.5 0.5 0.4
v -0.4 0.5 0.4
v 0.4 0.5 0.4
v 0.5 0.5 0.4
v -0.5 0.5 -0.4
v -0.4 0.5 -0.4
v 0.4 0.5 -0.4
v 0.5 0.5 -0.4
v -0.4 0.5 -0.5
v 0.4 0.5 -0.5
v -0.1 0.6 0.6
v 0.1 0.6 0.6
v -0.1 0.6 0.5
v 0.1 0.6 0.5
v -0.4 0.9 0.6
v 0.4 0.9 0.6
v -0.4 0.9 0.5
v 0.4 0.9 0.5
v -0.6 0.9 0.4
v -0.5 0.9 0.4
v 0.5 0.9 0.4
v 0.6 0.9 0.4
v -0.6 0.9 -0.4
v -0.5 0.9 -0.4
v 0.5 0.9 -0.4
v 0.6 0.9 -0.4
v -0.4 0.9 -0.5
v 0.4 0.9 -0.5
v -0.4 0.9 -0.6
v 0.4 0.9 -0.6
v -0.2 1.6 0.2
v 0.2 1.6 0.2
v -0.1 1.6 0.1
v 0.1 1.6 0.1
v -0.1 1.6 -0.1
v 0.1 1.6 -0.1
v -0.2 1.6 -0.2
v 0.2 1.6 -0.2
v -0.1 0.7 0.6
v 0.1 0.7 0.6
v -0.1 0.7 0.5
v 0.1 0.7 0.5
v -0.6 1.1 0.6
v 0.6 1.1 0.6
v -0.2 1.1 0.2
v 0.2 1.1 0.2
v -0.2 1.1 -0.2
v 0.2 1.1 -0.2
v -0.6 1.1 -0.6
v 0.6 1.1 -0.6
v -0.2 1.2 0.2
v 0.2 1.2 0.2
v -0.1 1.2 0.1
v 0.1 1.2 0.1
v -0.1 1.2 -0.1
v 0.1 1.2 -0.1
v -0.2 1.2 -0.2
v 0.2 1.2 -0.2
v -0.2 2 0.2
v 0.2 2 0.2
v -0.2 2 -0.2
v 0.2 2 -0.2

# faces
f 5/3/1 2/3/1 1/3/1
f 6/3/1 4/3/1 3/3/1
f 7/3/1 5/3/1 1/3/1
f 7/3/1 6/3/1 5/3/1
f 8/3/1 4/3/1 6/3/1
f 8/3/1 6/3/1 7/3/1
f 11/4/1 10/4/1 9/4/1
f 12/4/1 10/4/1 11/4/1
f 15/5/1 14/5/1 13/5/1
f 16/5/1 14/5/1 15/5/1
f 19/1/1 18/1/1 17/1/1
f 20/1/1 18/1/1 19/1/1
f 23/2/1 22/2/1 21/2/1
f 24/2/1 22/2/1 23/2/1
f 27/5/1 26/5/1 25/5/1
f 28/5/1 26/5/1 27/5/1
f 33/3/1 30/3/1 29/3/1
f 34/3/1 30/3/1 33/3/1
f 35/3/1 32/3/1 31/3/1
f 36/3/1 32/3/1 35/3/1
f 37/3/1 33/3/1 29/3/1
f 38/3/1 33/3/1 37/3/1
f 39/3/1 32/3/1 36/3/1
f 40/3/1 32/3/1 39/3/1
f 41/3/2 42/3/2 45/3/2
f 45/3/2 42/3/2 46/3/2
f 43/3/2 44/3/2 47/3/2
f 47/3/2 44/3/2 48/3/2
f 41/3/2 45/3/2 49/3/2
f 49/3/2 45/3/2 50/3/2
f 48/3/2 44/3/2 51/3/2
f 51/3/2 44/3/2 52/3/2
f 53/2/2 54/2/2 55/2/2
f 55/2/2 54/2/2 56/2/2
f 57/5/2 58/5/2 59/5/2
f 59/5/2 58/5/2 60/5/2
f 61/5/2 62/5/2 63/5/2
f 63/5/2 62/5/2 64/5/2
f 65/1/2 66/1/2 67/1/2
f 67/1/2 66/1/2 68/1/2
f 69/4/2 70/4/2 71/4/2
f 71/4/2 70/4/2 72/4/2
f 73/3/2 74/3/2 77/3/2
f 75/3/2 76/3/2 78/3/2
f 73/3/2 77/3/2 79/3/2
f 77/3/2 78/3/2 79/3/2
f 78/3/2 76/3/2 80/3/2
f 79/3/2 78/3/2 80/3/2
f 83/3/3 82/3/3 81/3/3
f 84/3/3 82/3/3 83/3/3
f 87/2/3 86/2/3 85/2/3
f 88/2/3 86/2/3 87/2/3
f 90/3/3 82/3/3 84/3/3
f 91/3/3 90/3/3 89/3/3
f 92/3/3 82/3/3 90/3/3
f 92/3/3 90/3/3 91/3/3
f 95/4/3 94/4/3 93/4/3
f 96/4/3 94/4/3 95/4/3
f 97/4/3 95/4/3 93/4/3
f 98/4/3 94/4/3 96/4/3
f 99/4/3 97/4/3 93/4/3
f 99/4/3 98/4/3 97/4/3
f 100/4/3 94/4/3 98/4/3
f 100/4/3 98/4/3 99/4/3
f 105/5/3 102/5/3 101/5/3
f 106/5/3 102/5/3 105/5/3
f 107/1/3 104/1/3 103/1/3
f 108/1/3 104/1/3 107/1/3
f 111/5/3 110/5/3 109/5/3
f 112/5/3 110/5/3 111/5/3
f 115/3/3 114/3/3 113/3/3
f 116/3/3 114/3/3 115/3/3
f 117/3/3 115/3/3 113/3/3
f 118/3/3 115/3/3 117/3/3
f 121/3/3 120/3/3 119/3/3
f 123/3/3 121/3/3 119/3/3
f 123/3/3 122/3/3 121/3/3
f 124/3/3 122/3/3 123/3/3
f 125/3/4 126/3/4 127/3/4
f 127/3/4 126/3/4 128/3/4
f 125/3/4 127/3/4 129/3/4
f 129/3/4 127/3/4 130/3/4
f 131/3/4 132/3/4 133/3/4
f 131/3/4 133/3/4 135/3/4
f 133/3/4 134/3/4 135/3/4
f 135/3/4 134/3/4 136/3/4
f 137/5/4 138/5/4 139/5/4
f 139/5/4 138/5/4 140/5/4
f 141/5/4 142/5/4 145/5/4
f 145/5/4 142/5/4 146/5/4
f 143/1/4 144/1/4 147/1/4
f 147/1/4 144/1/4 148/1/4
f 149/4/4 150/4/4 151/4/4
f 151/4/4 150/4/4 152/4/4
f 153/3/4 154/3/4 155/3/4
f 155/3/4 154/3/4 156/3/4
f 156/3/4 154/3/4 158/3/4
f 157/3/4 158/3/4 159/3/4
f 158/3/4 154/3/4 160/3/4
f 159/3/4 158/3/4 160/3/4
f 165/3/5 162/3/5 161/3/5
f 166/3/5 162/3/5 165/3/5
f 167/3/5 164/3/5 163/3/5
f 168/3/5 164/3/5 167/3/5
f 173/3/5 170/3/5 169/3/5
f 174/3/5 170/3/5 173/3/5
f 175/3/5 172/3/5 171/3/5
f 176/3/5 172/3/5 175/3/5
f 180/4/5 178/4/5 177/4/5
f 181/4/5 178/4/5 180/4/5
f 183/4/5 180/4/5 179/4/5
f 184/7/5 181/7/5 180/7/5
f 184/4/5 180/4/5 183/4/5
f 185/4/5 182/4/5 181/4/5
f 185/7/5 181/7/5 184/7/5
f 186/4/5 182/4/5 185/4/5
f 187/4/5 185/4/5 184/4/5
f 188/4/5 185/4/5 187/4/5
f 191/2/5 190/2/5 189/2/5
f 192/2/5 190/2/5 191/2/5
f 195/3/5 194/3/5 193/3/5
f 196/3/5 194/3/5 195/3/5
f 201/3/5 198/3/5 197/3/5
f 202/3/5 198/3/5 201/3/5
f 203/3/5 200/3/5 199/3/5
f 204/3/5 200/3/5 203/3/5
f 207/3/5 206/3/5 205/3/5
f 208/3/5 206/3/5 207/3/5
f 211/1/5 210/1/5 209/1/5
f 212/1/5 210/1/5 211/1/5
f 213/1/5 211/1/5 209/1/5
f 214/1/5 210/1/5 212/1/5
f 215/1/5 213/1/5 209/1/5
f 215/1/5 214/1/5 213/1/5
f 216/1/5 210/1/5 214/1/5
f 216/1/5 214/1/5 215/1/5
f 217/2/6 218/2/6 219/2/6
f 219/2/6 218/2/6 220/2/6
f 221/3/6 222/3/6 223/3/6
f 223/3/6 222/3/6 224/3/6
f 221/3/6 223/3/6 225/3/6
f 224/3/6 222/3/6 226/3/6
f 221/3/6 225/3/6 227/3/6
f 225/3/6 226/3/6 227/3/6
f 226/3/6 222/3/6 228/3/6
f 227/3/6 226/3/6 228/3/6
f 229/5/6 230/5/6 231/5/6
f 231/5/6 230/5/6 232/5/6
f 229/5/6 231/5/6 233/5/6
f 232/5/6 230/5/6 234/5/6
f 229/5/6 233/5/6 235/5/6
f 233/5/6 234/5/6 235/5/6
f 234/5/6 230/5/6 236/5/6
f 235/5/6 234/5/6 236/5/6
f 237/1/6 238/1/6 239/1/6
f 239/1/6 238/1/6 240/1/6
