# MagicaVoxel @ Ephtracy

# group
o 

# material
mtllib GuardaRoupas.mtl
usemtl palette

# normals
vn -1 0 0
vn 1 0 0
vn 0 0 1
vn 0 0 -1
vn 0 -1 0
vn 0 1 0

# texcoords
vt 0.00195313 0.5
vt 0.537109 0.5
vt 0.873047 0.5

# verts
v -6.4 1.9 -0.6
v -6.4 1.9 -1.1
v -6.4 1.9 -1.2
v -6.4 1.9 -6.4
v -6.4 25.6 -0.6
v -6.4 25.6 -1.1
v -6.4 25.6 -1.2
v -6.4 25.6 -6.4
v -6.3 2 -0.5
v -6.3 2 -0.6
v -6.3 25.5 -0.5
v -6.3 25.5 -0.6
v -6.1 0 -1.1
v -6.1 0 -6.4
v -6.1 1.9 -0.5
v -6.1 1.9 -0.6
v -6.1 1.9 -1.1
v -6.1 1.9 -1.2
v -6.1 1.9 -6.4
v -6.1 2 -0.5
v -6.1 2 -0.6
v -6.1 25.5 -1.1
v -6.1 25.5 -1.2
v -0.5 12.8 -0.5
v -0.5 12.8 -0.6
v -0.5 12.8 -0.8
v -0.5 12.9 -0.5
v -0.5 12.9 -0.6
v -0.5 12.9 -0.8
v -0.4 12.9 -0.5
v -0.4 12.9 -0.6
v -0.4 12.9 -0.8
v -0.4 13 -0.5
v -0.4 13 -0.6
v -0.4 13 -0.8
v 0.0999999 1.9 -0.6
v 0.0999999 1.9 -1.1
v 0.0999999 25.5 -1.1
v 0.0999999 25.6 -0.6
v 0.0999999 25.6 -1.1
v 0.2 1.9 -0.5
v 0.2 1.9 -0.6
v 0.2 25.5 -0.5
v 0.2 25.5 -0.6
v 1.2 12.8 -0.5
v 1.2 12.8 -0.6
v 1.2 12.8 -0.8
v 1.2 12.9 -0.5
v 1.2 12.9 -0.6
v 1.2 12.9 -0.8
v 1.3 12.9 -0.5
v 1.3 12.9 -0.6
v 1.3 12.9 -0.8
v 1.3 13 -0.5
v 1.3 13 -0.6
v 1.3 13 -0.8
v -1.3 12.9 -0.5
v -1.3 12.9 -0.6
v -1.3 12.9 -0.8
v -1.3 13 -0.5
v -1.3 13 -0.6
v -1.3 13 -0.8
v -1.2 12.8 -0.5
v -1.2 12.8 -0.6
v -1.2 12.8 -0.8
v -1.2 12.9 -0.5
v -1.2 12.9 -0.6
v -1.2 12.9 -0.8
v -0.2 1.9 -0.5
v -0.2 1.9 -0.6
v -0.2 25.5 -0.5
v -0.2 25.5 -0.6
v -0.0999999 1.9 -0.6
v -0.0999999 1.9 -1.1
v -0.0999999 25.5 -1.1
v -0.0999999 25.6 -0.6
v -0.0999999 25.6 -1.1
v 0.4 12.9 -0.5
v 0.4 12.9 -0.6
v 0.4 12.9 -0.8
v 0.4 13 -0.5
v 0.4 13 -0.6
v 0.4 13 -0.8
v 0.5 12.8 -0.5
v 0.5 12.8 -0.6
v 0.5 12.8 -0.8
v 0.5 12.9 -0.5
v 0.5 12.9 -0.6
v 0.5 12.9 -0.8
v 6.1 0 -1.1
v 6.1 0 -6.4
v 6.1 1.9 -0.5
v 6.1 1.9 -0.6
v 6.1 1.9 -1.1
v 6.1 1.9 -1.2
v 6.1 1.9 -6.4
v 6.1 2 -0.5
v 6.1 2 -0.6
v 6.1 25.5 -1.1
v 6.1 25.5 -1.2
v 6.3 2 -0.5
v 6.3 2 -0.6
v 6.3 25.5 -0.5
v 6.3 25.5 -0.6
v 6.4 1.9 -0.6
v 6.4 1.9 -1.1
v 6.4 1.9 -1.2
v 6.4 1.9 -6.4
v 6.4 25.6 -0.6
v 6.4 25.6 -1.1
v 6.4 25.6 -1.2
v 6.4 25.6 -6.4
v -6.3 2 -0.5
v -6.3 25.5 -0.5
v -6.1 1.9 -0.5
v -6.1 2 -0.5
v -1.3 12.9 -0.5
v -1.3 13 -0.5
v -1.2 12.8 -0.5
v -1.2 12.9 -0.5
v -0.5 12.8 -0.5
v -0.5 12.9 -0.5
v -0.4 12.9 -0.5
v -0.4 13 -0.5
v -0.2 1.9 -0.5
v -0.2 25.5 -0.5
v 0.2 1.9 -0.5
v 0.2 25.5 -0.5
v 0.4 12.9 -0.5
v 0.4 13 -0.5
v 0.5 12.8 -0.5
v 0.5 12.9 -0.5
v 1.2 12.8 -0.5
v 1.2 12.9 -0.5
v 1.3 12.9 -0.5
v 1.3 13 -0.5
v 6.1 1.9 -0.5
v 6.1 2 -0.5
v 6.3 2 -0.5
v 6.3 25.5 -0.5
v -6.4 1.9 -0.6
v -6.4 25.6 -0.6
v -6.3 2 -0.6
v -6.3 25.5 -0.6
v -6.1 1.9 -0.6
v -6.1 2 -0.6
v -0.2 1.9 -0.6
v -0.2 25.5 -0.6
v -0.0999999 1.9 -0.6
v -0.0999999 25.6 -0.6
v 0.0999999 1.9 -0.6
v 0.0999999 25.6 -0.6
v 0.2 1.9 -0.6
v 0.2 25.5 -0.6
v 6.1 1.9 -0.6
v 6.1 2 -0.6
v 6.3 2 -0.6
v 6.3 25.5 -0.6
v 6.4 1.9 -0.6
v 6.4 25.6 -0.6
v -1.3 12.9 -0.8
v -1.3 13 -0.8
v -1.2 12.8 -0.8
v -1.2 12.9 -0.8
v -0.5 12.8 -0.8
v -0.5 12.9 -0.8
v -0.4 12.9 -0.8
v -0.4 13 -0.8
v 0.4 12.9 -0.8
v 0.4 13 -0.8
v 0.5 12.8 -0.8
v 0.5 12.9 -0.8
v 1.2 12.8 -0.8
v 1.2 12.9 -0.8
v 1.3 12.9 -0.8
v 1.3 13 -0.8
v -6.1 0 -1.1
v -6.1 1.9 -1.1
v -0.0999999 1.9 -1.1
v -0.0999999 25.5 -1.1
v 0.0999999 1.9 -1.1
v 0.0999999 25.5 -1.1
v 6.1 0 -1.1
v 6.1 1.9 -1.1
v -6.4 1.9 -1.2
v -6.4 25.6 -1.2
v -6.1 1.9 -1.2
v -6.1 25.5 -1.2
v 6.1 1.9 -1.2
v 6.1 25.5 -1.2
v 6.4 1.9 -1.2
v 6.4 25.6 -1.2
v -6.4 1.9 -1.1
v -6.4 25.6 -1.1
v -6.1 1.9 -1.1
v -6.1 25.5 -1.1
v -0.0999999 25.5 -1.1
v -0.0999999 25.6 -1.1
v 0.0999999 25.5 -1.1
v 0.0999999 25.6 -1.1
v 6.1 1.9 -1.1
v 6.1 25.5 -1.1
v 6.4 1.9 -1.1
v 6.4 25.6 -1.1
v -6.4 1.9 -6.4
v -6.4 25.6 -6.4
v -6.1 0 -6.4
v -6.1 1.9 -6.4
v 6.1 0 -6.4
v 6.1 1.9 -6.4
v 6.4 1.9 -6.4
v 6.4 25.6 -6.4
v -6.1 0 -1.1
v 6.1 0 -1.1
v -6.1 0 -6.4
v 6.1 0 -6.4
v -6.1 1.9 -0.5
v -0.2 1.9 -0.5
v 0.2 1.9 -0.5
v 6.1 1.9 -0.5
v -6.4 1.9 -0.6
v -6.1 1.9 -0.6
v -0.2 1.9 -0.6
v -0.0999999 1.9 -0.6
v 0.0999999 1.9 -0.6
v 0.2 1.9 -0.6
v 6.1 1.9 -0.6
v 6.4 1.9 -0.6
v -6.4 1.9 -1.1
v -6.1 1.9 -1.1
v -0.0999999 1.9 -1.1
v 0.0999999 1.9 -1.1
v 6.1 1.9 -1.1
v 6.4 1.9 -1.1
v -6.4 1.9 -1.2
v -6.1 1.9 -1.2
v 6.1 1.9 -1.2
v 6.4 1.9 -1.2
v -6.4 1.9 -6.4
v -6.1 1.9 -6.4
v 6.1 1.9 -6.4
v 6.4 1.9 -6.4
v -6.3 2 -0.5
v -6.1 2 -0.5
v 6.1 2 -0.5
v 6.3 2 -0.5
v -6.3 2 -0.6
v -6.1 2 -0.6
v 6.1 2 -0.6
v 6.3 2 -0.6
v -1.3 13 -0.5
v -0.4 13 -0.5
v 0.4 13 -0.5
v 1.3 13 -0.5
v -1.3 13 -0.6
v -0.4 13 -0.6
v 0.4 13 -0.6
v 1.3 13 -0.6
v -1.3 13 -0.8
v -0.4 13 -0.8
v 0.4 13 -0.8
v 1.3 13 -0.8
v -1.2 12.8 -0.5
v -0.5 12.8 -0.5
v 0.5 12.8 -0.5
v 1.2 12.8 -0.5
v -1.2 12.8 -0.6
v -0.5 12.8 -0.6
v 0.5 12.8 -0.6
v 1.2 12.8 -0.6
v -1.2 12.8 -0.8
v -0.5 12.8 -0.8
v 0.5 12.8 -0.8
v 1.2 12.8 -0.8
v -1.3 12.9 -0.5
v -1.2 12.9 -0.5
v -0.5 12.9 -0.5
v -0.4 12.9 -0.5
v 0.4 12.9 -0.5
v 0.5 12.9 -0.5
v 1.2 12.9 -0.5
v 1.3 12.9 -0.5
v -1.3 12.9 -0.6
v -1.2 12.9 -0.6
v -0.5 12.9 -0.6
v -0.4 12.9 -0.6
v 0.4 12.9 -0.6
v 0.5 12.9 -0.6
v 1.2 12.9 -0.6
v 1.3 12.9 -0.6
v -1.3 12.9 -0.8
v -1.2 12.9 -0.8
v -0.5 12.9 -0.8
v -0.4 12.9 -0.8
v 0.4 12.9 -0.8
v 0.5 12.9 -0.8
v 1.2 12.9 -0.8
v 1.3 12.9 -0.8
v -6.3 25.5 -0.5
v -0.2 25.5 -0.5
v 0.2 25.5 -0.5
v 6.3 25.5 -0.5
v -6.3 25.5 -0.6
v -0.2 25.5 -0.6
v 0.2 25.5 -0.6
v 6.3 25.5 -0.6
v -6.1 25.5 -1.1
v -0.0999999 25.5 -1.1
v 0.0999999 25.5 -1.1
v 6.1 25.5 -1.1
v -6.1 25.5 -1.2
v 6.1 25.5 -1.2
v -6.4 25.6 -0.6
v -0.0999999 25.6 -0.6
v 0.0999999 25.6 -0.6
v 6.4 25.6 -0.6
v -6.4 25.6 -1.1
v -0.0999999 25.6 -1.1
v 0.0999999 25.6 -1.1
v 6.4 25.6 -1.1
v -6.4 25.6 -1.2
v 6.4 25.6 -1.2
v -6.4 25.6 -6.4
v 6.4 25.6 -6.4

# faces
f 5/2/1 2/2/1 1/2/1
f 6/2/1 2/2/1 5/2/1
f 7/2/1 4/2/1 3/2/1
f 8/2/1 4/2/1 7/2/1
f 11/2/1 10/2/1 9/2/1
f 12/2/1 10/2/1 11/2/1
f 17/2/1 14/2/1 13/2/1
f 18/2/1 14/2/1 17/2/1
f 19/2/1 14/2/1 18/2/1
f 20/2/1 16/2/1 15/2/1
f 21/2/1 16/2/1 20/2/1
f 22/2/1 18/2/1 17/2/1
f 23/2/1 18/2/1 22/2/1
f 27/2/1 25/2/1 24/2/1
f 28/3/1 26/3/1 25/3/1
f 28/2/1 25/2/1 27/2/1
f 29/3/1 26/3/1 28/3/1
f 33/2/1 31/2/1 30/2/1
f 34/3/1 32/3/1 31/3/1
f 34/2/1 31/2/1 33/2/1
f 35/3/1 32/3/1 34/3/1
f 38/2/1 37/2/1 36/2/1
f 39/2/1 38/2/1 36/2/1
f 40/2/1 38/2/1 39/2/1
f 43/2/1 42/2/1 41/2/1
f 44/2/1 42/2/1 43/2/1
f 48/2/1 46/2/1 45/2/1
f 49/3/1 47/3/1 46/3/1
f 49/2/1 46/2/1 48/2/1
f 50/3/1 47/3/1 49/3/1
f 54/2/1 52/2/1 51/2/1
f 55/3/1 53/3/1 52/3/1
f 55/2/1 52/2/1 54/2/1
f 56/3/1 53/3/1 55/3/1
f 57/2/2 58/2/2 60/2/2
f 58/3/2 59/3/2 61/3/2
f 60/2/2 58/2/2 61/2/2
f 61/3/2 59/3/2 62/3/2
f 63/2/2 64/2/2 66/2/2
f 64/3/2 65/3/2 67/3/2
f 66/2/2 64/2/2 67/2/2
f 67/3/2 65/3/2 68/3/2
f 69/2/2 70/2/2 71/2/2
f 71/2/2 70/2/2 72/2/2
f 73/2/2 74/2/2 75/2/2
f 73/2/2 75/2/2 76/2/2
f 76/2/2 75/2/2 77/2/2
f 78/2/2 79/2/2 81/2/2
f 79/3/2 80/3/2 82/3/2
f 81/2/2 79/2/2 82/2/2
f 82/3/2 80/3/2 83/3/2
f 84/2/2 85/2/2 87/2/2
f 85/3/2 86/3/2 88/3/2
f 87/2/2 85/2/2 88/2/2
f 88/3/2 86/3/2 89/3/2
f 90/2/2 91/2/2 94/2/2
f 94/2/2 91/2/2 95/2/2
f 95/2/2 91/2/2 96/2/2
f 92/2/2 93/2/2 97/2/2
f 97/2/2 93/2/2 98/2/2
f 94/2/2 95/2/2 99/2/2
f 99/2/2 95/2/2 100/2/2
f 101/2/2 102/2/2 103/2/2
f 103/2/2 102/2/2 104/2/2
f 105/2/2 106/2/2 109/2/2
f 109/2/2 106/2/2 110/2/2
f 107/2/2 108/2/2 111/2/2
f 111/2/2 108/2/2 112/2/2
f 116/2/3 114/2/3 113/2/3
f 117/2/3 114/2/3 116/2/3
f 117/2/3 116/2/3 115/2/3
f 118/2/3 114/2/3 117/2/3
f 119/2/3 117/2/3 115/2/3
f 120/2/3 117/2/3 119/2/3
f 121/2/3 119/2/3 115/2/3
f 123/2/3 122/2/3 121/2/3
f 124/2/3 114/2/3 118/2/3
f 125/2/3 123/2/3 121/2/3
f 125/2/3 124/2/3 123/2/3
f 125/2/3 121/2/3 115/2/3
f 126/2/3 114/2/3 124/2/3
f 126/2/3 124/2/3 125/2/3
f 129/2/3 128/2/3 127/2/3
f 130/2/3 128/2/3 129/2/3
f 131/2/3 129/2/3 127/2/3
f 132/2/3 129/2/3 131/2/3
f 133/2/3 131/2/3 127/2/3
f 135/2/3 134/2/3 133/2/3
f 136/2/3 128/2/3 130/2/3
f 137/2/3 135/2/3 133/2/3
f 137/2/3 136/2/3 135/2/3
f 137/2/3 133/2/3 127/2/3
f 138/2/3 136/2/3 137/2/3
f 139/2/3 136/2/3 138/2/3
f 140/2/3 128/2/3 136/2/3
f 140/2/3 136/2/3 139/2/3
f 143/2/3 142/2/3 141/2/3
f 144/2/3 142/2/3 143/2/3
f 145/2/3 143/2/3 141/2/3
f 146/2/3 143/2/3 145/2/3
f 148/2/3 142/2/3 144/2/3
f 149/2/3 148/2/3 147/2/3
f 150/2/3 142/2/3 148/2/3
f 150/2/3 148/2/3 149/2/3
f 153/2/3 152/2/3 151/2/3
f 154/2/3 152/2/3 153/2/3
f 157/2/3 156/2/3 155/2/3
f 158/2/3 152/2/3 154/2/3
f 159/2/3 157/2/3 155/2/3
f 159/2/3 158/2/3 157/2/3
f 160/2/3 152/2/3 158/2/3
f 160/2/3 158/2/3 159/2/3
f 164/3/3 162/3/3 161/3/3
f 165/3/3 164/3/3 163/3/3
f 166/3/3 162/3/3 164/3/3
f 166/3/3 164/3/3 165/3/3
f 167/3/3 162/3/3 166/3/3
f 168/3/3 162/3/3 167/3/3
f 172/3/3 170/3/3 169/3/3
f 173/3/3 172/3/3 171/3/3
f 174/3/3 170/3/3 172/3/3
f 174/3/3 172/3/3 173/3/3
f 175/3/3 170/3/3 174/3/3
f 176/3/3 170/3/3 175/3/3
f 179/2/3 178/2/3 177/2/3
f 181/2/3 179/2/3 177/2/3
f 181/2/3 180/2/3 179/2/3
f 182/2/3 180/2/3 181/2/3
f 183/2/3 181/2/3 177/2/3
f 184/2/3 181/2/3 183/2/3
f 187/2/3 186/2/3 185/2/3
f 188/2/3 186/2/3 187/2/3
f 190/2/3 186/2/3 188/2/3
f 191/2/3 190/2/3 189/2/3
f 192/2/3 186/2/3 190/2/3
f 192/2/3 190/2/3 191/2/3
f 193/2/4 194/2/4 195/2/4
f 195/2/4 194/2/4 196/2/4
f 196/2/4 194/2/4 197/2/4
f 197/2/4 194/2/4 198/2/4
f 199/2/4 200/2/4 202/2/4
f 201/2/4 202/2/4 203/2/4
f 202/2/4 200/2/4 204/2/4
f 203/2/4 202/2/4 204/2/4
f 205/2/4 206/2/4 208/2/4
f 207/2/4 208/2/4 209/2/4
f 208/2/4 206/2/4 210/2/4
f 209/2/4 208/2/4 210/2/4
f 210/2/4 206/2/4 211/2/4
f 211/2/4 206/2/4 212/2/4
f 215/2/5 214/2/5 213/2/5
f 216/2/5 214/2/5 215/2/5
f 222/2/5 218/2/5 217/2/5
f 223/2/5 218/2/5 222/2/5
f 226/2/5 220/2/5 219/2/5
f 227/2/5 220/2/5 226/2/5
f 229/2/5 224/2/5 223/2/5
f 229/2/5 222/2/5 221/2/5
f 229/2/5 223/2/5 222/2/5
f 230/2/5 224/2/5 229/2/5
f 231/2/5 224/2/5 230/2/5
f 232/2/5 228/2/5 227/2/5
f 232/2/5 227/2/5 226/2/5
f 232/2/5 226/2/5 225/2/5
f 233/2/5 228/2/5 232/2/5
f 234/2/5 228/2/5 233/2/5
f 239/2/5 236/2/5 235/2/5
f 240/2/5 236/2/5 239/2/5
f 241/2/5 238/2/5 237/2/5
f 242/2/5 238/2/5 241/2/5
f 247/2/5 244/2/5 243/2/5
f 248/2/5 244/2/5 247/2/5
f 249/2/5 246/2/5 245/2/5
f 250/2/5 246/2/5 249/2/5
f 255/2/5 252/2/5 251/2/5
f 256/2/5 252/2/5 255/2/5
f 257/2/5 254/2/5 253/2/5
f 258/2/5 254/2/5 257/2/5
f 259/3/5 256/3/5 255/3/5
f 260/3/5 256/3/5 259/3/5
f 261/3/5 258/3/5 257/3/5
f 262/3/5 258/3/5 261/3/5
f 263/2/6 264/2/6 267/2/6
f 267/2/6 264/2/6 268/2/6
f 265/2/6 266/2/6 269/2/6
f 269/2/6 266/2/6 270/2/6
f 267/3/6 268/3/6 271/3/6
f 271/3/6 268/3/6 272/3/6
f 269/3/6 270/3/6 273/3/6
f 273/3/6 270/3/6 274/3/6
f 275/2/6 276/2/6 283/2/6
f 283/2/6 276/2/6 284/2/6
f 277/2/6 278/2/6 285/2/6
f 285/2/6 278/2/6 286/2/6
f 279/2/6 280/2/6 287/2/6
f 287/2/6 280/2/6 288/2/6
f 281/2/6 282/2/6 289/2/6
f 289/2/6 282/2/6 290/2/6
f 283/3/6 284/3/6 291/3/6
f 291/3/6 284/3/6 292/3/6
f 285/3/6 286/3/6 293/3/6
f 293/3/6 286/3/6 294/3/6
f 287/3/6 288/3/6 295/3/6
f 295/3/6 288/3/6 296/3/6
f 289/3/6 290/3/6 297/3/6
f 297/3/6 290/3/6 298/3/6
f 299/2/6 300/2/6 303/2/6
f 303/2/6 300/2/6 304/2/6
f 301/2/6 302/2/6 305/2/6
f 305/2/6 302/2/6 306/2/6
f 307/2/6 308/2/6 311/2/6
f 309/2/6 310/2/6 311/2/6
f 308/2/6 309/2/6 311/2/6
f 311/2/6 310/2/6 312/2/6
f 313/2/6 314/2/6 317/2/6
f 317/2/6 314/2/6 318/2/6
f 315/2/6 316/2/6 319/2/6
f 319/2/6 316/2/6 320/2/6
f 321/2/6 322/2/6 323/2/6
f 323/2/6 322/2/6 324/2/6
