# MagicaVoxel @ Ephtracy

# group
o 

# material
mtllib fonte1.mtl
usemtl palette

# normals
vn -1 0 0
vn 1 0 0
vn 0 0 1
vn 0 0 -1
vn 0 -1 0
vn 0 1 0

# texcoords
vt 0.970703 0.5
vt 0.974609 0.5
vt 0.978516 0.5
vt 0.982422 0.5
vt 0.986328 0.5

# verts
v -2 0 1.4
v -2 0 1.3
v -2 0 -1.7
v -2 1.3 1.4
v -2 1.3 1.3
v -2 1.3 -1.7
v -1.9 0.1 1.7
v -1.9 0.1 1.4
v -1.9 0.2 1.6
v -1.9 0.2 1.4
v -1.9 1 1.6
v -1.9 1 1.4
v -1.9 1.1 1.7
v -1.9 1.1 1.4
v -1.8 0.1 -1.7
v -1.8 0.1 -2
v -1.8 0.5 -1.7
v -1.8 0.5 -2
v -1.5 0.3 1.5
v -1.5 0.3 1.4
v -1.5 0.7 1.5
v -1.5 0.7 1.4
v -1.4 0.4 1.6
v -1.4 0.4 1.5
v -1.4 0.6 1.6
v -1.4 0.6 1.5
v -0.7 0.3 1.6
v -0.7 0.3 1.4
v -0.7 0.4 1.6
v -0.7 0.4 1.5
v -0.7 0.5 1.6
v -0.7 0.5 1.5
v -0.7 0.5 1.4
v -0.3 0.3 1.6
v -0.3 0.3 1.4
v -0.3 0.4 1.6
v -0.3 0.4 1.5
v -0.3 0.5 1.6
v -0.3 0.5 1.5
v -0.3 0.5 1.4
v -0.0999999 0.7 1.4
v -0.0999999 0.7 1.3
v -0.0999999 1 1.4
v -0.0999999 1 1.3
v 0.6 0.3 1.6
v 0.6 0.3 1.5
v 0.6 0.3 1.4
v 0.6 0.4 1.6
v 0.6 0.4 1.5
v 0.6 0.5 1.6
v 0.6 0.5 1.4
v 1 0.3 1.6
v 1 0.3 1.4
v 1 0.5 1.6
v 1 0.5 1.4
v 1.2 0.7 1.4
v 1.2 0.7 1.3
v 1.2 1 1.4
v 1.2 1 1.3
v 1.5 0.1 1.4
v 1.5 0.1 1.3
v 1.5 0.1 1.2
v 1.5 0.2 1.4
v 1.5 0.2 1.3
v 1.5 0.2 1.2
v 1.7 0.1 1.4
v 1.7 0.1 1.3
v 1.7 0.1 1.2
v 1.7 0.2 1.4
v 1.7 0.2 1.2
v 1.8 0.1 1.7
v 1.8 0.1 1.4
v 1.8 0.2 1.6
v 1.8 0.2 1.4
v 1.8 1 1.6
v 1.8 1 1.4
v 1.8 1.1 1.7
v 1.8 1.1 1.4
v -1.8 0.1 1.7
v -1.8 0.1 1.4
v -1.8 0.2 1.6
v -1.8 0.2 1.4
v -1.8 1 1.6
v -1.8 1 1.4
v -1.8 1.1 1.7
v -1.8 1.1 1.4
v -1.4 0.1 -1.7
v -1.4 0.1 -2
v -1.4 0.5 -1.7
v -1.4 0.5 -2
v -1.3 0.4 1.6
v -1.3 0.4 1.5
v -1.3 0.6 1.6
v -1.3 0.6 1.5
v -1.2 0.3 1.5
v -1.2 0.3 1.4
v -1.2 0.7 1.5
v -1.2 0.7 1.4
v -0.7 0.7 1.4
v -0.7 0.7 1.3
v -0.7 1 1.4
v -0.7 1 1.3
v -0.5 0.3 1.6
v -0.5 0.3 1.4
v -0.5 0.5 1.6
v -0.5 0.5 1.4
v -0.0999999 0.3 1.6
v -0.0999999 0.3 1.4
v -0.0999999 0.5 1.6
v -0.0999999 0.5 1.4
v 0.6 0.7 1.4
v 0.6 0.7 1.3
v 0.6 1 1.4
v 0.6 1 1.3
v 0.8 0.3 1.6
v 0.8 0.3 1.4
v 0.8 0.5 1.6
v 0.8 0.5 1.4
v 1.2 0.3 1.6
v 1.2 0.3 1.4
v 1.2 0.4 1.6
v 1.2 0.4 1.5
v 1.2 0.5 1.6
v 1.2 0.5 1.5
v 1.2 0.5 1.4
v 1.4 0.1 1.4
v 1.4 0.1 1.3
v 1.4 0.1 1.2
v 1.4 0.2 1.4
v 1.4 0.2 1.3
v 1.4 0.2 1.2
v 1.6 0.1 1.4
v 1.6 0.1 1.3
v 1.6 0.1 1.2
v 1.6 0.2 1.4
v 1.6 0.2 1.3
v 1.6 0.2 1.2
v 1.9 0.1 1.7
v 1.9 0.1 1.4
v 1.9 0.2 1.6
v 1.9 0.2 1.4
v 1.9 1 1.6
v 1.9 1 1.4
v 1.9 1.1 1.7
v 1.9 1.1 1.4
v 2 0 1.4
v 2 0 1.3
v 2 0 -1.7
v 2 0.1 0.4
v 2 0.1 0.2
v 2 0.2 0.8
v 2 0.2 0.4
v 2 0.2 0.2
v 2 0.2 -1.19209e-07
v 2 0.3 0.7
v 2 0.3 -1.19209e-07
v 2 0.4 0.8
v 2 0.4 0.7
v 2 0.5 0.5
v 2 0.5 -0.4
v 2 0.6 0.4
v 2 0.6 -0.4
v 2 0.7 0.5
v 2 0.7 0.4
v 2 0.8 0.9
v 2 0.8 0.8
v 2 0.8 0.7
v 2 0.8 0.3
v 2 0.9 0.8
v 2 0.9 0.7
v 2 0.9 0.3
v 2 1 0.9
v 2 1 0.7
v 2 1.3 1.4
v 2 1.3 1.3
v 2 1.3 -1.7
v -1.9 0.1 1.7
v -1.9 1.1 1.7
v -1.8 0.1 1.7
v -1.8 1.1 1.7
v 1.8 0.1 1.7
v 1.8 1.1 1.7
v 1.9 0.1 1.7
v 1.9 1.1 1.7
v -1.4 0.4 1.6
v -1.4 0.6 1.6
v -1.3 0.4 1.6
v -1.3 0.6 1.6
v -0.7 0.3 1.6
v -0.7 0.4 1.6
v -0.7 0.5 1.6
v -0.6 0.4 1.6
v -0.6 0.5 1.6
v -0.5 0.3 1.6
v -0.5 0.5 1.6
v -0.3 0.3 1.6
v -0.3 0.4 1.6
v -0.3 0.5 1.6
v -0.2 0.4 1.6
v -0.2 0.5 1.6
v -0.0999999 0.3 1.6
v -0.0999999 0.5 1.6
v 0.6 0.3 1.6
v 0.6 0.4 1.6
v 0.6 0.5 1.6
v 0.7 0.3 1.6
v 0.7 0.4 1.6
v 0.8 0.3 1.6
v 0.8 0.5 1.6
v 1 0.3 1.6
v 1 0.5 1.6
v 1.1 0.4 1.6
v 1.1 0.5 1.6
v 1.2 0.3 1.6
v 1.2 0.4 1.6
v 1.2 0.5 1.6
v -1.5 0.3 1.5
v -1.5 0.7 1.5
v -1.4 0.4 1.5
v -1.4 0.6 1.5
v -1.3 0.4 1.5
v -1.3 0.6 1.5
v -1.2 0.3 1.5
v -1.2 0.7 1.5
v -2 0 1.4
v -2 1.3 1.4
v -1.9 0.1 1.4
v -1.9 0.2 1.4
v -1.9 1 1.4
v -1.9 1.1 1.4
v -1.9 1.2 1.4
v -1.8 0.1 1.4
v -1.8 0.2 1.4
v -1.8 1 1.4
v -1.8 1.1 1.4
v -1.6 0.9 1.4
v -1.6 1 1.4
v -1.5 0.3 1.4
v -1.5 0.7 1.4
v -1.5 0.8 1.4
v -1.5 0.9 1.4
v -1.2 0.3 1.4
v -1.2 0.7 1.4
v -1.2 0.8 1.4
v -1.2 0.9 1.4
v -1.1 0.2 1.4
v -1.1 0.4 1.4
v -1.1 0.6 1.4
v -1.1 0.7 1.4
v -1.1 0.9 1.4
v -1.1 1 1.4
v -1 0.2 1.4
v -1 0.4 1.4
v -0.9 0.6 1.4
v -0.9 0.7 1.4
v -0.7 0.3 1.4
v -0.7 0.5 1.4
v -0.7 0.7 1.4
v -0.7 1 1.4
v -0.5 0.3 1.4
v -0.5 0.5 1.4
v -0.3 0.3 1.4
v -0.3 0.5 1.4
v -0.0999999 0.3 1.4
v -0.0999999 0.5 1.4
v -0.0999999 0.7 1.4
v -0.0999999 1 1.4
v 0.6 0.3 1.4
v 0.6 0.5 1.4
v 0.6 0.7 1.4
v 0.6 1 1.4
v 0.8 0.3 1.4
v 0.8 0.5 1.4
v 1 0.3 1.4
v 1 0.5 1.4
v 1.2 0.3 1.4
v 1.2 0.5 1.4
v 1.2 0.7 1.4
v 1.2 1 1.4
v 1.4 0.1 1.4
v 1.4 0.2 1.4
v 1.5 0.1 1.4
v 1.5 0.2 1.4
v 1.6 0.1 1.4
v 1.6 0.2 1.4
v 1.7 0.1 1.4
v 1.7 0.2 1.4
v 1.8 0.1 1.4
v 1.8 0.2 1.4
v 1.8 1 1.4
v 1.8 1.1 1.4
v 1.9 0.1 1.4
v 1.9 0.2 1.4
v 1.9 1 1.4
v 1.9 1.1 1.4
v 1.9 1.2 1.4
v 2 0 1.4
v 2 1.3 1.4
v -0.7 0.7 1.3
v -0.7 1 1.3
v -0.0999999 0.7 1.3
v -0.0999999 1 1.3
v 0.6 0.7 1.3
v 0.6 1 1.3
v 1.2 0.7 1.3
v 1.2 1 1.3
v 1.4 0.1 1.2
v 1.4 0.2 1.2
v 1.5 0.1 1.2
v 1.5 0.2 1.2
v 1.6 0.1 1.2
v 1.6 0.2 1.2
v 1.7 0.1 1.2
v 1.7 0.2 1.2
v -1.9 0.2 1.6
v -1.9 1 1.6
v -1.8 0.2 1.6
v -1.8 1 1.6
v 1.8 0.2 1.6
v 1.8 1 1.6
v 1.9 0.2 1.6
v 1.9 1 1.6
v -2 0 -1.7
v -2 1.3 -1.7
v -1.8 0.1 -1.7
v -1.8 0.5 -1.7
v -1.4 0.1 -1.7
v -1.4 0.5 -1.7
v 0.5 0.3 -1.7
v 0.5 0.9 -1.7
v 0.7 0.5 -1.7
v 0.7 0.6 -1.7
v 0.9 0.3 -1.7
v 0.9 0.4 -1.7
v 1 0.7 -1.7
v 1 0.8 -1.7
v 1.3 0.5 -1.7
v 1.3 0.6 -1.7
v 1.4 0.3 -1.7
v 1.4 0.4 -1.7
v 1.6 0.7 -1.7
v 1.6 0.8 -1.7
v 1.7 0.3 -1.7
v 1.7 0.9 -1.7
v 2 0 -1.7
v 2 1.3 -1.7
v -1.8 0.1 -2
v -1.8 0.5 -2
v -1.4 0.1 -2
v -1.4 0.5 -2
v -2 0 1.4
v 2 0 1.4
v -2 0 1.3
v 1.4 0 1.3
v 1.5 0 1.3
v 1.6 0 1.3
v 1.7 0 1.3
v 2 0 1.3
v 1.4 0 1.2
v 1.5 0 1.2
v 1.6 0 1.2
v 1.7 0 1.2
v -2 0 -1.7
v 2 0 -1.7
v -1.9 0.1 1.7
v -1.8 0.1 1.7
v 1.8 0.1 1.7
v 1.9 0.1 1.7
v -1.9 0.1 1.4
v -1.8 0.1 1.4
v 1.8 0.1 1.4
v 1.9 0.1 1.4
v -1.8 0.1 -1.7
v -1.4 0.1 -1.7
v -1.8 0.1 -2
v -1.4 0.1 -2
v 1.4 0.2 1.4
v 1.5 0.2 1.4
v 1.6 0.2 1.4
v 1.7 0.2 1.4
v 1.4 0.2 1.3
v 1.5 0.2 1.3
v 1.6 0.2 1.3
v 1.4 0.2 1.2
v 1.5 0.2 1.2
v 1.6 0.2 1.2
v 1.7 0.2 1.2
v -0.7 0.3 1.6
v -0.5 0.3 1.6
v -0.3 0.3 1.6
v -0.0999999 0.3 1.6
v 0.6 0.3 1.6
v 0.7 0.3 1.6
v 0.8 0.3 1.6
v 1 0.3 1.6
v 1.2 0.3 1.6
v -1.5 0.3 1.5
v -1.2 0.3 1.5
v 0.6 0.3 1.5
v 0.7 0.3 1.5
v -1.5 0.3 1.4
v -1.2 0.3 1.4
v -0.7 0.3 1.4
v -0.5 0.3 1.4
v -0.3 0.3 1.4
v -0.0999999 0.3 1.4
v 0.6 0.3 1.4
v 0.8 0.3 1.4
v 1 0.3 1.4
v 1.2 0.3 1.4
v -1.4 0.4 1.6
v -1.3 0.4 1.6
v -1.4 0.4 1.5
v -1.3 0.4 1.5
v -1.9 1 1.6
v -1.8 1 1.6
v 1.8 1 1.6
v 1.9 1 1.6
v -1.9 1 1.4
v -1.8 1 1.4
v -0.7 1 1.4
v -0.0999999 1 1.4
v 0.6 1 1.4
v 1.2 1 1.4
v 1.8 1 1.4
v 1.9 1 1.4
v -0.7 1 1.3
v -0.0999999 1 1.3
v 0.6 1 1.3
v 1.2 1 1.3
v 1.4 0.1 1.4
v 1.5 0.1 1.4
v 1.6 0.1 1.4
v 1.7 0.1 1.4
v 1.4 0.1 1.3
v 1.5 0.1 1.3
v 1.6 0.1 1.3
v 1.7 0.1 1.3
v 1.4 0.1 1.2
v 1.5 0.1 1.2
v 1.6 0.1 1.2
v 1.7 0.1 1.2
v -1.9 0.2 1.6
v -1.8 0.2 1.6
v 1.8 0.2 1.6
v 1.9 0.2 1.6
v -1.9 0.2 1.4
v -1.8 0.2 1.4
v 1.8 0.2 1.4
v 1.9 0.2 1.4
v -0.7 0.5 1.6
v -0.6 0.5 1.6
v -0.5 0.5 1.6
v -0.3 0.5 1.6
v -0.2 0.5 1.6
v -0.0999999 0.5 1.6
v 0.6 0.5 1.6
v 0.8 0.5 1.6
v 1 0.5 1.6
v 1.1 0.5 1.6
v 1.2 0.5 1.6
v -0.7 0.5 1.5
v -0.6 0.5 1.5
v -0.3 0.5 1.5
v -0.2 0.5 1.5
v 1.1 0.5 1.5
v 1.2 0.5 1.5
v -0.7 0.5 1.4
v -0.5 0.5 1.4
v -0.3 0.5 1.4
v -0.0999999 0.5 1.4
v 0.6 0.5 1.4
v 0.8 0.5 1.4
v 1 0.5 1.4
v 1.2 0.5 1.4
v -1.8 0.5 -1.7
v -1.4 0.5 -1.7
v -1.8 0.5 -2
v -1.4 0.5 -2
v -1.4 0.6 1.6
v -1.3 0.6 1.6
v -1.4 0.6 1.5
v -1.3 0.6 1.5
v -1.5 0.7 1.5
v -1.2 0.7 1.5
v -1.5 0.7 1.4
v -1.2 0.7 1.4
v -0.7 0.7 1.4
v -0.0999999 0.7 1.4
v 0.6 0.7 1.4
v 1.2 0.7 1.4
v -0.7 0.7 1.3
v -0.0999999 0.7 1.3
v 0.6 0.7 1.3
v 1.2 0.7 1.3
v -1.9 1.1 1.7
v -1.8 1.1 1.7
v 1.8 1.1 1.7
v 1.9 1.1 1.7
v -1.9 1.1 1.4
v -1.8 1.1 1.4
v 1.8 1.1 1.4
v 1.9 1.1 1.4
v -2 1.3 1.4
v 2 1.3 1.4
v -2 1.3 1.3
v 2 1.3 1.3
v -2 1.3 -1.7
v 2 1.3 -1.7

# faces
f 4/2/1 2/2/1 1/2/1
f 5/1/1 3/1/1 2/1/1
f 5/2/1 2/2/1 4/2/1
f 6/1/1 3/1/1 5/1/1
f 9/3/1 8/3/1 7/3/1
f 10/3/1 8/3/1 9/3/1
f 11/3/1 9/3/1 7/3/1
f 13/3/1 11/3/1 7/3/1
f 13/3/1 12/3/1 11/3/1
f 14/3/1 12/3/1 13/3/1
f 17/4/1 16/4/1 15/4/1
f 18/4/1 16/4/1 17/4/1
f 21/1/1 20/1/1 19/1/1
f 22/1/1 20/1/1 21/1/1
f 25/4/1 24/4/1 23/4/1
f 26/4/1 24/4/1 25/4/1
f 29/4/1 28/4/1 27/4/1
f 30/4/1 28/4/1 29/4/1
f 31/1/1 30/1/1 29/1/1
f 32/4/1 28/4/1 30/4/1
f 32/1/1 30/1/1 31/1/1
f 33/4/1 28/4/1 32/4/1
f 36/4/1 35/4/1 34/4/1
f 37/4/1 35/4/1 36/4/1
f 38/1/1 37/1/1 36/1/1
f 39/4/1 35/4/1 37/4/1
f 39/1/1 37/1/1 38/1/1
f 40/4/1 35/4/1 39/4/1
f 43/1/1 42/1/1 41/1/1
f 44/1/1 42/1/1 43/1/1
f 48/1/1 46/1/1 45/1/1
f 49/4/1 47/4/1 46/4/1
f 49/1/1 46/1/1 48/1/1
f 50/4/1 49/4/1 48/4/1
f 51/4/1 47/4/1 49/4/1
f 51/4/1 49/4/1 50/4/1
f 54/4/1 53/4/1 52/4/1
f 55/4/1 53/4/1 54/4/1
f 58/1/1 57/1/1 56/1/1
f 59/1/1 57/1/1 58/1/1
f 63/1/1 61/1/1 60/1/1
f 64/4/1 62/4/1 61/4/1
f 64/1/1 61/1/1 63/1/1
f 65/4/1 62/4/1 64/4/1
f 69/1/1 67/1/1 66/1/1
f 69/1/1 68/1/1 67/1/1
f 70/1/1 68/1/1 69/1/1
f 73/3/1 72/3/1 71/3/1
f 74/3/1 72/3/1 73/3/1
f 75/3/1 73/3/1 71/3/1
f 77/3/1 75/3/1 71/3/1
f 77/3/1 76/3/1 75/3/1
f 78/3/1 76/3/1 77/3/1
f 79/3/2 80/3/2 81/3/2
f 81/3/2 80/3/2 82/3/2
f 79/3/2 81/3/2 83/3/2
f 79/3/2 83/3/2 85/3/2
f 83/3/2 84/3/2 85/3/2
f 85/3/2 84/3/2 86/3/2
f 87/4/2 88/4/2 89/4/2
f 89/4/2 88/4/2 90/4/2
f 91/4/2 92/4/2 93/4/2
f 93/4/2 92/4/2 94/4/2
f 95/1/2 96/1/2 97/1/2
f 97/1/2 96/1/2 98/1/2
f 99/1/2 100/1/2 101/1/2
f 101/1/2 100/1/2 102/1/2
f 103/4/2 104/4/2 105/4/2
f 105/4/2 104/4/2 106/4/2
f 107/4/2 108/4/2 109/4/2
f 109/4/2 108/4/2 110/4/2
f 111/1/2 112/1/2 113/1/2
f 113/1/2 112/1/2 114/1/2
f 115/4/2 116/4/2 117/4/2
f 117/4/2 116/4/2 118/4/2
f 119/4/2 120/4/2 121/4/2
f 121/4/2 120/4/2 122/4/2
f 121/1/2 122/1/2 123/1/2
f 122/4/2 120/4/2 124/4/2
f 123/1/2 122/1/2 124/1/2
f 124/4/2 120/4/2 125/4/2
f 126/1/2 127/1/2 129/1/2
f 127/4/2 128/4/2 130/4/2
f 129/1/2 127/1/2 130/1/2
f 130/4/2 128/4/2 131/4/2
f 132/1/2 133/1/2 135/1/2
f 133/4/2 134/4/2 136/4/2
f 135/1/2 133/1/2 136/1/2
f 136/4/2 134/4/2 137/4/2
f 138/3/2 139/3/2 140/3/2
f 140/3/2 139/3/2 141/3/2
f 138/3/2 140/3/2 142/3/2
f 138/3/2 142/3/2 144/3/2
f 142/3/2 143/3/2 144/3/2
f 144/3/2 143/3/2 145/3/2
f 147/1/2 148/1/2 149/1/2
f 149/1/2 148/1/2 150/1/2
f 147/1/2 149/1/2 151/1/2
f 149/5/2 150/5/2 152/5/2
f 151/1/2 149/1/2 152/1/2
f 150/1/2 148/1/2 153/1/2
f 152/5/2 150/5/2 153/5/2
f 153/1/2 148/1/2 154/1/2
f 151/5/2 152/5/2 155/5/2
f 152/5/2 153/5/2 155/5/2
f 153/5/2 154/5/2 155/5/2
f 154/1/2 148/1/2 156/1/2
f 155/5/2 154/5/2 156/5/2
f 151/5/2 155/5/2 157/5/2
f 147/1/2 151/1/2 157/1/2
f 155/1/2 156/1/2 158/1/2
f 157/5/2 155/5/2 158/5/2
f 157/1/2 158/1/2 159/1/2
f 158/1/2 156/1/2 159/1/2
f 156/1/2 148/1/2 160/1/2
f 159/1/2 156/1/2 160/1/2
f 159/5/2 160/5/2 161/5/2
f 160/1/2 148/1/2 162/1/2
f 161/5/2 160/5/2 162/5/2
f 157/1/2 159/1/2 163/1/2
f 159/5/2 161/5/2 163/5/2
f 161/1/2 162/1/2 164/1/2
f 163/5/2 161/5/2 164/5/2
f 147/1/2 157/1/2 165/1/2
f 157/1/2 163/1/2 165/1/2
f 163/1/2 164/1/2 165/1/2
f 165/1/2 164/1/2 166/1/2
f 166/1/2 164/1/2 167/1/2
f 164/1/2 162/1/2 168/1/2
f 167/1/2 164/1/2 168/1/2
f 166/1/2 167/1/2 169/1/2
f 165/5/2 166/5/2 169/5/2
f 167/5/2 168/5/2 170/5/2
f 169/1/2 167/1/2 170/1/2
f 168/1/2 162/1/2 171/1/2
f 170/5/2 168/5/2 171/5/2
f 169/5/2 170/5/2 172/5/2
f 147/1/2 165/1/2 172/1/2
f 165/5/2 169/5/2 172/5/2
f 170/1/2 171/1/2 173/1/2
f 172/5/2 170/5/2 173/5/2
f 146/2/2 147/2/2 174/2/2
f 147/1/2 172/1/2 175/1/2
f 174/2/2 147/2/2 175/2/2
f 172/1/2 173/1/2 175/1/2
f 173/1/2 171/1/2 176/1/2
f 175/1/2 173/1/2 176/1/2
f 162/1/2 148/1/2 176/1/2
f 171/1/2 162/1/2 176/1/2
f 179/3/3 178/3/3 177/3/3
f 180/3/3 178/3/3 179/3/3
f 183/3/3 182/3/3 181/3/3
f 184/3/3 182/3/3 183/3/3
f 187/4/3 186/4/3 185/4/3
f 188/4/3 186/4/3 187/4/3
f 192/4/3 190/4/3 189/4/3
f 192/1/3 191/1/3 190/1/3
f 193/1/3 191/1/3 192/1/3
f 194/4/3 192/4/3 189/4/3
f 194/4/3 193/4/3 192/4/3
f 195/4/3 193/4/3 194/4/3
f 199/4/3 197/4/3 196/4/3
f 199/1/3 198/1/3 197/1/3
f 200/1/3 198/1/3 199/1/3
f 201/4/3 199/4/3 196/4/3
f 201/4/3 200/4/3 199/4/3
f 202/4/3 200/4/3 201/4/3
f 206/1/3 204/1/3 203/1/3
f 207/4/3 205/4/3 204/4/3
f 207/1/3 204/1/3 206/1/3
f 208/4/3 207/4/3 206/4/3
f 209/4/3 205/4/3 207/4/3
f 209/4/3 207/4/3 208/4/3
f 212/4/3 211/4/3 210/4/3
f 213/4/3 211/4/3 212/4/3
f 214/4/3 212/4/3 210/4/3
f 215/1/3 213/1/3 212/1/3
f 215/4/3 212/4/3 214/4/3
f 216/1/3 213/1/3 215/1/3
f 219/1/3 218/1/3 217/1/3
f 220/1/3 218/1/3 219/1/3
f 221/1/3 219/1/3 217/1/3
f 222/1/3 218/1/3 220/1/3
f 223/1/3 221/1/3 217/1/3
f 223/1/3 222/1/3 221/1/3
f 224/1/3 218/1/3 222/1/3
f 224/1/3 222/1/3 223/1/3
f 227/2/3 226/2/3 225/2/3
f 228/2/3 226/2/3 227/2/3
f 229/2/3 226/2/3 228/2/3
f 230/2/3 226/2/3 229/2/3
f 231/2/3 226/2/3 230/2/3
f 232/2/3 227/2/3 225/2/3
f 233/1/3 229/1/3 228/1/3
f 234/1/3 229/1/3 233/1/3
f 235/1/3 231/1/3 230/1/3
f 236/1/3 234/1/3 233/1/3
f 236/1/3 235/1/3 234/1/3
f 236/1/3 233/1/3 232/1/3
f 237/1/3 235/1/3 236/1/3
f 238/1/3 236/1/3 232/1/3
f 239/1/3 236/1/3 238/1/3
f 240/1/3 236/1/3 239/1/3
f 241/5/3 237/5/3 236/5/3
f 241/1/3 236/1/3 240/1/3
f 242/1/3 238/1/3 232/1/3
f 243/1/3 240/1/3 239/1/3
f 244/5/3 241/5/3 240/5/3
f 244/1/3 240/1/3 243/1/3
f 245/5/3 237/5/3 241/5/3
f 245/5/3 241/5/3 244/5/3
f 246/1/3 242/1/3 232/1/3
f 246/1/3 244/1/3 243/1/3
f 246/1/3 245/1/3 244/1/3
f 246/1/3 243/1/3 242/1/3
f 247/1/3 245/1/3 246/1/3
f 248/1/3 245/1/3 247/1/3
f 249/1/3 245/1/3 248/1/3
f 250/5/3 237/5/3 245/5/3
f 250/1/3 245/1/3 249/1/3
f 251/1/3 235/1/3 237/1/3
f 251/5/3 237/5/3 250/5/3
f 252/1/3 246/1/3 232/1/3
f 252/5/3 247/5/3 246/5/3
f 253/1/3 248/1/3 247/1/3
f 253/5/3 247/5/3 252/5/3
f 254/5/3 249/5/3 248/5/3
f 254/1/3 248/1/3 253/1/3
f 254/1/3 253/1/3 252/1/3
f 255/1/3 250/1/3 249/1/3
f 255/5/3 249/5/3 254/5/3
f 255/1/3 251/1/3 250/1/3
f 256/1/3 254/1/3 252/1/3
f 256/1/3 255/1/3 254/1/3
f 257/1/3 255/1/3 256/1/3
f 258/1/3 251/1/3 255/1/3
f 258/1/3 255/1/3 257/1/3
f 259/1/3 235/1/3 251/1/3
f 259/1/3 251/1/3 258/1/3
f 260/1/3 256/1/3 252/1/3
f 261/1/3 258/1/3 257/1/3
f 262/1/3 260/1/3 252/1/3
f 262/1/3 261/1/3 260/1/3
f 263/1/3 258/1/3 261/1/3
f 263/1/3 261/1/3 262/1/3
f 264/1/3 262/1/3 252/1/3
f 265/1/3 258/1/3 263/1/3
f 266/1/3 258/1/3 265/1/3
f 267/1/3 235/1/3 259/1/3
f 268/1/3 266/1/3 265/1/3
f 268/1/3 267/1/3 266/1/3
f 268/1/3 264/1/3 252/1/3
f 268/1/3 265/1/3 264/1/3
f 269/1/3 267/1/3 268/1/3
f 270/1/3 267/1/3 269/1/3
f 271/1/3 235/1/3 267/1/3
f 271/1/3 267/1/3 270/1/3
f 272/1/3 268/1/3 252/1/3
f 273/1/3 270/1/3 269/1/3
f 274/1/3 272/1/3 252/1/3
f 274/1/3 273/1/3 272/1/3
f 275/1/3 270/1/3 273/1/3
f 275/1/3 273/1/3 274/1/3
f 276/1/3 274/1/3 252/1/3
f 277/1/3 270/1/3 275/1/3
f 278/1/3 270/1/3 277/1/3
f 279/1/3 235/1/3 271/1/3
f 280/2/3 232/2/3 225/2/3
f 280/1/3 279/1/3 278/1/3
f 280/1/3 276/1/3 252/1/3
f 280/1/3 252/1/3 232/1/3
f 280/1/3 277/1/3 276/1/3
f 280/1/3 278/1/3 277/1/3
f 281/1/3 279/1/3 280/1/3
f 282/2/3 280/2/3 225/2/3
f 283/1/3 279/1/3 281/1/3
f 284/2/3 282/2/3 225/2/3
f 284/1/3 283/1/3 282/1/3
f 285/1/3 279/1/3 283/1/3
f 285/1/3 283/1/3 284/1/3
f 286/2/3 284/2/3 225/2/3
f 287/1/3 279/1/3 285/1/3
f 288/2/3 286/2/3 225/2/3
f 288/1/3 287/1/3 286/1/3
f 289/1/3 279/1/3 287/1/3
f 289/1/3 287/1/3 288/1/3
f 290/1/3 235/1/3 279/1/3
f 290/1/3 279/1/3 289/1/3
f 291/1/3 231/1/3 235/1/3
f 291/1/3 235/1/3 290/1/3
f 292/2/3 288/2/3 225/2/3
f 293/1/3 290/1/3 289/1/3
f 294/1/3 290/1/3 293/1/3
f 295/1/3 231/1/3 291/1/3
f 296/2/3 226/2/3 231/2/3
f 296/1/3 231/1/3 295/1/3
f 297/2/3 295/2/3 294/2/3
f 297/2/3 292/2/3 225/2/3
f 297/2/3 296/2/3 295/2/3
f 297/2/3 294/2/3 293/2/3
f 297/2/3 293/2/3 292/2/3
f 298/2/3 226/2/3 296/2/3
f 298/2/3 296/2/3 297/2/3
f 301/4/3 300/4/3 299/4/3
f 302/4/3 300/4/3 301/4/3
f 305/4/3 304/4/3 303/4/3
f 306/4/3 304/4/3 305/4/3
f 309/4/3 308/4/3 307/4/3
f 310/4/3 308/4/3 309/4/3
f 313/4/3 312/4/3 311/4/3
f 314/4/3 312/4/3 313/4/3
f 315/3/4 316/3/4 317/3/4
f 317/3/4 316/3/4 318/3/4
f 319/3/4 320/3/4 321/3/4
f 321/3/4 320/3/4 322/3/4
f 323/1/4 324/1/4 325/1/4
f 325/1/4 324/1/4 326/1/4
f 323/1/4 325/1/4 327/1/4
f 326/1/4 324/1/4 328/1/4
f 327/1/4 328/1/4 329/1/4
f 328/1/4 324/1/4 330/1/4
f 329/1/4 328/1/4 330/1/4
f 329/5/4 330/5/4 331/5/4
f 331/5/4 330/5/4 332/5/4
f 327/1/4 329/1/4 333/1/4
f 329/5/4 331/5/4 333/5/4
f 333/5/4 331/5/4 334/5/4
f 332/5/4 330/5/4 335/5/4
f 335/5/4 330/5/4 336/5/4
f 334/5/4 331/5/4 337/5/4
f 331/4/4 332/4/4 337/4/4
f 332/5/4 335/5/4 338/5/4
f 337/4/4 332/4/4 338/4/4
f 327/1/4 333/1/4 339/1/4
f 333/4/4 334/4/4 339/4/4
f 337/5/4 338/5/4 340/5/4
f 339/4/4 334/4/4 340/4/4
f 334/5/4 337/5/4 340/5/4
f 335/4/4 336/4/4 341/4/4
f 340/5/4 338/5/4 341/5/4
f 339/5/4 340/5/4 341/5/4
f 338/5/4 335/5/4 341/5/4
f 336/5/4 330/5/4 342/5/4
f 341/4/4 336/4/4 342/4/4
f 339/5/4 341/5/4 343/5/4
f 327/1/4 339/1/4 343/1/4
f 341/5/4 342/5/4 343/5/4
f 342/5/4 330/5/4 344/5/4
f 343/5/4 342/5/4 344/5/4
f 330/1/4 324/1/4 344/1/4
f 323/1/4 327/1/4 345/1/4
f 327/1/4 343/1/4 345/1/4
f 343/1/4 344/1/4 345/1/4
f 344/1/4 324/1/4 346/1/4
f 345/1/4 344/1/4 346/1/4
f 347/4/4 348/4/4 349/4/4
f 349/4/4 348/4/4 350/4/4
f 353/2/5 352/2/5 351/2/5
f 354/2/5 352/2/5 353/2/5
f 355/2/5 352/2/5 354/2/5
f 356/2/5 352/2/5 355/2/5
f 357/2/5 352/2/5 356/2/5
f 358/2/5 352/2/5 357/2/5
f 359/1/5 354/1/5 353/1/5
f 359/4/5 355/4/5 354/4/5
f 360/1/5 356/1/5 355/1/5
f 360/4/5 355/4/5 359/4/5
f 361/4/5 357/4/5 356/4/5
f 361/1/5 356/1/5 360/1/5
f 362/1/5 358/1/5 357/1/5
f 362/4/5 357/4/5 361/4/5
f 363/1/5 361/1/5 360/1/5
f 363/1/5 359/1/5 353/1/5
f 363/1/5 362/1/5 361/1/5
f 363/1/5 360/1/5 359/1/5
f 364/1/5 358/1/5 362/1/5
f 364/1/5 362/1/5 363/1/5
f 369/3/5 366/3/5 365/3/5
f 370/3/5 366/3/5 369/3/5
f 371/3/5 368/3/5 367/3/5
f 372/3/5 368/3/5 371/3/5
f 375/4/5 374/4/5 373/4/5
f 376/4/5 374/4/5 375/4/5
f 381/1/5 378/1/5 377/1/5
f 382/1/5 378/1/5 381/1/5
f 383/1/5 380/1/5 379/1/5
f 384/1/5 382/1/5 381/1/5
f 385/1/5 382/1/5 384/1/5
f 386/1/5 380/1/5 383/1/5
f 387/1/5 380/1/5 386/1/5
f 399/1/5 393/1/5 392/1/5
f 400/4/5 394/4/5 393/4/5
f 400/1/5 393/1/5 399/1/5
f 401/1/5 398/1/5 397/1/5
f 402/1/5 398/1/5 401/1/5
f 403/4/5 389/4/5 388/4/5
f 404/4/5 389/4/5 403/4/5
f 405/4/5 391/4/5 390/4/5
f 406/4/5 391/4/5 405/4/5
f 407/4/5 400/4/5 399/4/5
f 408/4/5 394/4/5 400/4/5
f 408/4/5 400/4/5 407/4/5
f 409/4/5 396/4/5 395/4/5
f 410/4/5 396/4/5 409/4/5
f 413/4/5 412/4/5 411/4/5
f 414/4/5 412/4/5 413/4/5
f 419/3/5 416/3/5 415/3/5
f 420/3/5 416/3/5 419/3/5
f 425/3/5 418/3/5 417/3/5
f 426/3/5 418/3/5 425/3/5
f 427/1/5 422/1/5 421/1/5
f 428/1/5 422/1/5 427/1/5
f 429/1/5 424/1/5 423/1/5
f 430/1/5 424/1/5 429/1/5
f 431/2/6 432/2/6 435/2/6
f 435/2/6 432/2/6 436/2/6
f 433/2/6 434/2/6 437/2/6
f 437/2/6 434/2/6 438/2/6
f 435/4/6 436/4/6 439/4/6
f 439/4/6 436/4/6 440/4/6
f 437/4/6 438/4/6 441/4/6
f 441/4/6 438/4/6 442/4/6
f 443/3/6 444/3/6 447/3/6
f 447/3/6 444/3/6 448/3/6
f 445/3/6 446/3/6 449/3/6
f 449/3/6 446/3/6 450/3/6
f 451/1/6 452/1/6 462/1/6
f 452/4/6 453/4/6 463/4/6
f 462/1/6 452/1/6 463/1/6
f 454/1/6 455/1/6 464/1/6
f 455/4/6 456/4/6 465/4/6
f 464/1/6 455/1/6 465/1/6
f 460/1/6 461/1/6 466/1/6
f 459/4/6 460/4/6 466/4/6
f 466/1/6 461/1/6 467/1/6
f 462/4/6 463/4/6 468/4/6
f 463/4/6 453/4/6 469/4/6
f 468/4/6 463/4/6 469/4/6
f 464/4/6 465/4/6 470/4/6
f 465/4/6 456/4/6 471/4/6
f 470/4/6 465/4/6 471/4/6
f 457/4/6 458/4/6 472/4/6
f 472/4/6 458/4/6 473/4/6
f 459/4/6 466/4/6 474/4/6
f 466/4/6 467/4/6 474/4/6
f 474/4/6 467/4/6 475/4/6
f 476/4/6 477/4/6 478/4/6
f 478/4/6 477/4/6 479/4/6
f 480/4/6 481/4/6 482/4/6
f 482/4/6 481/4/6 483/4/6
f 484/1/6 485/1/6 486/1/6
f 486/1/6 485/1/6 487/1/6
f 488/1/6 489/1/6 492/1/6
f 492/1/6 489/1/6 493/1/6
f 490/1/6 491/1/6 494/1/6
f 494/1/6 491/1/6 495/1/6
f 496/3/6 497/3/6 500/3/6
f 500/3/6 497/3/6 501/3/6
f 498/3/6 499/3/6 502/3/6
f 502/3/6 499/3/6 503/3/6
f 504/2/6 505/2/6 506/2/6
f 506/2/6 505/2/6 507/2/6
f 506/1/6 507/1/6 508/1/6
f 508/1/6 507/1/6 509/1/6
