# ProBuilder 4.5.2
# https://unity3d.com/unity/features/worldbuilding/probuilder
# 12/12/2021 17:25:34

mtllib ./Laboratório.mtl
o Laboratório

g Laboratório
v 4.788094 7.450581E-09 13.4474
v -8.845421 7.450581E-09 13.4474
v 4.788094 1 13.4474
v -8.845421 1 13.4474
v -8.845421 7.450581E-09 -3.710032
v 4.788094 7.450581E-09 -3.710032
v -8.845421 1 -3.710032
v 4.788094 1 -3.710032
v -26.29736 1 13.4474
v -26.29736 7.450581E-09 13.4474
v -8.845421 7.450581E-09 -16.02468
v -8.845421 1 -16.02468
v -26.29736 7.450581E-09 -16.02468
v -26.29736 1 -16.02468
v -26.29736 7.450581E-09 -3.710032
v -26.29736 1 -3.710032
v -41.19101 1 -3.710032
v -41.19101 7.450581E-09 -3.710032
v -41.19101 1 -16.02468
v -41.19101 7.450581E-09 -16.02468
v -26.29736 7.450581E-09 11.82457
v -26.29736 1 11.82457
v 4.788094 7.450581E-09 11.82457
v 4.788094 1 11.82457
v -8.845421 1 11.82457
v -8.845421 7.450581E-09 11.82457
v -40.4803 1 -16.02468
v -40.4803 1 -3.710032
v -40.4803 1 11.82457
v -40.4803 7.450581E-09 11.82457
v -40.4803 7.450581E-09 -3.710032
v -40.4803 7.450581E-09 -16.02468
v -40.4803 7.450581E-09 -1.460197
v -40.4803 1 -1.460197
v -41.19101 7.450581E-09 -1.460197
v -41.19101 1 -1.460197
v 4.788094 1 -1.460197
v 4.788094 7.450581E-09 -1.460197
v -8.845421 1 -1.460197
v -8.845421 7.450581E-09 -1.460197
v -26.29736 7.450581E-09 -1.460197
v -26.29736 1 -1.460197

vt 4.788094 7.450581E-09
vt -8.845421 7.450581E-09
vt 4.788094 1
vt -8.845421 1
vt 8.845421 7.450581E-09
vt -4.788094 7.450581E-09
vt 8.845421 1
vt -4.788094 1
vt -26.29736 1
vt -26.29736 7.450581E-09
vt 26.29736 7.450581E-09
vt 26.29736 1
vt 3.710032 7.450581E-09
vt 3.710032 1
vt 16.02468 7.450581E-09
vt 16.02468 1
vt -26.29736 -3.710032
vt -8.845421 -3.710032
vt -26.29736 -16.02468
vt -8.845421 -16.02468
vt 8.845421 -3.710032
vt 26.29736 -3.710032
vt 8.845421 -16.02468
vt 26.29736 -16.02468
vt -3.710032 1
vt -3.710032 7.450581E-09
vt -16.02468 1
vt -16.02468 7.450581E-09
vt 13.4474 7.450581E-09
vt 11.82457 7.450581E-09
vt 11.82457 1
vt 13.4474 1
vt -11.82457 7.450581E-09
vt -13.4474 7.450581E-09
vt -13.4474 1
vt -11.82457 1
vt -4.788094 13.4474
vt 8.845421 13.4474
vt 8.845421 11.82457
vt -4.788094 11.82457
vt -8.845421 11.82457
vt -8.845421 13.4474
vt 4.788094 13.4474
vt 4.788094 11.82457
vt -26.29736 11.82457
vt -26.29736 13.4474
vt 26.29736 13.4474
vt 26.29736 11.82457
vt 40.4803 -16.02468
vt 40.4803 -3.710032
vt -40.4803 1
vt -40.4803 7.450581E-09
vt -40.4803 -3.710032
vt -40.4803 -16.02468
vt 40.4803 7.450581E-09
vt 40.4803 1
vt -1.460197 7.450581E-09
vt -1.460197 1
vt 1.460197 1
vt 1.460197 7.450581E-09
vt -4.788094 -3.710032
vt -4.788094 -1.460197
vt 8.845421 -1.460197
vt -8.845421 -1.460197
vt 4.788094 -1.460197
vt 4.788094 -3.710032
vt -26.29736 -1.460197
vt 26.29736 -1.460197
vt -40.4803 -1.460197
vt -40.4803 11.82457
vt 40.4803 -1.460197
vt 40.4803 11.82457
vt -41.19101 -1.460197
vt -41.19101 -3.710032
vt 41.19101 -16.02468
vt 41.19101 -3.710032
vt -41.19101 1
vt -41.19101 7.450581E-09
vt 41.19101 -1.460197
vt -41.19101 -16.02468
vt 41.19101 7.450581E-09
vt 41.19101 1

vn 0 0 1
vn 0 0 -1
vn 1 0 0
vn 0 -1 0
vn 0 1 0
vn -1 0 0

usemtl white_trans
f 3/3/1 4/4/1 2/2/1 1/1/1
f 7/7/2 8/8/2 6/6/2 5/5/2
f 9/9/1 10/10/1 2/2/1 4/4/1
f 13/11/2 14/12/2 12/7/2 11/5/2
f 11/15/3 12/16/3 7/14/3 5/13/3
f 13/19/4 11/20/4 5/18/4 15/17/4
f 12/23/5 14/24/5 16/22/5 7/21/5
f 19/27/6 20/28/6 18/26/6 17/25/6
f 9/32/6 22/31/6 21/30/6 10/29/6
f 23/33/3 24/36/3 3/35/3 1/34/3
f 4/38/5 3/37/5 24/40/5 25/39/5
f 23/44/4 1/43/4 2/42/4 26/41/4
f 26/41/4 2/42/4 10/46/4 21/45/4
f 9/47/5 4/38/5 25/39/5 22/48/5
f 27/49/5 28/50/5 16/22/5 14/24/5
f 29/51/1 30/52/1 21/10/1 22/9/1
f 31/53/4 32/54/4 13/19/4 15/17/4
f 32/55/2 27/56/2 14/12/2 13/11/2
f 29/31/6 34/58/6 33/57/6 30/30/6
f 36/58/6 17/25/6 18/26/6 35/57/6
f 38/60/3 37/59/3 24/36/3 23/33/3
f 6/13/3 8/14/3 37/59/3 38/60/3
f 39/63/5 37/62/5 8/61/5 7/21/5
f 25/39/5 24/40/5 37/62/5 39/63/5
f 6/66/4 38/65/4 40/64/4 5/18/4
f 38/65/4 23/44/4 26/41/4 40/64/4
f 5/18/4 40/64/4 41/67/4 15/17/4
f 40/64/4 26/41/4 21/45/4 41/67/4
f 42/68/5 39/63/5 7/21/5 16/22/5
f 22/48/5 25/39/5 39/63/5 42/68/5
f 41/67/4 21/45/4 30/70/4 33/69/4
f 15/17/4 41/67/4 33/69/4 31/53/4
f 34/71/5 42/68/5 16/22/5 28/50/5
f 29/72/5 22/48/5 42/68/5 34/71/5
f 35/73/4 18/74/4 31/53/4 33/69/4
f 19/75/5 17/76/5 28/50/5 27/49/5
f 36/77/1 35/78/1 33/52/1 34/51/1
f 17/76/5 36/79/5 34/71/5 28/50/5
f 18/74/4 20/80/4 32/54/4 31/53/4
f 20/81/2 19/82/2 27/56/2 32/55/2

