# MagicaVoxel @ Ephtracy

# group
o 

# material
mtllib livros2.mtl
usemtl palette

# normals
vn -1 0 0
vn 1 0 0
vn 0 0 1
vn 0 0 -1
vn 0 -1 0
vn 0 1 0

# texcoords
vt 0.939453 0.5
vt 0.943359 0.5
vt 0.947266 0.5
vt 0.951172 0.5
vt 0.955078 0.5
vt 0.958984 0.5
vt 0.970703 0.5
vt 0.974609 0.5
vt 0.978516 0.5
vt 0.982422 0.5
vt 0.986328 0.5
vt 0.990234 0.5
vt 0.994141 0.5

# verts
v -1.2 0 -0.2
v -1.2 0 -1.2
v -1.2 0.1 -0.5
v -1.2 0.1 -0.8
v -1.2 0.2 -0.5
v -1.2 0.2 -0.8
v -1.2 0.3 -0.4
v -1.2 0.3 -1
v -1.2 0.4 -0.4
v -1.2 0.4 -1
v -1.2 0.5 -0.4
v -1.2 0.5 -1
v -1.2 0.6 -0.4
v -1.2 0.6 -1
v -1.2 0.7 -0.4
v -1.2 0.7 -0.9
v -1.2 0.8 -0.4
v -1.2 0.8 -0.9
v -1.2 0.9 -0.4
v -1.2 0.9 -1
v -1.2 1 -0.4
v -1.2 1 -1
v -1.2 1.3 -0.2
v -1.2 1.3 -1.2
v 1.1 0 -0.2
v 1.1 0 -1.2
v 1.1 0.1 -0.2
v 1.1 0.1 -0.4
v 1.1 0.1 -1.2
v 1.1 0.3 -0.2
v 1.1 0.3 -0.4
v 1.1 0.6 -0.2
v 1.1 0.6 -0.4
v 1.1 0.8 -0.2
v 1.1 0.8 -0.4
v 1.1 0.8 -1.2
v 1.1 1 -0.2
v 1.1 1 -0.3
v 1.1 1 -0.4
v 1.1 1 -1.2
v 1.1 1.2 -0.4
v 1.1 1.2 -1.1
v 1.1 1.2 -1.2
v 1.1 1.3 -0.2
v 1.1 1.3 -0.3
v 1.1 1.3 -1.1
v 1.1 1.3 -1.2
v -1.2 0 -0.2
v -1.2 1.3 -0.2
v -1.1 0.3 -0.2
v -1.1 0.4 -0.2
v -1.1 0.5 -0.2
v -1.1 0.6 -0.2
v -1.1 0.7 -0.2
v -1.1 0.8 -0.2
v -1.1 0.9 -0.2
v -1.1 1 -0.2
v -1 0 -0.2
v -1 0.3 -0.2
v -1 0.4 -0.2
v -1 0.5 -0.2
v -1 0.6 -0.2
v -1 0.7 -0.2
v -1 0.8 -0.2
v -1 0.9 -0.2
v -1 1 -0.2
v -1 1.3 -0.2
v -0.9 0 -0.2
v -0.9 0.3 -0.2
v -0.9 0.5 -0.2
v -0.9 0.8 -0.2
v -0.9 1 -0.2
v -0.9 1.3 -0.2
v -0.8 0 -0.2
v -0.8 0.3 -0.2
v -0.8 0.5 -0.2
v -0.8 0.8 -0.2
v -0.8 1 -0.2
v -0.8 1.3 -0.2
v -0.7 0 -0.2
v -0.7 0.1 -0.2
v -0.7 0.3 -0.2
v -0.7 1 -0.2
v -0.7 1.2 -0.2
v -0.7 1.3 -0.2
v -0.6 0 -0.2
v -0.6 0.1 -0.2
v -0.6 1.2 -0.2
v -0.6 1.3 -0.2
v -0.5 0.1 -0.2
v -0.5 0.6 -0.2
v -0.5 1 -0.2
v -0.4 0.6 -0.2
v -0.4 0.8 -0.2
v -0.4 1 -0.2
v -0.3 0 -0.2
v -0.3 0.1 -0.2
v -0.3 0.3 -0.2
v -0.3 0.8 -0.2
v -0.3 0.9 -0.2
v -0.3 1 -0.2
v -0.3 1.1 -0.2
v -0.3 1.2 -0.2
v -0.3 1.3 -0.2
v -0.2 0.2 -0.2
v -0.2 0.3 -0.2
v -0.0999999 0.1 -0.2
v -0.0999999 0.2 -0.2
v 1.19209e-07 0 -0.2
v 1.19209e-07 0.1 -0.2
v 0.1 0 -0.2
v 0.1 0.1 -0.2
v 0.1 0.3 -0.2
v 0.1 0.6 -0.2
v 0.1 0.8 -0.2
v 0.1 0.9 -0.2
v 0.1 1 -0.2
v 0.1 1.1 -0.2
v 0.1 1.2 -0.2
v 0.1 1.3 -0.2
v 0.2 0.6 -0.2
v 0.2 0.8 -0.2
v 0.2 0.9 -0.2
v 0.2 1 -0.2
v 0.2 1.1 -0.2
v 0.2 1.2 -0.2
v 0.2 1.3 -0.2
v 0.3 0.1 -0.2
v 0.3 0.3 -0.2
v 0.3 0.6 -0.2
v 0.3 0.8 -0.2
v 0.3 0.9 -0.2
v 0.3 1 -0.2
v 0.4 0.1 -0.2
v 0.4 0.3 -0.2
v 0.4 0.8 -0.2
v 0.4 0.9 -0.2
v 0.5 0.1 -0.2
v 0.5 0.3 -0.2
v 0.5 0.9 -0.2
v 0.5 1 -0.2
v 0.6 0.1 -0.2
v 0.6 0.3 -0.2
v 0.6 0.8 -0.2
v 0.6 0.9 -0.2
v 0.6 1 -0.2
v 0.7 0.1 -0.2
v 0.7 0.3 -0.2
v 0.7 0.8 -0.2
v 0.7 0.9 -0.2
v 0.8 0.1 -0.2
v 0.8 0.3 -0.2
v 0.8 0.9 -0.2
v 0.8 1 -0.2
v 0.9 0.1 -0.2
v 0.9 0.3 -0.2
v 0.9 0.8 -0.2
v 0.9 0.9 -0.2
v 0.9 1 -0.2
v 1 0.8 -0.2
v 1 0.9 -0.2
v 1 1 -0.2
v 1 1.1 -0.2
v 1 1.2 -0.2
v 1 1.3 -0.2
v 1.1 0 -0.2
v 1.1 0.1 -0.2
v 1.1 0.3 -0.2
v 1.1 0.6 -0.2
v 1.1 0.8 -0.2
v 1.1 1 -0.2
v 1.1 1.3 -0.2
v -1.2 0 -1.2
v -1.2 1.3 -1.2
v -1.1 0 -1.2
v -1.1 1.3 -1.2
v -1 0 -1.2
v -1 1.3 -1.2
v -0.9 0 -1.2
v -0.9 1.3 -1.2
v -0.7 0 -1.2
v -0.7 1.3 -1.2
v -0.6 0 -1.2
v -0.6 1.3 -1.2
v -0.5 0 -1.2
v -0.5 1.3 -1.2
v -0.3 0 -1.2
v -0.3 1.3 -1.2
v 0.1 0 -1.2
v 0.1 0.1 -1.2
v 0.1 0.8 -1.2
v 0.1 1 -1.2
v 0.1 1.2 -1.2
v 0.1 1.3 -1.2
v 0.2 1.2 -1.2
v 0.2 1.3 -1.2
v 1 1.2 -1.2
v 1 1.3 -1.2
v 1.1 0 -1.2
v 1.1 0.1 -1.2
v 1.1 0.8 -1.2
v 1.1 1 -1.2
v 1.1 1.2 -1.2
v 1.1 1.3 -1.2
v -1.2 0 -0.2
v -1 0 -0.2
v -0.9 0 -0.2
v -0.8 0 -0.2
v -0.7 0 -0.2
v -0.6 0 -0.2
v -0.3 0 -0.2
v 1.19209e-07 0 -0.2
v 0.1 0 -0.2
v 1.1 0 -0.2
v -0.7 0 -0.3
v -0.6 0 -0.3
v -0.5 0 -0.3
v -0.3 0 -0.3
v 1.19209e-07 0 -0.3
v -1.1 0 -0.4
v -1 0 -0.4
v -0.9 0 -0.4
v -0.8 0 -0.4
v -0.7 0 -0.4
v -0.6 0 -0.4
v -0.5 0 -0.4
v -0.3 0 -0.4
v 0.1 0 -0.4
v -1.2 0 -1.2
v -1.1 0 -1.2
v -1 0 -1.2
v -0.9 0 -1.2
v -0.7 0 -1.2
v -0.6 0 -1.2
v -0.5 0 -1.2
v -0.3 0 -1.2
v 0.1 0 -1.2
v 1.1 0 -1.2
v -1.2 1.3 -0.2
v -1 1.3 -0.2
v -0.9 1.3 -0.2
v -0.8 1.3 -0.2
v -0.7 1.3 -0.2
v -0.6 1.3 -0.2
v -0.3 1.3 -0.2
v 0.1 1.3 -0.2
v 0.2 1.3 -0.2
v 1 1.3 -0.2
v 1.1 1.3 -0.2
v -0.7 1.3 -0.3
v -0.6 1.3 -0.3
v 0.1 1.3 -0.3
v 0.2 1.3 -0.3
v 0.3 1.3 -0.3
v 0.9 1.3 -0.3
v 1 1.3 -0.3
v 1.1 1.3 -0.3
v -1.1 1.3 -0.4
v -1 1.3 -0.4
v -0.9 1.3 -0.4
v -0.8 1.3 -0.4
v -0.7 1.3 -0.4
v -0.6 1.3 -0.4
v -0.5 1.3 -0.4
v -0.3 1.3 -0.4
v 0.1 1.3 -0.4
v 0.2 1.3 -0.4
v 0.3 1.3 -0.4
v 0.4 1.3 -0.4
v 0.8 1.3 -0.4
v 0.9 1.3 -0.4
v 1 1.3 -0.4
v 0.3 1.3 -0.5
v 0.4 1.3 -0.5
v 0.5 1.3 -0.5
v 0.7 1.3 -0.5
v 0.8 1.3 -0.5
v 0.9 1.3 -0.5
v 0.4 1.3 -0.6
v 0.5 1.3 -0.6
v 0.7 1.3 -0.6
v 0.8 1.3 -0.6
v 0.4 1.3 -0.8
v 0.5 1.3 -0.8
v 0.7 1.3 -0.8
v 0.8 1.3 -0.8
v 0.3 1.3 -0.9
v 0.4 1.3 -0.9
v 0.5 1.3 -0.9
v 0.7 1.3 -0.9
v 0.8 1.3 -0.9
v 0.9 1.3 -0.9
v 0.2 1.3 -1
v 0.3 1.3 -1
v 0.4 1.3 -1
v 0.8 1.3 -1
v 0.9 1.3 -1
v 1 1.3 -1
v 0.1 1.3 -1.1
v 0.2 1.3 -1.1
v 0.3 1.3 -1.1
v 0.9 1.3 -1.1
v 1 1.3 -1.1
v 1.1 1.3 -1.1
v -1.2 1.3 -1.2
v -1.1 1.3 -1.2
v -1 1.3 -1.2
v -0.9 1.3 -1.2
v -0.7 1.3 -1.2
v -0.6 1.3 -1.2
v -0.5 1.3 -1.2
v -0.3 1.3 -1.2
v 0.1 1.3 -1.2
v 0.2 1.3 -1.2
v 1 1.3 -1.2
v 1.1 1.3 -1.2

# faces
f 3/8/1 2/8/1 1/8/1
f 4/8/1 2/8/1 3/8/1
f 5/8/1 3/8/1 1/8/1
f 5/3/1 4/3/1 3/3/1
f 6/8/1 2/8/1 4/8/1
f 6/3/1 4/3/1 5/3/1
f 7/8/1 5/8/1 1/8/1
f 7/8/1 6/8/1 5/8/1
f 8/8/1 2/8/1 6/8/1
f 8/8/1 6/8/1 7/8/1
f 9/8/1 7/8/1 1/8/1
f 9/12/1 8/12/1 7/12/1
f 10/8/1 2/8/1 8/8/1
f 10/12/1 8/12/1 9/12/1
f 11/8/1 9/8/1 1/8/1
f 11/8/1 10/8/1 9/8/1
f 12/8/1 2/8/1 10/8/1
f 12/8/1 10/8/1 11/8/1
f 13/8/1 11/8/1 1/8/1
f 13/12/1 12/12/1 11/12/1
f 14/8/1 2/8/1 12/8/1
f 14/12/1 12/12/1 13/12/1
f 15/8/1 13/8/1 1/8/1
f 15/8/1 14/8/1 13/8/1
f 16/8/1 14/8/1 15/8/1
f 17/8/1 15/8/1 1/8/1
f 17/12/1 16/12/1 15/12/1
f 18/8/1 14/8/1 16/8/1
f 18/12/1 16/12/1 17/12/1
f 19/8/1 17/8/1 1/8/1
f 19/8/1 18/8/1 17/8/1
f 20/8/1 2/8/1 14/8/1
f 20/8/1 18/8/1 19/8/1
f 20/8/1 14/8/1 18/8/1
f 21/8/1 19/8/1 1/8/1
f 21/12/1 20/12/1 19/12/1
f 22/8/1 2/8/1 20/8/1
f 22/12/1 20/12/1 21/12/1
f 23/8/1 21/8/1 1/8/1
f 23/8/1 22/8/1 21/8/1
f 24/8/1 2/8/1 22/8/1
f 24/8/1 22/8/1 23/8/1
f 25/1/2 26/1/2 27/1/2
f 27/1/2 26/1/2 28/1/2
f 28/1/2 26/1/2 29/1/2
f 27/11/2 28/11/2 30/11/2
f 28/7/2 29/7/2 31/7/2
f 30/11/2 28/11/2 31/11/2
f 30/9/2 31/9/2 32/9/2
f 31/7/2 29/7/2 33/7/2
f 32/9/2 31/9/2 33/9/2
f 32/13/2 33/13/2 34/13/2
f 33/7/2 29/7/2 35/7/2
f 34/13/2 33/13/2 35/13/2
f 35/7/2 29/7/2 36/7/2
f 34/2/2 35/2/2 37/2/2
f 37/2/2 35/2/2 38/2/2
f 35/5/2 36/5/2 39/5/2
f 38/2/2 35/2/2 39/2/2
f 39/5/2 36/5/2 40/5/2
f 38/3/2 39/3/2 41/3/2
f 39/7/2 40/7/2 41/7/2
f 41/7/2 40/7/2 42/7/2
f 42/7/2 40/7/2 43/7/2
f 37/11/2 38/11/2 44/11/2
f 38/3/2 41/3/2 45/3/2
f 44/11/2 38/11/2 45/11/2
f 41/3/2 42/3/2 45/3/2
f 42/11/2 43/11/2 46/11/2
f 45/3/2 42/3/2 46/3/2
f 46/11/2 43/11/2 47/11/2
f 50/8/3 49/8/3 48/8/3
f 51/8/3 49/8/3 50/8/3
f 52/8/3 49/8/3 51/8/3
f 53/8/3 49/8/3 52/8/3
f 54/8/3 49/8/3 53/8/3
f 55/8/3 49/8/3 54/8/3
f 56/8/3 49/8/3 55/8/3
f 57/8/3 49/8/3 56/8/3
f 58/8/3 50/8/3 48/8/3
f 59/12/3 51/12/3 50/12/3
f 59/8/3 50/8/3 58/8/3
f 60/8/3 52/8/3 51/8/3
f 60/12/3 51/12/3 59/12/3
f 61/12/3 53/12/3 52/12/3
f 61/8/3 52/8/3 60/8/3
f 62/8/3 54/8/3 53/8/3
f 62/12/3 53/12/3 61/12/3
f 63/12/3 55/12/3 54/12/3
f 63/8/3 54/8/3 62/8/3
f 64/8/3 56/8/3 55/8/3
f 64/12/3 55/12/3 63/12/3
f 65/12/3 57/12/3 56/12/3
f 65/8/3 56/8/3 64/8/3
f 66/8/3 49/8/3 57/8/3
f 66/12/3 57/12/3 65/12/3
f 67/8/3 49/8/3 66/8/3
f 68/4/3 59/4/3 58/4/3
f 69/9/3 65/9/3 64/9/3
f 69/4/3 59/4/3 68/4/3
f 69/9/3 60/9/3 59/9/3
f 69/9/3 61/9/3 60/9/3
f 69/9/3 66/9/3 65/9/3
f 69/9/3 64/9/3 63/9/3
f 69/9/3 63/9/3 62/9/3
f 69/9/3 62/9/3 61/9/3
f 70/9/3 66/9/3 69/9/3
f 71/9/3 66/9/3 70/9/3
f 72/4/3 67/4/3 66/4/3
f 72/9/3 66/9/3 71/9/3
f 73/4/3 67/4/3 72/4/3
f 74/9/3 69/9/3 68/9/3
f 74/9/3 70/9/3 69/9/3
f 75/9/3 70/9/3 74/9/3
f 76/4/3 71/4/3 70/4/3
f 76/9/3 70/9/3 75/9/3
f 77/9/3 73/9/3 72/9/3
f 77/4/3 71/4/3 76/4/3
f 77/9/3 72/9/3 71/9/3
f 78/9/3 73/9/3 77/9/3
f 79/9/3 73/9/3 78/9/3
f 80/4/3 75/4/3 74/4/3
f 81/4/3 75/4/3 80/4/3
f 82/9/3 76/9/3 75/9/3
f 82/4/3 75/4/3 81/4/3
f 82/9/3 77/9/3 76/9/3
f 82/9/3 78/9/3 77/9/3
f 83/4/3 79/4/3 78/4/3
f 83/9/3 78/9/3 82/9/3
f 84/4/3 79/4/3 83/4/3
f 85/4/3 79/4/3 84/4/3
f 86/1/3 81/1/3 80/1/3
f 87/10/3 82/10/3 81/10/3
f 87/1/3 81/1/3 86/1/3
f 87/10/3 83/10/3 82/10/3
f 87/10/3 84/10/3 83/10/3
f 88/1/3 85/1/3 84/1/3
f 88/10/3 84/10/3 87/10/3
f 89/1/3 85/1/3 88/1/3
f 90/6/3 87/6/3 86/6/3
f 90/8/3 88/8/3 87/8/3
f 90/8/3 89/8/3 88/8/3
f 91/8/3 89/8/3 90/8/3
f 92/8/3 89/8/3 91/8/3
f 93/11/3 91/11/3 90/11/3
f 93/6/3 92/6/3 91/6/3
f 94/6/3 92/6/3 93/6/3
f 95/8/3 89/8/3 92/8/3
f 95/6/3 92/6/3 94/6/3
f 96/6/3 90/6/3 86/6/3
f 97/11/3 94/11/3 93/11/3
f 97/6/3 90/6/3 96/6/3
f 97/11/3 93/11/3 90/11/3
f 98/11/3 94/11/3 97/11/3
f 99/8/3 95/8/3 94/8/3
f 99/11/3 94/11/3 98/11/3
f 100/8/3 95/8/3 99/8/3
f 101/8/3 89/8/3 95/8/3
f 101/8/3 95/8/3 100/8/3
f 102/8/3 89/8/3 101/8/3
f 103/8/3 89/8/3 102/8/3
f 104/8/3 89/8/3 103/8/3
f 105/7/3 98/7/3 97/7/3
f 105/7/3 97/7/3 96/7/3
f 106/12/3 100/12/3 99/12/3
f 106/7/3 98/7/3 105/7/3
f 106/12/3 99/12/3 98/12/3
f 107/7/3 105/7/3 96/7/3
f 108/12/3 106/12/3 105/12/3
f 108/7/3 105/7/3 107/7/3
f 109/7/3 107/7/3 96/7/3
f 110/12/3 108/12/3 107/12/3
f 110/7/3 107/7/3 109/7/3
f 111/12/3 110/12/3 109/12/3
f 112/12/3 108/12/3 110/12/3
f 112/12/3 110/12/3 111/12/3
f 113/12/3 100/12/3 106/12/3
f 113/12/3 108/12/3 112/12/3
f 113/12/3 106/12/3 108/12/3
f 114/12/3 100/12/3 113/12/3
f 115/12/3 100/12/3 114/12/3
f 116/7/3 101/7/3 100/7/3
f 116/12/3 100/12/3 115/12/3
f 117/12/3 102/12/3 101/12/3
f 117/7/3 101/7/3 116/7/3
f 118/7/3 103/7/3 102/7/3
f 118/12/3 102/12/3 117/12/3
f 119/12/3 104/12/3 103/12/3
f 119/7/3 103/7/3 118/7/3
f 120/12/3 104/12/3 119/12/3
f 121/13/3 115/13/3 114/13/3
f 121/9/3 114/9/3 113/9/3
f 122/2/3 117/2/3 116/2/3
f 122/13/3 115/13/3 121/13/3
f 122/2/3 116/2/3 115/2/3
f 123/2/3 117/2/3 122/2/3
f 124/11/3 118/11/3 117/11/3
f 124/2/3 117/2/3 123/2/3
f 124/11/3 119/11/3 118/11/3
f 124/11/3 120/11/3 119/11/3
f 125/11/3 120/11/3 124/11/3
f 126/11/3 120/11/3 125/11/3
f 127/11/3 120/11/3 126/11/3
f 128/1/3 112/1/3 111/1/3
f 128/4/3 113/4/3 112/4/3
f 129/9/3 121/9/3 113/9/3
f 129/4/3 113/4/3 128/4/3
f 130/3/3 122/3/3 121/3/3
f 130/9/3 121/9/3 129/9/3
f 131/2/3 123/2/3 122/2/3
f 131/3/3 122/3/3 130/3/3
f 132/6/3 124/6/3 123/6/3
f 132/2/3 123/2/3 131/2/3
f 133/3/3 125/3/3 124/3/3
f 133/6/3 124/6/3 132/6/3
f 134/1/3 128/1/3 111/1/3
f 134/11/3 129/11/3 128/11/3
f 135/9/3 130/9/3 129/9/3
f 135/11/3 129/11/3 134/11/3
f 136/13/3 131/13/3 130/13/3
f 136/6/3 132/6/3 131/6/3
f 137/2/3 133/2/3 132/2/3
f 137/6/3 132/6/3 136/6/3
f 138/1/3 134/1/3 111/1/3
f 138/4/3 135/4/3 134/4/3
f 139/9/3 130/9/3 135/9/3
f 139/4/3 135/4/3 138/4/3
f 140/2/3 133/2/3 137/2/3
f 140/2/3 137/2/3 136/2/3
f 141/3/3 125/3/3 133/3/3
f 141/2/3 133/2/3 140/2/3
f 142/1/3 138/1/3 111/1/3
f 142/11/3 139/11/3 138/11/3
f 143/9/3 130/9/3 139/9/3
f 143/11/3 139/11/3 142/11/3
f 144/2/3 140/2/3 136/2/3
f 144/13/3 136/13/3 130/13/3
f 145/6/3 141/6/3 140/6/3
f 145/2/3 140/2/3 144/2/3
f 146/3/3 125/3/3 141/3/3
f 146/6/3 141/6/3 145/6/3
f 147/1/3 142/1/3 111/1/3
f 147/4/3 143/4/3 142/4/3
f 148/9/3 130/9/3 143/9/3
f 148/4/3 143/4/3 147/4/3
f 149/6/3 145/6/3 144/6/3
f 149/13/3 144/13/3 130/13/3
f 150/2/3 146/2/3 145/2/3
f 150/6/3 145/6/3 149/6/3
f 151/1/3 147/1/3 111/1/3
f 151/11/3 148/11/3 147/11/3
f 152/9/3 130/9/3 148/9/3
f 152/11/3 148/11/3 151/11/3
f 153/2/3 146/2/3 150/2/3
f 153/2/3 150/2/3 149/2/3
f 154/3/3 125/3/3 146/3/3
f 154/2/3 146/2/3 153/2/3
f 155/1/3 151/1/3 111/1/3
f 155/4/3 152/4/3 151/4/3
f 156/9/3 130/9/3 152/9/3
f 156/4/3 152/4/3 155/4/3
f 157/2/3 153/2/3 149/2/3
f 157/13/3 149/13/3 130/13/3
f 158/6/3 154/6/3 153/6/3
f 158/2/3 153/2/3 157/2/3
f 159/3/3 125/3/3 154/3/3
f 159/6/3 154/6/3 158/6/3
f 160/6/3 158/6/3 157/6/3
f 160/13/3 157/13/3 130/13/3
f 161/2/3 159/2/3 158/2/3
f 161/6/3 158/6/3 160/6/3
f 162/3/3 125/3/3 159/3/3
f 162/2/3 159/2/3 161/2/3
f 163/11/3 126/11/3 125/11/3
f 163/3/3 125/3/3 162/3/3
f 164/3/3 127/3/3 126/3/3
f 164/11/3 126/11/3 163/11/3
f 165/3/3 127/3/3 164/3/3
f 166/1/3 155/1/3 111/1/3
f 167/11/3 156/11/3 155/11/3
f 167/1/3 155/1/3 166/1/3
f 168/9/3 130/9/3 156/9/3
f 168/11/3 156/11/3 167/11/3
f 169/13/3 160/13/3 130/13/3
f 169/9/3 130/9/3 168/9/3
f 170/2/3 161/2/3 160/2/3
f 170/13/3 160/13/3 169/13/3
f 170/2/3 162/2/3 161/2/3
f 171/11/3 163/11/3 162/11/3
f 171/2/3 162/2/3 170/2/3
f 171/11/3 165/11/3 164/11/3
f 171/11/3 164/11/3 163/11/3
f 172/11/3 165/11/3 171/11/3
f 173/8/4 174/8/4 175/8/4
f 175/8/4 174/8/4 176/8/4
f 175/7/4 176/7/4 177/7/4
f 177/7/4 176/7/4 178/7/4
f 177/9/4 178/9/4 179/9/4
f 179/9/4 178/9/4 180/9/4
f 179/7/4 180/7/4 181/7/4
f 181/7/4 180/7/4 182/7/4
f 181/5/4 182/5/4 183/5/4
f 183/5/4 182/5/4 184/5/4
f 183/7/4 184/7/4 185/7/4
f 185/7/4 184/7/4 186/7/4
f 185/5/4 186/5/4 187/5/4
f 187/5/4 186/5/4 188/5/4
f 187/7/4 188/7/4 189/7/4
f 189/7/4 188/7/4 190/7/4
f 190/7/4 188/7/4 191/7/4
f 191/7/4 188/7/4 192/7/4
f 192/7/4 188/7/4 193/7/4
f 193/7/4 188/7/4 194/7/4
f 192/7/4 193/7/4 195/7/4
f 193/11/4 194/11/4 195/11/4
f 195/11/4 194/11/4 196/11/4
f 192/7/4 195/7/4 197/7/4
f 195/3/4 196/3/4 197/3/4
f 197/3/4 196/3/4 198/3/4
f 189/1/4 190/1/4 199/1/4
f 190/7/4 191/7/4 200/7/4
f 199/1/4 190/1/4 200/1/4
f 191/5/4 192/5/4 201/5/4
f 200/7/4 191/7/4 201/7/4
f 192/7/4 197/7/4 202/7/4
f 201/5/4 192/5/4 202/5/4
f 197/11/4 198/11/4 203/11/4
f 202/7/4 197/7/4 203/7/4
f 203/11/4 198/11/4 204/11/4
f 215/4/5 209/4/5 208/4/5
f 215/1/5 210/1/5 209/1/5
f 216/6/5 211/6/5 210/6/5
f 216/1/5 210/1/5 215/1/5
f 217/6/5 211/6/5 216/6/5
f 218/7/5 212/7/5 211/7/5
f 218/6/5 211/6/5 217/6/5
f 219/12/5 213/12/5 212/12/5
f 219/7/5 212/7/5 218/7/5
f 220/8/5 206/8/5 205/8/5
f 221/4/5 207/4/5 206/4/5
f 221/8/5 206/8/5 220/8/5
f 222/9/5 208/9/5 207/9/5
f 222/4/5 207/4/5 221/4/5
f 223/4/5 215/4/5 208/4/5
f 223/9/5 208/9/5 222/9/5
f 224/10/5 216/10/5 215/10/5
f 224/4/5 215/4/5 223/4/5
f 225/8/5 217/8/5 216/8/5
f 225/10/5 216/10/5 224/10/5
f 226/11/5 218/11/5 217/11/5
f 226/8/5 217/8/5 225/8/5
f 227/12/5 219/12/5 218/12/5
f 227/11/5 218/11/5 226/11/5
f 228/12/5 213/12/5 219/12/5
f 228/12/5 219/12/5 227/12/5
f 228/1/5 214/1/5 213/1/5
f 229/8/5 220/8/5 205/8/5
f 230/7/5 221/7/5 220/7/5
f 230/8/5 220/8/5 229/8/5
f 231/9/5 222/9/5 221/9/5
f 231/7/5 221/7/5 230/7/5
f 232/7/5 224/7/5 223/7/5
f 232/9/5 222/9/5 231/9/5
f 232/7/5 223/7/5 222/7/5
f 233/5/5 225/5/5 224/5/5
f 233/7/5 224/7/5 232/7/5
f 234/7/5 226/7/5 225/7/5
f 234/5/5 225/5/5 233/5/5
f 235/5/5 227/5/5 226/5/5
f 235/7/5 226/7/5 234/7/5
f 236/7/5 228/7/5 227/7/5
f 236/5/5 227/5/5 235/5/5
f 237/1/5 214/1/5 228/1/5
f 237/7/5 228/7/5 236/7/5
f 238/1/5 214/1/5 237/1/5
f 242/4/6 243/4/6 250/4/6
f 243/1/6 244/1/6 250/1/6
f 244/8/6 245/8/6 251/8/6
f 250/1/6 244/1/6 251/1/6
f 245/12/6 246/12/6 252/12/6
f 246/11/6 247/11/6 252/11/6
f 247/3/6 248/3/6 253/3/6
f 252/11/6 247/11/6 253/11/6
f 253/3/6 248/3/6 254/3/6
f 254/3/6 248/3/6 255/3/6
f 248/11/6 249/11/6 256/11/6
f 255/3/6 248/3/6 256/3/6
f 256/11/6 249/11/6 257/11/6
f 239/8/6 240/8/6 258/8/6
f 240/4/6 241/4/6 259/4/6
f 258/8/6 240/8/6 259/8/6
f 241/9/6 242/9/6 260/9/6
f 259/4/6 241/4/6 260/4/6
f 242/4/6 250/4/6 261/4/6
f 260/9/6 242/9/6 261/9/6
f 250/10/6 251/10/6 262/10/6
f 261/4/6 250/4/6 262/4/6
f 251/8/6 245/8/6 263/8/6
f 262/10/6 251/10/6 263/10/6
f 263/8/6 245/8/6 264/8/6
f 245/12/6 252/12/6 265/12/6
f 264/8/6 245/8/6 265/8/6
f 252/3/6 253/3/6 266/3/6
f 265/12/6 252/12/6 266/12/6
f 253/12/6 254/12/6 267/12/6
f 266/3/6 253/3/6 267/3/6
f 254/11/6 255/11/6 268/11/6
f 267/12/6 254/12/6 268/12/6
f 268/11/6 255/11/6 269/11/6
f 269/11/6 255/11/6 270/11/6
f 255/12/6 256/12/6 271/12/6
f 270/11/6 255/11/6 271/11/6
f 256/3/6 257/3/6 272/3/6
f 271/12/6 256/12/6 272/12/6
f 267/11/6 268/11/6 273/11/6
f 268/12/6 269/12/6 273/12/6
f 269/11/6 270/11/6 274/11/6
f 273/12/6 269/12/6 274/12/6
f 274/11/6 270/11/6 275/11/6
f 275/11/6 270/11/6 276/11/6
f 270/12/6 271/12/6 277/12/6
f 276/11/6 270/11/6 277/11/6
f 271/11/6 272/11/6 278/11/6
f 277/12/6 271/12/6 278/12/6
f 273/11/6 274/11/6 279/11/6
f 274/12/6 275/12/6 279/12/6
f 275/11/6 276/11/6 280/11/6
f 279/12/6 275/12/6 280/12/6
f 276/12/6 277/12/6 281/12/6
f 280/11/6 276/11/6 281/11/6
f 277/11/6 278/11/6 282/11/6
f 281/12/6 277/12/6 282/12/6
f 273/11/6 279/11/6 283/11/6
f 279/11/6 280/11/6 283/11/6
f 280/12/6 281/12/6 284/12/6
f 283/11/6 280/11/6 284/11/6
f 281/11/6 282/11/6 285/11/6
f 284/12/6 281/12/6 285/12/6
f 282/11/6 278/11/6 286/11/6
f 285/11/6 282/11/6 286/11/6
f 267/11/6 273/11/6 287/11/6
f 273/11/6 283/11/6 287/11/6
f 283/12/6 284/12/6 288/12/6
f 287/11/6 283/11/6 288/11/6
f 284/11/6 285/11/6 289/11/6
f 288/12/6 284/12/6 289/12/6
f 285/12/6 286/12/6 290/12/6
f 289/11/6 285/11/6 290/11/6
f 286/11/6 278/11/6 291/11/6
f 290/12/6 286/12/6 291/12/6
f 278/11/6 272/11/6 292/11/6
f 291/11/6 278/11/6 292/11/6
f 266/3/6 267/3/6 293/3/6
f 267/11/6 287/11/6 293/11/6
f 287/12/6 288/12/6 294/12/6
f 293/11/6 287/11/6 294/11/6
f 289/11/6 290/11/6 295/11/6
f 294/12/6 288/12/6 295/12/6
f 290/11/6 291/11/6 295/11/6
f 288/11/6 289/11/6 295/11/6
f 291/12/6 292/12/6 296/12/6
f 295/11/6 291/11/6 296/11/6
f 292/11/6 272/11/6 297/11/6
f 296/12/6 292/12/6 297/12/6
f 272/3/6 257/3/6 298/3/6
f 297/11/6 272/11/6 298/11/6
f 265/7/6 266/7/6 299/7/6
f 266/3/6 293/3/6 299/3/6
f 293/12/6 294/12/6 300/12/6
f 299/3/6 293/3/6 300/3/6
f 295/11/6 296/11/6 301/11/6
f 300/12/6 294/12/6 301/12/6
f 296/11/6 297/11/6 301/11/6
f 294/11/6 295/11/6 301/11/6
f 297/12/6 298/12/6 302/12/6
f 301/11/6 297/11/6 302/11/6
f 298/3/6 257/3/6 303/3/6
f 302/12/6 298/12/6 303/12/6
f 303/3/6 257/3/6 304/3/6
f 239/8/6 258/8/6 305/8/6
f 258/7/6 259/7/6 306/7/6
f 305/8/6 258/8/6 306/8/6
f 259/9/6 260/9/6 307/9/6
f 306/7/6 259/7/6 307/7/6
f 261/7/6 262/7/6 308/7/6
f 307/9/6 260/9/6 308/9/6
f 260/7/6 261/7/6 308/7/6
f 262/5/6 263/5/6 309/5/6
f 308/7/6 262/7/6 309/7/6
f 263/7/6 264/7/6 310/7/6
f 309/5/6 263/5/6 310/5/6
f 264/5/6 265/5/6 311/5/6
f 310/7/6 264/7/6 311/7/6
f 265/7/6 299/7/6 312/7/6
f 311/5/6 265/5/6 312/5/6
f 299/11/6 300/11/6 313/11/6
f 312/7/6 299/7/6 313/7/6
f 301/3/6 302/3/6 314/3/6
f 313/11/6 300/11/6 314/11/6
f 300/3/6 301/3/6 314/3/6
f 302/3/6 303/3/6 314/3/6
f 303/11/6 304/11/6 315/11/6
f 314/3/6 303/3/6 315/3/6
f 315/11/6 304/11/6 316/11/6
