# MagicaVoxel @ Ephtracy

# group
o 

# material
mtllib garage.mtl
usemtl palette

# normals
vn -1 0 0
vn 1 0 0
vn 0 0 1
vn 0 0 -1
vn 0 -1 0
vn 0 1 0

# texcoords
vt 0.00585938 0.5
vt 0.978516 0.5
vt 0.982422 0.5
vt 0.986328 0.5

# verts
v 0.5 0 2.2
v 0.5 0 2
v 0.5 0 -1.9
v 0.5 0 -2.1
v 0.5 4.3 2
v 0.5 4.3 -1.9
v 0.5 4.5 2.2
v 0.5 4.5 -2.1
v 0.6 0 3.5
v 0.6 0 3.1
v 0.6 0 3
v 0.6 0 2.6
v 0.6 0 2.5
v 0.6 0 2.2
v 0.6 0 -2.1
v 0.6 0 -2.4
v 0.6 0 -2.5
v 0.6 0 -2.9
v 0.6 0 -3
v 0.6 0 -3.4
v 0.6 4.5 2.2
v 0.6 4.5 2.1
v 0.6 4.5 2
v 0.6 4.5 1.6
v 0.6 4.5 1.5
v 0.6 4.5 1.1
v 0.6 4.5 1
v 0.6 4.5 0.6
v 0.6 4.5 0.5
v 0.6 4.5 0.0999999
v 0.6 4.5 -2.38419e-07
v 0.6 4.5 -0.4
v 0.6 4.5 -0.5
v 0.6 4.5 -0.9
v 0.6 4.5 -1
v 0.6 4.5 -1.4
v 0.6 4.5 -1.5
v 0.6 4.5 -1.9
v 0.6 4.5 -2
v 0.6 4.5 -2.1
v 0.6 6.4 3.5
v 0.6 6.4 3.1
v 0.6 6.4 3
v 0.6 6.4 2.6
v 0.6 6.4 2.5
v 0.6 6.4 2.1
v 0.6 6.4 2
v 0.6 6.4 1.6
v 0.6 6.4 1.5
v 0.6 6.4 1.1
v 0.6 6.4 1
v 0.6 6.4 0.6
v 0.6 6.4 0.5
v 0.6 6.4 0.0999999
v 0.6 6.4 -2.38419e-07
v 0.6 6.4 -0.4
v 0.6 6.4 -0.5
v 0.6 6.4 -0.9
v 0.6 6.4 -1
v 0.6 6.4 -1.4
v 0.6 6.4 -1.5
v 0.6 6.4 -1.9
v 0.6 6.4 -2
v 0.6 6.4 -2.4
v 0.6 6.4 -2.5
v 0.6 6.4 -2.9
v 0.6 6.4 -3
v 0.6 6.4 -3.4
v 0.8 0 3.5
v 0.8 0 2.2
v 0.8 0 2
v 0.8 0 -1.9
v 0.8 0 -2.1
v 0.8 0 -3.4
v 0.8 4.3 2
v 0.8 4.3 -1.9
v 0.8 4.5 2.2
v 0.8 4.5 -2.1
v 0.8 6.4 3.5
v 0.8 6.4 -3.4
v 0.6 0 3.5
v 0.6 6.4 3.5
v 0.7 0 3.5
v 0.7 6.4 3.5
v 0.8 0 3.5
v 0.8 6.4 3.5
v 0.5 0 2.2
v 0.5 4.5 2.2
v 0.6 0 2.2
v 0.6 4.5 2.2
v 0.5 0 -1.9
v 0.5 4.3 -1.9
v 0.8 0 -1.9
v 0.8 4.3 -1.9
v 0.5 0 2
v 0.5 4.3 2
v 0.8 0 2
v 0.8 4.3 2
v 0.5 0 -2.1
v 0.5 4.5 -2.1
v 0.6 0 -2.1
v 0.6 4.5 -2.1
v 0.6 0 -3.4
v 0.6 6.4 -3.4
v 0.7 0 -3.4
v 0.7 6.4 -3.4
v 0.8 0 -3.4
v 0.8 6.4 -3.4
v 0.6 0 3.5
v 0.7 0 3.5
v 0.8 0 3.5
v 0.6 0 3.1
v 0.7 0 3.1
v 0.6 0 3
v 0.7 0 3
v 0.6 0 2.6
v 0.7 0 2.6
v 0.6 0 2.5
v 0.7 0 2.5
v 0.5 0 2.2
v 0.6 0 2.2
v 0.7 0 2.2
v 0.8 0 2.2
v 0.5 0 2
v 0.8 0 2
v 0.5 0 -1.9
v 0.8 0 -1.9
v 0.5 0 -2.1
v 0.6 0 -2.1
v 0.7 0 -2.1
v 0.8 0 -2.1
v 0.6 0 -2.4
v 0.7 0 -2.4
v 0.6 0 -2.5
v 0.7 0 -2.5
v 0.6 0 -2.9
v 0.7 0 -2.9
v 0.6 0 -3
v 0.7 0 -3
v 0.6 0 -3.4
v 0.7 0 -3.4
v 0.8 0 -3.4
v 0.5 4.3 2
v 0.8 4.3 2
v 0.5 4.3 -1.9
v 0.8 4.3 -1.9
v 0.5 4.5 2.2
v 0.6 4.5 2.2
v 0.6 4.5 2.1
v 0.6 4.5 2
v 0.6 4.5 1.6
v 0.6 4.5 1.5
v 0.6 4.5 1.1
v 0.6 4.5 1
v 0.6 4.5 0.6
v 0.6 4.5 0.5
v 0.6 4.5 0.0999999
v 0.6 4.5 -2.38419e-07
v 0.6 4.5 -0.4
v 0.6 4.5 -0.5
v 0.6 4.5 -0.9
v 0.6 4.5 -1
v 0.6 4.5 -1.4
v 0.6 4.5 -1.5
v 0.6 4.5 -1.9
v 0.6 4.5 -2
v 0.5 4.5 -2.1
v 0.6 4.5 -2.1
v 0.6 6.4 3.5
v 0.7 6.4 3.5
v 0.8 6.4 3.5
v 0.6 6.4 3.1
v 0.7 6.4 3.1
v 0.6 6.4 3
v 0.7 6.4 3
v 0.6 6.4 2.6
v 0.7 6.4 2.6
v 0.6 6.4 2.5
v 0.7 6.4 2.5
v 0.6 6.4 2.1
v 0.7 6.4 2.1
v 0.6 6.4 2
v 0.7 6.4 2
v 0.6 6.4 1.6
v 0.7 6.4 1.6
v 0.6 6.4 1.5
v 0.7 6.4 1.5
v 0.6 6.4 1.1
v 0.7 6.4 1.1
v 0.6 6.4 1
v 0.7 6.4 1
v 0.6 6.4 0.6
v 0.7 6.4 0.6
v 0.6 6.4 0.5
v 0.7 6.4 0.5
v 0.6 6.4 0.0999999
v 0.7 6.4 0.0999999
v 0.6 6.4 -2.38419e-07
v 0.7 6.4 -2.38419e-07
v 0.6 6.4 -0.4
v 0.7 6.4 -0.4
v 0.6 6.4 -0.5
v 0.7 6.4 -0.5
v 0.6 6.4 -0.9
v 0.7 6.4 -0.9
v 0.6 6.4 -1
v 0.7 6.4 -1
v 0.6 6.4 -1.4
v 0.7 6.4 -1.4
v 0.6 6.4 -1.5
v 0.7 6.4 -1.5
v 0.6 6.4 -1.9
v 0.7 6.4 -1.9
v 0.6 6.4 -2
v 0.7 6.4 -2
v 0.6 6.4 -2.4
v 0.7 6.4 -2.4
v 0.6 6.4 -2.5
v 0.7 6.4 -2.5
v 0.6 6.4 -2.9
v 0.7 6.4 -2.9
v 0.6 6.4 -3
v 0.7 6.4 -3
v 0.6 6.4 -3.4
v 0.7 6.4 -3.4
v 0.8 6.4 -3.4

# faces
f 5/4/1 2/4/1 1/4/1
f 6/4/1 4/4/1 3/4/1
f 7/4/1 5/4/1 1/4/1
f 7/4/1 6/4/1 5/4/1
f 8/4/1 4/4/1 6/4/1
f 8/4/1 6/4/1 7/4/1
f 21/2/1 14/2/1 13/2/1
f 40/2/1 16/2/1 15/2/1
f 41/2/1 10/2/1 9/2/1
f 42/3/1 11/3/1 10/3/1
f 42/2/1 10/2/1 41/2/1
f 43/2/1 12/2/1 11/2/1
f 43/3/1 11/3/1 42/3/1
f 44/3/1 13/3/1 12/3/1
f 44/2/1 12/2/1 43/2/1
f 45/2/1 21/2/1 13/2/1
f 45/3/1 13/3/1 44/3/1
f 45/2/1 22/2/1 21/2/1
f 46/3/1 23/3/1 22/3/1
f 46/2/1 22/2/1 45/2/1
f 47/2/1 24/2/1 23/2/1
f 47/3/1 23/3/1 46/3/1
f 48/3/1 25/3/1 24/3/1
f 48/2/1 24/2/1 47/2/1
f 49/2/1 26/2/1 25/2/1
f 49/3/1 25/3/1 48/3/1
f 50/3/1 27/3/1 26/3/1
f 50/2/1 26/2/1 49/2/1
f 51/2/1 28/2/1 27/2/1
f 51/3/1 27/3/1 50/3/1
f 52/3/1 29/3/1 28/3/1
f 52/2/1 28/2/1 51/2/1
f 53/2/1 30/2/1 29/2/1
f 53/3/1 29/3/1 52/3/1
f 54/3/1 31/3/1 30/3/1
f 54/2/1 30/2/1 53/2/1
f 55/2/1 32/2/1 31/2/1
f 55/3/1 31/3/1 54/3/1
f 56/3/1 33/3/1 32/3/1
f 56/2/1 32/2/1 55/2/1
f 57/2/1 34/2/1 33/2/1
f 57/3/1 33/3/1 56/3/1
f 58/3/1 35/3/1 34/3/1
f 58/2/1 34/2/1 57/2/1
f 59/2/1 36/2/1 35/2/1
f 59/3/1 35/3/1 58/3/1
f 60/3/1 37/3/1 36/3/1
f 60/2/1 36/2/1 59/2/1
f 61/2/1 38/2/1 37/2/1
f 61/3/1 37/3/1 60/3/1
f 62/3/1 39/3/1 38/3/1
f 62/2/1 38/2/1 61/2/1
f 63/2/1 40/2/1 39/2/1
f 63/3/1 39/3/1 62/3/1
f 64/3/1 17/3/1 16/3/1
f 64/2/1 40/2/1 63/2/1
f 64/2/1 16/2/1 40/2/1
f 65/2/1 18/2/1 17/2/1
f 65/3/1 17/3/1 64/3/1
f 66/3/1 19/3/1 18/3/1
f 66/2/1 18/2/1 65/2/1
f 67/2/1 20/2/1 19/2/1
f 67/3/1 19/3/1 66/3/1
f 68/2/1 20/2/1 67/2/1
f 70/4/2 71/4/2 75/4/2
f 72/4/2 73/4/2 76/4/2
f 69/1/2 70/1/2 77/1/2
f 75/4/2 76/4/2 77/4/2
f 70/4/2 75/4/2 77/4/2
f 76/4/2 73/4/2 78/4/2
f 77/4/2 76/4/2 78/4/2
f 73/1/2 74/1/2 78/1/2
f 69/1/2 77/1/2 79/1/2
f 77/1/2 78/1/2 79/1/2
f 78/1/2 74/1/2 80/1/2
f 79/1/2 78/1/2 80/1/2
f 83/2/3 82/2/3 81/2/3
f 84/2/3 82/2/3 83/2/3
f 85/1/3 84/1/3 83/1/3
f 86/1/3 84/1/3 85/1/3
f 89/4/3 88/4/3 87/4/3
f 90/4/3 88/4/3 89/4/3
f 93/4/3 92/4/3 91/4/3
f 94/4/3 92/4/3 93/4/3
f 95/4/4 96/4/4 97/4/4
f 97/4/4 96/4/4 98/4/4
f 99/4/4 100/4/4 101/4/4
f 101/4/4 100/4/4 102/4/4
f 103/2/4 104/2/4 105/2/4
f 105/2/4 104/2/4 106/2/4
f 105/1/4 106/1/4 107/1/4
f 107/1/4 106/1/4 108/1/4
f 112/2/5 110/2/5 109/2/5
f 113/1/5 111/1/5 110/1/5
f 113/2/5 110/2/5 112/2/5
f 114/3/5 113/3/5 112/3/5
f 115/1/5 111/1/5 113/1/5
f 115/3/5 113/3/5 114/3/5
f 116/2/5 115/2/5 114/2/5
f 117/1/5 111/1/5 115/1/5
f 117/2/5 115/2/5 116/2/5
f 118/3/5 117/3/5 116/3/5
f 119/1/5 111/1/5 117/1/5
f 119/3/5 117/3/5 118/3/5
f 121/2/5 119/2/5 118/2/5
f 122/1/5 111/1/5 119/1/5
f 122/2/5 119/2/5 121/2/5
f 123/1/5 111/1/5 122/1/5
f 124/4/5 121/4/5 120/4/5
f 124/4/5 122/4/5 121/4/5
f 124/4/5 123/4/5 122/4/5
f 125/4/5 123/4/5 124/4/5
f 128/4/5 127/4/5 126/4/5
f 129/4/5 127/4/5 128/4/5
f 130/4/5 127/4/5 129/4/5
f 131/4/5 127/4/5 130/4/5
f 132/2/5 130/2/5 129/2/5
f 133/1/5 131/1/5 130/1/5
f 133/2/5 130/2/5 132/2/5
f 134/3/5 133/3/5 132/3/5
f 135/1/5 131/1/5 133/1/5
f 135/3/5 133/3/5 134/3/5
f 136/2/5 135/2/5 134/2/5
f 137/1/5 131/1/5 135/1/5
f 137/2/5 135/2/5 136/2/5
f 138/3/5 137/3/5 136/3/5
f 139/1/5 131/1/5 137/1/5
f 139/3/5 137/3/5 138/3/5
f 140/2/5 139/2/5 138/2/5
f 141/1/5 131/1/5 139/1/5
f 141/2/5 139/2/5 140/2/5
f 142/1/5 131/1/5 141/1/5
f 145/4/5 144/4/5 143/4/5
f 146/4/5 144/4/5 145/4/5
f 147/4/6 148/4/6 149/4/6
f 147/4/6 149/4/6 150/4/6
f 147/4/6 150/4/6 151/4/6
f 147/4/6 151/4/6 152/4/6
f 147/4/6 152/4/6 153/4/6
f 147/4/6 153/4/6 154/4/6
f 147/4/6 154/4/6 155/4/6
f 147/4/6 155/4/6 156/4/6
f 147/4/6 156/4/6 157/4/6
f 147/4/6 157/4/6 158/4/6
f 147/4/6 158/4/6 159/4/6
f 147/4/6 159/4/6 160/4/6
f 147/4/6 160/4/6 161/4/6
f 147/4/6 161/4/6 162/4/6
f 147/4/6 162/4/6 163/4/6
f 147/4/6 163/4/6 164/4/6
f 147/4/6 164/4/6 165/4/6
f 147/4/6 165/4/6 166/4/6
f 147/4/6 166/4/6 167/4/6
f 167/4/6 166/4/6 168/4/6
f 169/2/6 170/2/6 172/2/6
f 170/1/6 171/1/6 173/1/6
f 172/2/6 170/2/6 173/2/6
f 172/3/6 173/3/6 174/3/6
f 173/1/6 171/1/6 175/1/6
f 174/3/6 173/3/6 175/3/6
f 174/2/6 175/2/6 176/2/6
f 175/1/6 171/1/6 177/1/6
f 176/2/6 175/2/6 177/2/6
f 176/3/6 177/3/6 178/3/6
f 177/1/6 171/1/6 179/1/6
f 178/3/6 177/3/6 179/3/6
f 178/2/6 179/2/6 180/2/6
f 179/1/6 171/1/6 181/1/6
f 180/2/6 179/2/6 181/2/6
f 180/3/6 181/3/6 182/3/6
f 181/1/6 171/1/6 183/1/6
f 182/3/6 181/3/6 183/3/6
f 182/2/6 183/2/6 184/2/6
f 183/1/6 171/1/6 185/1/6
f 184/2/6 183/2/6 185/2/6
f 184/3/6 185/3/6 186/3/6
f 185/1/6 171/1/6 187/1/6
f 186/3/6 185/3/6 187/3/6
f 186/2/6 187/2/6 188/2/6
f 187/1/6 171/1/6 189/1/6
f 188/2/6 187/2/6 189/2/6
f 188/3/6 189/3/6 190/3/6
f 189/1/6 171/1/6 191/1/6
f 190/3/6 189/3/6 191/3/6
f 190/2/6 191/2/6 192/2/6
f 191/1/6 171/1/6 193/1/6
f 192/2/6 191/2/6 193/2/6
f 192/3/6 193/3/6 194/3/6
f 193/1/6 171/1/6 195/1/6
f 194/3/6 193/3/6 195/3/6
f 194/2/6 195/2/6 196/2/6
f 195/1/6 171/1/6 197/1/6
f 196/2/6 195/2/6 197/2/6
f 196/3/6 197/3/6 198/3/6
f 197/1/6 171/1/6 199/1/6
f 198/3/6 197/3/6 199/3/6
f 198/2/6 199/2/6 200/2/6
f 199/1/6 171/1/6 201/1/6
f 200/2/6 199/2/6 201/2/6
f 200/3/6 201/3/6 202/3/6
f 201/1/6 171/1/6 203/1/6
f 202/3/6 201/3/6 203/3/6
f 202/2/6 203/2/6 204/2/6
f 203/1/6 171/1/6 205/1/6
f 204/2/6 203/2/6 205/2/6
f 204/3/6 205/3/6 206/3/6
f 205/1/6 171/1/6 207/1/6
f 206/3/6 205/3/6 207/3/6
f 206/2/6 207/2/6 208/2/6
f 207/1/6 171/1/6 209/1/6
f 208/2/6 207/2/6 209/2/6
f 208/3/6 209/3/6 210/3/6
f 209/1/6 171/1/6 211/1/6
f 210/3/6 209/3/6 211/3/6
f 210/2/6 211/2/6 212/2/6
f 211/1/6 171/1/6 213/1/6
f 212/2/6 211/2/6 213/2/6
f 212/3/6 213/3/6 214/3/6
f 213/1/6 171/1/6 215/1/6
f 214/3/6 213/3/6 215/3/6
f 214/2/6 215/2/6 216/2/6
f 215/1/6 171/1/6 217/1/6
f 216/2/6 215/2/6 217/2/6
f 216/3/6 217/3/6 218/3/6
f 217/1/6 171/1/6 219/1/6
f 218/3/6 217/3/6 219/3/6
f 218/2/6 219/2/6 220/2/6
f 219/1/6 171/1/6 221/1/6
f 220/2/6 219/2/6 221/2/6
f 220/3/6 221/3/6 222/3/6
f 221/1/6 171/1/6 223/1/6
f 222/3/6 221/3/6 223/3/6
f 222/2/6 223/2/6 224/2/6
f 223/1/6 171/1/6 225/1/6
f 224/2/6 223/2/6 225/2/6
f 225/1/6 171/1/6 226/1/6
