# MagicaVoxel @ Ephtracy

# group
o 

# material
mtllib Canetas.mtl
usemtl palette

# normals
vn -1 0 0
vn 1 0 0
vn 0 0 1
vn 0 0 -1
vn 0 -1 0
vn 0 1 0

# texcoords
vt 0.857422 0.5
vt 0.958984 0.5
vt 0.994141 0.5

# verts
v -3.6 0 -0.8
v -3.6 0 -1.1
v -3.6 0.1 -0.7
v -3.6 0.1 -0.8
v -3.6 0.1 -1.1
v -3.6 0.1 -1.2
v -3.6 0.4 -0.7
v -3.6 0.4 -0.8
v -3.6 0.4 -1.1
v -3.6 0.4 -1.2
v -3.6 0.5 -0.8
v -3.6 0.5 -1.1
v -0.0999999 0 -0.1
v -0.0999999 0 -0.4
v -0.0999999 0.1 -9.68575e-08
v -0.0999999 0.1 -0.1
v -0.0999999 0.1 -0.4
v -0.0999999 0.1 -0.5
v -0.0999999 0.4 -9.68575e-08
v -0.0999999 0.4 -0.1
v -0.0999999 0.4 -0.4
v -0.0999999 0.4 -0.5
v -0.0999999 0.5 -0.1
v -0.0999999 0.5 -0.4
v 0.9 0 -0.2
v 0.9 0 -0.3
v 0.9 0.1 -0.1
v 0.9 0.1 -0.2
v 0.9 0.1 -0.3
v 0.9 0.1 -0.4
v 0.9 0.4 -0.1
v 0.9 0.4 -0.4
v 3 0 -0.2
v 3 0 -0.4
v 3 0.1 -0.1
v 3 0.1 -0.2
v 3 0.1 -0.4
v 3 0.4 -0.1
v 3 0.4 -0.4
v -0.4 0 -0.8
v -0.4 0 -1.1
v -0.4 0.1 -0.7
v -0.4 0.1 -0.8
v -0.4 0.1 -1.1
v -0.4 0.1 -1.2
v -0.4 0.4 -0.7
v -0.4 0.4 -0.8
v -0.4 0.4 -1.1
v -0.4 0.4 -1.2
v -0.4 0.5 -0.8
v -0.4 0.5 -1.1
v 0 0 -0.2
v 0 0 -0.3
v 0 0.1 -0.1
v 0 0.1 -0.2
v 0 0.1 -0.3
v 0 0.1 -0.4
v 0 0.4 -0.1
v 0 0.4 -0.4
v 2.9 0 -0.2
v 2.9 0 -0.4
v 2.9 0.1 -0.1
v 2.9 0.1 -0.2
v 2.9 0.1 -0.4
v 2.9 0.4 -0.1
v 2.9 0.4 -0.4
v 3.1 0 -0.1
v 3.1 0 -0.4
v 3.1 0.1 -9.68575e-08
v 3.1 0.1 -0.1
v 3.1 0.1 -0.4
v 3.1 0.1 -0.5
v 3.1 0.4 -9.68575e-08
v 3.1 0.4 -0.1
v 3.1 0.4 -0.4
v 3.1 0.4 -0.5
v 3.1 0.5 -0.1
v 3.1 0.5 -0.4
v -0.0999999 0.1 -9.68575e-08
v -0.0999999 0.4 -9.68575e-08
v 0.9 0.1 -9.68575e-08
v 0.9 0.4 -9.68575e-08
v 2.9 0.1 -9.68575e-08
v 2.9 0.4 -9.68575e-08
v 3.1 0.1 -9.68575e-08
v 3.1 0.4 -9.68575e-08
v -0.0999999 0 -0.1
v -0.0999999 0.1 -0.1
v -0.0999999 0.4 -0.1
v -0.0999999 0.5 -0.1
v 0.9 0 -0.1
v 0.9 0.1 -0.1
v 0.9 0.4 -0.1
v 0.9 0.5 -0.1
v 2.9 0 -0.1
v 2.9 0.1 -0.1
v 2.9 0.4 -0.1
v 2.9 0.5 -0.1
v 3.1 0 -0.1
v 3.1 0.1 -0.1
v 3.1 0.4 -0.1
v 3.1 0.5 -0.1
v 0 0 -0.3
v 0 0.1 -0.3
v 0.9 0 -0.3
v 0.9 0.1 -0.3
v 0 0.1 -0.4
v 0 0.4 -0.4
v 0.9 0.1 -0.4
v 0.9 0.4 -0.4
v 2.9 0.1 -0.4
v 2.9 0.4 -0.4
v 3 0.1 -0.4
v 3 0.4 -0.4
v -3.6 0.1 -0.7
v -3.6 0.4 -0.7
v -2.6 0.1 -0.7
v -2.6 0.4 -0.7
v -0.6 0.1 -0.7
v -0.6 0.4 -0.7
v -0.4 0.1 -0.7
v -0.4 0.4 -0.7
v -3.6 0 -0.8
v -3.6 0.1 -0.8
v -3.6 0.4 -0.8
v -3.6 0.5 -0.8
v -2.6 0 -0.8
v -2.6 0.1 -0.8
v -2.6 0.4 -0.8
v -2.6 0.5 -0.8
v -0.6 0 -0.8
v -0.6 0.1 -0.8
v -0.6 0.4 -0.8
v -0.6 0.5 -0.8
v -0.4 0 -0.8
v -0.4 0.1 -0.8
v -0.4 0.4 -0.8
v -0.4 0.5 -0.8
v 0 0.1 -0.1
v 0 0.4 -0.1
v 0.9 0.1 -0.1
v 0.9 0.4 -0.1
v 2.9 0.1 -0.1
v 2.9 0.4 -0.1
v 3 0.1 -0.1
v 3 0.4 -0.1
v 0 0 -0.2
v 0 0.1 -0.2
v 0.9 0 -0.2
v 0.9 0.1 -0.2
v 2.9 0 -0.2
v 2.9 0.1 -0.2
v 3 0 -0.2
v 3 0.1 -0.2
v -0.0999999 0 -0.4
v -0.0999999 0.1 -0.4
v -0.0999999 0.4 -0.4
v -0.0999999 0.5 -0.4
v 0.9 0 -0.4
v 0.9 0.1 -0.4
v 0.9 0.4 -0.4
v 0.9 0.5 -0.4
v 2.9 0 -0.4
v 2.9 0.1 -0.4
v 2.9 0.4 -0.4
v 2.9 0.5 -0.4
v 3 0 -0.4
v 3 0.1 -0.4
v 3.1 0 -0.4
v 3.1 0.1 -0.4
v 3.1 0.4 -0.4
v 3.1 0.5 -0.4
v -0.0999999 0.1 -0.5
v -0.0999999 0.4 -0.5
v 0.9 0.1 -0.5
v 0.9 0.4 -0.5
v 2.9 0.1 -0.5
v 2.9 0.4 -0.5
v 3.1 0.1 -0.5
v 3.1 0.4 -0.5
v -3.6 0 -1.1
v -3.6 0.1 -1.1
v -3.6 0.4 -1.1
v -3.6 0.5 -1.1
v -2.6 0 -1.1
v -2.6 0.1 -1.1
v -2.6 0.4 -1.1
v -2.6 0.5 -1.1
v -0.6 0 -1.1
v -0.6 0.1 -1.1
v -0.6 0.4 -1.1
v -0.6 0.5 -1.1
v -0.4 0 -1.1
v -0.4 0.1 -1.1
v -0.4 0.4 -1.1
v -0.4 0.5 -1.1
v -3.6 0.1 -1.2
v -3.6 0.4 -1.2
v -2.6 0.1 -1.2
v -2.6 0.4 -1.2
v -0.6 0.1 -1.2
v -0.6 0.4 -1.2
v -0.4 0.1 -1.2
v -0.4 0.4 -1.2
v -0.0999999 0 -0.1
v 0.9 0 -0.1
v 2.9 0 -0.1
v 3.1 0 -0.1
v 0 0 -0.2
v 0.9 0 -0.2
v 2.9 0 -0.2
v 3 0 -0.2
v 0 0 -0.3
v 0.9 0 -0.3
v -0.0999999 0 -0.4
v 0.9 0 -0.4
v 2.9 0 -0.4
v 3 0 -0.4
v 3.1 0 -0.4
v -3.6 0 -0.8
v -2.6 0 -0.8
v -0.6 0 -0.8
v -0.4 0 -0.8
v -3.6 0 -1.1
v -2.6 0 -1.1
v -0.6 0 -1.1
v -0.4 0 -1.1
v -0.0999999 0.1 -9.68575e-08
v 0.9 0.1 -9.68575e-08
v 2.9 0.1 -9.68575e-08
v 3.1 0.1 -9.68575e-08
v -0.0999999 0.1 -0.1
v 0.9 0.1 -0.1
v 2.9 0.1 -0.1
v 3.1 0.1 -0.1
v -0.0999999 0.1 -0.4
v 0.9 0.1 -0.4
v 2.9 0.1 -0.4
v 3 0.1 -0.4
v 3.1 0.1 -0.4
v -0.0999999 0.1 -0.5
v 0.9 0.1 -0.5
v 2.9 0.1 -0.5
v 3.1 0.1 -0.5
v -3.6 0.1 -0.7
v -2.6 0.1 -0.7
v -0.6 0.1 -0.7
v -0.4 0.1 -0.7
v -3.6 0.1 -0.8
v -2.6 0.1 -0.8
v -0.6 0.1 -0.8
v -0.4 0.1 -0.8
v -3.6 0.1 -1.1
v -2.6 0.1 -1.1
v -0.6 0.1 -1.1
v -0.4 0.1 -1.1
v -3.6 0.1 -1.2
v -2.6 0.1 -1.2
v -0.6 0.1 -1.2
v -0.4 0.1 -1.2
v 0 0.4 -0.1
v 0.9 0.4 -0.1
v 2.9 0.4 -0.1
v 3 0.4 -0.1
v 0 0.4 -0.4
v 0.9 0.4 -0.4
v 2.9 0.4 -0.4
v 3 0.4 -0.4
v 0 0.1 -0.1
v 0.9 0.1 -0.1
v 2.9 0.1 -0.1
v 3 0.1 -0.1
v 0 0.1 -0.2
v 0.9 0.1 -0.2
v 2.9 0.1 -0.2
v 3 0.1 -0.2
v 0 0.1 -0.3
v 0.9 0.1 -0.3
v 0 0.1 -0.4
v 0.9 0.1 -0.4
v -0.0999999 0.4 -9.68575e-08
v 0.9 0.4 -9.68575e-08
v 2.9 0.4 -9.68575e-08
v 3.1 0.4 -9.68575e-08
v -0.0999999 0.4 -0.1
v 0.9 0.4 -0.1
v 2.9 0.4 -0.1
v 3.1 0.4 -0.1
v -0.0999999 0.4 -0.4
v 0.9 0.4 -0.4
v 2.9 0.4 -0.4
v 3.1 0.4 -0.4
v -0.0999999 0.4 -0.5
v 0.9 0.4 -0.5
v 2.9 0.4 -0.5
v 3.1 0.4 -0.5
v -3.6 0.4 -0.7
v -2.6 0.4 -0.7
v -0.6 0.4 -0.7
v -0.4 0.4 -0.7
v -3.6 0.4 -0.8
v -2.6 0.4 -0.8
v -0.6 0.4 -0.8
v -0.4 0.4 -0.8
v -3.6 0.4 -1.1
v -2.6 0.4 -1.1
v -0.6 0.4 -1.1
v -0.4 0.4 -1.1
v -3.6 0.4 -1.2
v -2.6 0.4 -1.2
v -0.6 0.4 -1.2
v -0.4 0.4 -1.2
v -0.0999999 0.5 -0.1
v 0.9 0.5 -0.1
v 2.9 0.5 -0.1
v 3.1 0.5 -0.1
v -0.0999999 0.5 -0.4
v 0.9 0.5 -0.4
v 2.9 0.5 -0.4
v 3.1 0.5 -0.4
v -3.6 0.5 -0.8
v -2.6 0.5 -0.8
v -0.6 0.5 -0.8
v -0.4 0.5 -0.8
v -3.6 0.5 -1.1
v -2.6 0.5 -1.1
v -0.6 0.5 -1.1
v -0.4 0.5 -1.1

# faces
f 4/3/1 2/3/1 1/3/1
f 5/3/1 2/3/1 4/3/1
f 7/3/1 4/3/1 3/3/1
f 7/3/1 6/3/1 5/3/1
f 7/3/1 5/3/1 4/3/1
f 8/3/1 6/3/1 7/3/1
f 9/3/1 6/3/1 8/3/1
f 10/3/1 6/3/1 9/3/1
f 11/3/1 9/3/1 8/3/1
f 12/3/1 9/3/1 11/3/1
f 16/1/1 14/1/1 13/1/1
f 17/1/1 14/1/1 16/1/1
f 19/1/1 16/1/1 15/1/1
f 19/1/1 18/1/1 17/1/1
f 19/1/1 17/1/1 16/1/1
f 20/1/1 18/1/1 19/1/1
f 21/1/1 18/1/1 20/1/1
f 22/1/1 18/1/1 21/1/1
f 23/1/1 21/1/1 20/1/1
f 24/1/1 21/1/1 23/1/1
f 28/2/1 26/2/1 25/2/1
f 29/2/1 26/2/1 28/2/1
f 31/2/1 28/2/1 27/2/1
f 31/2/1 30/2/1 29/2/1
f 31/2/1 29/2/1 28/2/1
f 32/2/1 30/2/1 31/2/1
f 36/1/1 34/1/1 33/1/1
f 37/1/1 34/1/1 36/1/1
f 38/1/1 36/1/1 35/1/1
f 38/1/1 37/1/1 36/1/1
f 39/1/1 37/1/1 38/1/1
f 40/3/2 41/3/2 43/3/2
f 43/3/2 41/3/2 44/3/2
f 42/3/2 43/3/2 46/3/2
f 44/3/2 45/3/2 46/3/2
f 43/3/2 44/3/2 46/3/2
f 46/3/2 45/3/2 47/3/2
f 47/3/2 45/3/2 48/3/2
f 48/3/2 45/3/2 49/3/2
f 47/3/2 48/3/2 50/3/2
f 50/3/2 48/3/2 51/3/2
f 52/1/2 53/1/2 55/1/2
f 55/1/2 53/1/2 56/1/2
f 54/1/2 55/1/2 58/1/2
f 56/1/2 57/1/2 58/1/2
f 55/1/2 56/1/2 58/1/2
f 58/1/2 57/1/2 59/1/2
f 60/2/2 61/2/2 63/2/2
f 63/2/2 61/2/2 64/2/2
f 62/2/2 63/2/2 65/2/2
f 63/2/2 64/2/2 65/2/2
f 65/2/2 64/2/2 66/2/2
f 67/1/2 68/1/2 70/1/2
f 70/1/2 68/1/2 71/1/2
f 69/1/2 70/1/2 73/1/2
f 71/1/2 72/1/2 73/1/2
f 70/1/2 71/1/2 73/1/2
f 73/1/2 72/1/2 74/1/2
f 74/1/2 72/1/2 75/1/2
f 75/1/2 72/1/2 76/1/2
f 74/1/2 75/1/2 77/1/2
f 77/1/2 75/1/2 78/1/2
f 81/1/3 80/1/3 79/1/3
f 82/1/3 80/1/3 81/1/3
f 83/2/3 82/2/3 81/2/3
f 84/2/3 82/2/3 83/2/3
f 85/1/3 84/1/3 83/1/3
f 86/1/3 84/1/3 85/1/3
f 91/1/3 88/1/3 87/1/3
f 92/1/3 88/1/3 91/1/3
f 93/1/3 90/1/3 89/1/3
f 94/1/3 90/1/3 93/1/3
f 95/2/3 92/2/3 91/2/3
f 96/2/3 92/2/3 95/2/3
f 97/2/3 94/2/3 93/2/3
f 98/2/3 94/2/3 97/2/3
f 99/1/3 96/1/3 95/1/3
f 100/1/3 96/1/3 99/1/3
f 101/1/3 98/1/3 97/1/3
f 102/1/3 98/1/3 101/1/3
f 105/1/3 104/1/3 103/1/3
f 106/1/3 104/1/3 105/1/3
f 109/1/3 108/1/3 107/1/3
f 110/1/3 108/1/3 109/1/3
f 113/1/3 112/1/3 111/1/3
f 114/1/3 112/1/3 113/1/3
f 117/3/3 116/3/3 115/3/3
f 118/3/3 116/3/3 117/3/3
f 119/2/3 118/2/3 117/2/3
f 120/2/3 118/2/3 119/2/3
f 121/3/3 120/3/3 119/3/3
f 122/3/3 120/3/3 121/3/3
f 127/3/3 124/3/3 123/3/3
f 128/3/3 124/3/3 127/3/3
f 129/3/3 126/3/3 125/3/3
f 130/3/3 126/3/3 129/3/3
f 131/2/3 128/2/3 127/2/3
f 132/2/3 128/2/3 131/2/3
f 133/2/3 130/2/3 129/2/3
f 134/2/3 130/2/3 133/2/3
f 135/3/3 132/3/3 131/3/3
f 136/3/3 132/3/3 135/3/3
f 137/3/3 134/3/3 133/3/3
f 138/3/3 134/3/3 137/3/3
f 139/1/4 140/1/4 141/1/4
f 141/1/4 140/1/4 142/1/4
f 143/1/4 144/1/4 145/1/4
f 145/1/4 144/1/4 146/1/4
f 147/1/4 148/1/4 149/1/4
f 149/1/4 148/1/4 150/1/4
f 151/1/4 152/1/4 153/1/4
f 153/1/4 152/1/4 154/1/4
f 155/1/4 156/1/4 159/1/4
f 159/1/4 156/1/4 160/1/4
f 157/1/4 158/1/4 161/1/4
f 161/1/4 158/1/4 162/1/4
f 159/2/4 160/2/4 163/2/4
f 163/2/4 160/2/4 164/2/4
f 161/2/4 162/2/4 165/2/4
f 165/2/4 162/2/4 166/2/4
f 167/1/4 168/1/4 169/1/4
f 169/1/4 168/1/4 170/1/4
f 165/1/4 166/1/4 171/1/4
f 171/1/4 166/1/4 172/1/4
f 173/1/4 174/1/4 175/1/4
f 175/1/4 174/1/4 176/1/4
f 175/2/4 176/2/4 177/2/4
f 177/2/4 176/2/4 178/2/4
f 177/1/4 178/1/4 179/1/4
f 179/1/4 178/1/4 180/1/4
f 181/3/4 182/3/4 185/3/4
f 185/3/4 182/3/4 186/3/4
f 183/3/4 184/3/4 187/3/4
f 187/3/4 184/3/4 188/3/4
f 185/2/4 186/2/4 189/2/4
f 189/2/4 186/2/4 190/2/4
f 187/2/4 188/2/4 191/2/4
f 191/2/4 188/2/4 192/2/4
f 189/3/4 190/3/4 193/3/4
f 193/3/4 190/3/4 194/3/4
f 191/3/4 192/3/4 195/3/4
f 195/3/4 192/3/4 196/3/4
f 197/3/4 198/3/4 199/3/4
f 199/3/4 198/3/4 200/3/4
f 199/2/4 200/2/4 201/2/4
f 201/2/4 200/2/4 202/2/4
f 201/3/4 202/3/4 203/3/4
f 203/3/4 202/3/4 204/3/4
f 209/1/5 206/1/5 205/1/5
f 210/2/5 207/2/5 206/2/5
f 210/1/5 206/1/5 209/1/5
f 211/1/5 208/1/5 207/1/5
f 211/2/5 207/2/5 210/2/5
f 212/1/5 208/1/5 211/1/5
f 213/1/5 209/1/5 205/1/5
f 214/2/5 211/2/5 210/2/5
f 215/1/5 213/1/5 205/1/5
f 215/1/5 214/1/5 213/1/5
f 216/2/5 211/2/5 214/2/5
f 216/1/5 214/1/5 215/1/5
f 217/2/5 211/2/5 216/2/5
f 218/1/5 208/1/5 212/1/5
f 219/1/5 208/1/5 218/1/5
f 224/3/5 221/3/5 220/3/5
f 225/2/5 222/2/5 221/2/5
f 225/3/5 221/3/5 224/3/5
f 226/3/5 223/3/5 222/3/5
f 226/2/5 222/2/5 225/2/5
f 227/3/5 223/3/5 226/3/5
f 232/1/5 229/1/5 228/1/5
f 233/2/5 230/2/5 229/2/5
f 233/1/5 229/1/5 232/1/5
f 234/1/5 231/1/5 230/1/5
f 234/2/5 230/2/5 233/2/5
f 235/1/5 231/1/5 234/1/5
f 241/1/5 237/1/5 236/1/5
f 242/2/5 238/2/5 237/2/5
f 242/1/5 237/1/5 241/1/5
f 243/1/5 240/1/5 239/1/5
f 243/2/5 238/2/5 242/2/5
f 243/1/5 239/1/5 238/1/5
f 244/1/5 240/1/5 243/1/5
f 249/3/5 246/3/5 245/3/5
f 250/2/5 247/2/5 246/2/5
f 250/3/5 246/3/5 249/3/5
f 251/3/5 248/3/5 247/3/5
f 251/2/5 247/2/5 250/2/5
f 252/3/5 248/3/5 251/3/5
f 257/3/5 254/3/5 253/3/5
f 258/2/5 255/2/5 254/2/5
f 258/3/5 254/3/5 257/3/5
f 259/3/5 256/3/5 255/3/5
f 259/2/5 255/2/5 258/2/5
f 260/3/5 256/3/5 259/3/5
f 265/1/5 262/1/5 261/1/5
f 266/1/5 262/1/5 265/1/5
f 267/1/5 264/1/5 263/1/5
f 268/1/5 264/1/5 267/1/5
f 269/1/6 270/1/6 273/1/6
f 273/1/6 270/1/6 274/1/6
f 271/1/6 272/1/6 275/1/6
f 275/1/6 272/1/6 276/1/6
f 277/1/6 278/1/6 279/1/6
f 279/1/6 278/1/6 280/1/6
f 281/1/6 282/1/6 285/1/6
f 282/2/6 283/2/6 286/2/6
f 285/1/6 282/1/6 286/1/6
f 283/1/6 284/1/6 287/1/6
f 286/2/6 283/2/6 287/2/6
f 287/1/6 284/1/6 288/1/6
f 289/1/6 290/1/6 293/1/6
f 290/2/6 291/2/6 294/2/6
f 293/1/6 290/1/6 294/1/6
f 291/1/6 292/1/6 295/1/6
f 294/2/6 291/2/6 295/2/6
f 295/1/6 292/1/6 296/1/6
f 297/3/6 298/3/6 301/3/6
f 298/2/6 299/2/6 302/2/6
f 301/3/6 298/3/6 302/3/6
f 299/3/6 300/3/6 303/3/6
f 302/2/6 299/2/6 303/2/6
f 303/3/6 300/3/6 304/3/6
f 305/3/6 306/3/6 309/3/6
f 306/2/6 307/2/6 310/2/6
f 309/3/6 306/3/6 310/3/6
f 307/3/6 308/3/6 311/3/6
f 310/2/6 307/2/6 311/2/6
f 311/3/6 308/3/6 312/3/6
f 313/1/6 314/1/6 317/1/6
f 314/2/6 315/2/6 318/2/6
f 317/1/6 314/1/6 318/1/6
f 315/1/6 316/1/6 319/1/6
f 318/2/6 315/2/6 319/2/6
f 319/1/6 316/1/6 320/1/6
f 321/3/6 322/3/6 325/3/6
f 322/2/6 323/2/6 326/2/6
f 325/3/6 322/3/6 326/3/6
f 323/3/6 324/3/6 327/3/6
f 326/2/6 323/2/6 327/2/6
f 327/3/6 324/3/6 328/3/6
