# MagicaVoxel @ Ephtracy

# group
o 

# material
mtllib sofa.mtl
usemtl palette

# normals
vn -1 0 0
vn 1 0 0
vn 0 0 1
vn 0 0 -1
vn 0 -1 0
vn 0 1 0

# texcoords
vt 0.00585938 0.5
vt 0.00976563 0.5
vt 0.537109 0.5

# verts
v -3.2 0.5 6.4
v -3.2 0.5 -6.4
v -3.2 1.8 5.8
v -3.2 1.8 -5.8
v -3.2 2.4 5.8
v -3.2 2.4 -5.8
v -3.2 3.5 6.4
v -3.2 3.5 5.8
v -3.2 3.5 -5.8
v -3.2 3.5 -6.4
v -3.1 0 6.3
v -3.1 0 5.8
v -3.1 0 -5.7
v -3.1 0 -6.3
v -3.1 0.5 6.3
v -3.1 0.5 5.8
v -3.1 0.5 -5.7
v -3.1 0.5 -6.3
v -3.1 2.4 5.7
v -3.1 2.4 -5.7
v -3.1 2.5 5.7
v -3.1 2.5 -5.7
v -3.1 3.5 6.4
v -3.1 3.5 5.8
v -3.1 3.5 -5.8
v -3.1 3.5 -6.4
v -3.1 3.6 6.4
v -3.1 3.6 5.8
v -3.1 3.6 -5.8
v -3.1 3.6 -6.4
v -3 3.6 6.4
v -3 3.6 5.8
v -3 3.6 -5.8
v -3 3.6 -6.4
v -3 3.7 6.4
v -3 3.7 5.8
v -3 3.7 -5.8
v -3 3.7 -6.4
v 0.8 3.7 6.4
v 0.8 3.7 5.8
v 0.8 3.7 -5.8
v 0.8 3.7 -6.4
v 0.8 3.8 6.4
v 0.8 3.8 5.8
v 0.8 3.8 -5.8
v 0.8 3.8 -6.4
v 0.9 3.8 6.4
v 0.9 3.8 5.8
v 0.9 3.8 -5.8
v 0.9 3.8 -6.4
v 0.9 3.9 6.4
v 0.9 3.9 5.8
v 0.9 3.9 -5.8
v 0.9 3.9 -6.4
v 1 2.4 5.9
v 1 2.4 5.8
v 1 2.4 5.7
v 1 2.4 -5.7
v 1 2.4 -5.8
v 1 2.4 -5.9
v 1 2.5 5.7
v 1 2.5 -5.7
v 1 3.6 5.9
v 1 3.6 5.8
v 1 3.6 -5.8
v 1 3.6 -5.9
v 1 3.9 6.4
v 1 3.9 5.8
v 1 3.9 -5.8
v 1 3.9 -6.4
v 1 5.2 6.4
v 1 5.2 -6.4
v -3 2.4 5.9
v -3 2.4 5.8
v -3 2.4 -5.8
v -3 2.4 -5.9
v -3 3.4 5.9
v -3 3.4 5.8
v -3 3.4 -5.8
v -3 3.4 -5.9
v -2.9 3.4 5.9
v -2.9 3.4 5.8
v -2.9 3.4 -5.8
v -2.9 3.4 -5.9
v -2.9 3.5 5.9
v -2.9 3.5 5.8
v -2.9 3.5 -5.8
v -2.9 3.5 -5.9
v 0.9 3.5 5.9
v 0.9 3.5 5.8
v 0.9 3.5 -5.8
v 0.9 3.5 -5.9
v 0.9 3.6 5.9
v 0.9 3.6 5.8
v 0.9 3.6 -5.8
v 0.9 3.6 -5.9
v 2.4 0 6.3
v 2.4 0 5.8
v 2.4 0 -5.7
v 2.4 0 -6.3
v 2.4 0.5 6.3
v 2.4 0.5 5.8
v 2.4 0.5 -5.7
v 2.4 0.5 -6.3
v 2.5 0.5 6.4
v 2.5 0.5 -6.4
v 2.5 5.2 6.4
v 2.5 5.2 -6.4
v -3.2 0.5 6.4
v -3.2 3.5 6.4
v -3.1 3.5 6.4
v -3.1 3.6 6.4
v -3 3.6 6.4
v -3 3.7 6.4
v 0.8 3.7 6.4
v 0.8 3.8 6.4
v 0.9 3.8 6.4
v 0.9 3.9 6.4
v 1 3.9 6.4
v 1 5.2 6.4
v 2.5 0.5 6.4
v 2.5 5.2 6.4
v -3.1 0 6.3
v -3.1 0.5 6.3
v 2.4 0 6.3
v 2.4 0.5 6.3
v -3.1 2.4 5.7
v -3.1 2.5 5.7
v 1 2.4 5.7
v 1 2.5 5.7
v -3.1 0 -5.7
v -3.1 0.5 -5.7
v 2.4 0 -5.7
v 2.4 0.5 -5.7
v -3.2 2.4 -5.8
v -3.2 3.5 -5.8
v -3.1 3.5 -5.8
v -3.1 3.6 -5.8
v -3 2.4 -5.8
v -3 3.4 -5.8
v -3 3.6 -5.8
v -3 3.7 -5.8
v -2.9 3.4 -5.8
v -2.9 3.5 -5.8
v 0.8 3.7 -5.8
v 0.8 3.8 -5.8
v 0.9 3.5 -5.8
v 0.9 3.6 -5.8
v 0.9 3.8 -5.8
v 0.9 3.9 -5.8
v 1 3.6 -5.8
v 1 3.9 -5.8
v -3 2.4 -5.9
v -3 3.4 -5.9
v -2.9 3.4 -5.9
v -2.9 3.5 -5.9
v 0.9 3.5 -5.9
v 0.9 3.6 -5.9
v 1 2.4 -5.9
v 1 3.6 -5.9
v -3 2.4 5.9
v -3 3.4 5.9
v -2.9 3.4 5.9
v -2.9 3.5 5.9
v 0.9 3.5 5.9
v 0.9 3.6 5.9
v 1 2.4 5.9
v 1 3.6 5.9
v -3.2 2.4 5.8
v -3.2 3.5 5.8
v -3.1 0 5.8
v -3.1 0.5 5.8
v -3.1 3.5 5.8
v -3.1 3.6 5.8
v -3 2.4 5.8
v -3 3.4 5.8
v -3 3.6 5.8
v -3 3.7 5.8
v -2.9 3.4 5.8
v -2.9 3.5 5.8
v 0.8 3.7 5.8
v 0.8 3.8 5.8
v 0.9 3.5 5.8
v 0.9 3.6 5.8
v 0.9 3.8 5.8
v 0.9 3.9 5.8
v 1 3.6 5.8
v 1 3.9 5.8
v 2.4 0 5.8
v 2.4 0.5 5.8
v -3.1 2.4 -5.7
v -3.1 2.5 -5.7
v 1 2.4 -5.7
v 1 2.5 -5.7
v -3.1 0 -6.3
v -3.1 0.5 -6.3
v 2.4 0 -6.3
v 2.4 0.5 -6.3
v -3.2 0.5 -6.4
v -3.2 3.5 -6.4
v -3.1 3.5 -6.4
v -3.1 3.6 -6.4
v -3 3.6 -6.4
v -3 3.7 -6.4
v 0.8 3.7 -6.4
v 0.8 3.8 -6.4
v 0.9 3.8 -6.4
v 0.9 3.9 -6.4
v 1 3.9 -6.4
v 1 5.2 -6.4
v 2.5 0.5 -6.4
v 2.5 5.2 -6.4
v -3.1 0 6.3
v 2.4 0 6.3
v -3.1 0 5.8
v 2.4 0 5.8
v -3.1 0 -5.7
v 2.4 0 -5.7
v -3.1 0 -6.3
v 2.4 0 -6.3
v -3.2 0.5 6.4
v 2.5 0.5 6.4
v -3.1 0.5 6.3
v 2.4 0.5 6.3
v -3.1 0.5 5.8
v 2.4 0.5 5.8
v -3.1 0.5 -5.7
v 2.4 0.5 -5.7
v -3.1 0.5 -6.3
v 2.4 0.5 -6.3
v -3.2 0.5 -6.4
v 2.5 0.5 -6.4
v -3 3.4 5.9
v -2.9 3.4 5.9
v -3 3.4 5.8
v -2.9 3.4 5.8
v -3 3.4 -5.8
v -2.9 3.4 -5.8
v -3 3.4 -5.9
v -2.9 3.4 -5.9
v -2.9 3.5 5.9
v 0.9 3.5 5.9
v -2.9 3.5 5.8
v 0.9 3.5 5.8
v -2.9 3.5 -5.8
v 0.9 3.5 -5.8
v -2.9 3.5 -5.9
v 0.9 3.5 -5.9
v 0.9 3.6 5.9
v 1 3.6 5.9
v 0.9 3.6 5.8
v 1 3.6 5.8
v 0.9 3.6 -5.8
v 1 3.6 -5.8
v 0.9 3.6 -5.9
v 1 3.6 -5.9
v -3 2.4 5.9
v 1 2.4 5.9
v -3.2 2.4 5.8
v -3 2.4 5.8
v 1 2.4 5.8
v -3.1 2.4 5.7
v 1 2.4 5.7
v -3.1 2.4 -5.7
v 1 2.4 -5.7
v -3.2 2.4 -5.8
v -3 2.4 -5.8
v 1 2.4 -5.8
v -3 2.4 -5.9
v 1 2.4 -5.9
v -3.1 2.5 5.7
v 1 2.5 5.7
v -3.1 2.5 -5.7
v 1 2.5 -5.7
v -3.2 3.5 6.4
v -3.1 3.5 6.4
v -3.2 3.5 5.8
v -3.1 3.5 5.8
v -3.2 3.5 -5.8
v -3.1 3.5 -5.8
v -3.2 3.5 -6.4
v -3.1 3.5 -6.4
v -3.1 3.6 6.4
v -3 3.6 6.4
v -3.1 3.6 5.8
v -3 3.6 5.8
v -3.1 3.6 -5.8
v -3 3.6 -5.8
v -3.1 3.6 -6.4
v -3 3.6 -6.4
v -3 3.7 6.4
v 0.8 3.7 6.4
v -3 3.7 5.8
v 0.8 3.7 5.8
v -3 3.7 -5.8
v 0.8 3.7 -5.8
v -3 3.7 -6.4
v 0.8 3.7 -6.4
v 0.8 3.8 6.4
v 0.9 3.8 6.4
v 0.8 3.8 5.8
v 0.9 3.8 5.8
v 0.8 3.8 -5.8
v 0.9 3.8 -5.8
v 0.8 3.8 -6.4
v 0.9 3.8 -6.4
v 0.9 3.9 6.4
v 1 3.9 6.4
v 0.9 3.9 5.8
v 1 3.9 5.8
v 0.9 3.9 -5.8
v 1 3.9 -5.8
v 0.9 3.9 -6.4
v 1 3.9 -6.4
v 1 5.2 6.4
v 2.5 5.2 6.4
v 1 5.2 -6.4
v 2.5 5.2 -6.4

# faces
f 3/1/1 2/1/1 1/1/1
f 4/1/1 2/1/1 3/1/1
f 5/1/1 3/1/1 1/1/1
f 5/2/1 4/2/1 3/2/1
f 6/1/1 2/1/1 4/1/1
f 6/2/1 4/2/1 5/2/1
f 7/1/1 5/1/1 1/1/1
f 8/1/1 5/1/1 7/1/1
f 9/1/1 2/1/1 6/1/1
f 10/1/1 2/1/1 9/1/1
f 15/3/1 12/3/1 11/3/1
f 16/3/1 12/3/1 15/3/1
f 17/3/1 14/3/1 13/3/1
f 18/3/1 14/3/1 17/3/1
f 21/2/1 20/2/1 19/2/1
f 22/2/1 20/2/1 21/2/1
f 27/1/1 24/1/1 23/1/1
f 28/1/1 24/1/1 27/1/1
f 29/1/1 26/1/1 25/1/1
f 30/1/1 26/1/1 29/1/1
f 35/1/1 32/1/1 31/1/1
f 36/1/1 32/1/1 35/1/1
f 37/1/1 34/1/1 33/1/1
f 38/1/1 34/1/1 37/1/1
f 43/1/1 40/1/1 39/1/1
f 44/1/1 40/1/1 43/1/1
f 45/1/1 42/1/1 41/1/1
f 46/1/1 42/1/1 45/1/1
f 51/1/1 48/1/1 47/1/1
f 52/1/1 48/1/1 51/1/1
f 53/1/1 50/1/1 49/1/1
f 54/1/1 50/1/1 53/1/1
f 61/1/1 56/1/1 55/1/1
f 61/1/1 57/1/1 56/1/1
f 62/1/1 60/1/1 59/1/1
f 62/1/1 59/1/1 58/1/1
f 63/1/1 61/1/1 55/1/1
f 63/1/1 62/1/1 61/1/1
f 64/1/1 62/1/1 63/1/1
f 65/1/1 60/1/1 62/1/1
f 65/1/1 62/1/1 64/1/1
f 66/1/1 60/1/1 65/1/1
f 68/1/1 65/1/1 64/1/1
f 69/1/1 65/1/1 68/1/1
f 71/1/1 69/1/1 68/1/1
f 71/1/1 70/1/1 69/1/1
f 71/1/1 68/1/1 67/1/1
f 72/1/1 70/1/1 71/1/1
f 73/1/2 74/1/2 77/1/2
f 77/1/2 74/1/2 78/1/2
f 75/1/2 76/1/2 79/1/2
f 79/1/2 76/1/2 80/1/2
f 81/1/2 82/1/2 85/1/2
f 85/1/2 82/1/2 86/1/2
f 83/1/2 84/1/2 87/1/2
f 87/1/2 84/1/2 88/1/2
f 89/1/2 90/1/2 93/1/2
f 93/1/2 90/1/2 94/1/2
f 91/1/2 92/1/2 95/1/2
f 95/1/2 92/1/2 96/1/2
f 97/3/2 98/3/2 101/3/2
f 101/3/2 98/3/2 102/3/2
f 99/3/2 100/3/2 103/3/2
f 103/3/2 100/3/2 104/3/2
f 105/1/2 106/1/2 107/1/2
f 107/1/2 106/1/2 108/1/2
f 111/1/3 110/1/3 109/1/3
f 113/1/3 112/1/3 111/1/3
f 115/1/3 114/1/3 113/1/3
f 117/1/3 116/1/3 115/1/3
f 119/1/3 118/1/3 117/1/3
f 121/1/3 111/1/3 109/1/3
f 121/1/3 120/1/3 119/1/3
f 121/1/3 119/1/3 117/1/3
f 121/1/3 117/1/3 115/1/3
f 121/1/3 115/1/3 113/1/3
f 121/1/3 113/1/3 111/1/3
f 122/1/3 120/1/3 121/1/3
f 125/3/3 124/3/3 123/3/3
f 126/3/3 124/3/3 125/3/3
f 129/2/3 128/2/3 127/2/3
f 130/2/3 128/2/3 129/2/3
f 133/3/3 132/3/3 131/3/3
f 134/3/3 132/3/3 133/3/3
f 137/1/3 136/1/3 135/1/3
f 139/1/3 137/1/3 135/1/3
f 139/1/3 138/1/3 137/1/3
f 140/1/3 138/1/3 139/1/3
f 141/1/3 138/1/3 140/1/3
f 143/1/3 142/1/3 141/1/3
f 143/1/3 141/1/3 140/1/3
f 144/1/3 142/1/3 143/1/3
f 145/1/3 142/1/3 144/1/3
f 147/1/3 145/1/3 144/1/3
f 147/1/3 146/1/3 145/1/3
f 148/1/3 146/1/3 147/1/3
f 149/1/3 146/1/3 148/1/3
f 151/1/3 150/1/3 149/1/3
f 151/1/3 149/1/3 148/1/3
f 152/1/3 150/1/3 151/1/3
f 155/1/3 154/1/3 153/1/3
f 157/1/3 156/1/3 155/1/3
f 159/1/3 155/1/3 153/1/3
f 159/1/3 158/1/3 157/1/3
f 159/1/3 157/1/3 155/1/3
f 160/1/3 158/1/3 159/1/3
f 161/1/4 162/1/4 163/1/4
f 163/1/4 164/1/4 165/1/4
f 161/1/4 163/1/4 167/1/4
f 165/1/4 166/1/4 167/1/4
f 163/1/4 165/1/4 167/1/4
f 167/1/4 166/1/4 168/1/4
f 169/1/4 170/1/4 173/1/4
f 169/1/4 173/1/4 175/1/4
f 173/1/4 174/1/4 175/1/4
f 175/1/4 174/1/4 176/1/4
f 176/1/4 174/1/4 177/1/4
f 177/1/4 178/1/4 179/1/4
f 176/1/4 177/1/4 179/1/4
f 179/1/4 178/1/4 180/1/4
f 180/1/4 178/1/4 181/1/4
f 180/1/4 181/1/4 183/1/4
f 181/1/4 182/1/4 183/1/4
f 183/1/4 182/1/4 184/1/4
f 184/1/4 182/1/4 185/1/4
f 185/1/4 186/1/4 187/1/4
f 184/1/4 185/1/4 187/1/4
f 187/1/4 186/1/4 188/1/4
f 171/3/4 172/3/4 189/3/4
f 189/3/4 172/3/4 190/3/4
f 191/2/4 192/2/4 193/2/4
f 193/2/4 192/2/4 194/2/4
f 195/3/4 196/3/4 197/3/4
f 197/3/4 196/3/4 198/3/4
f 199/1/4 200/1/4 201/1/4
f 201/1/4 202/1/4 203/1/4
f 203/1/4 204/1/4 205/1/4
f 205/1/4 206/1/4 207/1/4
f 207/1/4 208/1/4 209/1/4
f 199/1/4 201/1/4 211/1/4
f 209/1/4 210/1/4 211/1/4
f 207/1/4 209/1/4 211/1/4
f 205/1/4 207/1/4 211/1/4
f 203/1/4 205/1/4 211/1/4
f 201/1/4 203/1/4 211/1/4
f 211/1/4 210/1/4 212/1/4
f 215/3/5 214/3/5 213/3/5
f 216/3/5 214/3/5 215/3/5
f 219/3/5 218/3/5 217/3/5
f 220/3/5 218/3/5 219/3/5
f 223/1/5 222/1/5 221/1/5
f 224/1/5 222/1/5 223/1/5
f 225/1/5 223/1/5 221/1/5
f 226/1/5 222/1/5 224/1/5
f 227/1/5 225/1/5 221/1/5
f 227/1/5 226/1/5 225/1/5
f 228/1/5 222/1/5 226/1/5
f 228/1/5 226/1/5 227/1/5
f 229/1/5 227/1/5 221/1/5
f 230/1/5 222/1/5 228/1/5
f 231/1/5 229/1/5 221/1/5
f 231/1/5 230/1/5 229/1/5
f 232/1/5 222/1/5 230/1/5
f 232/1/5 230/1/5 231/1/5
f 235/1/5 234/1/5 233/1/5
f 236/1/5 234/1/5 235/1/5
f 239/1/5 238/1/5 237/1/5
f 240/1/5 238/1/5 239/1/5
f 243/1/5 242/1/5 241/1/5
f 244/1/5 242/1/5 243/1/5
f 247/1/5 246/1/5 245/1/5
f 248/1/5 246/1/5 247/1/5
f 251/1/5 250/1/5 249/1/5
f 252/1/5 250/1/5 251/1/5
f 255/1/5 254/1/5 253/1/5
f 256/1/5 254/1/5 255/1/5
f 257/1/6 258/1/6 260/1/6
f 260/1/6 258/1/6 261/1/6
f 259/2/6 260/2/6 262/2/6
f 260/2/6 261/2/6 262/2/6
f 262/2/6 261/2/6 263/2/6
f 259/2/6 262/2/6 264/2/6
f 259/2/6 264/2/6 266/2/6
f 264/2/6 265/2/6 266/2/6
f 266/2/6 265/2/6 267/2/6
f 267/2/6 265/2/6 268/2/6
f 267/1/6 268/1/6 269/1/6
f 269/1/6 268/1/6 270/1/6
f 271/2/6 272/2/6 273/2/6
f 273/2/6 272/2/6 274/2/6
f 275/1/6 276/1/6 277/1/6
f 277/1/6 276/1/6 278/1/6
f 279/1/6 280/1/6 281/1/6
f 281/1/6 280/1/6 282/1/6
f 283/1/6 284/1/6 285/1/6
f 285/1/6 284/1/6 286/1/6
f 287/1/6 288/1/6 289/1/6
f 289/1/6 288/1/6 290/1/6
f 291/1/6 292/1/6 293/1/6
f 293/1/6 292/1/6 294/1/6
f 295/1/6 296/1/6 297/1/6
f 297/1/6 296/1/6 298/1/6
f 299/1/6 300/1/6 301/1/6
f 301/1/6 300/1/6 302/1/6
f 303/1/6 304/1/6 305/1/6
f 305/1/6 304/1/6 306/1/6
f 307/1/6 308/1/6 309/1/6
f 309/1/6 308/1/6 310/1/6
f 311/1/6 312/1/6 313/1/6
f 313/1/6 312/1/6 314/1/6
f 315/1/6 316/1/6 317/1/6
f 317/1/6 316/1/6 318/1/6
