# MagicaVoxel @ Ephtracy

# group
o 

# material
mtllib sofaSala.mtl
usemtl palette

# normals
vn -1 0 0
vn 1 0 0
vn 0 0 1
vn 0 0 -1
vn 0 -1 0
vn 0 1 0

# texcoords
vt 0.00585938 0.5
vt 0.00976563 0.5
vt 0.537109 0.5
vt 0.994141 0.5

# verts
v -3.2 0.5 6.4
v -3.2 0.5 -6.4
v -3.2 1.8 5.8
v -3.2 1.8 -5.8
v -3.2 2.4 5.8
v -3.2 2.4 -5.8
v -3.2 3.2 6.4
v -3.2 3.2 5.8
v -3.2 3.2 -5.8
v -3.2 3.2 -6.4
v -3.1 0 6.3
v -3.1 0 5.8
v -3.1 0 -5.7
v -3.1 0 -6.3
v -3.1 0.5 6.3
v -3.1 0.5 5.8
v -3.1 0.5 -5.7
v -3.1 0.5 -6.3
v -3.1 2.4 5.7
v -3.1 2.4 0.0999999
v -3.1 2.4 -0.0999999
v -3.1 2.4 -5.7
v -3.1 2.5 5.7
v -3.1 2.5 0.0999999
v -3.1 2.5 -0.0999999
v -3.1 2.5 -5.7
v 1 2.5 5.7
v 1 2.5 0.0999999
v 1 2.5 -0.0999999
v 1 2.5 -5.7
v 1 3.2 6.4
v 1 3.2 5.8
v 1 3.2 -5.8
v 1 3.2 -6.4
v 1 5.2 6.4
v 1 5.2 5.8
v 1 5.2 5.7
v 1 5.2 0.0999999
v 1 5.2 -0.0999999
v 1 5.2 -5.7
v 1 5.2 -5.8
v 1 5.2 -6.4
v 1.1 2.4 5.8
v 1.1 2.4 5.7
v 1.1 2.4 0.0999999
v 1.1 2.4 -0.0999999
v 1.1 2.4 -5.7
v 1.1 2.4 -5.8
v 1.1 2.5 5.7
v 1.1 2.5 0.0999999
v 1.1 2.5 -0.0999999
v 1.1 2.5 -5.7
v 1.1 5.1 5.8
v 1.1 5.1 5.7
v 1.1 5.1 0.0999999
v 1.1 5.1 -0.0999999
v 1.1 5.1 -5.7
v 1.1 5.1 -5.8
v 1.9 5.1 5.8
v 1.9 5.1 -5.8
v 1.9 5.2 5.8
v 1.9 5.2 -5.8
v 2.4 2.4 0.0999999
v 2.4 2.4 -0.0999999
v 2.4 2.5 0.0999999
v 2.4 2.5 -0.0999999
v 1.2 2.4 0.0999999
v 1.2 2.4 -0.0999999
v 1.2 2.5 0.0999999
v 1.2 2.5 -0.0999999
v 1.8 5.1 5.7
v 1.8 5.1 0.0999999
v 1.8 5.1 -0.0999999
v 1.8 5.1 -5.7
v 1.8 5.2 5.7
v 1.8 5.2 0.0999999
v 1.8 5.2 -0.0999999
v 1.8 5.2 -5.7
v 2.4 0 6.3
v 2.4 0 5.8
v 2.4 0 -5.7
v 2.4 0 -6.3
v 2.4 0.5 6.3
v 2.4 0.5 5.8
v 2.4 0.5 -5.7
v 2.4 0.5 -6.3
v 2.5 0.5 6.4
v 2.5 0.5 -6.4
v 2.5 5.2 6.4
v 2.5 5.2 -6.4
v -3.2 0.5 6.4
v -3.2 3.2 6.4
v 1 3.2 6.4
v 1 5.2 6.4
v 2.5 0.5 6.4
v 2.5 5.2 6.4
v -3.1 0 6.3
v -3.1 0.5 6.3
v 2.4 0 6.3
v 2.4 0.5 6.3
v -3.1 2.4 5.7
v -3.1 2.5 5.7
v 1 2.4 5.7
v 1 2.5 5.7
v 1 5.2 5.7
v 1.1 2.4 5.7
v 1.1 2.5 5.7
v 1.1 5.1 5.7
v 1.8 5.1 5.7
v 1.8 5.2 5.7
v -3.1 2.4 -0.0999999
v -3.1 2.5 -0.0999999
v 1 2.4 -0.0999999
v 1 2.5 -0.0999999
v 1 5.2 -0.0999999
v 1.1 2.4 -0.0999999
v 1.1 2.5 -0.0999999
v 1.1 5.1 -0.0999999
v 1.2 2.4 -0.0999999
v 1.2 2.5 -0.0999999
v 1.8 5.1 -0.0999999
v 1.8 5.2 -0.0999999
v 2.3 2.4 -0.0999999
v 2.3 2.5 -0.0999999
v 2.4 2.4 -0.0999999
v 2.4 2.5 -0.0999999
v -3.1 0 -5.7
v -3.1 0.5 -5.7
v -2.5 0.5 -5.7
v -2.4 0.5 -5.7
v 2.4 0 -5.7
v 2.4 0.5 -5.7
v -3.2 2.4 -5.8
v -3.2 3.2 -5.8
v 1 3.2 -5.8
v 1 5.2 -5.8
v 1.1 2.4 -5.8
v 1.1 5.1 -5.8
v 1.9 5.1 -5.8
v 1.9 5.2 -5.8
v -3.2 2.4 5.8
v -3.2 3.2 5.8
v -3.1 0 5.8
v -3.1 0.5 5.8
v -2.5 0.5 5.8
v -2.4 0.5 5.8
v 1 3.2 5.8
v 1 5.2 5.8
v 1.1 2.4 5.8
v 1.1 5.1 5.8
v 1.9 5.1 5.8
v 1.9 5.2 5.8
v 2.4 0 5.8
v 2.4 0.5 5.8
v -3.1 2.4 0.0999999
v -3.1 2.5 0.0999999
v 1 2.4 0.0999999
v 1 2.5 0.0999999
v 1 5.2 0.0999999
v 1.1 2.4 0.0999999
v 1.1 2.5 0.0999999
v 1.1 5.1 0.0999999
v 1.2 2.4 0.0999999
v 1.2 2.5 0.0999999
v 1.8 5.1 0.0999999
v 1.8 5.2 0.0999999
v 2.3 2.4 0.0999999
v 2.3 2.5 0.0999999
v 2.4 2.4 0.0999999
v 2.4 2.5 0.0999999
v -3.1 2.4 -5.7
v -3.1 2.5 -5.7
v 1 2.4 -5.7
v 1 2.5 -5.7
v 1 5.2 -5.7
v 1.1 2.4 -5.7
v 1.1 2.5 -5.7
v 1.1 5.1 -5.7
v 1.8 5.1 -5.7
v 1.8 5.2 -5.7
v -3.1 0 -6.3
v -3.1 0.5 -6.3
v 2.4 0 -6.3
v 2.4 0.5 -6.3
v -3.2 0.5 -6.4
v -3.2 3.2 -6.4
v 1 3.2 -6.4
v 1 5.2 -6.4
v 2.5 0.5 -6.4
v 2.5 5.2 -6.4
v -3.1 0 6.3
v 2.4 0 6.3
v -3.1 0 5.8
v 2.4 0 5.8
v -3.1 0 -5.7
v 2.4 0 -5.7
v -3.1 0 -6.3
v 2.4 0 -6.3
v -3.2 0.5 6.4
v 2.5 0.5 6.4
v -3.1 0.5 6.3
v 2.4 0.5 6.3
v -3.1 0.5 5.8
v -2.5 0.5 5.8
v -2.4 0.5 5.8
v 2.4 0.5 5.8
v -3.1 0.5 -5.7
v -2.5 0.5 -5.7
v -2.4 0.5 -5.7
v 2.4 0.5 -5.7
v -3.1 0.5 -6.3
v 2.4 0.5 -6.3
v -3.2 0.5 -6.4
v 2.5 0.5 -6.4
v 1.2 2.5 0.0999999
v 2.3 2.5 0.0999999
v 2.4 2.5 0.0999999
v 1.2 2.5 -0.0999999
v 2.3 2.5 -0.0999999
v 2.4 2.5 -0.0999999
v -3.2 2.4 5.8
v 1.1 2.4 5.8
v -3.1 2.4 5.7
v 1 2.4 5.7
v 1.1 2.4 5.7
v -3.1 2.4 0.0999999
v 1 2.4 0.0999999
v 1.1 2.4 0.0999999
v 1.2 2.4 0.0999999
v 2.3 2.4 0.0999999
v 2.4 2.4 0.0999999
v -3.1 2.4 -0.0999999
v 1 2.4 -0.0999999
v 1.1 2.4 -0.0999999
v 1.2 2.4 -0.0999999
v 2.3 2.4 -0.0999999
v 2.4 2.4 -0.0999999
v -3.1 2.4 -5.7
v 1 2.4 -5.7
v 1.1 2.4 -5.7
v -3.2 2.4 -5.8
v 1.1 2.4 -5.8
v -3.1 2.5 5.7
v 1 2.5 5.7
v -3.1 2.5 0.0999999
v 1 2.5 0.0999999
v -3.1 2.5 -0.0999999
v 1 2.5 -0.0999999
v -3.1 2.5 -5.7
v 1 2.5 -5.7
v -3.2 3.2 6.4
v 1 3.2 6.4
v -3.2 3.2 5.8
v 1 3.2 5.8
v -3.2 3.2 -5.8
v 1 3.2 -5.8
v -3.2 3.2 -6.4
v 1 3.2 -6.4
v 1.1 5.1 5.8
v 1.9 5.1 5.8
v 1.1 5.1 5.7
v 1.8 5.1 5.7
v 1.1 5.1 0.0999999
v 1.8 5.1 0.0999999
v 1.1 5.1 -0.0999999
v 1.8 5.1 -0.0999999
v 1.1 5.1 -5.7
v 1.8 5.1 -5.7
v 1.1 5.1 -5.8
v 1.9 5.1 -5.8
v 1 5.2 6.4
v 2.5 5.2 6.4
v 1 5.2 5.8
v 1.9 5.2 5.8
v 1 5.2 5.7
v 1.8 5.2 5.7
v 1 5.2 0.0999999
v 1.8 5.2 0.0999999
v 1 5.2 -0.0999999
v 1.8 5.2 -0.0999999
v 1 5.2 -5.7
v 1.8 5.2 -5.7
v 1 5.2 -5.8
v 1.9 5.2 -5.8
v 1 5.2 -6.4
v 2.5 5.2 -6.4

# faces
f 3/4/1 2/4/1 1/4/1
f 4/4/1 2/4/1 3/4/1
f 5/4/1 3/4/1 1/4/1
f 5/1/1 4/1/1 3/1/1
f 6/4/1 2/4/1 4/4/1
f 6/1/1 4/1/1 5/1/1
f 7/4/1 5/4/1 1/4/1
f 8/4/1 5/4/1 7/4/1
f 9/4/1 2/4/1 6/4/1
f 10/4/1 2/4/1 9/4/1
f 15/4/1 12/4/1 11/4/1
f 16/4/1 12/4/1 15/4/1
f 17/4/1 14/4/1 13/4/1
f 18/4/1 14/4/1 17/4/1
f 23/1/1 20/1/1 19/1/1
f 24/1/1 20/1/1 23/1/1
f 25/1/1 22/1/1 21/1/1
f 26/1/1 22/1/1 25/1/1
f 35/4/1 32/4/1 31/4/1
f 36/4/1 32/4/1 35/4/1
f 37/1/1 28/1/1 27/1/1
f 38/1/1 28/1/1 37/1/1
f 39/1/1 30/1/1 29/1/1
f 40/1/1 30/1/1 39/1/1
f 41/4/1 34/4/1 33/4/1
f 42/4/1 34/4/1 41/4/1
f 49/1/1 44/1/1 43/1/1
f 50/1/1 46/1/1 45/1/1
f 51/1/1 46/1/1 50/1/1
f 52/1/1 48/1/1 47/1/1
f 53/1/1 49/1/1 43/1/1
f 54/1/1 49/1/1 53/1/1
f 55/1/1 51/1/1 50/1/1
f 56/1/1 51/1/1 55/1/1
f 57/1/1 48/1/1 52/1/1
f 58/1/1 48/1/1 57/1/1
f 61/4/1 60/4/1 59/4/1
f 62/4/1 60/4/1 61/4/1
f 65/4/1 64/4/1 63/4/1
f 66/4/1 64/4/1 65/4/1
f 67/1/2 68/1/2 69/1/2
f 69/1/2 68/1/2 70/1/2
f 71/1/2 72/1/2 75/1/2
f 75/1/2 72/1/2 76/1/2
f 73/1/2 74/1/2 77/1/2
f 77/1/2 74/1/2 78/1/2
f 79/4/2 80/4/2 83/4/2
f 83/4/2 80/4/2 84/4/2
f 81/4/2 82/4/2 85/4/2
f 85/4/2 82/4/2 86/4/2
f 87/4/2 88/4/2 89/4/2
f 89/4/2 88/4/2 90/4/2
f 93/4/3 92/4/3 91/4/3
f 95/4/3 93/4/3 91/4/3
f 95/4/3 94/4/3 93/4/3
f 96/4/3 94/4/3 95/4/3
f 99/4/3 98/4/3 97/4/3
f 100/4/3 98/4/3 99/4/3
f 103/1/3 102/1/3 101/1/3
f 104/1/3 102/1/3 103/1/3
f 106/2/3 104/2/3 103/2/3
f 107/1/3 105/1/3 104/1/3
f 107/2/3 104/2/3 106/2/3
f 108/1/3 105/1/3 107/1/3
f 109/1/3 105/1/3 108/1/3
f 110/1/3 105/1/3 109/1/3
f 113/1/3 112/1/3 111/1/3
f 114/1/3 112/1/3 113/1/3
f 116/2/3 114/2/3 113/2/3
f 117/1/3 115/1/3 114/1/3
f 117/2/3 114/2/3 116/2/3
f 118/1/3 115/1/3 117/1/3
f 121/1/3 115/1/3 118/1/3
f 122/1/3 115/1/3 121/1/3
f 123/2/3 120/2/3 119/2/3
f 124/2/3 120/2/3 123/2/3
f 125/1/3 124/1/3 123/1/3
f 126/1/3 124/1/3 125/1/3
f 129/4/3 128/4/3 127/4/3
f 130/4/3 129/4/3 127/4/3
f 131/4/3 130/4/3 127/4/3
f 132/4/3 130/4/3 131/4/3
f 135/4/3 134/4/3 133/4/3
f 137/4/3 135/4/3 133/4/3
f 137/4/3 136/4/3 135/4/3
f 138/4/3 136/4/3 137/4/3
f 139/4/3 136/4/3 138/4/3
f 140/4/3 136/4/3 139/4/3
f 143/4/4 144/4/4 145/4/4
f 143/4/4 145/4/4 146/4/4
f 141/4/4 142/4/4 147/4/4
f 141/4/4 147/4/4 149/4/4
f 147/4/4 148/4/4 149/4/4
f 149/4/4 148/4/4 150/4/4
f 150/4/4 148/4/4 151/4/4
f 151/4/4 148/4/4 152/4/4
f 143/4/4 146/4/4 153/4/4
f 153/4/4 146/4/4 154/4/4
f 155/1/4 156/1/4 157/1/4
f 157/1/4 156/1/4 158/1/4
f 157/2/4 158/2/4 160/2/4
f 158/1/4 159/1/4 161/1/4
f 160/2/4 158/2/4 161/2/4
f 161/1/4 159/1/4 162/1/4
f 162/1/4 159/1/4 165/1/4
f 165/1/4 159/1/4 166/1/4
f 163/2/4 164/2/4 167/2/4
f 167/2/4 164/2/4 168/2/4
f 167/1/4 168/1/4 169/1/4
f 169/1/4 168/1/4 170/1/4
f 171/1/4 172/1/4 173/1/4
f 173/1/4 172/1/4 174/1/4
f 173/2/4 174/2/4 176/2/4
f 174/1/4 175/1/4 177/1/4
f 176/2/4 174/2/4 177/2/4
f 177/1/4 175/1/4 178/1/4
f 178/1/4 175/1/4 179/1/4
f 179/1/4 175/1/4 180/1/4
f 181/4/4 182/4/4 183/4/4
f 183/4/4 182/4/4 184/4/4
f 185/4/4 186/4/4 187/4/4
f 185/4/4 187/4/4 189/4/4
f 187/4/4 188/4/4 189/4/4
f 189/4/4 188/4/4 190/4/4
f 193/4/5 192/4/5 191/4/5
f 194/4/5 192/4/5 193/4/5
f 197/4/5 196/4/5 195/4/5
f 198/4/5 196/4/5 197/4/5
f 201/4/5 200/4/5 199/4/5
f 202/4/5 200/4/5 201/4/5
f 203/4/5 201/4/5 199/4/5
f 206/4/5 200/4/5 202/4/5
f 207/4/5 203/4/5 199/4/5
f 207/1/5 204/1/5 203/1/5
f 208/4/5 205/4/5 204/4/5
f 208/1/5 204/1/5 207/1/5
f 209/1/5 206/1/5 205/1/5
f 209/4/5 205/4/5 208/4/5
f 210/4/5 200/4/5 206/4/5
f 210/1/5 206/1/5 209/1/5
f 211/4/5 207/4/5 199/4/5
f 212/4/5 200/4/5 210/4/5
f 213/4/5 211/4/5 199/4/5
f 213/4/5 212/4/5 211/4/5
f 214/4/5 200/4/5 212/4/5
f 214/4/5 212/4/5 213/4/5
f 218/1/5 216/1/5 215/1/5
f 218/1/5 217/1/5 216/1/5
f 219/1/5 217/1/5 218/1/5
f 220/1/5 217/1/5 219/1/5
f 221/1/6 222/1/6 223/1/6
f 223/1/6 222/1/6 224/1/6
f 224/1/6 222/1/6 225/1/6
f 221/1/6 223/1/6 226/1/6
f 227/1/6 228/1/6 232/1/6
f 221/1/6 226/1/6 232/1/6
f 226/1/6 227/1/6 232/1/6
f 232/1/6 228/1/6 233/1/6
f 233/1/6 228/1/6 234/1/6
f 230/1/6 231/1/6 235/1/6
f 229/1/6 230/1/6 235/1/6
f 235/1/6 231/1/6 236/1/6
f 236/1/6 231/1/6 237/1/6
f 221/1/6 232/1/6 238/1/6
f 221/1/6 238/1/6 241/1/6
f 239/1/6 240/1/6 241/1/6
f 238/1/6 239/1/6 241/1/6
f 241/1/6 240/1/6 242/1/6
f 243/1/6 244/1/6 245/1/6
f 245/1/6 244/1/6 246/1/6
f 247/1/6 248/1/6 249/1/6
f 249/1/6 248/1/6 250/1/6
f 251/4/6 252/4/6 253/4/6
f 253/4/6 252/4/6 254/4/6
f 255/4/6 256/4/6 257/4/6
f 257/4/6 256/4/6 258/4/6
f 259/1/6 260/1/6 261/1/6
f 261/1/6 260/1/6 262/1/6
f 262/1/6 260/1/6 264/1/6
f 263/1/6 264/1/6 265/1/6
f 264/1/6 260/1/6 266/1/6
f 265/1/6 264/1/6 266/1/6
f 266/1/6 260/1/6 268/1/6
f 267/1/6 268/1/6 269/1/6
f 268/1/6 260/1/6 270/1/6
f 269/1/6 268/1/6 270/1/6
f 271/4/6 272/4/6 273/4/6
f 273/4/6 272/4/6 274/4/6
f 275/1/6 276/1/6 277/1/6
f 277/1/6 276/1/6 278/1/6
f 279/1/6 280/1/6 281/1/6
f 281/1/6 280/1/6 282/1/6
f 274/4/6 272/4/6 284/4/6
f 283/4/6 284/4/6 285/4/6
f 284/4/6 272/4/6 286/4/6
f 285/4/6 284/4/6 286/4/6
