# MagicaVoxel @ Ephtracy

# group
o 

# material
mtllib caixaAberta.mtl
usemtl palette

# normals
vn -1 0 0
vn 1 0 0
vn 0 0 1
vn 0 0 -1
vn 0 -1 0
vn 0 1 0

# texcoords
vt 0.369141 0.5
vt 0.373047 0.5
vt 0.392578 0.5
vt 0.396484 0.5
vt 0.552734 0.5
vt 0.669922 0.5
vt 0.708984 0.5
vt 0.841797 0.5
vt 0.962891 0.5
vt 0.982422 0.5

# verts
v -1.2 1.5 0.6
v -1.2 1.5 -0.6
v -1.2 1.6 0.6
v -1.2 1.6 -0.6
v -0.7 0 0.7
v -0.7 0 -0.7
v -0.7 0.1 0.6
v -0.7 0.1 -0.6
v -0.7 0.2 -0.2
v -0.7 0.2 -0.5
v -0.7 0.3 -0.2
v -0.7 0.3 -0.5
v -0.7 1.4 0.6
v -0.7 1.4 -0.6
v -0.7 1.5 0.7
v -0.7 1.5 0.6
v -0.7 1.5 -0.6
v -0.7 1.5 -0.7
v -0.0999999 0.9 -0.5
v -0.0999999 0.9 -0.6
v -0.0999999 1 -0.5
v -0.0999999 1 -0.6
v 1.19209e-07 0.9 -0.4
v 1.19209e-07 0.9 -0.5
v 1.19209e-07 1 -0.4
v 1.19209e-07 1 -0.5
v 0.1 1 -0.5
v 0.1 1 -0.6
v 0.1 1.1 -0.5
v 0.1 1.1 -0.6
v 0.2 0.9 -0.2
v 0.2 0.9 -0.3
v 0.2 0.9 -0.4
v 0.2 1 -0.2
v 0.2 1 -0.3
v 0.2 1 -0.4
v 0.2 1 -0.5
v 0.2 1.1 -0.3
v 0.2 1.1 -0.4
v 0.2 1.1 -0.5
v 0.3 0.9 0.1
v 0.3 0.9 -0.1
v 0.3 0.9 -0.2
v 0.3 1 0.1
v 0.3 1 -0.1
v 0.3 1 -0.2
v 0.4 0.9 0.3
v 0.4 0.9 0.1
v 0.4 1 0.3
v 0.4 1 0.1
v 0.4 1 0
v 0.4 1 -0.1
v 0.4 1 -0.2
v 0.4 1.1 0
v 0.4 1.1 -0.1
v 0.4 1.1 -0.2
v 0.4 1.1 -0.5
v 0.4 1.1 -0.6
v 0.4 1.2 -0.5
v 0.4 1.2 -0.6
v 0.5 1 0.1
v 0.5 1 0
v 0.5 1 -0.2
v 0.5 1 -0.3
v 0.5 1.1 0.1
v 0.5 1.1 0
v 0.5 1.1 -0.2
v 0.5 1.1 -0.3
v 0.5 1.1 -0.4
v 0.5 1.1 -0.5
v 0.5 1.2 -0.3
v 0.5 1.2 -0.4
v 0.5 1.2 -0.5
v 0.5 1.2 -0.6
v 0.5 1.3 -0.4
v 0.5 1.3 -0.6
v 0.6 0.9 0.6
v 0.6 0.9 0.3
v 0.6 1 0.3
v 0.6 1 0.1
v 0.6 1 -0.1
v 0.6 1 -0.2
v 0.6 1.1 0.1
v 0.6 1.1 -0.1
v 0.6 1.1 -0.2
v 0.6 1.1 -0.3
v 0.6 1.2 -0.3
v 0.6 1.2 -0.4
v 0.6 1.3 -0.4
v 0.6 1.3 -0.6
v 0.6 1.4 0.6
v 0.6 1.4 -0.6
v 0.6 1.5 0.6
v 0.6 1.5 -0.6
v 0.6 1.6 0.6
v 0.6 1.6 -0.6
v -0.6 0.9 0.6
v -0.6 0.9 0.4
v -0.6 0.9 0.3
v -0.6 0.9 -0.1
v -0.6 0.9 -0.3
v -0.6 0.9 -0.5
v -0.6 0.9 -0.6
v -0.6 1.1 0.6
v -0.6 1.2 0.6
v -0.6 1.4 0.6
v -0.6 1.4 -0.6
v -0.6 1.5 0.6
v -0.6 1.5 -0.6
v -0.6 1.6 0.6
v -0.6 1.6 -0.6
v 0.5 1 -0.1
v 0.5 1 -0.2
v 0.5 1.1 -0.1
v 0.5 1.1 -0.2
v 0.7 0 0.7
v 0.7 0 -0.7
v 0.7 0.1 0.6
v 0.7 0.1 -0.6
v 0.7 0.2 0.5
v 0.7 0.2 0.4
v 0.7 0.2 0.2
v 0.7 0.2 0.1
v 0.7 0.3 0.3
v 0.7 0.3 0.2
v 0.7 0.3 0.1
v 0.7 0.4 0.5
v 0.7 0.4 0.4
v 0.7 0.4 0.3
v 0.7 0.4 0.2
v 0.7 0.4 0.1
v 0.7 1.4 0.6
v 0.7 1.4 -0.6
v 0.7 1.5 0.7
v 0.7 1.5 0.6
v 0.7 1.5 -0.6
v 0.7 1.5 -0.7
v 1.2 1.5 0.6
v 1.2 1.5 -0.6
v 1.2 1.6 0.6
v 1.2 1.6 -0.6
v -0.7 0 0.7
v -0.7 1.5 0.7
v -0.6 0.1 0.7
v -0.6 1.1 0.7
v -0.6 1.2 0.7
v -0.6 1.4 0.7
v -0.5 1.1 0.7
v -0.5 1.2 0.7
v -0.5 1.3 0.7
v -0.4 1.1 0.7
v -0.4 1.2 0.7
v -0.4 1.3 0.7
v -0.3 1.1 0.7
v -0.3 1.2 0.7
v 0.6 0.1 0.7
v 0.6 1.4 0.7
v 0.7 0 0.7
v 0.7 1.5 0.7
v -1.2 1.5 0.6
v -1.2 1.6 0.6
v -1.1 1.5 0.6
v -1.1 1.6 0.6
v -0.7 1.5 0.6
v -0.6 1.5 0.6
v -0.6 1.6 0.6
v 0.6 1.5 0.6
v 0.6 1.6 0.6
v 0.7 1.5 0.6
v 1.1 1.5 0.6
v 1.1 1.6 0.6
v 1.2 1.5 0.6
v 1.2 1.6 0.6
v 0.4 0.9 0.3
v 0.4 1 0.3
v 0.6 0.9 0.3
v 0.6 1 0.3
v 0.3 0.9 0.1
v 0.3 1 0.1
v 0.4 0.9 0.1
v 0.4 1 0.1
v 0.5 1 0.1
v 0.5 1.1 0.1
v 0.6 1 0.1
v 0.6 1.1 0.1
v 0.4 1 0
v 0.4 1.1 0
v 0.5 1 0
v 0.5 1.1 0
v 0.2 0.9 -0.2
v 0.2 1 -0.2
v 0.3 0.9 -0.2
v 0.3 1 -0.2
v 0.5 1 -0.2
v 0.5 1.1 -0.2
v 0.6 1 -0.2
v 0.6 1.1 -0.2
v 0.2 1 -0.3
v 0.2 1.1 -0.3
v 0.3 1 -0.3
v 0.3 1.1 -0.3
v 0.4 1 -0.3
v 0.4 1.1 -0.3
v 0.5 1 -0.3
v 0.5 1.1 -0.3
v 0.5 1.2 -0.3
v 0.6 1.1 -0.3
v 0.6 1.2 -0.3
v 1.19209e-07 0.9 -0.4
v 1.19209e-07 1 -0.4
v 0.2 0.9 -0.4
v 0.2 1 -0.4
v 0.5 1.2 -0.4
v 0.5 1.3 -0.4
v 0.6 1.2 -0.4
v 0.6 1.3 -0.4
v -0.0999999 0.9 -0.5
v -0.0999999 1 -0.5
v 1.19209e-07 0.9 -0.5
v 1.19209e-07 1 -0.5
v 0.1 1 -0.5
v 0.1 1.1 -0.5
v 0.2 1 -0.5
v 0.2 1.1 -0.5
v 0.4 1.1 -0.5
v 0.4 1.2 -0.5
v 0.5 1.1 -0.5
v 0.5 1.2 -0.5
v -0.6 0.9 -0.6
v -0.6 1.4 -0.6
v -0.6 1.5 -0.6
v -0.4 0.9 -0.6
v -0.3 0.9 -0.6
v -0.0999999 0.9 -0.6
v -0.0999999 1 -0.6
v 0.1 1 -0.6
v 0.1 1.1 -0.6
v 0.3 1.1 -0.6
v 0.4 1.1 -0.6
v 0.4 1.2 -0.6
v 0.5 1.2 -0.6
v 0.5 1.3 -0.6
v 0.6 1.3 -0.6
v 0.6 1.4 -0.6
v 0.6 1.5 -0.6
v -0.6 0.9 0.6
v -0.6 1.1 0.6
v -0.6 1.2 0.6
v -0.6 1.4 0.6
v -0.6 1.5 0.6
v -0.5 1.1 0.6
v -0.5 1.2 0.6
v -0.5 1.3 0.6
v -0.4 0.9 0.6
v -0.4 1.1 0.6
v -0.4 1.2 0.6
v -0.4 1.3 0.6
v -0.3 1.1 0.6
v -0.3 1.2 0.6
v -0.0999999 0.9 0.6
v 0.2 0.9 0.6
v 0.4 0.9 0.6
v 0.6 0.9 0.6
v 0.6 1.4 0.6
v 0.6 1.5 0.6
v 0.5 1 -0.1
v 0.5 1.1 -0.1
v 0.6 1 -0.1
v 0.6 1.1 -0.1
v 0.4 1 -0.2
v 0.4 1.1 -0.2
v 0.5 1 -0.2
v 0.5 1.1 -0.2
v -1.2 1.5 -0.6
v -1.2 1.6 -0.6
v -1.1 1.5 -0.6
v -1.1 1.6 -0.6
v -0.7 1.5 -0.6
v -0.6 1.5 -0.6
v -0.6 1.6 -0.6
v 0.6 1.5 -0.6
v 0.6 1.6 -0.6
v 0.7 1.5 -0.6
v 1.1 1.5 -0.6
v 1.1 1.6 -0.6
v 1.2 1.5 -0.6
v 1.2 1.6 -0.6
v -0.7 0 -0.7
v -0.7 1.5 -0.7
v -0.6 0.1 -0.7
v -0.6 1.4 -0.7
v 0.6 0.1 -0.7
v 0.6 1.4 -0.7
v 0.7 0 -0.7
v 0.7 1.5 -0.7
v -0.7 0 0.7
v 0.7 0 0.7
v -0.6 0 0.6
v 0.6 0 0.6
v -0.6 0 -0.6
v 0.6 0 -0.6
v -0.7 0 -0.7
v 0.7 0 -0.7
v -1.2 1.5 0.6
v -1.1 1.5 0.6
v -0.7 1.5 0.6
v 0.7 1.5 0.6
v 1.1 1.5 0.6
v 1.2 1.5 0.6
v -1.2 1.5 -0.6
v -1.1 1.5 -0.6
v -0.7 1.5 -0.6
v 0.7 1.5 -0.6
v 1.1 1.5 -0.6
v 1.2 1.5 -0.6
v -0.6 0.9 0.6
v -0.4 0.9 0.6
v -0.0999999 0.9 0.6
v 0.2 0.9 0.6
v 0.4 0.9 0.6
v 0.6 0.9 0.6
v -0.5 0.9 0.5
v -0.4 0.9 0.5
v -0.0999999 0.9 0.5
v 0.1 0.9 0.5
v 0.2 0.9 0.5
v 0.4 0.9 0.5
v -0.6 0.9 0.4
v -0.5 0.9 0.4
v -0.4 0.9 0.4
v -0.3 0.9 0.4
v -0.2 0.9 0.4
v -0.0999999 0.9 0.4
v 1.19209e-07 0.9 0.4
v 0.1 0.9 0.4
v 0.4 0.9 0.4
v -0.6 0.9 0.3
v -0.5 0.9 0.3
v -0.3 0.9 0.3
v -0.2 0.9 0.3
v 0.3 0.9 0.3
v 0.4 0.9 0.3
v 0.6 0.9 0.3
v -0.5 0.9 0.2
v -0.4 0.9 0.2
v -0.2 0.9 0.2
v -0.0999999 0.9 0.2
v 1.19209e-07 0.9 0.2
v 0.1 0.9 0.2
v 0.2 0.9 0.2
v 0.3 0.9 0.2
v -0.5 0.9 0.1
v -0.4 0.9 0.1
v -0.3 0.9 0.1
v -0.2 0.9 0.1
v -0.0999999 0.9 0.1
v 1.19209e-07 0.9 0.1
v 0.1 0.9 0.1
v 0.2 0.9 0.1
v 0.3 0.9 0.1
v 0.4 0.9 0.1
v -0.5 0.9 0
v -0.4 0.9 0
v -0.3 0.9 0
v -0.2 0.9 0
v -0.0999999 0.9 0
v 1.19209e-07 0.9 0
v 0.1 0.9 0
v -0.6 0.9 -0.1
v -0.5 0.9 -0.1
v -0.4 0.9 -0.1
v -0.3 0.9 -0.1
v -0.2 0.9 -0.1
v -0.0999999 0.9 -0.1
v 1.19209e-07 0.9 -0.1
v 0.1 0.9 -0.1
v 0.2 0.9 -0.1
v 0.3 0.9 -0.1
v -0.5 0.9 -0.2
v -0.4 0.9 -0.2
v -0.3 0.9 -0.2
v 0.1 0.9 -0.2
v 0.2 0.9 -0.2
v 0.3 0.9 -0.2
v -0.6 0.9 -0.3
v -0.4 0.9 -0.3
v -0.3 0.9 -0.3
v 1.19209e-07 0.9 -0.3
v 0.2 0.9 -0.3
v -0.5 0.9 -0.4
v -0.4 0.9 -0.4
v -0.3 0.9 -0.4
v 1.19209e-07 0.9 -0.4
v 0.2 0.9 -0.4
v -0.6 0.9 -0.5
v -0.5 0.9 -0.5
v -0.4 0.9 -0.5
v -0.3 0.9 -0.5
v -0.0999999 0.9 -0.5
v 1.19209e-07 0.9 -0.5
v -0.6 0.9 -0.6
v -0.4 0.9 -0.6
v -0.3 0.9 -0.6
v -0.0999999 0.9 -0.6
v 0.4 1 0.3
v 0.6 1 0.3
v 0.3 1 0.1
v 0.4 1 0.1
v 0.5 1 0.1
v 0.6 1 0.1
v 0.4 1 0
v 0.5 1 0
v 0.3 1 -0.1
v 0.4 1 -0.1
v 0.5 1 -0.1
v 0.6 1 -0.1
v 0.2 1 -0.2
v 0.3 1 -0.2
v 0.4 1 -0.2
v 0.5 1 -0.2
v 0.6 1 -0.2
v 0.2 1 -0.3
v 0.3 1 -0.3
v 0.4 1 -0.3
v 0.5 1 -0.3
v 1.19209e-07 1 -0.4
v 0.2 1 -0.4
v -0.0999999 1 -0.5
v 1.19209e-07 1 -0.5
v 0.1 1 -0.5
v 0.2 1 -0.5
v -0.0999999 1 -0.6
v 0.1 1 -0.6
v 0.5 1.1 0.1
v 0.6 1.1 0.1
v 0.4 1.1 0
v 0.5 1.1 0
v 0.4 1.1 -0.1
v 0.5 1.1 -0.1
v 0.6 1.1 -0.1
v 0.4 1.1 -0.2
v 0.5 1.1 -0.2
v 0.6 1.1 -0.2
v 0.2 1.1 -0.3
v 0.3 1.1 -0.3
v 0.4 1.1 -0.3
v 0.5 1.1 -0.3
v 0.6 1.1 -0.3
v 0.2 1.1 -0.4
v 0.3 1.1 -0.4
v 0.4 1.1 -0.4
v 0.5 1.1 -0.4
v 0.1 1.1 -0.5
v 0.2 1.1 -0.5
v 0.3 1.1 -0.5
v 0.4 1.1 -0.5
v 0.5 1.1 -0.5
v 0.1 1.1 -0.6
v 0.3 1.1 -0.6
v 0.4 1.1 -0.6
v 0.5 1.2 -0.3
v 0.6 1.2 -0.3
v 0.5 1.2 -0.4
v 0.6 1.2 -0.4
v 0.4 1.2 -0.5
v 0.5 1.2 -0.5
v 0.4 1.2 -0.6
v 0.5 1.2 -0.6
v 0.5 1.3 -0.4
v 0.6 1.3 -0.4
v 0.5 1.3 -0.6
v 0.6 1.3 -0.6
v -0.7 1.5 0.7
v 0.7 1.5 0.7
v -0.7 1.5 0.6
v -0.6 1.5 0.6
v 0.6 1.5 0.6
v 0.7 1.5 0.6
v -0.7 1.5 -0.6
v -0.6 1.5 -0.6
v 0.6 1.5 -0.6
v 0.7 1.5 -0.6
v -0.7 1.5 -0.7
v 0.7 1.5 -0.7
v -1.2 1.6 0.6
v -1.1 1.6 0.6
v -0.6 1.6 0.6
v 0.6 1.6 0.6
v 1.1 1.6 0.6
v 1.2 1.6 0.6
v -1.2 1.6 -0.6
v -1.1 1.6 -0.6
v -0.6 1.6 -0.6
v 0.6 1.6 -0.6
v 1.1 1.6 -0.6
v 1.2 1.6 -0.6

# faces
f 3/2/1 2/2/1 1/2/1
f 4/2/1 2/2/1 3/2/1
f 7/2/1 6/2/1 5/2/1
f 8/2/1 6/2/1 7/2/1
f 9/1/1 8/1/1 7/1/1
f 10/1/1 8/1/1 9/1/1
f 11/1/1 9/1/1 7/1/1
f 11/9/1 10/9/1 9/9/1
f 12/1/1 8/1/1 10/1/1
f 12/9/1 10/9/1 11/9/1
f 13/2/1 7/2/1 5/2/1
f 13/1/1 11/1/1 7/1/1
f 13/1/1 12/1/1 11/1/1
f 14/1/1 8/1/1 12/1/1
f 14/1/1 12/1/1 13/1/1
f 14/2/1 6/2/1 8/2/1
f 15/2/1 13/2/1 5/2/1
f 15/2/1 14/2/1 13/2/1
f 16/2/1 14/2/1 15/2/1
f 17/2/1 6/2/1 14/2/1
f 17/2/1 14/2/1 16/2/1
f 18/2/1 6/2/1 17/2/1
f 21/4/1 20/4/1 19/4/1
f 22/4/1 20/4/1 21/4/1
f 25/4/1 24/4/1 23/4/1
f 26/4/1 24/4/1 25/4/1
f 29/4/1 28/4/1 27/4/1
f 30/4/1 28/4/1 29/4/1
f 34/3/1 32/3/1 31/3/1
f 34/3/1 33/3/1 32/3/1
f 35/3/1 33/3/1 34/3/1
f 36/3/1 33/3/1 35/3/1
f 38/4/1 36/4/1 35/4/1
f 39/6/1 37/6/1 36/6/1
f 39/4/1 36/4/1 38/4/1
f 40/6/1 37/6/1 39/6/1
f 44/4/1 42/4/1 41/4/1
f 45/3/1 43/3/1 42/3/1
f 45/4/1 42/4/1 44/4/1
f 46/3/1 43/3/1 45/3/1
f 49/4/1 48/4/1 47/4/1
f 50/4/1 48/4/1 49/4/1
f 54/6/1 52/6/1 51/6/1
f 55/3/1 53/3/1 52/3/1
f 55/6/1 52/6/1 54/6/1
f 56/3/1 53/3/1 55/3/1
f 59/4/1 58/4/1 57/4/1
f 60/4/1 58/4/1 59/4/1
f 65/4/1 62/4/1 61/4/1
f 66/4/1 62/4/1 65/4/1
f 67/4/1 64/4/1 63/4/1
f 68/4/1 64/4/1 67/4/1
f 71/6/1 70/6/1 69/6/1
f 71/6/1 69/6/1 68/6/1
f 72/6/1 70/6/1 71/6/1
f 73/6/1 70/6/1 72/6/1
f 75/4/1 74/4/1 73/4/1
f 75/4/1 73/4/1 72/4/1
f 76/4/1 74/4/1 75/4/1
f 79/1/1 78/1/1 77/1/1
f 83/1/1 80/1/1 79/1/1
f 84/1/1 82/1/1 81/1/1
f 85/1/1 82/1/1 84/1/1
f 87/1/1 84/1/1 83/1/1
f 87/1/1 86/1/1 85/1/1
f 87/1/1 85/1/1 84/1/1
f 89/1/1 88/1/1 87/1/1
f 91/1/1 79/1/1 77/1/1
f 91/1/1 90/1/1 89/1/1
f 91/1/1 89/1/1 87/1/1
f 91/1/1 87/1/1 83/1/1
f 91/1/1 83/1/1 79/1/1
f 92/1/1 90/1/1 91/1/1
f 93/2/1 92/2/1 91/2/1
f 94/2/1 92/2/1 93/2/1
f 95/1/1 94/1/1 93/1/1
f 96/1/1 94/1/1 95/1/1
f 97/1/2 98/1/2 104/1/2
f 102/1/2 103/1/2 104/1/2
f 101/1/2 102/1/2 104/1/2
f 100/1/2 101/1/2 104/1/2
f 99/1/2 100/1/2 104/1/2
f 98/1/2 99/1/2 104/1/2
f 104/1/2 103/1/2 105/1/2
f 105/1/2 103/1/2 106/1/2
f 106/1/2 103/1/2 107/1/2
f 106/2/2 107/2/2 108/2/2
f 108/2/2 107/2/2 109/2/2
f 108/1/2 109/1/2 110/1/2
f 110/1/2 109/1/2 111/1/2
f 112/3/2 113/3/2 114/3/2
f 114/3/2 113/3/2 115/3/2
f 116/2/2 117/2/2 118/2/2
f 118/2/2 117/2/2 119/2/2
f 118/1/2 119/1/2 120/1/2
f 120/1/2 119/1/2 121/1/2
f 121/1/2 119/1/2 122/1/2
f 122/1/2 119/1/2 123/1/2
f 121/9/2 122/9/2 124/9/2
f 122/10/2 123/10/2 125/10/2
f 124/9/2 122/9/2 125/9/2
f 123/1/2 119/1/2 126/1/2
f 125/10/2 123/10/2 126/10/2
f 118/1/2 120/1/2 127/1/2
f 120/10/2 121/10/2 127/10/2
f 121/9/2 124/9/2 128/9/2
f 127/10/2 121/10/2 128/10/2
f 124/10/2 125/10/2 129/10/2
f 128/9/2 124/9/2 129/9/2
f 125/9/2 126/9/2 130/9/2
f 129/10/2 125/10/2 130/10/2
f 126/1/2 119/1/2 131/1/2
f 130/9/2 126/9/2 131/9/2
f 116/2/2 118/2/2 132/2/2
f 129/1/2 130/1/2 132/1/2
f 130/1/2 131/1/2 132/1/2
f 118/1/2 127/1/2 132/1/2
f 127/1/2 128/1/2 132/1/2
f 128/1/2 129/1/2 132/1/2
f 131/1/2 119/1/2 133/1/2
f 132/1/2 131/1/2 133/1/2
f 119/2/2 117/2/2 133/2/2
f 116/2/2 132/2/2 134/2/2
f 132/2/2 133/2/2 134/2/2
f 134/2/2 133/2/2 135/2/2
f 133/2/2 117/2/2 136/2/2
f 135/2/2 133/2/2 136/2/2
f 136/2/2 117/2/2 137/2/2
f 138/2/2 139/2/2 140/2/2
f 140/2/2 139/2/2 141/2/2
f 144/2/3 143/2/3 142/2/3
f 145/2/3 143/2/3 144/2/3
f 146/2/3 143/2/3 145/2/3
f 147/2/3 143/2/3 146/2/3
f 148/1/3 145/1/3 144/1/3
f 148/8/3 146/8/3 145/8/3
f 149/1/3 147/1/3 146/1/3
f 149/8/3 146/8/3 148/8/3
f 150/1/3 147/1/3 149/1/3
f 151/1/3 148/1/3 144/1/3
f 151/1/3 149/1/3 148/1/3
f 152/8/3 150/8/3 149/8/3
f 152/1/3 149/1/3 151/1/3
f 153/1/3 147/1/3 150/1/3
f 153/8/3 150/8/3 152/8/3
f 154/8/3 152/8/3 151/8/3
f 154/1/3 151/1/3 144/1/3
f 155/1/3 153/1/3 152/1/3
f 155/8/3 152/8/3 154/8/3
f 156/2/3 144/2/3 142/2/3
f 156/1/3 154/1/3 144/1/3
f 156/1/3 155/1/3 154/1/3
f 157/1/3 153/1/3 155/1/3
f 157/1/3 155/1/3 156/1/3
f 157/2/3 143/2/3 147/2/3
f 157/1/3 147/1/3 153/1/3
f 158/2/3 156/2/3 142/2/3
f 158/2/3 157/2/3 156/2/3
f 159/2/3 143/2/3 157/2/3
f 159/2/3 157/2/3 158/2/3
f 162/2/3 161/2/3 160/2/3
f 163/2/3 161/2/3 162/2/3
f 164/1/3 163/1/3 162/1/3
f 165/1/3 163/1/3 164/1/3
f 166/1/3 163/1/3 165/1/3
f 169/1/3 168/1/3 167/1/3
f 170/1/3 168/1/3 169/1/3
f 171/1/3 168/1/3 170/1/3
f 172/2/3 171/2/3 170/2/3
f 173/2/3 171/2/3 172/2/3
f 176/4/3 175/4/3 174/4/3
f 177/4/3 175/4/3 176/4/3
f 180/4/3 179/4/3 178/4/3
f 181/4/3 179/4/3 180/4/3
f 184/4/3 183/4/3 182/4/3
f 185/4/3 183/4/3 184/4/3
f 188/6/3 187/6/3 186/6/3
f 189/6/3 187/6/3 188/6/3
f 192/3/3 191/3/3 190/3/3
f 193/3/3 191/3/3 192/3/3
f 196/4/3 195/4/3 194/4/3
f 197/4/3 195/4/3 196/4/3
f 200/4/3 199/4/3 198/4/3
f 201/4/3 199/4/3 200/4/3
f 202/3/3 201/3/3 200/3/3
f 203/3/3 201/3/3 202/3/3
f 204/4/3 203/4/3 202/4/3
f 205/4/3 203/4/3 204/4/3
f 207/6/3 206/6/3 205/6/3
f 208/6/3 206/6/3 207/6/3
f 211/4/3 210/4/3 209/4/3
f 212/4/3 210/4/3 211/4/3
f 215/4/3 214/4/3 213/4/3
f 216/4/3 214/4/3 215/4/3
f 219/4/3 218/4/3 217/4/3
f 220/4/3 218/4/3 219/4/3
f 223/4/3 222/4/3 221/4/3
f 224/4/3 222/4/3 223/4/3
f 227/4/3 226/4/3 225/4/3
f 228/4/3 226/4/3 227/4/3
f 232/1/3 230/1/3 229/1/3
f 233/1/3 230/1/3 232/1/3
f 234/1/3 230/1/3 233/1/3
f 235/1/3 230/1/3 234/1/3
f 236/1/3 230/1/3 235/1/3
f 237/1/3 230/1/3 236/1/3
f 238/1/3 230/1/3 237/1/3
f 239/1/3 230/1/3 238/1/3
f 240/1/3 230/1/3 239/1/3
f 241/1/3 230/1/3 240/1/3
f 242/1/3 230/1/3 241/1/3
f 243/1/3 230/1/3 242/1/3
f 244/2/3 231/2/3 230/2/3
f 244/1/3 230/1/3 243/1/3
f 245/2/3 231/2/3 244/2/3
f 246/1/4 247/1/4 251/1/4
f 247/8/4 248/8/4 251/8/4
f 248/1/4 249/1/4 252/1/4
f 251/8/4 248/8/4 252/8/4
f 252/1/4 249/1/4 253/1/4
f 246/1/4 251/1/4 254/1/4
f 251/1/4 252/1/4 254/1/4
f 254/1/4 252/1/4 255/1/4
f 252/8/4 253/8/4 256/8/4
f 255/1/4 252/1/4 256/1/4
f 253/1/4 249/1/4 257/1/4
f 256/8/4 253/8/4 257/8/4
f 255/8/4 256/8/4 258/8/4
f 254/1/4 255/1/4 258/1/4
f 256/1/4 257/1/4 259/1/4
f 258/8/4 256/8/4 259/8/4
f 254/1/4 258/1/4 260/1/4
f 258/1/4 259/1/4 260/1/4
f 260/1/4 259/1/4 261/1/4
f 261/1/4 259/1/4 262/1/4
f 262/1/4 259/1/4 263/1/4
f 249/2/4 250/2/4 264/2/4
f 263/1/4 259/1/4 264/1/4
f 257/1/4 249/1/4 264/1/4
f 259/1/4 257/1/4 264/1/4
f 264/2/4 250/2/4 265/2/4
f 266/4/4 267/4/4 268/4/4
f 268/4/4 267/4/4 269/4/4
f 270/3/4 271/3/4 272/3/4
f 272/3/4 271/3/4 273/3/4
f 274/2/4 275/2/4 276/2/4
f 276/2/4 275/2/4 277/2/4
f 276/1/4 277/1/4 278/1/4
f 278/1/4 277/1/4 279/1/4
f 279/1/4 277/1/4 280/1/4
f 281/1/4 282/1/4 283/1/4
f 283/1/4 282/1/4 284/1/4
f 284/1/4 282/1/4 285/1/4
f 284/2/4 285/2/4 286/2/4
f 286/2/4 285/2/4 287/2/4
f 288/2/4 289/2/4 290/2/4
f 290/2/4 289/2/4 291/2/4
f 288/2/4 290/2/4 292/2/4
f 290/1/4 291/1/4 292/1/4
f 291/2/4 289/2/4 293/2/4
f 292/1/4 291/1/4 293/1/4
f 288/2/4 292/2/4 294/2/4
f 292/2/4 293/2/4 294/2/4
f 293/2/4 289/2/4 295/2/4
f 294/2/4 293/2/4 295/2/4
f 298/2/5 297/2/5 296/2/5
f 299/2/5 297/2/5 298/2/5
f 300/2/5 298/2/5 296/2/5
f 300/1/5 299/1/5 298/1/5
f 301/2/5 297/2/5 299/2/5
f 301/1/5 299/1/5 300/1/5
f 302/2/5 300/2/5 296/2/5
f 302/2/5 301/2/5 300/2/5
f 303/2/5 297/2/5 301/2/5
f 303/2/5 301/2/5 302/2/5
f 310/2/5 305/2/5 304/2/5
f 311/1/5 306/1/5 305/1/5
f 311/2/5 305/2/5 310/2/5
f 312/1/5 306/1/5 311/1/5
f 313/1/5 308/1/5 307/1/5
f 314/2/5 309/2/5 308/2/5
f 314/1/5 308/1/5 313/1/5
f 315/2/5 309/2/5 314/2/5
f 316/4/6 317/4/6 322/4/6
f 317/3/6 318/3/6 323/3/6
f 322/4/6 317/4/6 323/4/6
f 318/4/6 319/4/6 324/4/6
f 323/3/6 318/3/6 324/3/6
f 324/4/6 319/4/6 325/4/6
f 319/3/6 320/3/6 326/3/6
f 325/4/6 319/4/6 326/4/6
f 320/4/6 321/4/6 327/4/6
f 326/3/6 320/3/6 327/3/6
f 316/4/6 322/4/6 328/4/6
f 322/3/6 323/3/6 329/3/6
f 328/4/6 322/4/6 329/4/6
f 323/5/6 324/5/6 330/5/6
f 329/3/6 323/3/6 330/3/6
f 330/5/6 324/5/6 331/5/6
f 331/5/6 324/5/6 332/5/6
f 324/3/6 325/3/6 333/3/6
f 332/5/6 324/5/6 333/5/6
f 333/3/6 325/3/6 334/3/6
f 325/4/6 326/4/6 335/4/6
f 334/3/6 325/3/6 335/3/6
f 326/4/6 327/4/6 335/4/6
f 327/4/6 321/4/6 336/4/6
f 335/4/6 327/4/6 336/4/6
f 328/5/6 329/5/6 337/5/6
f 329/5/6 330/5/6 337/5/6
f 330/5/6 331/5/6 337/5/6
f 337/5/6 331/5/6 338/5/6
f 331/3/6 332/3/6 339/3/6
f 338/5/6 331/5/6 339/5/6
f 333/5/6 334/5/6 340/5/6
f 339/3/6 332/3/6 340/3/6
f 332/5/6 333/5/6 340/5/6
f 335/5/6 336/5/6 341/5/6
f 336/4/6 321/4/6 342/4/6
f 341/5/6 336/5/6 342/5/6
f 342/4/6 321/4/6 343/4/6
f 338/5/6 339/5/6 344/5/6
f 337/4/6 338/4/6 344/4/6
f 339/5/6 340/5/6 344/5/6
f 344/5/6 340/5/6 345/5/6
f 340/5/6 334/5/6 346/5/6
f 345/5/6 340/5/6 346/5/6
f 346/5/6 334/5/6 347/5/6
f 334/4/6 335/4/6 348/4/6
f 347/5/6 334/5/6 348/5/6
f 335/5/6 341/5/6 349/5/6
f 348/4/6 335/4/6 349/4/6
f 349/5/6 341/5/6 350/5/6
f 341/4/6 342/4/6 351/4/6
f 350/5/6 341/5/6 351/5/6
f 344/3/6 345/3/6 352/3/6
f 337/4/6 344/4/6 352/4/6
f 345/5/6 346/5/6 353/5/6
f 352/3/6 345/3/6 353/3/6
f 353/5/6 346/5/6 354/5/6
f 346/3/6 347/3/6 355/3/6
f 354/5/6 346/5/6 355/5/6
f 347/5/6 348/5/6 356/5/6
f 355/3/6 347/3/6 356/3/6
f 348/5/6 349/5/6 356/5/6
f 356/5/6 349/5/6 357/5/6
f 349/3/6 350/3/6 358/3/6
f 357/5/6 349/5/6 358/5/6
f 350/4/6 351/4/6 359/4/6
f 358/3/6 350/3/6 359/3/6
f 351/4/6 342/4/6 360/4/6
f 359/4/6 351/4/6 360/4/6
f 360/4/6 342/4/6 361/4/6
f 337/4/6 352/4/6 362/4/6
f 352/4/6 353/4/6 362/4/6
f 353/3/6 354/3/6 363/3/6
f 362/4/6 353/4/6 363/4/6
f 354/7/6 355/7/6 364/7/6
f 363/3/6 354/3/6 364/3/6
f 356/5/6 357/5/6 365/5/6
f 364/7/6 355/7/6 365/7/6
f 355/5/6 356/5/6 365/5/6
f 365/5/6 357/5/6 366/5/6
f 357/3/6 358/3/6 367/3/6
f 366/5/6 357/5/6 367/5/6
f 358/4/6 359/4/6 368/4/6
f 367/3/6 358/3/6 368/3/6
f 337/4/6 362/4/6 369/4/6
f 363/7/6 364/7/6 370/7/6
f 369/4/6 362/4/6 370/4/6
f 362/7/6 363/7/6 370/7/6
f 370/7/6 364/7/6 371/7/6
f 364/3/6 365/3/6 372/3/6
f 371/7/6 364/7/6 372/7/6
f 365/5/6 366/5/6 373/5/6
f 372/3/6 365/3/6 373/3/6
f 366/3/6 367/3/6 374/3/6
f 373/5/6 366/5/6 374/5/6
f 367/4/6 368/4/6 375/4/6
f 374/3/6 367/3/6 375/3/6
f 368/4/6 359/4/6 376/4/6
f 375/4/6 368/4/6 376/4/6
f 359/5/6 360/5/6 377/5/6
f 376/4/6 359/4/6 377/4/6
f 377/5/6 360/5/6 378/5/6
f 370/7/6 371/7/6 379/7/6
f 369/3/6 370/3/6 379/3/6
f 374/3/6 375/3/6 380/3/6
f 379/7/6 371/7/6 380/7/6
f 373/3/6 374/3/6 380/3/6
f 372/3/6 373/3/6 380/3/6
f 371/3/6 372/3/6 380/3/6
f 375/3/6 376/3/6 380/3/6
f 380/3/6 376/3/6 381/3/6
f 376/6/6 377/6/6 382/6/6
f 381/3/6 376/3/6 382/3/6
f 377/6/6 378/6/6 382/6/6
f 382/6/6 378/6/6 383/6/6
f 383/6/6 378/6/6 384/6/6
f 369/3/6 379/3/6 385/3/6
f 379/3/6 380/3/6 385/3/6
f 380/4/6 381/4/6 386/4/6
f 385/3/6 380/3/6 386/3/6
f 382/3/6 383/3/6 387/3/6
f 386/4/6 381/4/6 387/4/6
f 381/3/6 382/3/6 387/3/6
f 387/3/6 383/3/6 388/3/6
f 388/3/6 383/3/6 389/3/6
f 385/4/6 386/4/6 390/4/6
f 386/6/6 387/6/6 391/6/6
f 390/4/6 386/4/6 391/4/6
f 387/3/6 388/3/6 392/3/6
f 391/6/6 387/6/6 392/6/6
f 388/6/6 389/6/6 393/6/6
f 392/3/6 388/3/6 393/3/6
f 393/6/6 389/6/6 394/6/6
f 385/4/6 390/4/6 395/4/6
f 390/6/6 391/6/6 396/6/6
f 395/4/6 390/4/6 396/4/6
f 391/6/6 392/6/6 396/6/6
f 392/6/6 393/6/6 396/6/6
f 396/6/6 393/6/6 397/6/6
f 397/6/6 393/6/6 398/6/6
f 398/6/6 393/6/6 399/6/6
f 399/6/6 393/6/6 400/6/6
f 395/6/6 396/6/6 401/6/6
f 396/6/6 397/6/6 401/6/6
f 397/3/6 398/3/6 402/3/6
f 401/6/6 397/6/6 402/6/6
f 398/6/6 399/6/6 403/6/6
f 402/3/6 398/3/6 403/3/6
f 403/6/6 399/6/6 404/6/6
f 405/4/6 406/4/6 408/4/6
f 408/4/6 406/4/6 409/4/6
f 409/4/6 406/4/6 410/4/6
f 407/4/6 408/4/6 411/4/6
f 408/4/6 409/4/6 411/4/6
f 411/4/6 409/4/6 412/4/6
f 407/4/6 411/4/6 413/4/6
f 413/4/6 411/4/6 414/4/6
f 413/3/6 414/3/6 418/3/6
f 418/3/6 414/3/6 419/3/6
f 415/4/6 416/4/6 420/4/6
f 420/4/6 416/4/6 421/4/6
f 418/3/6 419/3/6 422/3/6
f 417/3/6 418/3/6 422/3/6
f 422/3/6 419/3/6 423/3/6
f 419/4/6 420/4/6 424/4/6
f 423/3/6 419/3/6 424/3/6
f 424/4/6 420/4/6 425/4/6
f 426/4/6 427/4/6 429/4/6
f 429/4/6 427/4/6 430/4/6
f 430/4/6 427/4/6 431/4/6
f 428/4/6 429/4/6 432/4/6
f 429/4/6 430/4/6 432/4/6
f 432/4/6 430/4/6 433/4/6
f 434/4/6 435/4/6 437/4/6
f 436/6/6 437/6/6 438/6/6
f 437/4/6 435/4/6 439/4/6
f 438/6/6 437/6/6 439/6/6
f 439/4/6 435/4/6 440/4/6
f 438/3/6 439/3/6 441/3/6
f 441/3/6 439/3/6 442/3/6
f 442/4/6 443/4/6 447/4/6
f 447/4/6 443/4/6 448/4/6
f 444/4/6 445/4/6 449/4/6
f 445/3/6 446/3/6 450/3/6
f 449/4/6 445/4/6 450/4/6
f 446/4/6 447/4/6 451/4/6
f 450/3/6 446/3/6 451/3/6
f 451/4/6 447/4/6 452/4/6
f 449/6/6 450/6/6 454/6/6
f 450/4/6 451/4/6 455/4/6
f 454/6/6 450/6/6 455/6/6
f 451/3/6 452/3/6 456/3/6
f 455/4/6 451/4/6 456/4/6
f 456/3/6 452/3/6 457/3/6
f 453/4/6 454/4/6 458/4/6
f 454/4/6 455/4/6 458/4/6
f 455/6/6 456/6/6 459/6/6
f 458/4/6 455/4/6 459/4/6
f 459/6/6 456/6/6 460/6/6
f 461/6/6 462/6/6 463/6/6
f 463/6/6 462/6/6 464/6/6
f 465/4/6 466/4/6 467/4/6
f 467/4/6 466/4/6 468/4/6
f 469/4/6 470/4/6 471/4/6
f 471/4/6 470/4/6 472/4/6
f 473/2/6 474/2/6 475/2/6
f 475/2/6 474/2/6 476/2/6
f 476/2/6 474/2/6 477/2/6
f 477/2/6 474/2/6 478/2/6
f 479/2/6 480/2/6 483/2/6
f 481/2/6 482/2/6 483/2/6
f 480/2/6 481/2/6 483/2/6
f 483/2/6 482/2/6 484/2/6
f 485/2/6 486/2/6 491/2/6
f 486/1/6 487/1/6 492/1/6
f 491/2/6 486/2/6 492/2/6
f 492/1/6 487/1/6 493/1/6
f 488/1/6 489/1/6 494/1/6
f 489/2/6 490/2/6 495/2/6
f 494/1/6 489/1/6 495/1/6
f 495/2/6 490/2/6 496/2/6
